; NON-PLATED HOLES START AT T1
; THROUGH (PLATED) HOLES START AT T100
M48
INCH
T100C0.035000
T101C0.038000
%
T100
X025229Y006732
X032729Y006732
X010729Y004732
X035729Y004732
X032729Y002732
X003729Y008732
X033729Y006732
X003729Y004732
X014229Y001732
X017729Y008732
X006729Y006732
X010729Y008732
X014229Y006732
X005229Y002732
X006729Y002732
X025229Y001732
X033729Y002732
X017729Y004732
X005229Y006732
X028729Y004732
X021729Y008732
X028729Y008732
X035729Y008732
X021729Y004732
T101
X037229Y004732
X003229Y002732
X016229Y004732
X009229Y004732
X019229Y002732
X016229Y007732
X023229Y007732
X002229Y006732
X030229Y006732
X009229Y006732
X018229Y002732
X009229Y007732
X021229Y002732
X022229Y002732
X037229Y006732
X023229Y005732
X016229Y006732
X002229Y004732
X030229Y007732
X002229Y005732
X002229Y002732
X016229Y005732
X037229Y005732
X009229Y005732
X030229Y004732
X020229Y002732
X002229Y007732
X023229Y004732
X017229Y002732
X023229Y006732
X037229Y007732
X030229Y005732
T00
M30
