G04 MADE WITH FRITZING*
G04 WWW.FRITZING.ORG*
G04 SINGLE SIDED*
G04 HOLES NOT PLATED*
G04 CONTOUR ON CENTER OF CONTOUR VECTOR*
%ASAXBY*%
%FSLAX23Y23*%
%MOIN*%
%OFA0B0*%
%SFA1.0B1.0*%
%ADD10R,3.937010X0.984252X3.921010X0.968252*%
%ADD11C,0.008000*%
%ADD12C,0.010000*%
%ADD13C,0.005000*%
%ADD14R,0.001000X0.001000*%
%LNSILK1*%
G90*
G70*
G54D11*
X4Y980D02*
X3933Y980D01*
X3933Y4D01*
X4Y4D01*
X4Y980D01*
D02*
G54D12*
X3673Y823D02*
X3673Y423D01*
D02*
X3673Y423D02*
X3773Y423D01*
D02*
X3773Y423D02*
X3773Y823D01*
D02*
X3773Y823D02*
X3673Y823D01*
G54D13*
D02*
X3673Y788D02*
X3708Y823D01*
G54D12*
D02*
X2973Y823D02*
X2973Y423D01*
D02*
X2973Y423D02*
X3073Y423D01*
D02*
X3073Y423D02*
X3073Y823D01*
D02*
X3073Y823D02*
X2973Y823D01*
G54D13*
D02*
X2973Y788D02*
X3008Y823D01*
G54D12*
D02*
X2273Y823D02*
X2273Y423D01*
D02*
X2273Y423D02*
X2373Y423D01*
D02*
X2373Y423D02*
X2373Y823D01*
D02*
X2373Y823D02*
X2273Y823D01*
G54D13*
D02*
X2273Y788D02*
X2308Y823D01*
G54D12*
D02*
X1573Y823D02*
X1573Y423D01*
D02*
X1573Y423D02*
X1673Y423D01*
D02*
X1673Y423D02*
X1673Y823D01*
D02*
X1673Y823D02*
X1573Y823D01*
G54D13*
D02*
X1573Y788D02*
X1608Y823D01*
G54D12*
D02*
X873Y823D02*
X873Y423D01*
D02*
X873Y423D02*
X973Y423D01*
D02*
X973Y423D02*
X973Y823D01*
D02*
X973Y823D02*
X873Y823D01*
G54D13*
D02*
X873Y788D02*
X908Y823D01*
G54D12*
D02*
X173Y823D02*
X173Y423D01*
D02*
X173Y423D02*
X273Y423D01*
D02*
X273Y423D02*
X273Y823D01*
D02*
X273Y823D02*
X173Y823D01*
G54D13*
D02*
X173Y788D02*
X208Y823D01*
G54D12*
D02*
X3373Y311D02*
X3373Y383D01*
D02*
X3373Y583D02*
X3373Y636D01*
D02*
X3340Y383D02*
X3340Y583D01*
D02*
X3340Y583D02*
X3406Y583D01*
D02*
X3406Y583D02*
X3406Y383D01*
D02*
X3406Y383D02*
X3340Y383D01*
D02*
X3273Y311D02*
X3273Y383D01*
D02*
X3273Y583D02*
X3273Y636D01*
D02*
X3240Y383D02*
X3240Y583D01*
D02*
X3240Y583D02*
X3306Y583D01*
D02*
X3306Y583D02*
X3306Y383D01*
D02*
X3306Y383D02*
X3240Y383D01*
D02*
X2523Y211D02*
X2523Y298D01*
D02*
X2523Y548D02*
X2523Y636D01*
D02*
X2482Y298D02*
X2482Y548D01*
D02*
X2482Y548D02*
X2564Y548D01*
D02*
X2564Y548D02*
X2564Y298D01*
D02*
X2564Y298D02*
X2482Y298D01*
D02*
X3573Y511D02*
X3573Y583D01*
D02*
X3573Y783D02*
X3573Y836D01*
D02*
X3540Y583D02*
X3540Y783D01*
D02*
X3540Y783D02*
X3606Y783D01*
D02*
X3606Y783D02*
X3606Y583D01*
D02*
X3606Y583D02*
X3540Y583D01*
D02*
X2873Y511D02*
X2873Y583D01*
D02*
X2873Y783D02*
X2873Y836D01*
D02*
X2840Y583D02*
X2840Y783D01*
D02*
X2840Y783D02*
X2906Y783D01*
D02*
X2906Y783D02*
X2906Y583D01*
D02*
X2906Y583D02*
X2840Y583D01*
D02*
X2173Y511D02*
X2173Y583D01*
D02*
X2173Y783D02*
X2173Y836D01*
D02*
X2140Y583D02*
X2140Y783D01*
D02*
X2140Y783D02*
X2206Y783D01*
D02*
X2206Y783D02*
X2206Y583D01*
D02*
X2206Y583D02*
X2140Y583D01*
D02*
X1773Y511D02*
X1773Y583D01*
D02*
X1773Y783D02*
X1773Y836D01*
D02*
X1740Y583D02*
X1740Y783D01*
D02*
X1740Y783D02*
X1806Y783D01*
D02*
X1806Y783D02*
X1806Y583D01*
D02*
X1806Y583D02*
X1740Y583D01*
D02*
X1073Y511D02*
X1073Y583D01*
D02*
X1073Y783D02*
X1073Y836D01*
D02*
X1040Y583D02*
X1040Y783D01*
D02*
X1040Y783D02*
X1106Y783D01*
D02*
X1106Y783D02*
X1106Y583D01*
D02*
X1106Y583D02*
X1040Y583D01*
D02*
X373Y511D02*
X373Y583D01*
D02*
X373Y783D02*
X373Y836D01*
D02*
X340Y583D02*
X340Y783D01*
D02*
X340Y783D02*
X406Y783D01*
D02*
X406Y783D02*
X406Y583D01*
D02*
X406Y583D02*
X340Y583D01*
D02*
X1423Y211D02*
X1423Y298D01*
D02*
X1423Y548D02*
X1423Y636D01*
D02*
X1382Y298D02*
X1382Y548D01*
D02*
X1382Y548D02*
X1464Y548D01*
D02*
X1464Y548D02*
X1464Y298D01*
D02*
X1464Y298D02*
X1382Y298D01*
D02*
X673Y311D02*
X673Y383D01*
D02*
X673Y583D02*
X673Y636D01*
D02*
X640Y383D02*
X640Y583D01*
D02*
X640Y583D02*
X706Y583D01*
D02*
X706Y583D02*
X706Y383D01*
D02*
X706Y383D02*
X640Y383D01*
D02*
X523Y311D02*
X523Y383D01*
D02*
X523Y583D02*
X523Y636D01*
D02*
X490Y383D02*
X490Y583D01*
D02*
X490Y583D02*
X556Y583D01*
D02*
X556Y583D02*
X556Y383D01*
D02*
X556Y383D02*
X490Y383D01*
D02*
X1673Y223D02*
X2273Y223D01*
D02*
X2273Y223D02*
X2273Y323D01*
D02*
X2273Y323D02*
X1673Y323D01*
D02*
X1673Y323D02*
X1673Y223D01*
G54D13*
D02*
X1708Y223D02*
X1673Y258D01*
G54D12*
D02*
X173Y223D02*
X373Y223D01*
D02*
X373Y223D02*
X373Y323D01*
D02*
X373Y323D02*
X173Y323D01*
D02*
X173Y323D02*
X173Y223D01*
G54D13*
D02*
X208Y223D02*
X173Y258D01*
G54D14*
X327Y923D02*
X329Y923D01*
X353Y923D02*
X370Y923D01*
X1027Y923D02*
X1029Y923D01*
X1053Y923D02*
X1079Y923D01*
X1727Y923D02*
X1729Y923D01*
X1753Y923D02*
X1779Y923D01*
X2427Y923D02*
X2429Y923D01*
X2455Y923D02*
X2456Y923D01*
X3127Y923D02*
X3129Y923D01*
X3158Y923D02*
X3182Y923D01*
X3827Y923D02*
X3829Y923D01*
X3853Y923D02*
X3858Y923D01*
X326Y922D02*
X330Y922D01*
X352Y922D02*
X371Y922D01*
X1026Y922D02*
X1030Y922D01*
X1052Y922D02*
X1081Y922D01*
X1726Y922D02*
X1730Y922D01*
X1752Y922D02*
X1781Y922D01*
X2426Y922D02*
X2430Y922D01*
X2453Y922D02*
X2458Y922D01*
X3126Y922D02*
X3130Y922D01*
X3158Y922D02*
X3184Y922D01*
X3826Y922D02*
X3830Y922D01*
X3852Y922D02*
X3859Y922D01*
X325Y921D02*
X331Y921D01*
X351Y921D02*
X371Y921D01*
X1025Y921D02*
X1031Y921D01*
X1051Y921D02*
X1082Y921D01*
X1725Y921D02*
X1731Y921D01*
X1751Y921D02*
X1782Y921D01*
X2425Y921D02*
X2431Y921D01*
X2453Y921D02*
X2458Y921D01*
X3125Y921D02*
X3131Y921D01*
X3158Y921D02*
X3184Y921D01*
X3825Y921D02*
X3831Y921D01*
X3851Y921D02*
X3860Y921D01*
X325Y920D02*
X331Y920D01*
X351Y920D02*
X371Y920D01*
X1025Y920D02*
X1031Y920D01*
X1051Y920D02*
X1083Y920D01*
X1725Y920D02*
X1731Y920D01*
X1751Y920D02*
X1783Y920D01*
X2425Y920D02*
X2431Y920D01*
X2452Y920D02*
X2458Y920D01*
X3125Y920D02*
X3131Y920D01*
X3158Y920D02*
X3184Y920D01*
X3825Y920D02*
X3831Y920D01*
X3851Y920D02*
X3860Y920D01*
X325Y919D02*
X331Y919D01*
X351Y919D02*
X371Y919D01*
X1025Y919D02*
X1031Y919D01*
X1051Y919D02*
X1084Y919D01*
X1725Y919D02*
X1731Y919D01*
X1751Y919D02*
X1784Y919D01*
X2425Y919D02*
X2431Y919D01*
X2452Y919D02*
X2458Y919D01*
X3125Y919D02*
X3131Y919D01*
X3158Y919D02*
X3184Y919D01*
X3825Y919D02*
X3831Y919D01*
X3851Y919D02*
X3860Y919D01*
X325Y918D02*
X331Y918D01*
X351Y918D02*
X371Y918D01*
X1025Y918D02*
X1031Y918D01*
X1051Y918D02*
X1084Y918D01*
X1725Y918D02*
X1731Y918D01*
X1751Y918D02*
X1784Y918D01*
X2425Y918D02*
X2431Y918D01*
X2452Y918D02*
X2458Y918D01*
X3125Y918D02*
X3131Y918D01*
X3158Y918D02*
X3184Y918D01*
X3825Y918D02*
X3831Y918D01*
X3851Y918D02*
X3860Y918D01*
X325Y917D02*
X331Y917D01*
X352Y917D02*
X371Y917D01*
X1025Y917D02*
X1031Y917D01*
X1052Y917D02*
X1084Y917D01*
X1725Y917D02*
X1731Y917D01*
X1752Y917D02*
X1784Y917D01*
X2425Y917D02*
X2431Y917D01*
X2452Y917D02*
X2458Y917D01*
X2475Y917D02*
X2477Y917D01*
X3125Y917D02*
X3131Y917D01*
X3158Y917D02*
X3183Y917D01*
X3825Y917D02*
X3831Y917D01*
X3851Y917D02*
X3859Y917D01*
X325Y916D02*
X331Y916D01*
X364Y916D02*
X371Y916D01*
X1025Y916D02*
X1031Y916D01*
X1078Y916D02*
X1084Y916D01*
X1725Y916D02*
X1731Y916D01*
X1778Y916D02*
X1784Y916D01*
X2425Y916D02*
X2431Y916D01*
X2452Y916D02*
X2458Y916D01*
X2474Y916D02*
X2478Y916D01*
X3125Y916D02*
X3131Y916D01*
X3158Y916D02*
X3164Y916D01*
X3825Y916D02*
X3831Y916D01*
X3851Y916D02*
X3857Y916D01*
X325Y915D02*
X331Y915D01*
X365Y915D02*
X371Y915D01*
X1025Y915D02*
X1031Y915D01*
X1078Y915D02*
X1084Y915D01*
X1725Y915D02*
X1731Y915D01*
X1778Y915D02*
X1784Y915D01*
X2425Y915D02*
X2431Y915D01*
X2452Y915D02*
X2458Y915D01*
X2473Y915D02*
X2479Y915D01*
X3125Y915D02*
X3131Y915D01*
X3158Y915D02*
X3164Y915D01*
X3825Y915D02*
X3831Y915D01*
X3851Y915D02*
X3857Y915D01*
X325Y914D02*
X331Y914D01*
X365Y914D02*
X371Y914D01*
X1025Y914D02*
X1031Y914D01*
X1078Y914D02*
X1084Y914D01*
X1725Y914D02*
X1731Y914D01*
X1778Y914D02*
X1784Y914D01*
X2425Y914D02*
X2431Y914D01*
X2452Y914D02*
X2458Y914D01*
X2473Y914D02*
X2479Y914D01*
X3125Y914D02*
X3131Y914D01*
X3158Y914D02*
X3164Y914D01*
X3825Y914D02*
X3831Y914D01*
X3851Y914D02*
X3857Y914D01*
X325Y913D02*
X331Y913D01*
X365Y913D02*
X371Y913D01*
X1025Y913D02*
X1031Y913D01*
X1078Y913D02*
X1084Y913D01*
X1725Y913D02*
X1731Y913D01*
X1778Y913D02*
X1784Y913D01*
X2425Y913D02*
X2431Y913D01*
X2452Y913D02*
X2458Y913D01*
X2473Y913D02*
X2479Y913D01*
X3125Y913D02*
X3131Y913D01*
X3158Y913D02*
X3164Y913D01*
X3825Y913D02*
X3831Y913D01*
X3851Y913D02*
X3857Y913D01*
X325Y912D02*
X331Y912D01*
X365Y912D02*
X371Y912D01*
X1025Y912D02*
X1031Y912D01*
X1078Y912D02*
X1084Y912D01*
X1725Y912D02*
X1731Y912D01*
X1778Y912D02*
X1784Y912D01*
X2425Y912D02*
X2431Y912D01*
X2452Y912D02*
X2458Y912D01*
X2473Y912D02*
X2479Y912D01*
X3125Y912D02*
X3131Y912D01*
X3158Y912D02*
X3164Y912D01*
X3825Y912D02*
X3831Y912D01*
X3851Y912D02*
X3857Y912D01*
X325Y911D02*
X331Y911D01*
X365Y911D02*
X371Y911D01*
X1025Y911D02*
X1031Y911D01*
X1078Y911D02*
X1084Y911D01*
X1725Y911D02*
X1731Y911D01*
X1778Y911D02*
X1784Y911D01*
X2425Y911D02*
X2431Y911D01*
X2452Y911D02*
X2458Y911D01*
X2473Y911D02*
X2479Y911D01*
X3125Y911D02*
X3131Y911D01*
X3158Y911D02*
X3164Y911D01*
X3825Y911D02*
X3831Y911D01*
X3851Y911D02*
X3857Y911D01*
X325Y910D02*
X331Y910D01*
X365Y910D02*
X371Y910D01*
X1025Y910D02*
X1031Y910D01*
X1078Y910D02*
X1084Y910D01*
X1725Y910D02*
X1731Y910D01*
X1778Y910D02*
X1784Y910D01*
X2425Y910D02*
X2431Y910D01*
X2452Y910D02*
X2458Y910D01*
X2473Y910D02*
X2479Y910D01*
X3125Y910D02*
X3131Y910D01*
X3158Y910D02*
X3164Y910D01*
X3825Y910D02*
X3831Y910D01*
X3851Y910D02*
X3857Y910D01*
X325Y909D02*
X331Y909D01*
X365Y909D02*
X371Y909D01*
X1025Y909D02*
X1031Y909D01*
X1078Y909D02*
X1084Y909D01*
X1725Y909D02*
X1731Y909D01*
X1778Y909D02*
X1784Y909D01*
X2425Y909D02*
X2431Y909D01*
X2452Y909D02*
X2458Y909D01*
X2473Y909D02*
X2479Y909D01*
X3125Y909D02*
X3131Y909D01*
X3158Y909D02*
X3164Y909D01*
X3825Y909D02*
X3831Y909D01*
X3851Y909D02*
X3857Y909D01*
X325Y908D02*
X331Y908D01*
X365Y908D02*
X371Y908D01*
X1025Y908D02*
X1031Y908D01*
X1078Y908D02*
X1084Y908D01*
X1725Y908D02*
X1731Y908D01*
X1778Y908D02*
X1784Y908D01*
X2425Y908D02*
X2431Y908D01*
X2452Y908D02*
X2458Y908D01*
X2473Y908D02*
X2479Y908D01*
X3125Y908D02*
X3131Y908D01*
X3158Y908D02*
X3164Y908D01*
X3825Y908D02*
X3831Y908D01*
X3851Y908D02*
X3857Y908D01*
X325Y907D02*
X331Y907D01*
X365Y907D02*
X371Y907D01*
X1025Y907D02*
X1031Y907D01*
X1078Y907D02*
X1084Y907D01*
X1725Y907D02*
X1731Y907D01*
X1778Y907D02*
X1784Y907D01*
X2425Y907D02*
X2431Y907D01*
X2452Y907D02*
X2458Y907D01*
X2473Y907D02*
X2479Y907D01*
X3125Y907D02*
X3131Y907D01*
X3158Y907D02*
X3164Y907D01*
X3825Y907D02*
X3831Y907D01*
X3851Y907D02*
X3857Y907D01*
X325Y906D02*
X331Y906D01*
X365Y906D02*
X371Y906D01*
X1025Y906D02*
X1031Y906D01*
X1078Y906D02*
X1084Y906D01*
X1725Y906D02*
X1731Y906D01*
X1778Y906D02*
X1784Y906D01*
X2425Y906D02*
X2431Y906D01*
X2452Y906D02*
X2458Y906D01*
X2473Y906D02*
X2479Y906D01*
X3125Y906D02*
X3131Y906D01*
X3158Y906D02*
X3164Y906D01*
X3825Y906D02*
X3831Y906D01*
X3851Y906D02*
X3857Y906D01*
X325Y905D02*
X331Y905D01*
X365Y905D02*
X371Y905D01*
X1025Y905D02*
X1031Y905D01*
X1078Y905D02*
X1084Y905D01*
X1725Y905D02*
X1731Y905D01*
X1778Y905D02*
X1784Y905D01*
X2425Y905D02*
X2431Y905D01*
X2452Y905D02*
X2458Y905D01*
X2473Y905D02*
X2479Y905D01*
X3125Y905D02*
X3131Y905D01*
X3158Y905D02*
X3164Y905D01*
X3825Y905D02*
X3831Y905D01*
X3851Y905D02*
X3857Y905D01*
X325Y904D02*
X331Y904D01*
X365Y904D02*
X371Y904D01*
X1025Y904D02*
X1031Y904D01*
X1078Y904D02*
X1084Y904D01*
X1725Y904D02*
X1731Y904D01*
X1778Y904D02*
X1784Y904D01*
X2425Y904D02*
X2431Y904D01*
X2452Y904D02*
X2458Y904D01*
X2473Y904D02*
X2479Y904D01*
X3125Y904D02*
X3131Y904D01*
X3158Y904D02*
X3164Y904D01*
X3825Y904D02*
X3831Y904D01*
X3851Y904D02*
X3857Y904D01*
X325Y903D02*
X331Y903D01*
X365Y903D02*
X371Y903D01*
X1025Y903D02*
X1031Y903D01*
X1078Y903D02*
X1084Y903D01*
X1725Y903D02*
X1731Y903D01*
X1778Y903D02*
X1784Y903D01*
X2425Y903D02*
X2431Y903D01*
X2452Y903D02*
X2458Y903D01*
X2473Y903D02*
X2479Y903D01*
X3125Y903D02*
X3131Y903D01*
X3158Y903D02*
X3164Y903D01*
X3825Y903D02*
X3831Y903D01*
X3851Y903D02*
X3857Y903D01*
X325Y902D02*
X331Y902D01*
X365Y902D02*
X371Y902D01*
X1025Y902D02*
X1031Y902D01*
X1078Y902D02*
X1084Y902D01*
X1725Y902D02*
X1731Y902D01*
X1778Y902D02*
X1784Y902D01*
X2425Y902D02*
X2431Y902D01*
X2452Y902D02*
X2458Y902D01*
X2473Y902D02*
X2479Y902D01*
X3125Y902D02*
X3131Y902D01*
X3158Y902D02*
X3164Y902D01*
X3825Y902D02*
X3831Y902D01*
X3851Y902D02*
X3857Y902D01*
X325Y901D02*
X331Y901D01*
X365Y901D02*
X371Y901D01*
X1025Y901D02*
X1031Y901D01*
X1078Y901D02*
X1084Y901D01*
X1725Y901D02*
X1731Y901D01*
X1777Y901D02*
X1784Y901D01*
X2425Y901D02*
X2431Y901D01*
X2452Y901D02*
X2458Y901D01*
X2473Y901D02*
X2479Y901D01*
X3125Y901D02*
X3131Y901D01*
X3158Y901D02*
X3164Y901D01*
X3825Y901D02*
X3831Y901D01*
X3851Y901D02*
X3857Y901D01*
X325Y900D02*
X331Y900D01*
X365Y900D02*
X371Y900D01*
X1025Y900D02*
X1031Y900D01*
X1078Y900D02*
X1084Y900D01*
X1725Y900D02*
X1731Y900D01*
X1776Y900D02*
X1784Y900D01*
X2425Y900D02*
X2431Y900D01*
X2452Y900D02*
X2458Y900D01*
X2473Y900D02*
X2479Y900D01*
X3125Y900D02*
X3131Y900D01*
X3158Y900D02*
X3164Y900D01*
X3825Y900D02*
X3831Y900D01*
X3851Y900D02*
X3857Y900D01*
X325Y899D02*
X331Y899D01*
X365Y899D02*
X371Y899D01*
X1025Y899D02*
X1031Y899D01*
X1055Y899D02*
X1084Y899D01*
X1725Y899D02*
X1731Y899D01*
X1759Y899D02*
X1783Y899D01*
X2425Y899D02*
X2431Y899D01*
X2452Y899D02*
X2458Y899D01*
X2473Y899D02*
X2479Y899D01*
X3125Y899D02*
X3131Y899D01*
X3158Y899D02*
X3180Y899D01*
X3825Y899D02*
X3831Y899D01*
X3851Y899D02*
X3857Y899D01*
X325Y898D02*
X331Y898D01*
X365Y898D02*
X371Y898D01*
X1025Y898D02*
X1031Y898D01*
X1053Y898D02*
X1084Y898D01*
X1725Y898D02*
X1731Y898D01*
X1758Y898D02*
X1783Y898D01*
X2425Y898D02*
X2431Y898D01*
X2452Y898D02*
X2458Y898D01*
X2473Y898D02*
X2479Y898D01*
X3125Y898D02*
X3131Y898D01*
X3158Y898D02*
X3182Y898D01*
X3825Y898D02*
X3831Y898D01*
X3851Y898D02*
X3857Y898D01*
X325Y897D02*
X331Y897D01*
X365Y897D02*
X371Y897D01*
X1025Y897D02*
X1031Y897D01*
X1052Y897D02*
X1084Y897D01*
X1725Y897D02*
X1731Y897D01*
X1758Y897D02*
X1782Y897D01*
X2425Y897D02*
X2431Y897D01*
X2452Y897D02*
X2458Y897D01*
X2473Y897D02*
X2479Y897D01*
X3125Y897D02*
X3131Y897D01*
X3158Y897D02*
X3183Y897D01*
X3825Y897D02*
X3831Y897D01*
X3851Y897D02*
X3857Y897D01*
X325Y896D02*
X331Y896D01*
X365Y896D02*
X371Y896D01*
X1025Y896D02*
X1031Y896D01*
X1052Y896D02*
X1083Y896D01*
X1725Y896D02*
X1731Y896D01*
X1758Y896D02*
X1782Y896D01*
X2425Y896D02*
X2431Y896D01*
X2452Y896D02*
X2458Y896D01*
X2473Y896D02*
X2479Y896D01*
X3125Y896D02*
X3131Y896D01*
X3158Y896D02*
X3183Y896D01*
X3825Y896D02*
X3831Y896D01*
X3851Y896D02*
X3857Y896D01*
X325Y895D02*
X331Y895D01*
X365Y895D02*
X371Y895D01*
X1025Y895D02*
X1031Y895D01*
X1051Y895D02*
X1082Y895D01*
X1725Y895D02*
X1731Y895D01*
X1758Y895D02*
X1783Y895D01*
X2425Y895D02*
X2431Y895D01*
X2452Y895D02*
X2458Y895D01*
X2473Y895D02*
X2479Y895D01*
X3125Y895D02*
X3131Y895D01*
X3158Y895D02*
X3184Y895D01*
X3825Y895D02*
X3831Y895D01*
X3851Y895D02*
X3857Y895D01*
X325Y894D02*
X331Y894D01*
X365Y894D02*
X371Y894D01*
X1025Y894D02*
X1031Y894D01*
X1051Y894D02*
X1081Y894D01*
X1725Y894D02*
X1731Y894D01*
X1759Y894D02*
X1783Y894D01*
X2425Y894D02*
X2431Y894D01*
X2452Y894D02*
X2459Y894D01*
X2473Y894D02*
X2479Y894D01*
X3125Y894D02*
X3131Y894D01*
X3158Y894D02*
X3184Y894D01*
X3825Y894D02*
X3831Y894D01*
X3851Y894D02*
X3857Y894D01*
X305Y893D02*
X309Y893D01*
X325Y893D02*
X331Y893D01*
X365Y893D02*
X371Y893D01*
X380Y893D02*
X383Y893D01*
X1005Y893D02*
X1009Y893D01*
X1025Y893D02*
X1031Y893D01*
X1051Y893D02*
X1079Y893D01*
X1705Y893D02*
X1709Y893D01*
X1725Y893D02*
X1731Y893D01*
X1760Y893D02*
X1784Y893D01*
X2405Y893D02*
X2409Y893D01*
X2425Y893D02*
X2431Y893D01*
X2452Y893D02*
X2481Y893D01*
X3105Y893D02*
X3109Y893D01*
X3125Y893D02*
X3131Y893D01*
X3158Y893D02*
X3184Y893D01*
X3805Y893D02*
X3809Y893D01*
X3825Y893D02*
X3831Y893D01*
X3851Y893D02*
X3883Y893D01*
X305Y892D02*
X310Y892D01*
X325Y892D02*
X331Y892D01*
X365Y892D02*
X371Y892D01*
X379Y892D02*
X384Y892D01*
X1005Y892D02*
X1010Y892D01*
X1025Y892D02*
X1031Y892D01*
X1051Y892D02*
X1057Y892D01*
X1705Y892D02*
X1710Y892D01*
X1725Y892D02*
X1731Y892D01*
X1777Y892D02*
X1784Y892D01*
X2405Y892D02*
X2410Y892D01*
X2425Y892D02*
X2431Y892D01*
X2452Y892D02*
X2482Y892D01*
X3105Y892D02*
X3110Y892D01*
X3125Y892D02*
X3131Y892D01*
X3178Y892D02*
X3184Y892D01*
X3805Y892D02*
X3810Y892D01*
X3825Y892D02*
X3831Y892D01*
X3851Y892D02*
X3884Y892D01*
X304Y891D02*
X310Y891D01*
X325Y891D02*
X331Y891D01*
X365Y891D02*
X371Y891D01*
X378Y891D02*
X384Y891D01*
X1004Y891D02*
X1010Y891D01*
X1025Y891D02*
X1031Y891D01*
X1051Y891D02*
X1057Y891D01*
X1704Y891D02*
X1710Y891D01*
X1725Y891D02*
X1731Y891D01*
X1778Y891D02*
X1784Y891D01*
X2404Y891D02*
X2410Y891D01*
X2425Y891D02*
X2431Y891D01*
X2452Y891D02*
X2482Y891D01*
X3104Y891D02*
X3110Y891D01*
X3125Y891D02*
X3131Y891D01*
X3178Y891D02*
X3184Y891D01*
X3804Y891D02*
X3810Y891D01*
X3825Y891D02*
X3831Y891D01*
X3851Y891D02*
X3884Y891D01*
X304Y890D02*
X310Y890D01*
X325Y890D02*
X331Y890D01*
X365Y890D02*
X371Y890D01*
X378Y890D02*
X384Y890D01*
X1004Y890D02*
X1010Y890D01*
X1025Y890D02*
X1031Y890D01*
X1051Y890D02*
X1057Y890D01*
X1704Y890D02*
X1710Y890D01*
X1725Y890D02*
X1731Y890D01*
X1778Y890D02*
X1784Y890D01*
X2404Y890D02*
X2410Y890D01*
X2425Y890D02*
X2431Y890D01*
X2452Y890D02*
X2483Y890D01*
X3104Y890D02*
X3110Y890D01*
X3125Y890D02*
X3131Y890D01*
X3178Y890D02*
X3184Y890D01*
X3804Y890D02*
X3810Y890D01*
X3825Y890D02*
X3831Y890D01*
X3851Y890D02*
X3884Y890D01*
X304Y889D02*
X310Y889D01*
X325Y889D02*
X331Y889D01*
X365Y889D02*
X371Y889D01*
X378Y889D02*
X384Y889D01*
X1004Y889D02*
X1010Y889D01*
X1025Y889D02*
X1031Y889D01*
X1051Y889D02*
X1057Y889D01*
X1704Y889D02*
X1710Y889D01*
X1725Y889D02*
X1731Y889D01*
X1778Y889D02*
X1784Y889D01*
X2404Y889D02*
X2410Y889D01*
X2425Y889D02*
X2431Y889D01*
X2452Y889D02*
X2482Y889D01*
X3104Y889D02*
X3110Y889D01*
X3125Y889D02*
X3131Y889D01*
X3178Y889D02*
X3184Y889D01*
X3804Y889D02*
X3810Y889D01*
X3825Y889D02*
X3831Y889D01*
X3851Y889D02*
X3884Y889D01*
X304Y888D02*
X310Y888D01*
X325Y888D02*
X331Y888D01*
X365Y888D02*
X371Y888D01*
X378Y888D02*
X384Y888D01*
X1004Y888D02*
X1010Y888D01*
X1025Y888D02*
X1031Y888D01*
X1051Y888D02*
X1057Y888D01*
X1704Y888D02*
X1710Y888D01*
X1725Y888D02*
X1731Y888D01*
X1778Y888D02*
X1784Y888D01*
X2404Y888D02*
X2410Y888D01*
X2425Y888D02*
X2431Y888D01*
X2452Y888D02*
X2482Y888D01*
X3104Y888D02*
X3110Y888D01*
X3125Y888D02*
X3131Y888D01*
X3178Y888D02*
X3184Y888D01*
X3804Y888D02*
X3810Y888D01*
X3825Y888D02*
X3831Y888D01*
X3851Y888D02*
X3884Y888D01*
X304Y887D02*
X310Y887D01*
X325Y887D02*
X331Y887D01*
X365Y887D02*
X371Y887D01*
X378Y887D02*
X384Y887D01*
X1004Y887D02*
X1010Y887D01*
X1025Y887D02*
X1031Y887D01*
X1051Y887D02*
X1057Y887D01*
X1704Y887D02*
X1710Y887D01*
X1725Y887D02*
X1731Y887D01*
X1778Y887D02*
X1784Y887D01*
X2404Y887D02*
X2410Y887D01*
X2425Y887D02*
X2431Y887D01*
X2453Y887D02*
X2480Y887D01*
X3104Y887D02*
X3110Y887D01*
X3125Y887D02*
X3131Y887D01*
X3178Y887D02*
X3184Y887D01*
X3804Y887D02*
X3810Y887D01*
X3825Y887D02*
X3831Y887D01*
X3851Y887D02*
X3884Y887D01*
X304Y886D02*
X310Y886D01*
X325Y886D02*
X331Y886D01*
X365Y886D02*
X371Y886D01*
X378Y886D02*
X384Y886D01*
X1004Y886D02*
X1010Y886D01*
X1025Y886D02*
X1031Y886D01*
X1051Y886D02*
X1057Y886D01*
X1704Y886D02*
X1710Y886D01*
X1725Y886D02*
X1731Y886D01*
X1778Y886D02*
X1784Y886D01*
X2404Y886D02*
X2410Y886D01*
X2425Y886D02*
X2431Y886D01*
X2473Y886D02*
X2479Y886D01*
X3104Y886D02*
X3110Y886D01*
X3125Y886D02*
X3131Y886D01*
X3178Y886D02*
X3184Y886D01*
X3804Y886D02*
X3810Y886D01*
X3825Y886D02*
X3831Y886D01*
X3851Y886D02*
X3857Y886D01*
X3878Y886D02*
X3884Y886D01*
X304Y885D02*
X310Y885D01*
X325Y885D02*
X331Y885D01*
X365Y885D02*
X371Y885D01*
X378Y885D02*
X384Y885D01*
X1004Y885D02*
X1010Y885D01*
X1025Y885D02*
X1031Y885D01*
X1051Y885D02*
X1057Y885D01*
X1704Y885D02*
X1710Y885D01*
X1725Y885D02*
X1731Y885D01*
X1778Y885D02*
X1784Y885D01*
X2404Y885D02*
X2410Y885D01*
X2425Y885D02*
X2431Y885D01*
X2473Y885D02*
X2479Y885D01*
X3104Y885D02*
X3110Y885D01*
X3125Y885D02*
X3131Y885D01*
X3178Y885D02*
X3184Y885D01*
X3804Y885D02*
X3810Y885D01*
X3825Y885D02*
X3831Y885D01*
X3851Y885D02*
X3857Y885D01*
X3878Y885D02*
X3884Y885D01*
X304Y884D02*
X310Y884D01*
X325Y884D02*
X331Y884D01*
X365Y884D02*
X371Y884D01*
X378Y884D02*
X384Y884D01*
X1004Y884D02*
X1010Y884D01*
X1025Y884D02*
X1031Y884D01*
X1051Y884D02*
X1057Y884D01*
X1704Y884D02*
X1710Y884D01*
X1725Y884D02*
X1731Y884D01*
X1778Y884D02*
X1784Y884D01*
X2404Y884D02*
X2410Y884D01*
X2425Y884D02*
X2431Y884D01*
X2473Y884D02*
X2479Y884D01*
X3104Y884D02*
X3110Y884D01*
X3125Y884D02*
X3131Y884D01*
X3178Y884D02*
X3184Y884D01*
X3804Y884D02*
X3810Y884D01*
X3825Y884D02*
X3831Y884D01*
X3851Y884D02*
X3857Y884D01*
X3878Y884D02*
X3884Y884D01*
X304Y883D02*
X310Y883D01*
X325Y883D02*
X331Y883D01*
X365Y883D02*
X371Y883D01*
X378Y883D02*
X384Y883D01*
X1004Y883D02*
X1010Y883D01*
X1025Y883D02*
X1031Y883D01*
X1051Y883D02*
X1057Y883D01*
X1704Y883D02*
X1710Y883D01*
X1725Y883D02*
X1731Y883D01*
X1778Y883D02*
X1784Y883D01*
X2404Y883D02*
X2410Y883D01*
X2425Y883D02*
X2431Y883D01*
X2473Y883D02*
X2479Y883D01*
X3104Y883D02*
X3110Y883D01*
X3125Y883D02*
X3131Y883D01*
X3178Y883D02*
X3184Y883D01*
X3804Y883D02*
X3810Y883D01*
X3825Y883D02*
X3831Y883D01*
X3851Y883D02*
X3857Y883D01*
X3878Y883D02*
X3884Y883D01*
X304Y882D02*
X310Y882D01*
X325Y882D02*
X331Y882D01*
X365Y882D02*
X371Y882D01*
X378Y882D02*
X384Y882D01*
X1004Y882D02*
X1010Y882D01*
X1025Y882D02*
X1031Y882D01*
X1051Y882D02*
X1057Y882D01*
X1704Y882D02*
X1710Y882D01*
X1725Y882D02*
X1731Y882D01*
X1778Y882D02*
X1784Y882D01*
X2404Y882D02*
X2410Y882D01*
X2425Y882D02*
X2431Y882D01*
X2473Y882D02*
X2479Y882D01*
X3104Y882D02*
X3110Y882D01*
X3125Y882D02*
X3131Y882D01*
X3178Y882D02*
X3184Y882D01*
X3804Y882D02*
X3810Y882D01*
X3825Y882D02*
X3831Y882D01*
X3851Y882D02*
X3857Y882D01*
X3878Y882D02*
X3884Y882D01*
X304Y881D02*
X310Y881D01*
X325Y881D02*
X331Y881D01*
X365Y881D02*
X371Y881D01*
X378Y881D02*
X384Y881D01*
X1004Y881D02*
X1010Y881D01*
X1025Y881D02*
X1031Y881D01*
X1051Y881D02*
X1057Y881D01*
X1704Y881D02*
X1710Y881D01*
X1725Y881D02*
X1731Y881D01*
X1778Y881D02*
X1784Y881D01*
X2404Y881D02*
X2410Y881D01*
X2425Y881D02*
X2431Y881D01*
X2473Y881D02*
X2479Y881D01*
X3104Y881D02*
X3110Y881D01*
X3125Y881D02*
X3131Y881D01*
X3178Y881D02*
X3184Y881D01*
X3804Y881D02*
X3810Y881D01*
X3825Y881D02*
X3831Y881D01*
X3851Y881D02*
X3857Y881D01*
X3878Y881D02*
X3884Y881D01*
X304Y880D02*
X310Y880D01*
X325Y880D02*
X331Y880D01*
X365Y880D02*
X371Y880D01*
X378Y880D02*
X384Y880D01*
X1004Y880D02*
X1010Y880D01*
X1025Y880D02*
X1031Y880D01*
X1051Y880D02*
X1057Y880D01*
X1704Y880D02*
X1710Y880D01*
X1725Y880D02*
X1731Y880D01*
X1778Y880D02*
X1784Y880D01*
X2404Y880D02*
X2410Y880D01*
X2425Y880D02*
X2431Y880D01*
X2473Y880D02*
X2479Y880D01*
X3104Y880D02*
X3110Y880D01*
X3125Y880D02*
X3131Y880D01*
X3178Y880D02*
X3184Y880D01*
X3804Y880D02*
X3810Y880D01*
X3825Y880D02*
X3831Y880D01*
X3851Y880D02*
X3857Y880D01*
X3878Y880D02*
X3884Y880D01*
X304Y879D02*
X310Y879D01*
X325Y879D02*
X331Y879D01*
X365Y879D02*
X371Y879D01*
X378Y879D02*
X384Y879D01*
X1004Y879D02*
X1010Y879D01*
X1025Y879D02*
X1031Y879D01*
X1051Y879D02*
X1057Y879D01*
X1704Y879D02*
X1710Y879D01*
X1725Y879D02*
X1731Y879D01*
X1778Y879D02*
X1784Y879D01*
X2404Y879D02*
X2410Y879D01*
X2425Y879D02*
X2431Y879D01*
X2473Y879D02*
X2479Y879D01*
X3104Y879D02*
X3110Y879D01*
X3125Y879D02*
X3131Y879D01*
X3154Y879D02*
X3154Y879D01*
X3178Y879D02*
X3184Y879D01*
X3804Y879D02*
X3810Y879D01*
X3825Y879D02*
X3831Y879D01*
X3851Y879D02*
X3857Y879D01*
X3878Y879D02*
X3884Y879D01*
X304Y878D02*
X311Y878D01*
X324Y878D02*
X331Y878D01*
X365Y878D02*
X371Y878D01*
X378Y878D02*
X384Y878D01*
X1004Y878D02*
X1011Y878D01*
X1024Y878D02*
X1031Y878D01*
X1051Y878D02*
X1057Y878D01*
X1704Y878D02*
X1711Y878D01*
X1724Y878D02*
X1731Y878D01*
X1778Y878D02*
X1784Y878D01*
X2404Y878D02*
X2411Y878D01*
X2424Y878D02*
X2431Y878D01*
X2473Y878D02*
X2479Y878D01*
X3104Y878D02*
X3111Y878D01*
X3124Y878D02*
X3131Y878D01*
X3152Y878D02*
X3157Y878D01*
X3178Y878D02*
X3184Y878D01*
X3804Y878D02*
X3811Y878D01*
X3824Y878D02*
X3831Y878D01*
X3851Y878D02*
X3857Y878D01*
X3878Y878D02*
X3884Y878D01*
X305Y877D02*
X312Y877D01*
X323Y877D02*
X331Y877D01*
X365Y877D02*
X371Y877D01*
X378Y877D02*
X384Y877D01*
X1005Y877D02*
X1012Y877D01*
X1023Y877D02*
X1031Y877D01*
X1051Y877D02*
X1057Y877D01*
X1705Y877D02*
X1712Y877D01*
X1723Y877D02*
X1730Y877D01*
X1778Y877D02*
X1784Y877D01*
X2405Y877D02*
X2412Y877D01*
X2423Y877D02*
X2430Y877D01*
X2473Y877D02*
X2479Y877D01*
X3105Y877D02*
X3112Y877D01*
X3123Y877D02*
X3130Y877D01*
X3151Y877D02*
X3159Y877D01*
X3178Y877D02*
X3184Y877D01*
X3805Y877D02*
X3812Y877D01*
X3823Y877D02*
X3830Y877D01*
X3851Y877D02*
X3857Y877D01*
X3878Y877D02*
X3884Y877D01*
X305Y876D02*
X330Y876D01*
X353Y876D02*
X384Y876D01*
X1005Y876D02*
X1030Y876D01*
X1051Y876D02*
X1082Y876D01*
X1705Y876D02*
X1730Y876D01*
X1753Y876D02*
X1784Y876D01*
X2405Y876D02*
X2430Y876D01*
X2473Y876D02*
X2479Y876D01*
X3105Y876D02*
X3130Y876D01*
X3151Y876D02*
X3184Y876D01*
X3805Y876D02*
X3830Y876D01*
X3851Y876D02*
X3884Y876D01*
X305Y875D02*
X330Y875D01*
X352Y875D02*
X384Y875D01*
X1005Y875D02*
X1030Y875D01*
X1051Y875D02*
X1083Y875D01*
X1705Y875D02*
X1730Y875D01*
X1752Y875D02*
X1784Y875D01*
X2405Y875D02*
X2430Y875D01*
X2473Y875D02*
X2479Y875D01*
X3105Y875D02*
X3130Y875D01*
X3151Y875D02*
X3184Y875D01*
X3805Y875D02*
X3830Y875D01*
X3851Y875D02*
X3884Y875D01*
X306Y874D02*
X329Y874D01*
X351Y874D02*
X384Y874D01*
X1006Y874D02*
X1029Y874D01*
X1051Y874D02*
X1084Y874D01*
X1706Y874D02*
X1729Y874D01*
X1751Y874D02*
X1784Y874D01*
X2406Y874D02*
X2429Y874D01*
X2473Y874D02*
X2479Y874D01*
X3106Y874D02*
X3129Y874D01*
X3151Y874D02*
X3184Y874D01*
X3806Y874D02*
X3829Y874D01*
X3851Y874D02*
X3884Y874D01*
X307Y873D02*
X328Y873D01*
X351Y873D02*
X384Y873D01*
X1007Y873D02*
X1028Y873D01*
X1051Y873D02*
X1084Y873D01*
X1707Y873D02*
X1728Y873D01*
X1751Y873D02*
X1784Y873D01*
X2407Y873D02*
X2428Y873D01*
X2473Y873D02*
X2479Y873D01*
X3107Y873D02*
X3128Y873D01*
X3152Y873D02*
X3184Y873D01*
X3807Y873D02*
X3828Y873D01*
X3851Y873D02*
X3884Y873D01*
X308Y872D02*
X327Y872D01*
X351Y872D02*
X384Y872D01*
X1008Y872D02*
X1027Y872D01*
X1051Y872D02*
X1084Y872D01*
X1708Y872D02*
X1727Y872D01*
X1751Y872D02*
X1783Y872D01*
X2408Y872D02*
X2427Y872D01*
X2473Y872D02*
X2479Y872D01*
X3108Y872D02*
X3127Y872D01*
X3154Y872D02*
X3183Y872D01*
X3808Y872D02*
X3827Y872D01*
X3851Y872D02*
X3884Y872D01*
X309Y871D02*
X326Y871D01*
X351Y871D02*
X384Y871D01*
X1009Y871D02*
X1026Y871D01*
X1051Y871D02*
X1084Y871D01*
X1709Y871D02*
X1726Y871D01*
X1751Y871D02*
X1782Y871D01*
X2409Y871D02*
X2426Y871D01*
X2474Y871D02*
X2479Y871D01*
X3109Y871D02*
X3126Y871D01*
X3156Y871D02*
X3182Y871D01*
X3809Y871D02*
X3826Y871D01*
X3851Y871D02*
X3884Y871D01*
X311Y870D02*
X324Y870D01*
X352Y870D02*
X383Y870D01*
X1011Y870D02*
X1024Y870D01*
X1051Y870D02*
X1083Y870D01*
X1711Y870D02*
X1724Y870D01*
X1752Y870D02*
X1780Y870D01*
X2411Y870D02*
X2424Y870D01*
X2475Y870D02*
X2478Y870D01*
X3111Y870D02*
X3124Y870D01*
X3158Y870D02*
X3180Y870D01*
X3811Y870D02*
X3824Y870D01*
X3852Y870D02*
X3883Y870D01*
X518Y796D02*
X544Y796D01*
X575Y796D02*
X600Y796D01*
X1218Y796D02*
X1244Y796D01*
X1270Y796D02*
X1276Y796D01*
X1918Y796D02*
X1944Y796D01*
X1970Y796D02*
X2002Y796D01*
X2318Y796D02*
X2344Y796D01*
X2377Y796D02*
X2393Y796D01*
X3018Y796D02*
X3044Y796D01*
X3070Y796D02*
X3100Y796D01*
X3718Y796D02*
X3744Y796D01*
X3770Y796D02*
X3788Y796D01*
X3823Y796D02*
X3847Y796D01*
X518Y795D02*
X546Y795D01*
X575Y795D02*
X601Y795D01*
X1218Y795D02*
X1246Y795D01*
X1269Y795D02*
X1277Y795D01*
X1918Y795D02*
X1946Y795D01*
X1969Y795D02*
X2002Y795D01*
X2318Y795D02*
X2346Y795D01*
X2376Y795D02*
X2394Y795D01*
X3018Y795D02*
X3046Y795D01*
X3069Y795D02*
X3101Y795D01*
X3718Y795D02*
X3746Y795D01*
X3769Y795D02*
X3788Y795D01*
X3821Y795D02*
X3849Y795D01*
X518Y794D02*
X548Y794D01*
X575Y794D02*
X602Y794D01*
X1218Y794D02*
X1248Y794D01*
X1268Y794D02*
X1277Y794D01*
X1918Y794D02*
X1948Y794D01*
X1968Y794D02*
X2002Y794D01*
X2318Y794D02*
X2348Y794D01*
X2375Y794D02*
X2395Y794D01*
X3018Y794D02*
X3048Y794D01*
X3068Y794D02*
X3102Y794D01*
X3718Y794D02*
X3748Y794D01*
X3768Y794D02*
X3788Y794D01*
X3820Y794D02*
X3850Y794D01*
X518Y793D02*
X549Y793D01*
X575Y793D02*
X602Y793D01*
X1218Y793D02*
X1249Y793D01*
X1268Y793D02*
X1278Y793D01*
X1918Y793D02*
X1949Y793D01*
X1968Y793D02*
X2002Y793D01*
X2318Y793D02*
X2349Y793D01*
X2375Y793D02*
X2395Y793D01*
X3018Y793D02*
X3049Y793D01*
X3068Y793D02*
X3102Y793D01*
X3718Y793D02*
X3749Y793D01*
X3768Y793D02*
X3788Y793D01*
X3819Y793D02*
X3851Y793D01*
X518Y792D02*
X550Y792D01*
X575Y792D02*
X602Y792D01*
X1218Y792D02*
X1250Y792D01*
X1268Y792D02*
X1278Y792D01*
X1918Y792D02*
X1950Y792D01*
X1968Y792D02*
X2002Y792D01*
X2318Y792D02*
X2350Y792D01*
X2375Y792D02*
X2395Y792D01*
X3018Y792D02*
X3050Y792D01*
X3068Y792D02*
X3102Y792D01*
X3718Y792D02*
X3750Y792D01*
X3768Y792D02*
X3788Y792D01*
X3819Y792D02*
X3851Y792D01*
X518Y791D02*
X550Y791D01*
X575Y791D02*
X601Y791D01*
X1218Y791D02*
X1250Y791D01*
X1268Y791D02*
X1277Y791D01*
X1918Y791D02*
X1950Y791D01*
X1968Y791D02*
X2002Y791D01*
X2318Y791D02*
X2350Y791D01*
X2375Y791D02*
X2395Y791D01*
X3018Y791D02*
X3050Y791D01*
X3068Y791D02*
X3102Y791D01*
X3718Y791D02*
X3750Y791D01*
X3769Y791D02*
X3788Y791D01*
X3818Y791D02*
X3852Y791D01*
X518Y790D02*
X551Y790D01*
X575Y790D02*
X600Y790D01*
X1218Y790D02*
X1251Y790D01*
X1268Y790D02*
X1276Y790D01*
X1918Y790D02*
X1951Y790D01*
X1968Y790D02*
X2002Y790D01*
X2318Y790D02*
X2351Y790D01*
X2375Y790D02*
X2395Y790D01*
X3018Y790D02*
X3051Y790D01*
X3068Y790D02*
X3102Y790D01*
X3718Y790D02*
X3751Y790D01*
X3770Y790D02*
X3788Y790D01*
X3818Y790D02*
X3852Y790D01*
X518Y789D02*
X524Y789D01*
X544Y789D02*
X551Y789D01*
X575Y789D02*
X581Y789D01*
X1218Y789D02*
X1224Y789D01*
X1244Y789D02*
X1251Y789D01*
X1268Y789D02*
X1274Y789D01*
X1918Y789D02*
X1924Y789D01*
X1944Y789D02*
X1951Y789D01*
X1968Y789D02*
X1974Y789D01*
X1996Y789D02*
X2002Y789D01*
X2318Y789D02*
X2324Y789D01*
X2344Y789D02*
X2351Y789D01*
X2375Y789D02*
X2381Y789D01*
X2389Y789D02*
X2395Y789D01*
X3018Y789D02*
X3024Y789D01*
X3044Y789D02*
X3051Y789D01*
X3068Y789D02*
X3074Y789D01*
X3096Y789D02*
X3102Y789D01*
X3718Y789D02*
X3724Y789D01*
X3744Y789D02*
X3751Y789D01*
X3782Y789D02*
X3788Y789D01*
X3818Y789D02*
X3824Y789D01*
X3846Y789D02*
X3852Y789D01*
X518Y788D02*
X524Y788D01*
X545Y788D02*
X552Y788D01*
X575Y788D02*
X581Y788D01*
X1218Y788D02*
X1224Y788D01*
X1245Y788D02*
X1252Y788D01*
X1268Y788D02*
X1274Y788D01*
X1918Y788D02*
X1924Y788D01*
X1945Y788D02*
X1952Y788D01*
X1969Y788D02*
X1974Y788D01*
X1996Y788D02*
X2002Y788D01*
X2318Y788D02*
X2324Y788D01*
X2345Y788D02*
X2352Y788D01*
X2375Y788D02*
X2381Y788D01*
X2389Y788D02*
X2395Y788D01*
X3018Y788D02*
X3024Y788D01*
X3045Y788D02*
X3052Y788D01*
X3068Y788D02*
X3074Y788D01*
X3096Y788D02*
X3102Y788D01*
X3718Y788D02*
X3724Y788D01*
X3745Y788D02*
X3752Y788D01*
X3782Y788D02*
X3788Y788D01*
X3818Y788D02*
X3824Y788D01*
X3846Y788D02*
X3852Y788D01*
X518Y787D02*
X524Y787D01*
X546Y787D02*
X552Y787D01*
X575Y787D02*
X581Y787D01*
X1218Y787D02*
X1224Y787D01*
X1246Y787D02*
X1252Y787D01*
X1268Y787D02*
X1274Y787D01*
X1918Y787D02*
X1924Y787D01*
X1946Y787D02*
X1952Y787D01*
X1970Y787D02*
X1973Y787D01*
X1996Y787D02*
X2002Y787D01*
X2318Y787D02*
X2324Y787D01*
X2346Y787D02*
X2352Y787D01*
X2375Y787D02*
X2381Y787D01*
X2389Y787D02*
X2395Y787D01*
X3018Y787D02*
X3024Y787D01*
X3046Y787D02*
X3052Y787D01*
X3068Y787D02*
X3074Y787D01*
X3096Y787D02*
X3102Y787D01*
X3718Y787D02*
X3724Y787D01*
X3746Y787D02*
X3752Y787D01*
X3782Y787D02*
X3788Y787D01*
X3818Y787D02*
X3824Y787D01*
X3846Y787D02*
X3852Y787D01*
X518Y786D02*
X524Y786D01*
X546Y786D02*
X552Y786D01*
X575Y786D02*
X581Y786D01*
X1218Y786D02*
X1224Y786D01*
X1246Y786D02*
X1252Y786D01*
X1268Y786D02*
X1274Y786D01*
X1918Y786D02*
X1924Y786D01*
X1946Y786D02*
X1952Y786D01*
X1996Y786D02*
X2002Y786D01*
X2318Y786D02*
X2324Y786D01*
X2346Y786D02*
X2352Y786D01*
X2375Y786D02*
X2381Y786D01*
X2389Y786D02*
X2395Y786D01*
X3018Y786D02*
X3024Y786D01*
X3046Y786D02*
X3052Y786D01*
X3068Y786D02*
X3074Y786D01*
X3096Y786D02*
X3102Y786D01*
X3718Y786D02*
X3724Y786D01*
X3746Y786D02*
X3752Y786D01*
X3782Y786D02*
X3788Y786D01*
X3818Y786D02*
X3824Y786D01*
X3846Y786D02*
X3852Y786D01*
X518Y785D02*
X524Y785D01*
X546Y785D02*
X552Y785D01*
X575Y785D02*
X581Y785D01*
X1218Y785D02*
X1224Y785D01*
X1246Y785D02*
X1252Y785D01*
X1268Y785D02*
X1274Y785D01*
X1918Y785D02*
X1924Y785D01*
X1946Y785D02*
X1952Y785D01*
X1996Y785D02*
X2002Y785D01*
X2318Y785D02*
X2324Y785D01*
X2346Y785D02*
X2352Y785D01*
X2375Y785D02*
X2381Y785D01*
X2389Y785D02*
X2395Y785D01*
X3018Y785D02*
X3024Y785D01*
X3046Y785D02*
X3052Y785D01*
X3068Y785D02*
X3074Y785D01*
X3096Y785D02*
X3102Y785D01*
X3718Y785D02*
X3724Y785D01*
X3746Y785D02*
X3752Y785D01*
X3782Y785D02*
X3788Y785D01*
X3818Y785D02*
X3824Y785D01*
X3846Y785D02*
X3852Y785D01*
X518Y784D02*
X524Y784D01*
X546Y784D02*
X552Y784D01*
X575Y784D02*
X581Y784D01*
X1218Y784D02*
X1224Y784D01*
X1246Y784D02*
X1252Y784D01*
X1268Y784D02*
X1274Y784D01*
X1918Y784D02*
X1924Y784D01*
X1946Y784D02*
X1952Y784D01*
X1996Y784D02*
X2002Y784D01*
X2318Y784D02*
X2324Y784D01*
X2346Y784D02*
X2352Y784D01*
X2375Y784D02*
X2381Y784D01*
X2389Y784D02*
X2395Y784D01*
X3018Y784D02*
X3024Y784D01*
X3046Y784D02*
X3052Y784D01*
X3068Y784D02*
X3074Y784D01*
X3096Y784D02*
X3102Y784D01*
X3718Y784D02*
X3724Y784D01*
X3746Y784D02*
X3752Y784D01*
X3782Y784D02*
X3788Y784D01*
X3818Y784D02*
X3824Y784D01*
X3846Y784D02*
X3852Y784D01*
X518Y783D02*
X524Y783D01*
X546Y783D02*
X552Y783D01*
X575Y783D02*
X581Y783D01*
X1218Y783D02*
X1224Y783D01*
X1246Y783D02*
X1252Y783D01*
X1268Y783D02*
X1274Y783D01*
X1918Y783D02*
X1924Y783D01*
X1946Y783D02*
X1952Y783D01*
X1996Y783D02*
X2002Y783D01*
X2318Y783D02*
X2324Y783D01*
X2346Y783D02*
X2352Y783D01*
X2375Y783D02*
X2381Y783D01*
X2389Y783D02*
X2395Y783D01*
X3018Y783D02*
X3024Y783D01*
X3046Y783D02*
X3052Y783D01*
X3068Y783D02*
X3074Y783D01*
X3096Y783D02*
X3102Y783D01*
X3718Y783D02*
X3724Y783D01*
X3746Y783D02*
X3752Y783D01*
X3782Y783D02*
X3788Y783D01*
X3818Y783D02*
X3824Y783D01*
X3846Y783D02*
X3852Y783D01*
X518Y782D02*
X524Y782D01*
X546Y782D02*
X552Y782D01*
X575Y782D02*
X581Y782D01*
X1218Y782D02*
X1224Y782D01*
X1246Y782D02*
X1252Y782D01*
X1268Y782D02*
X1274Y782D01*
X1918Y782D02*
X1924Y782D01*
X1946Y782D02*
X1952Y782D01*
X1996Y782D02*
X2002Y782D01*
X2318Y782D02*
X2324Y782D01*
X2346Y782D02*
X2352Y782D01*
X2375Y782D02*
X2381Y782D01*
X2389Y782D02*
X2395Y782D01*
X3018Y782D02*
X3024Y782D01*
X3046Y782D02*
X3052Y782D01*
X3068Y782D02*
X3074Y782D01*
X3096Y782D02*
X3102Y782D01*
X3718Y782D02*
X3724Y782D01*
X3746Y782D02*
X3752Y782D01*
X3782Y782D02*
X3788Y782D01*
X3818Y782D02*
X3824Y782D01*
X3846Y782D02*
X3852Y782D01*
X518Y781D02*
X524Y781D01*
X546Y781D02*
X552Y781D01*
X575Y781D02*
X581Y781D01*
X1218Y781D02*
X1224Y781D01*
X1246Y781D02*
X1252Y781D01*
X1268Y781D02*
X1274Y781D01*
X1918Y781D02*
X1924Y781D01*
X1946Y781D02*
X1952Y781D01*
X1996Y781D02*
X2002Y781D01*
X2318Y781D02*
X2324Y781D01*
X2346Y781D02*
X2352Y781D01*
X2375Y781D02*
X2381Y781D01*
X2389Y781D02*
X2395Y781D01*
X3018Y781D02*
X3024Y781D01*
X3046Y781D02*
X3052Y781D01*
X3068Y781D02*
X3074Y781D01*
X3096Y781D02*
X3102Y781D01*
X3718Y781D02*
X3724Y781D01*
X3746Y781D02*
X3752Y781D01*
X3782Y781D02*
X3788Y781D01*
X3818Y781D02*
X3824Y781D01*
X3846Y781D02*
X3852Y781D01*
X518Y780D02*
X524Y780D01*
X545Y780D02*
X552Y780D01*
X575Y780D02*
X581Y780D01*
X1218Y780D02*
X1224Y780D01*
X1245Y780D02*
X1252Y780D01*
X1268Y780D02*
X1274Y780D01*
X1918Y780D02*
X1924Y780D01*
X1945Y780D02*
X1952Y780D01*
X1996Y780D02*
X2002Y780D01*
X2318Y780D02*
X2324Y780D01*
X2345Y780D02*
X2352Y780D01*
X2375Y780D02*
X2381Y780D01*
X2389Y780D02*
X2395Y780D01*
X3018Y780D02*
X3024Y780D01*
X3045Y780D02*
X3052Y780D01*
X3068Y780D02*
X3074Y780D01*
X3096Y780D02*
X3102Y780D01*
X3718Y780D02*
X3724Y780D01*
X3745Y780D02*
X3752Y780D01*
X3782Y780D02*
X3788Y780D01*
X3818Y780D02*
X3824Y780D01*
X3846Y780D02*
X3852Y780D01*
X518Y779D02*
X524Y779D01*
X544Y779D02*
X551Y779D01*
X575Y779D02*
X581Y779D01*
X1218Y779D02*
X1224Y779D01*
X1244Y779D02*
X1251Y779D01*
X1268Y779D02*
X1274Y779D01*
X1918Y779D02*
X1924Y779D01*
X1944Y779D02*
X1951Y779D01*
X1996Y779D02*
X2002Y779D01*
X2318Y779D02*
X2324Y779D01*
X2344Y779D02*
X2351Y779D01*
X2375Y779D02*
X2381Y779D01*
X2389Y779D02*
X2395Y779D01*
X3018Y779D02*
X3024Y779D01*
X3044Y779D02*
X3051Y779D01*
X3068Y779D02*
X3074Y779D01*
X3096Y779D02*
X3102Y779D01*
X3718Y779D02*
X3724Y779D01*
X3744Y779D02*
X3751Y779D01*
X3782Y779D02*
X3788Y779D01*
X3818Y779D02*
X3824Y779D01*
X3846Y779D02*
X3852Y779D01*
X518Y778D02*
X551Y778D01*
X575Y778D02*
X581Y778D01*
X1218Y778D02*
X1251Y778D01*
X1268Y778D02*
X1274Y778D01*
X1918Y778D02*
X1951Y778D01*
X1996Y778D02*
X2002Y778D01*
X2318Y778D02*
X2351Y778D01*
X2375Y778D02*
X2381Y778D01*
X2389Y778D02*
X2395Y778D01*
X3018Y778D02*
X3051Y778D01*
X3068Y778D02*
X3102Y778D01*
X3718Y778D02*
X3751Y778D01*
X3782Y778D02*
X3788Y778D01*
X3818Y778D02*
X3824Y778D01*
X3846Y778D02*
X3852Y778D01*
X518Y777D02*
X550Y777D01*
X575Y777D02*
X581Y777D01*
X1218Y777D02*
X1250Y777D01*
X1268Y777D02*
X1274Y777D01*
X1918Y777D02*
X1950Y777D01*
X1996Y777D02*
X2002Y777D01*
X2318Y777D02*
X2350Y777D01*
X2375Y777D02*
X2381Y777D01*
X2389Y777D02*
X2395Y777D01*
X3018Y777D02*
X3050Y777D01*
X3068Y777D02*
X3102Y777D01*
X3718Y777D02*
X3750Y777D01*
X3782Y777D02*
X3788Y777D01*
X3818Y777D02*
X3824Y777D01*
X3846Y777D02*
X3852Y777D01*
X518Y776D02*
X550Y776D01*
X575Y776D02*
X581Y776D01*
X1218Y776D02*
X1250Y776D01*
X1268Y776D02*
X1274Y776D01*
X1918Y776D02*
X1950Y776D01*
X1995Y776D02*
X2002Y776D01*
X2318Y776D02*
X2350Y776D01*
X2375Y776D02*
X2381Y776D01*
X2389Y776D02*
X2395Y776D01*
X3018Y776D02*
X3050Y776D01*
X3068Y776D02*
X3102Y776D01*
X3718Y776D02*
X3750Y776D01*
X3782Y776D02*
X3788Y776D01*
X3818Y776D02*
X3824Y776D01*
X3846Y776D02*
X3852Y776D01*
X518Y775D02*
X549Y775D01*
X575Y775D02*
X581Y775D01*
X1218Y775D02*
X1249Y775D01*
X1268Y775D02*
X1274Y775D01*
X1918Y775D02*
X1949Y775D01*
X1994Y775D02*
X2002Y775D01*
X2318Y775D02*
X2349Y775D01*
X2375Y775D02*
X2381Y775D01*
X2389Y775D02*
X2395Y775D01*
X3018Y775D02*
X3049Y775D01*
X3068Y775D02*
X3102Y775D01*
X3718Y775D02*
X3749Y775D01*
X3782Y775D02*
X3788Y775D01*
X3818Y775D02*
X3824Y775D01*
X3846Y775D02*
X3852Y775D01*
X518Y774D02*
X548Y774D01*
X575Y774D02*
X581Y774D01*
X1218Y774D02*
X1248Y774D01*
X1268Y774D02*
X1274Y774D01*
X1918Y774D02*
X1948Y774D01*
X1993Y774D02*
X2002Y774D01*
X2318Y774D02*
X2348Y774D01*
X2375Y774D02*
X2381Y774D01*
X2389Y774D02*
X2395Y774D01*
X3018Y774D02*
X3048Y774D01*
X3069Y774D02*
X3102Y774D01*
X3718Y774D02*
X3748Y774D01*
X3782Y774D02*
X3788Y774D01*
X3818Y774D02*
X3824Y774D01*
X3846Y774D02*
X3852Y774D01*
X518Y773D02*
X546Y773D01*
X575Y773D02*
X581Y773D01*
X1218Y773D02*
X1246Y773D01*
X1268Y773D02*
X1274Y773D01*
X1918Y773D02*
X1946Y773D01*
X1991Y773D02*
X2001Y773D01*
X2318Y773D02*
X2346Y773D01*
X2375Y773D02*
X2381Y773D01*
X2389Y773D02*
X2395Y773D01*
X3018Y773D02*
X3046Y773D01*
X3069Y773D02*
X3102Y773D01*
X3718Y773D02*
X3746Y773D01*
X3782Y773D02*
X3788Y773D01*
X3818Y773D02*
X3824Y773D01*
X3846Y773D02*
X3852Y773D01*
X518Y772D02*
X544Y772D01*
X575Y772D02*
X598Y772D01*
X1218Y772D02*
X1244Y772D01*
X1268Y772D02*
X1274Y772D01*
X1918Y772D02*
X1944Y772D01*
X1990Y772D02*
X2000Y772D01*
X2318Y772D02*
X2344Y772D01*
X2372Y772D02*
X2398Y772D01*
X3018Y772D02*
X3044Y772D01*
X3070Y772D02*
X3102Y772D01*
X3718Y772D02*
X3744Y772D01*
X3782Y772D02*
X3788Y772D01*
X3818Y772D02*
X3824Y772D01*
X3846Y772D02*
X3852Y772D01*
X518Y771D02*
X524Y771D01*
X530Y771D02*
X538Y771D01*
X575Y771D02*
X599Y771D01*
X1218Y771D02*
X1224Y771D01*
X1230Y771D02*
X1238Y771D01*
X1268Y771D02*
X1274Y771D01*
X1918Y771D02*
X1924Y771D01*
X1930Y771D02*
X1938Y771D01*
X1989Y771D02*
X1999Y771D01*
X2318Y771D02*
X2324Y771D01*
X2330Y771D02*
X2338Y771D01*
X2371Y771D02*
X2399Y771D01*
X3018Y771D02*
X3024Y771D01*
X3030Y771D02*
X3038Y771D01*
X3096Y771D02*
X3102Y771D01*
X3718Y771D02*
X3724Y771D01*
X3730Y771D02*
X3738Y771D01*
X3782Y771D02*
X3788Y771D01*
X3818Y771D02*
X3824Y771D01*
X3846Y771D02*
X3852Y771D01*
X518Y770D02*
X524Y770D01*
X531Y770D02*
X538Y770D01*
X575Y770D02*
X600Y770D01*
X1218Y770D02*
X1224Y770D01*
X1231Y770D02*
X1238Y770D01*
X1268Y770D02*
X1274Y770D01*
X1918Y770D02*
X1924Y770D01*
X1931Y770D02*
X1938Y770D01*
X1988Y770D02*
X1998Y770D01*
X2318Y770D02*
X2324Y770D01*
X2331Y770D02*
X2338Y770D01*
X2370Y770D02*
X2400Y770D01*
X3018Y770D02*
X3024Y770D01*
X3031Y770D02*
X3038Y770D01*
X3096Y770D02*
X3102Y770D01*
X3718Y770D02*
X3724Y770D01*
X3731Y770D02*
X3738Y770D01*
X3782Y770D02*
X3788Y770D01*
X3818Y770D02*
X3824Y770D01*
X3846Y770D02*
X3852Y770D01*
X518Y769D02*
X524Y769D01*
X532Y769D02*
X539Y769D01*
X575Y769D02*
X601Y769D01*
X1218Y769D02*
X1224Y769D01*
X1232Y769D02*
X1239Y769D01*
X1268Y769D02*
X1274Y769D01*
X1918Y769D02*
X1924Y769D01*
X1932Y769D02*
X1939Y769D01*
X1987Y769D02*
X1996Y769D01*
X2318Y769D02*
X2324Y769D01*
X2332Y769D02*
X2339Y769D01*
X2369Y769D02*
X2401Y769D01*
X3018Y769D02*
X3024Y769D01*
X3032Y769D02*
X3039Y769D01*
X3096Y769D02*
X3102Y769D01*
X3718Y769D02*
X3724Y769D01*
X3732Y769D02*
X3739Y769D01*
X3782Y769D02*
X3788Y769D01*
X3818Y769D02*
X3824Y769D01*
X3846Y769D02*
X3852Y769D01*
X518Y768D02*
X524Y768D01*
X532Y768D02*
X539Y768D01*
X575Y768D02*
X601Y768D01*
X1218Y768D02*
X1224Y768D01*
X1232Y768D02*
X1239Y768D01*
X1268Y768D02*
X1274Y768D01*
X1918Y768D02*
X1924Y768D01*
X1932Y768D02*
X1939Y768D01*
X1985Y768D02*
X1995Y768D01*
X2318Y768D02*
X2324Y768D01*
X2332Y768D02*
X2339Y768D01*
X2369Y768D02*
X2401Y768D01*
X3018Y768D02*
X3024Y768D01*
X3032Y768D02*
X3039Y768D01*
X3096Y768D02*
X3102Y768D01*
X3718Y768D02*
X3724Y768D01*
X3732Y768D02*
X3739Y768D01*
X3782Y768D02*
X3788Y768D01*
X3818Y768D02*
X3824Y768D01*
X3846Y768D02*
X3852Y768D01*
X518Y767D02*
X524Y767D01*
X533Y767D02*
X540Y767D01*
X575Y767D02*
X602Y767D01*
X1218Y767D02*
X1224Y767D01*
X1233Y767D02*
X1240Y767D01*
X1268Y767D02*
X1275Y767D01*
X1918Y767D02*
X1924Y767D01*
X1933Y767D02*
X1940Y767D01*
X1984Y767D02*
X1994Y767D01*
X2318Y767D02*
X2324Y767D01*
X2333Y767D02*
X2340Y767D01*
X2368Y767D02*
X2402Y767D01*
X3018Y767D02*
X3024Y767D01*
X3033Y767D02*
X3040Y767D01*
X3096Y767D02*
X3102Y767D01*
X3718Y767D02*
X3724Y767D01*
X3733Y767D02*
X3740Y767D01*
X3782Y767D02*
X3788Y767D01*
X3818Y767D02*
X3824Y767D01*
X3846Y767D02*
X3852Y767D01*
X518Y766D02*
X524Y766D01*
X533Y766D02*
X541Y766D01*
X575Y766D02*
X602Y766D01*
X1218Y766D02*
X1224Y766D01*
X1233Y766D02*
X1241Y766D01*
X1268Y766D02*
X1301Y766D01*
X1918Y766D02*
X1924Y766D01*
X1933Y766D02*
X1941Y766D01*
X1983Y766D02*
X1993Y766D01*
X2318Y766D02*
X2324Y766D01*
X2333Y766D02*
X2341Y766D01*
X2368Y766D02*
X2402Y766D01*
X3018Y766D02*
X3024Y766D01*
X3033Y766D02*
X3041Y766D01*
X3096Y766D02*
X3102Y766D01*
X3718Y766D02*
X3724Y766D01*
X3733Y766D02*
X3741Y766D01*
X3782Y766D02*
X3788Y766D01*
X3797Y766D02*
X3801Y766D01*
X3818Y766D02*
X3824Y766D01*
X3846Y766D02*
X3852Y766D01*
X518Y765D02*
X524Y765D01*
X534Y765D02*
X541Y765D01*
X596Y765D02*
X602Y765D01*
X1218Y765D02*
X1224Y765D01*
X1234Y765D02*
X1241Y765D01*
X1268Y765D02*
X1301Y765D01*
X1918Y765D02*
X1924Y765D01*
X1934Y765D02*
X1941Y765D01*
X1982Y765D02*
X1992Y765D01*
X2318Y765D02*
X2324Y765D01*
X2334Y765D02*
X2341Y765D01*
X2368Y765D02*
X2374Y765D01*
X2396Y765D02*
X2402Y765D01*
X3018Y765D02*
X3024Y765D01*
X3034Y765D02*
X3041Y765D01*
X3096Y765D02*
X3102Y765D01*
X3718Y765D02*
X3724Y765D01*
X3734Y765D02*
X3741Y765D01*
X3782Y765D02*
X3788Y765D01*
X3796Y765D02*
X3801Y765D01*
X3818Y765D02*
X3824Y765D01*
X3846Y765D02*
X3852Y765D01*
X518Y764D02*
X524Y764D01*
X535Y764D02*
X542Y764D01*
X596Y764D02*
X602Y764D01*
X1218Y764D02*
X1224Y764D01*
X1235Y764D02*
X1242Y764D01*
X1268Y764D02*
X1302Y764D01*
X1918Y764D02*
X1924Y764D01*
X1935Y764D02*
X1942Y764D01*
X1982Y764D02*
X1991Y764D01*
X2318Y764D02*
X2324Y764D01*
X2335Y764D02*
X2342Y764D01*
X2368Y764D02*
X2374Y764D01*
X2396Y764D02*
X2402Y764D01*
X3018Y764D02*
X3024Y764D01*
X3035Y764D02*
X3042Y764D01*
X3096Y764D02*
X3102Y764D01*
X3718Y764D02*
X3724Y764D01*
X3735Y764D02*
X3742Y764D01*
X3782Y764D02*
X3788Y764D01*
X3796Y764D02*
X3802Y764D01*
X3818Y764D02*
X3824Y764D01*
X3846Y764D02*
X3852Y764D01*
X518Y763D02*
X524Y763D01*
X535Y763D02*
X542Y763D01*
X596Y763D02*
X602Y763D01*
X1218Y763D02*
X1224Y763D01*
X1235Y763D02*
X1242Y763D01*
X1268Y763D02*
X1302Y763D01*
X1918Y763D02*
X1924Y763D01*
X1935Y763D02*
X1942Y763D01*
X1982Y763D02*
X1989Y763D01*
X2318Y763D02*
X2324Y763D01*
X2335Y763D02*
X2342Y763D01*
X2368Y763D02*
X2374Y763D01*
X2396Y763D02*
X2402Y763D01*
X3018Y763D02*
X3024Y763D01*
X3035Y763D02*
X3042Y763D01*
X3096Y763D02*
X3102Y763D01*
X3718Y763D02*
X3724Y763D01*
X3735Y763D02*
X3742Y763D01*
X3782Y763D02*
X3788Y763D01*
X3796Y763D02*
X3802Y763D01*
X3818Y763D02*
X3824Y763D01*
X3846Y763D02*
X3852Y763D01*
X518Y762D02*
X524Y762D01*
X536Y762D02*
X543Y762D01*
X596Y762D02*
X602Y762D01*
X1218Y762D02*
X1224Y762D01*
X1236Y762D02*
X1243Y762D01*
X1268Y762D02*
X1302Y762D01*
X1918Y762D02*
X1924Y762D01*
X1936Y762D02*
X1943Y762D01*
X1982Y762D02*
X1988Y762D01*
X2318Y762D02*
X2324Y762D01*
X2336Y762D02*
X2343Y762D01*
X2368Y762D02*
X2374Y762D01*
X2396Y762D02*
X2402Y762D01*
X3018Y762D02*
X3024Y762D01*
X3036Y762D02*
X3043Y762D01*
X3096Y762D02*
X3102Y762D01*
X3718Y762D02*
X3724Y762D01*
X3736Y762D02*
X3743Y762D01*
X3782Y762D02*
X3788Y762D01*
X3796Y762D02*
X3802Y762D01*
X3818Y762D02*
X3824Y762D01*
X3846Y762D02*
X3852Y762D01*
X518Y761D02*
X524Y761D01*
X536Y761D02*
X543Y761D01*
X596Y761D02*
X602Y761D01*
X1218Y761D02*
X1224Y761D01*
X1236Y761D02*
X1243Y761D01*
X1268Y761D02*
X1302Y761D01*
X1918Y761D02*
X1924Y761D01*
X1936Y761D02*
X1943Y761D01*
X1982Y761D02*
X1988Y761D01*
X2318Y761D02*
X2324Y761D01*
X2336Y761D02*
X2343Y761D01*
X2368Y761D02*
X2374Y761D01*
X2396Y761D02*
X2402Y761D01*
X3018Y761D02*
X3024Y761D01*
X3036Y761D02*
X3043Y761D01*
X3096Y761D02*
X3102Y761D01*
X3718Y761D02*
X3724Y761D01*
X3736Y761D02*
X3743Y761D01*
X3782Y761D02*
X3788Y761D01*
X3796Y761D02*
X3802Y761D01*
X3818Y761D02*
X3824Y761D01*
X3846Y761D02*
X3852Y761D01*
X518Y760D02*
X524Y760D01*
X537Y760D02*
X544Y760D01*
X596Y760D02*
X602Y760D01*
X1218Y760D02*
X1224Y760D01*
X1237Y760D02*
X1244Y760D01*
X1268Y760D02*
X1302Y760D01*
X1918Y760D02*
X1924Y760D01*
X1937Y760D02*
X1944Y760D01*
X1982Y760D02*
X1988Y760D01*
X2318Y760D02*
X2324Y760D01*
X2337Y760D02*
X2344Y760D01*
X2368Y760D02*
X2374Y760D01*
X2396Y760D02*
X2402Y760D01*
X3018Y760D02*
X3024Y760D01*
X3037Y760D02*
X3044Y760D01*
X3096Y760D02*
X3102Y760D01*
X3718Y760D02*
X3724Y760D01*
X3737Y760D02*
X3744Y760D01*
X3782Y760D02*
X3788Y760D01*
X3796Y760D02*
X3802Y760D01*
X3818Y760D02*
X3824Y760D01*
X3846Y760D02*
X3852Y760D01*
X518Y759D02*
X524Y759D01*
X537Y759D02*
X545Y759D01*
X596Y759D02*
X602Y759D01*
X1218Y759D02*
X1224Y759D01*
X1237Y759D02*
X1245Y759D01*
X1268Y759D02*
X1274Y759D01*
X1296Y759D02*
X1302Y759D01*
X1918Y759D02*
X1924Y759D01*
X1937Y759D02*
X1945Y759D01*
X1982Y759D02*
X1988Y759D01*
X2318Y759D02*
X2324Y759D01*
X2337Y759D02*
X2345Y759D01*
X2368Y759D02*
X2374Y759D01*
X2396Y759D02*
X2402Y759D01*
X3018Y759D02*
X3024Y759D01*
X3037Y759D02*
X3045Y759D01*
X3096Y759D02*
X3102Y759D01*
X3718Y759D02*
X3724Y759D01*
X3737Y759D02*
X3745Y759D01*
X3782Y759D02*
X3788Y759D01*
X3796Y759D02*
X3802Y759D01*
X3818Y759D02*
X3824Y759D01*
X3846Y759D02*
X3852Y759D01*
X518Y758D02*
X524Y758D01*
X538Y758D02*
X545Y758D01*
X596Y758D02*
X602Y758D01*
X1218Y758D02*
X1224Y758D01*
X1238Y758D02*
X1245Y758D01*
X1268Y758D02*
X1274Y758D01*
X1296Y758D02*
X1302Y758D01*
X1918Y758D02*
X1924Y758D01*
X1938Y758D02*
X1945Y758D01*
X1982Y758D02*
X1988Y758D01*
X2318Y758D02*
X2324Y758D01*
X2338Y758D02*
X2345Y758D01*
X2368Y758D02*
X2374Y758D01*
X2396Y758D02*
X2402Y758D01*
X3018Y758D02*
X3024Y758D01*
X3038Y758D02*
X3045Y758D01*
X3096Y758D02*
X3102Y758D01*
X3718Y758D02*
X3724Y758D01*
X3738Y758D02*
X3745Y758D01*
X3782Y758D02*
X3788Y758D01*
X3796Y758D02*
X3802Y758D01*
X3818Y758D02*
X3824Y758D01*
X3846Y758D02*
X3852Y758D01*
X518Y757D02*
X524Y757D01*
X539Y757D02*
X546Y757D01*
X596Y757D02*
X602Y757D01*
X1218Y757D02*
X1224Y757D01*
X1239Y757D02*
X1246Y757D01*
X1268Y757D02*
X1274Y757D01*
X1296Y757D02*
X1302Y757D01*
X1918Y757D02*
X1924Y757D01*
X1939Y757D02*
X1946Y757D01*
X1982Y757D02*
X1988Y757D01*
X2318Y757D02*
X2324Y757D01*
X2339Y757D02*
X2346Y757D01*
X2368Y757D02*
X2374Y757D01*
X2396Y757D02*
X2402Y757D01*
X3018Y757D02*
X3024Y757D01*
X3039Y757D02*
X3046Y757D01*
X3096Y757D02*
X3102Y757D01*
X3718Y757D02*
X3724Y757D01*
X3739Y757D02*
X3746Y757D01*
X3782Y757D02*
X3788Y757D01*
X3796Y757D02*
X3802Y757D01*
X3818Y757D02*
X3824Y757D01*
X3846Y757D02*
X3852Y757D01*
X518Y756D02*
X524Y756D01*
X539Y756D02*
X546Y756D01*
X596Y756D02*
X602Y756D01*
X1218Y756D02*
X1224Y756D01*
X1239Y756D02*
X1246Y756D01*
X1268Y756D02*
X1274Y756D01*
X1296Y756D02*
X1302Y756D01*
X1918Y756D02*
X1924Y756D01*
X1939Y756D02*
X1946Y756D01*
X1982Y756D02*
X1988Y756D01*
X2318Y756D02*
X2324Y756D01*
X2339Y756D02*
X2346Y756D01*
X2368Y756D02*
X2374Y756D01*
X2396Y756D02*
X2402Y756D01*
X3018Y756D02*
X3024Y756D01*
X3039Y756D02*
X3046Y756D01*
X3096Y756D02*
X3102Y756D01*
X3718Y756D02*
X3724Y756D01*
X3739Y756D02*
X3746Y756D01*
X3782Y756D02*
X3788Y756D01*
X3796Y756D02*
X3802Y756D01*
X3818Y756D02*
X3824Y756D01*
X3846Y756D02*
X3852Y756D01*
X518Y755D02*
X524Y755D01*
X540Y755D02*
X547Y755D01*
X596Y755D02*
X602Y755D01*
X1218Y755D02*
X1224Y755D01*
X1240Y755D02*
X1247Y755D01*
X1268Y755D02*
X1274Y755D01*
X1296Y755D02*
X1302Y755D01*
X1918Y755D02*
X1924Y755D01*
X1940Y755D02*
X1947Y755D01*
X1982Y755D02*
X1988Y755D01*
X2318Y755D02*
X2324Y755D01*
X2340Y755D02*
X2347Y755D01*
X2368Y755D02*
X2374Y755D01*
X2396Y755D02*
X2402Y755D01*
X3018Y755D02*
X3024Y755D01*
X3040Y755D02*
X3047Y755D01*
X3096Y755D02*
X3102Y755D01*
X3718Y755D02*
X3724Y755D01*
X3740Y755D02*
X3747Y755D01*
X3782Y755D02*
X3788Y755D01*
X3796Y755D02*
X3802Y755D01*
X3818Y755D02*
X3824Y755D01*
X3846Y755D02*
X3852Y755D01*
X518Y754D02*
X524Y754D01*
X540Y754D02*
X548Y754D01*
X596Y754D02*
X602Y754D01*
X1218Y754D02*
X1224Y754D01*
X1240Y754D02*
X1248Y754D01*
X1268Y754D02*
X1274Y754D01*
X1296Y754D02*
X1302Y754D01*
X1918Y754D02*
X1924Y754D01*
X1940Y754D02*
X1948Y754D01*
X1982Y754D02*
X1988Y754D01*
X2318Y754D02*
X2324Y754D01*
X2340Y754D02*
X2348Y754D01*
X2368Y754D02*
X2374Y754D01*
X2396Y754D02*
X2402Y754D01*
X3018Y754D02*
X3024Y754D01*
X3040Y754D02*
X3048Y754D01*
X3096Y754D02*
X3102Y754D01*
X3718Y754D02*
X3724Y754D01*
X3740Y754D02*
X3748Y754D01*
X3782Y754D02*
X3788Y754D01*
X3796Y754D02*
X3802Y754D01*
X3818Y754D02*
X3824Y754D01*
X3846Y754D02*
X3852Y754D01*
X518Y753D02*
X524Y753D01*
X541Y753D02*
X548Y753D01*
X596Y753D02*
X602Y753D01*
X1218Y753D02*
X1224Y753D01*
X1241Y753D02*
X1248Y753D01*
X1268Y753D02*
X1274Y753D01*
X1296Y753D02*
X1302Y753D01*
X1918Y753D02*
X1924Y753D01*
X1941Y753D02*
X1948Y753D01*
X1982Y753D02*
X1988Y753D01*
X2318Y753D02*
X2324Y753D01*
X2341Y753D02*
X2348Y753D01*
X2368Y753D02*
X2374Y753D01*
X2396Y753D02*
X2402Y753D01*
X3018Y753D02*
X3024Y753D01*
X3041Y753D02*
X3048Y753D01*
X3096Y753D02*
X3102Y753D01*
X3718Y753D02*
X3724Y753D01*
X3741Y753D02*
X3748Y753D01*
X3782Y753D02*
X3788Y753D01*
X3796Y753D02*
X3802Y753D01*
X3818Y753D02*
X3824Y753D01*
X3846Y753D02*
X3852Y753D01*
X518Y752D02*
X524Y752D01*
X542Y752D02*
X549Y752D01*
X571Y752D02*
X572Y752D01*
X596Y752D02*
X602Y752D01*
X1218Y752D02*
X1224Y752D01*
X1242Y752D02*
X1249Y752D01*
X1268Y752D02*
X1274Y752D01*
X1296Y752D02*
X1302Y752D01*
X1918Y752D02*
X1924Y752D01*
X1942Y752D02*
X1949Y752D01*
X1982Y752D02*
X1988Y752D01*
X2318Y752D02*
X2324Y752D01*
X2342Y752D02*
X2349Y752D01*
X2368Y752D02*
X2374Y752D01*
X2396Y752D02*
X2402Y752D01*
X3018Y752D02*
X3024Y752D01*
X3042Y752D02*
X3049Y752D01*
X3096Y752D02*
X3102Y752D01*
X3718Y752D02*
X3724Y752D01*
X3742Y752D02*
X3749Y752D01*
X3782Y752D02*
X3788Y752D01*
X3796Y752D02*
X3802Y752D01*
X3818Y752D02*
X3824Y752D01*
X3846Y752D02*
X3852Y752D01*
X518Y751D02*
X524Y751D01*
X542Y751D02*
X549Y751D01*
X569Y751D02*
X574Y751D01*
X596Y751D02*
X602Y751D01*
X1218Y751D02*
X1224Y751D01*
X1242Y751D02*
X1249Y751D01*
X1268Y751D02*
X1274Y751D01*
X1296Y751D02*
X1302Y751D01*
X1918Y751D02*
X1924Y751D01*
X1942Y751D02*
X1949Y751D01*
X1982Y751D02*
X1988Y751D01*
X2318Y751D02*
X2324Y751D01*
X2342Y751D02*
X2349Y751D01*
X2368Y751D02*
X2374Y751D01*
X2396Y751D02*
X2402Y751D01*
X3018Y751D02*
X3024Y751D01*
X3042Y751D02*
X3049Y751D01*
X3096Y751D02*
X3102Y751D01*
X3718Y751D02*
X3724Y751D01*
X3742Y751D02*
X3749Y751D01*
X3782Y751D02*
X3788Y751D01*
X3796Y751D02*
X3802Y751D01*
X3818Y751D02*
X3824Y751D01*
X3846Y751D02*
X3852Y751D01*
X518Y750D02*
X524Y750D01*
X543Y750D02*
X550Y750D01*
X569Y750D02*
X577Y750D01*
X596Y750D02*
X602Y750D01*
X1218Y750D02*
X1224Y750D01*
X1243Y750D02*
X1250Y750D01*
X1268Y750D02*
X1274Y750D01*
X1296Y750D02*
X1302Y750D01*
X1918Y750D02*
X1924Y750D01*
X1943Y750D02*
X1950Y750D01*
X1982Y750D02*
X1988Y750D01*
X2318Y750D02*
X2324Y750D01*
X2343Y750D02*
X2350Y750D01*
X2368Y750D02*
X2374Y750D01*
X2396Y750D02*
X2402Y750D01*
X3018Y750D02*
X3024Y750D01*
X3043Y750D02*
X3050Y750D01*
X3096Y750D02*
X3102Y750D01*
X3718Y750D02*
X3724Y750D01*
X3743Y750D02*
X3750Y750D01*
X3782Y750D02*
X3788Y750D01*
X3796Y750D02*
X3802Y750D01*
X3818Y750D02*
X3824Y750D01*
X3846Y750D02*
X3852Y750D01*
X518Y749D02*
X524Y749D01*
X543Y749D02*
X550Y749D01*
X568Y749D02*
X602Y749D01*
X1218Y749D02*
X1224Y749D01*
X1243Y749D02*
X1250Y749D01*
X1268Y749D02*
X1302Y749D01*
X1918Y749D02*
X1924Y749D01*
X1943Y749D02*
X1950Y749D01*
X1982Y749D02*
X1988Y749D01*
X2318Y749D02*
X2324Y749D01*
X2343Y749D02*
X2350Y749D01*
X2368Y749D02*
X2402Y749D01*
X3018Y749D02*
X3024Y749D01*
X3043Y749D02*
X3050Y749D01*
X3095Y749D02*
X3102Y749D01*
X3718Y749D02*
X3724Y749D01*
X3743Y749D02*
X3750Y749D01*
X3771Y749D02*
X3802Y749D01*
X3818Y749D02*
X3852Y749D01*
X518Y748D02*
X524Y748D01*
X544Y748D02*
X551Y748D01*
X568Y748D02*
X602Y748D01*
X1218Y748D02*
X1224Y748D01*
X1244Y748D02*
X1251Y748D01*
X1268Y748D02*
X1302Y748D01*
X1918Y748D02*
X1924Y748D01*
X1944Y748D02*
X1951Y748D01*
X1982Y748D02*
X1988Y748D01*
X2318Y748D02*
X2324Y748D01*
X2344Y748D02*
X2351Y748D01*
X2368Y748D02*
X2402Y748D01*
X3018Y748D02*
X3024Y748D01*
X3044Y748D02*
X3051Y748D01*
X3093Y748D02*
X3102Y748D01*
X3718Y748D02*
X3724Y748D01*
X3744Y748D02*
X3751Y748D01*
X3769Y748D02*
X3802Y748D01*
X3818Y748D02*
X3852Y748D01*
X518Y747D02*
X524Y747D01*
X544Y747D02*
X552Y747D01*
X569Y747D02*
X601Y747D01*
X1218Y747D02*
X1224Y747D01*
X1244Y747D02*
X1252Y747D01*
X1268Y747D02*
X1302Y747D01*
X1918Y747D02*
X1924Y747D01*
X1944Y747D02*
X1952Y747D01*
X1982Y747D02*
X1988Y747D01*
X2318Y747D02*
X2324Y747D01*
X2344Y747D02*
X2352Y747D01*
X2369Y747D02*
X2401Y747D01*
X3018Y747D02*
X3024Y747D01*
X3044Y747D02*
X3052Y747D01*
X3093Y747D02*
X3102Y747D01*
X3718Y747D02*
X3724Y747D01*
X3744Y747D02*
X3752Y747D01*
X3769Y747D02*
X3802Y747D01*
X3819Y747D02*
X3851Y747D01*
X518Y746D02*
X524Y746D01*
X545Y746D02*
X552Y746D01*
X569Y746D02*
X601Y746D01*
X1218Y746D02*
X1224Y746D01*
X1245Y746D02*
X1252Y746D01*
X1268Y746D02*
X1302Y746D01*
X1918Y746D02*
X1924Y746D01*
X1945Y746D02*
X1952Y746D01*
X1982Y746D02*
X1988Y746D01*
X2318Y746D02*
X2324Y746D01*
X2345Y746D02*
X2352Y746D01*
X2369Y746D02*
X2401Y746D01*
X3018Y746D02*
X3024Y746D01*
X3045Y746D02*
X3052Y746D01*
X3092Y746D02*
X3102Y746D01*
X3718Y746D02*
X3724Y746D01*
X3745Y746D02*
X3752Y746D01*
X3768Y746D02*
X3802Y746D01*
X3819Y746D02*
X3851Y746D01*
X518Y745D02*
X524Y745D01*
X546Y745D02*
X552Y745D01*
X571Y745D02*
X600Y745D01*
X1218Y745D02*
X1224Y745D01*
X1246Y745D02*
X1252Y745D01*
X1268Y745D02*
X1302Y745D01*
X1918Y745D02*
X1924Y745D01*
X1946Y745D02*
X1952Y745D01*
X1982Y745D02*
X1988Y745D01*
X2318Y745D02*
X2324Y745D01*
X2346Y745D02*
X2352Y745D01*
X2370Y745D02*
X2400Y745D01*
X3018Y745D02*
X3024Y745D01*
X3046Y745D02*
X3052Y745D01*
X3092Y745D02*
X3102Y745D01*
X3718Y745D02*
X3724Y745D01*
X3746Y745D02*
X3752Y745D01*
X3768Y745D02*
X3802Y745D01*
X3820Y745D02*
X3850Y745D01*
X519Y744D02*
X524Y744D01*
X546Y744D02*
X551Y744D01*
X573Y744D02*
X599Y744D01*
X1219Y744D02*
X1224Y744D01*
X1246Y744D02*
X1251Y744D01*
X1269Y744D02*
X1301Y744D01*
X1919Y744D02*
X1924Y744D01*
X1946Y744D02*
X1951Y744D01*
X1983Y744D02*
X1987Y744D01*
X2319Y744D02*
X2324Y744D01*
X2346Y744D02*
X2351Y744D01*
X2371Y744D02*
X2399Y744D01*
X3019Y744D02*
X3024Y744D01*
X3046Y744D02*
X3051Y744D01*
X3093Y744D02*
X3101Y744D01*
X3719Y744D02*
X3724Y744D01*
X3746Y744D02*
X3751Y744D01*
X3769Y744D02*
X3801Y744D01*
X3821Y744D02*
X3849Y744D01*
X520Y743D02*
X523Y743D01*
X547Y743D02*
X550Y743D01*
X576Y743D02*
X598Y743D01*
X1220Y743D02*
X1223Y743D01*
X1247Y743D02*
X1250Y743D01*
X1270Y743D02*
X1300Y743D01*
X1920Y743D02*
X1923Y743D01*
X1947Y743D02*
X1950Y743D01*
X1983Y743D02*
X1987Y743D01*
X2320Y743D02*
X2323Y743D01*
X2347Y743D02*
X2350Y743D01*
X2372Y743D02*
X2398Y743D01*
X3020Y743D02*
X3023Y743D01*
X3047Y743D02*
X3050Y743D01*
X3094Y743D02*
X3100Y743D01*
X3720Y743D02*
X3723Y743D01*
X3747Y743D02*
X3750Y743D01*
X3770Y743D02*
X3800Y743D01*
X3822Y743D02*
X3848Y743D01*
X668Y596D02*
X694Y596D01*
X720Y596D02*
X738Y596D01*
X818Y596D02*
X844Y596D01*
X870Y596D02*
X897Y596D01*
X3418Y596D02*
X3444Y596D01*
X3470Y596D02*
X3488Y596D01*
X3518Y596D02*
X3547Y596D01*
X3570Y596D02*
X3588Y596D01*
X3620Y596D02*
X3647Y596D01*
X668Y595D02*
X697Y595D01*
X719Y595D02*
X738Y595D01*
X818Y595D02*
X847Y595D01*
X869Y595D02*
X899Y595D01*
X3418Y595D02*
X3446Y595D01*
X3469Y595D02*
X3488Y595D01*
X3518Y595D02*
X3549Y595D01*
X3569Y595D02*
X3588Y595D01*
X3619Y595D02*
X3649Y595D01*
X668Y594D02*
X698Y594D01*
X718Y594D02*
X738Y594D01*
X818Y594D02*
X848Y594D01*
X868Y594D02*
X900Y594D01*
X3418Y594D02*
X3448Y594D01*
X3468Y594D02*
X3488Y594D01*
X3518Y594D02*
X3550Y594D01*
X3568Y594D02*
X3588Y594D01*
X3618Y594D02*
X3650Y594D01*
X668Y593D02*
X699Y593D01*
X718Y593D02*
X738Y593D01*
X818Y593D02*
X849Y593D01*
X868Y593D02*
X901Y593D01*
X3418Y593D02*
X3449Y593D01*
X3468Y593D02*
X3488Y593D01*
X3518Y593D02*
X3551Y593D01*
X3568Y593D02*
X3588Y593D01*
X3618Y593D02*
X3651Y593D01*
X668Y592D02*
X700Y592D01*
X718Y592D02*
X738Y592D01*
X818Y592D02*
X850Y592D01*
X868Y592D02*
X901Y592D01*
X3418Y592D02*
X3450Y592D01*
X3468Y592D02*
X3488Y592D01*
X3518Y592D02*
X3551Y592D01*
X3568Y592D02*
X3588Y592D01*
X3618Y592D02*
X3651Y592D01*
X668Y591D02*
X700Y591D01*
X719Y591D02*
X738Y591D01*
X818Y591D02*
X850Y591D01*
X869Y591D02*
X902Y591D01*
X3418Y591D02*
X3450Y591D01*
X3469Y591D02*
X3488Y591D01*
X3518Y591D02*
X3552Y591D01*
X3569Y591D02*
X3588Y591D01*
X3619Y591D02*
X3652Y591D01*
X668Y590D02*
X701Y590D01*
X720Y590D02*
X738Y590D01*
X818Y590D02*
X851Y590D01*
X870Y590D02*
X902Y590D01*
X3418Y590D02*
X3451Y590D01*
X3470Y590D02*
X3488Y590D01*
X3518Y590D02*
X3552Y590D01*
X3570Y590D02*
X3588Y590D01*
X3620Y590D02*
X3652Y590D01*
X668Y589D02*
X674Y589D01*
X694Y589D02*
X701Y589D01*
X732Y589D02*
X738Y589D01*
X818Y589D02*
X824Y589D01*
X844Y589D02*
X851Y589D01*
X896Y589D02*
X902Y589D01*
X3418Y589D02*
X3424Y589D01*
X3444Y589D02*
X3451Y589D01*
X3482Y589D02*
X3488Y589D01*
X3518Y589D02*
X3524Y589D01*
X3544Y589D02*
X3552Y589D01*
X3582Y589D02*
X3588Y589D01*
X3646Y589D02*
X3652Y589D01*
X668Y588D02*
X674Y588D01*
X695Y588D02*
X702Y588D01*
X732Y588D02*
X738Y588D01*
X818Y588D02*
X824Y588D01*
X845Y588D02*
X852Y588D01*
X896Y588D02*
X902Y588D01*
X3418Y588D02*
X3424Y588D01*
X3445Y588D02*
X3452Y588D01*
X3482Y588D02*
X3488Y588D01*
X3518Y588D02*
X3524Y588D01*
X3545Y588D02*
X3552Y588D01*
X3582Y588D02*
X3588Y588D01*
X3646Y588D02*
X3652Y588D01*
X668Y587D02*
X674Y587D01*
X696Y587D02*
X702Y587D01*
X732Y587D02*
X738Y587D01*
X818Y587D02*
X824Y587D01*
X846Y587D02*
X852Y587D01*
X896Y587D02*
X902Y587D01*
X3418Y587D02*
X3424Y587D01*
X3446Y587D02*
X3452Y587D01*
X3482Y587D02*
X3488Y587D01*
X3518Y587D02*
X3524Y587D01*
X3546Y587D02*
X3552Y587D01*
X3582Y587D02*
X3588Y587D01*
X3646Y587D02*
X3652Y587D01*
X668Y586D02*
X674Y586D01*
X696Y586D02*
X702Y586D01*
X732Y586D02*
X738Y586D01*
X818Y586D02*
X824Y586D01*
X846Y586D02*
X852Y586D01*
X896Y586D02*
X902Y586D01*
X3418Y586D02*
X3424Y586D01*
X3446Y586D02*
X3452Y586D01*
X3482Y586D02*
X3488Y586D01*
X3518Y586D02*
X3524Y586D01*
X3546Y586D02*
X3552Y586D01*
X3582Y586D02*
X3588Y586D01*
X3646Y586D02*
X3652Y586D01*
X668Y585D02*
X674Y585D01*
X696Y585D02*
X702Y585D01*
X732Y585D02*
X738Y585D01*
X818Y585D02*
X824Y585D01*
X846Y585D02*
X852Y585D01*
X896Y585D02*
X902Y585D01*
X3418Y585D02*
X3424Y585D01*
X3446Y585D02*
X3452Y585D01*
X3482Y585D02*
X3488Y585D01*
X3518Y585D02*
X3524Y585D01*
X3546Y585D02*
X3552Y585D01*
X3582Y585D02*
X3588Y585D01*
X3646Y585D02*
X3652Y585D01*
X668Y584D02*
X674Y584D01*
X696Y584D02*
X702Y584D01*
X732Y584D02*
X738Y584D01*
X818Y584D02*
X824Y584D01*
X846Y584D02*
X852Y584D01*
X896Y584D02*
X902Y584D01*
X3418Y584D02*
X3424Y584D01*
X3446Y584D02*
X3452Y584D01*
X3482Y584D02*
X3488Y584D01*
X3518Y584D02*
X3524Y584D01*
X3546Y584D02*
X3552Y584D01*
X3582Y584D02*
X3588Y584D01*
X3646Y584D02*
X3652Y584D01*
X668Y583D02*
X674Y583D01*
X696Y583D02*
X702Y583D01*
X732Y583D02*
X738Y583D01*
X818Y583D02*
X824Y583D01*
X846Y583D02*
X852Y583D01*
X896Y583D02*
X902Y583D01*
X3418Y583D02*
X3424Y583D01*
X3446Y583D02*
X3452Y583D01*
X3482Y583D02*
X3488Y583D01*
X3518Y583D02*
X3524Y583D01*
X3546Y583D02*
X3552Y583D01*
X3582Y583D02*
X3588Y583D01*
X3646Y583D02*
X3652Y583D01*
X668Y582D02*
X674Y582D01*
X696Y582D02*
X702Y582D01*
X732Y582D02*
X738Y582D01*
X818Y582D02*
X824Y582D01*
X846Y582D02*
X852Y582D01*
X896Y582D02*
X902Y582D01*
X3418Y582D02*
X3424Y582D01*
X3446Y582D02*
X3452Y582D01*
X3482Y582D02*
X3488Y582D01*
X3518Y582D02*
X3524Y582D01*
X3546Y582D02*
X3552Y582D01*
X3582Y582D02*
X3588Y582D01*
X3646Y582D02*
X3652Y582D01*
X668Y581D02*
X674Y581D01*
X696Y581D02*
X702Y581D01*
X732Y581D02*
X738Y581D01*
X818Y581D02*
X824Y581D01*
X846Y581D02*
X852Y581D01*
X896Y581D02*
X902Y581D01*
X3418Y581D02*
X3424Y581D01*
X3446Y581D02*
X3452Y581D01*
X3482Y581D02*
X3488Y581D01*
X3518Y581D02*
X3524Y581D01*
X3546Y581D02*
X3552Y581D01*
X3582Y581D02*
X3588Y581D01*
X3646Y581D02*
X3652Y581D01*
X668Y580D02*
X674Y580D01*
X695Y580D02*
X702Y580D01*
X732Y580D02*
X738Y580D01*
X818Y580D02*
X824Y580D01*
X845Y580D02*
X852Y580D01*
X896Y580D02*
X902Y580D01*
X3418Y580D02*
X3424Y580D01*
X3445Y580D02*
X3452Y580D01*
X3482Y580D02*
X3488Y580D01*
X3518Y580D02*
X3524Y580D01*
X3545Y580D02*
X3552Y580D01*
X3582Y580D02*
X3588Y580D01*
X3646Y580D02*
X3652Y580D01*
X668Y579D02*
X674Y579D01*
X693Y579D02*
X701Y579D01*
X732Y579D02*
X738Y579D01*
X818Y579D02*
X824Y579D01*
X843Y579D02*
X851Y579D01*
X896Y579D02*
X902Y579D01*
X3418Y579D02*
X3424Y579D01*
X3443Y579D02*
X3451Y579D01*
X3482Y579D02*
X3488Y579D01*
X3518Y579D02*
X3524Y579D01*
X3543Y579D02*
X3552Y579D01*
X3582Y579D02*
X3588Y579D01*
X3646Y579D02*
X3652Y579D01*
X668Y578D02*
X701Y578D01*
X732Y578D02*
X738Y578D01*
X818Y578D02*
X851Y578D01*
X896Y578D02*
X902Y578D01*
X3418Y578D02*
X3451Y578D01*
X3482Y578D02*
X3488Y578D01*
X3518Y578D02*
X3552Y578D01*
X3582Y578D02*
X3588Y578D01*
X3646Y578D02*
X3652Y578D01*
X668Y577D02*
X700Y577D01*
X732Y577D02*
X738Y577D01*
X818Y577D02*
X850Y577D01*
X896Y577D02*
X902Y577D01*
X3418Y577D02*
X3450Y577D01*
X3482Y577D02*
X3488Y577D01*
X3518Y577D02*
X3552Y577D01*
X3582Y577D02*
X3588Y577D01*
X3646Y577D02*
X3652Y577D01*
X668Y576D02*
X700Y576D01*
X732Y576D02*
X738Y576D01*
X818Y576D02*
X850Y576D01*
X896Y576D02*
X902Y576D01*
X3418Y576D02*
X3450Y576D01*
X3482Y576D02*
X3488Y576D01*
X3518Y576D02*
X3552Y576D01*
X3582Y576D02*
X3588Y576D01*
X3646Y576D02*
X3652Y576D01*
X668Y575D02*
X699Y575D01*
X732Y575D02*
X738Y575D01*
X818Y575D02*
X849Y575D01*
X896Y575D02*
X902Y575D01*
X3418Y575D02*
X3449Y575D01*
X3482Y575D02*
X3488Y575D01*
X3518Y575D02*
X3552Y575D01*
X3582Y575D02*
X3588Y575D01*
X3645Y575D02*
X3652Y575D01*
X668Y574D02*
X698Y574D01*
X732Y574D02*
X738Y574D01*
X818Y574D02*
X848Y574D01*
X896Y574D02*
X902Y574D01*
X3418Y574D02*
X3448Y574D01*
X3482Y574D02*
X3488Y574D01*
X3518Y574D02*
X3552Y574D01*
X3582Y574D02*
X3588Y574D01*
X3645Y574D02*
X3652Y574D01*
X668Y573D02*
X696Y573D01*
X732Y573D02*
X738Y573D01*
X818Y573D02*
X846Y573D01*
X896Y573D02*
X902Y573D01*
X3418Y573D02*
X3446Y573D01*
X3482Y573D02*
X3488Y573D01*
X3518Y573D02*
X3552Y573D01*
X3582Y573D02*
X3588Y573D01*
X3643Y573D02*
X3651Y573D01*
X668Y572D02*
X694Y572D01*
X732Y572D02*
X738Y572D01*
X818Y572D02*
X844Y572D01*
X872Y572D02*
X902Y572D01*
X3418Y572D02*
X3444Y572D01*
X3482Y572D02*
X3488Y572D01*
X3518Y572D02*
X3552Y572D01*
X3582Y572D02*
X3588Y572D01*
X3626Y572D02*
X3651Y572D01*
X668Y571D02*
X674Y571D01*
X680Y571D02*
X688Y571D01*
X732Y571D02*
X738Y571D01*
X818Y571D02*
X824Y571D01*
X830Y571D02*
X838Y571D01*
X871Y571D02*
X902Y571D01*
X3418Y571D02*
X3424Y571D01*
X3430Y571D02*
X3438Y571D01*
X3482Y571D02*
X3488Y571D01*
X3518Y571D02*
X3552Y571D01*
X3582Y571D02*
X3588Y571D01*
X3626Y571D02*
X3650Y571D01*
X668Y570D02*
X674Y570D01*
X681Y570D02*
X688Y570D01*
X732Y570D02*
X738Y570D01*
X818Y570D02*
X824Y570D01*
X831Y570D02*
X838Y570D01*
X870Y570D02*
X901Y570D01*
X3418Y570D02*
X3424Y570D01*
X3431Y570D02*
X3438Y570D01*
X3482Y570D02*
X3488Y570D01*
X3518Y570D02*
X3551Y570D01*
X3582Y570D02*
X3588Y570D01*
X3625Y570D02*
X3650Y570D01*
X668Y569D02*
X674Y569D01*
X682Y569D02*
X689Y569D01*
X732Y569D02*
X738Y569D01*
X818Y569D02*
X824Y569D01*
X832Y569D02*
X839Y569D01*
X869Y569D02*
X901Y569D01*
X3418Y569D02*
X3424Y569D01*
X3432Y569D02*
X3439Y569D01*
X3482Y569D02*
X3488Y569D01*
X3518Y569D02*
X3551Y569D01*
X3582Y569D02*
X3588Y569D01*
X3625Y569D02*
X3649Y569D01*
X668Y568D02*
X674Y568D01*
X682Y568D02*
X689Y568D01*
X732Y568D02*
X738Y568D01*
X818Y568D02*
X824Y568D01*
X832Y568D02*
X839Y568D01*
X869Y568D02*
X900Y568D01*
X3418Y568D02*
X3424Y568D01*
X3432Y568D02*
X3439Y568D01*
X3482Y568D02*
X3488Y568D01*
X3518Y568D02*
X3550Y568D01*
X3582Y568D02*
X3588Y568D01*
X3625Y568D02*
X3650Y568D01*
X668Y567D02*
X674Y567D01*
X683Y567D02*
X690Y567D01*
X732Y567D02*
X738Y567D01*
X818Y567D02*
X824Y567D01*
X833Y567D02*
X840Y567D01*
X868Y567D02*
X899Y567D01*
X3418Y567D02*
X3424Y567D01*
X3433Y567D02*
X3440Y567D01*
X3482Y567D02*
X3488Y567D01*
X3518Y567D02*
X3549Y567D01*
X3582Y567D02*
X3588Y567D01*
X3626Y567D02*
X3651Y567D01*
X668Y566D02*
X674Y566D01*
X683Y566D02*
X691Y566D01*
X732Y566D02*
X738Y566D01*
X747Y566D02*
X751Y566D01*
X818Y566D02*
X824Y566D01*
X833Y566D02*
X841Y566D01*
X868Y566D02*
X896Y566D01*
X3418Y566D02*
X3424Y566D01*
X3433Y566D02*
X3441Y566D01*
X3482Y566D02*
X3488Y566D01*
X3497Y566D02*
X3501Y566D01*
X3518Y566D02*
X3546Y566D01*
X3582Y566D02*
X3588Y566D01*
X3597Y566D02*
X3601Y566D01*
X3628Y566D02*
X3651Y566D01*
X668Y565D02*
X674Y565D01*
X684Y565D02*
X691Y565D01*
X732Y565D02*
X738Y565D01*
X746Y565D02*
X751Y565D01*
X818Y565D02*
X824Y565D01*
X834Y565D02*
X841Y565D01*
X868Y565D02*
X874Y565D01*
X3418Y565D02*
X3424Y565D01*
X3434Y565D02*
X3441Y565D01*
X3482Y565D02*
X3488Y565D01*
X3496Y565D02*
X3501Y565D01*
X3518Y565D02*
X3524Y565D01*
X3534Y565D02*
X3541Y565D01*
X3582Y565D02*
X3588Y565D01*
X3596Y565D02*
X3601Y565D01*
X3644Y565D02*
X3651Y565D01*
X668Y564D02*
X674Y564D01*
X685Y564D02*
X692Y564D01*
X732Y564D02*
X738Y564D01*
X746Y564D02*
X752Y564D01*
X818Y564D02*
X824Y564D01*
X835Y564D02*
X842Y564D01*
X868Y564D02*
X874Y564D01*
X3418Y564D02*
X3424Y564D01*
X3435Y564D02*
X3442Y564D01*
X3482Y564D02*
X3488Y564D01*
X3496Y564D02*
X3502Y564D01*
X3518Y564D02*
X3524Y564D01*
X3535Y564D02*
X3542Y564D01*
X3582Y564D02*
X3588Y564D01*
X3596Y564D02*
X3602Y564D01*
X3645Y564D02*
X3652Y564D01*
X668Y563D02*
X674Y563D01*
X685Y563D02*
X692Y563D01*
X732Y563D02*
X738Y563D01*
X746Y563D02*
X752Y563D01*
X818Y563D02*
X824Y563D01*
X835Y563D02*
X842Y563D01*
X868Y563D02*
X874Y563D01*
X3418Y563D02*
X3424Y563D01*
X3435Y563D02*
X3442Y563D01*
X3482Y563D02*
X3488Y563D01*
X3496Y563D02*
X3502Y563D01*
X3518Y563D02*
X3524Y563D01*
X3535Y563D02*
X3542Y563D01*
X3582Y563D02*
X3588Y563D01*
X3596Y563D02*
X3602Y563D01*
X3646Y563D02*
X3652Y563D01*
X668Y562D02*
X674Y562D01*
X686Y562D02*
X693Y562D01*
X732Y562D02*
X738Y562D01*
X746Y562D02*
X752Y562D01*
X818Y562D02*
X824Y562D01*
X836Y562D02*
X843Y562D01*
X868Y562D02*
X874Y562D01*
X3418Y562D02*
X3424Y562D01*
X3436Y562D02*
X3443Y562D01*
X3482Y562D02*
X3488Y562D01*
X3496Y562D02*
X3502Y562D01*
X3518Y562D02*
X3524Y562D01*
X3536Y562D02*
X3543Y562D01*
X3582Y562D02*
X3588Y562D01*
X3596Y562D02*
X3602Y562D01*
X3646Y562D02*
X3652Y562D01*
X668Y561D02*
X674Y561D01*
X686Y561D02*
X694Y561D01*
X732Y561D02*
X738Y561D01*
X746Y561D02*
X752Y561D01*
X818Y561D02*
X824Y561D01*
X836Y561D02*
X844Y561D01*
X868Y561D02*
X874Y561D01*
X3418Y561D02*
X3424Y561D01*
X3436Y561D02*
X3444Y561D01*
X3482Y561D02*
X3488Y561D01*
X3496Y561D02*
X3502Y561D01*
X3518Y561D02*
X3524Y561D01*
X3536Y561D02*
X3544Y561D01*
X3582Y561D02*
X3588Y561D01*
X3596Y561D02*
X3602Y561D01*
X3646Y561D02*
X3652Y561D01*
X668Y560D02*
X674Y560D01*
X687Y560D02*
X694Y560D01*
X732Y560D02*
X738Y560D01*
X746Y560D02*
X752Y560D01*
X818Y560D02*
X824Y560D01*
X837Y560D02*
X844Y560D01*
X868Y560D02*
X874Y560D01*
X3418Y560D02*
X3424Y560D01*
X3437Y560D02*
X3444Y560D01*
X3482Y560D02*
X3488Y560D01*
X3496Y560D02*
X3502Y560D01*
X3518Y560D02*
X3524Y560D01*
X3537Y560D02*
X3544Y560D01*
X3582Y560D02*
X3588Y560D01*
X3596Y560D02*
X3602Y560D01*
X3646Y560D02*
X3652Y560D01*
X668Y559D02*
X674Y559D01*
X687Y559D02*
X695Y559D01*
X732Y559D02*
X738Y559D01*
X746Y559D02*
X752Y559D01*
X818Y559D02*
X824Y559D01*
X837Y559D02*
X845Y559D01*
X868Y559D02*
X874Y559D01*
X3418Y559D02*
X3424Y559D01*
X3437Y559D02*
X3445Y559D01*
X3482Y559D02*
X3488Y559D01*
X3496Y559D02*
X3502Y559D01*
X3518Y559D02*
X3524Y559D01*
X3537Y559D02*
X3545Y559D01*
X3582Y559D02*
X3588Y559D01*
X3596Y559D02*
X3602Y559D01*
X3646Y559D02*
X3652Y559D01*
X668Y558D02*
X674Y558D01*
X688Y558D02*
X695Y558D01*
X732Y558D02*
X738Y558D01*
X746Y558D02*
X752Y558D01*
X818Y558D02*
X824Y558D01*
X838Y558D02*
X845Y558D01*
X868Y558D02*
X874Y558D01*
X3418Y558D02*
X3424Y558D01*
X3438Y558D02*
X3445Y558D01*
X3482Y558D02*
X3488Y558D01*
X3496Y558D02*
X3502Y558D01*
X3518Y558D02*
X3524Y558D01*
X3538Y558D02*
X3545Y558D01*
X3582Y558D02*
X3588Y558D01*
X3596Y558D02*
X3602Y558D01*
X3646Y558D02*
X3652Y558D01*
X668Y557D02*
X674Y557D01*
X689Y557D02*
X696Y557D01*
X732Y557D02*
X738Y557D01*
X746Y557D02*
X752Y557D01*
X818Y557D02*
X824Y557D01*
X839Y557D02*
X846Y557D01*
X868Y557D02*
X874Y557D01*
X3418Y557D02*
X3424Y557D01*
X3439Y557D02*
X3446Y557D01*
X3482Y557D02*
X3488Y557D01*
X3496Y557D02*
X3502Y557D01*
X3518Y557D02*
X3524Y557D01*
X3539Y557D02*
X3546Y557D01*
X3582Y557D02*
X3588Y557D01*
X3596Y557D02*
X3602Y557D01*
X3646Y557D02*
X3652Y557D01*
X668Y556D02*
X674Y556D01*
X689Y556D02*
X696Y556D01*
X732Y556D02*
X738Y556D01*
X746Y556D02*
X752Y556D01*
X818Y556D02*
X824Y556D01*
X839Y556D02*
X846Y556D01*
X868Y556D02*
X874Y556D01*
X3418Y556D02*
X3424Y556D01*
X3439Y556D02*
X3446Y556D01*
X3482Y556D02*
X3488Y556D01*
X3496Y556D02*
X3502Y556D01*
X3518Y556D02*
X3524Y556D01*
X3539Y556D02*
X3546Y556D01*
X3582Y556D02*
X3588Y556D01*
X3596Y556D02*
X3602Y556D01*
X3646Y556D02*
X3652Y556D01*
X668Y555D02*
X674Y555D01*
X690Y555D02*
X697Y555D01*
X732Y555D02*
X738Y555D01*
X746Y555D02*
X752Y555D01*
X818Y555D02*
X824Y555D01*
X840Y555D02*
X847Y555D01*
X868Y555D02*
X874Y555D01*
X3418Y555D02*
X3424Y555D01*
X3440Y555D02*
X3447Y555D01*
X3482Y555D02*
X3488Y555D01*
X3496Y555D02*
X3502Y555D01*
X3518Y555D02*
X3524Y555D01*
X3540Y555D02*
X3547Y555D01*
X3582Y555D02*
X3588Y555D01*
X3596Y555D02*
X3602Y555D01*
X3646Y555D02*
X3652Y555D01*
X668Y554D02*
X674Y554D01*
X690Y554D02*
X698Y554D01*
X732Y554D02*
X738Y554D01*
X746Y554D02*
X752Y554D01*
X818Y554D02*
X824Y554D01*
X840Y554D02*
X848Y554D01*
X868Y554D02*
X874Y554D01*
X3418Y554D02*
X3424Y554D01*
X3440Y554D02*
X3448Y554D01*
X3482Y554D02*
X3488Y554D01*
X3496Y554D02*
X3502Y554D01*
X3518Y554D02*
X3524Y554D01*
X3540Y554D02*
X3548Y554D01*
X3582Y554D02*
X3588Y554D01*
X3596Y554D02*
X3602Y554D01*
X3646Y554D02*
X3652Y554D01*
X668Y553D02*
X674Y553D01*
X691Y553D02*
X698Y553D01*
X732Y553D02*
X738Y553D01*
X746Y553D02*
X752Y553D01*
X818Y553D02*
X824Y553D01*
X841Y553D02*
X848Y553D01*
X868Y553D02*
X874Y553D01*
X3418Y553D02*
X3424Y553D01*
X3441Y553D02*
X3448Y553D01*
X3482Y553D02*
X3488Y553D01*
X3496Y553D02*
X3502Y553D01*
X3518Y553D02*
X3524Y553D01*
X3541Y553D02*
X3548Y553D01*
X3582Y553D02*
X3588Y553D01*
X3596Y553D02*
X3602Y553D01*
X3646Y553D02*
X3652Y553D01*
X668Y552D02*
X674Y552D01*
X692Y552D02*
X699Y552D01*
X732Y552D02*
X738Y552D01*
X746Y552D02*
X752Y552D01*
X818Y552D02*
X824Y552D01*
X842Y552D02*
X849Y552D01*
X868Y552D02*
X874Y552D01*
X3418Y552D02*
X3424Y552D01*
X3442Y552D02*
X3449Y552D01*
X3482Y552D02*
X3488Y552D01*
X3496Y552D02*
X3502Y552D01*
X3518Y552D02*
X3524Y552D01*
X3542Y552D02*
X3549Y552D01*
X3582Y552D02*
X3588Y552D01*
X3596Y552D02*
X3602Y552D01*
X3646Y552D02*
X3652Y552D01*
X668Y551D02*
X674Y551D01*
X692Y551D02*
X699Y551D01*
X732Y551D02*
X738Y551D01*
X746Y551D02*
X752Y551D01*
X818Y551D02*
X824Y551D01*
X842Y551D02*
X849Y551D01*
X868Y551D02*
X874Y551D01*
X3418Y551D02*
X3424Y551D01*
X3442Y551D02*
X3449Y551D01*
X3482Y551D02*
X3488Y551D01*
X3496Y551D02*
X3502Y551D01*
X3518Y551D02*
X3524Y551D01*
X3542Y551D02*
X3549Y551D01*
X3582Y551D02*
X3588Y551D01*
X3596Y551D02*
X3602Y551D01*
X3646Y551D02*
X3652Y551D01*
X668Y550D02*
X674Y550D01*
X693Y550D02*
X700Y550D01*
X732Y550D02*
X738Y550D01*
X746Y550D02*
X752Y550D01*
X818Y550D02*
X824Y550D01*
X843Y550D02*
X850Y550D01*
X868Y550D02*
X874Y550D01*
X3418Y550D02*
X3424Y550D01*
X3443Y550D02*
X3450Y550D01*
X3482Y550D02*
X3488Y550D01*
X3496Y550D02*
X3502Y550D01*
X3518Y550D02*
X3524Y550D01*
X3543Y550D02*
X3550Y550D01*
X3582Y550D02*
X3588Y550D01*
X3596Y550D02*
X3602Y550D01*
X3646Y550D02*
X3652Y550D01*
X668Y549D02*
X674Y549D01*
X693Y549D02*
X701Y549D01*
X720Y549D02*
X752Y549D01*
X818Y549D02*
X824Y549D01*
X843Y549D02*
X851Y549D01*
X868Y549D02*
X900Y549D01*
X3418Y549D02*
X3424Y549D01*
X3443Y549D02*
X3451Y549D01*
X3470Y549D02*
X3502Y549D01*
X3518Y549D02*
X3551Y549D01*
X3570Y549D02*
X3602Y549D01*
X3620Y549D02*
X3652Y549D01*
X668Y548D02*
X674Y548D01*
X694Y548D02*
X701Y548D01*
X719Y548D02*
X752Y548D01*
X818Y548D02*
X824Y548D01*
X844Y548D02*
X851Y548D01*
X868Y548D02*
X901Y548D01*
X3418Y548D02*
X3424Y548D01*
X3444Y548D02*
X3451Y548D01*
X3469Y548D02*
X3502Y548D01*
X3518Y548D02*
X3551Y548D01*
X3569Y548D02*
X3602Y548D01*
X3619Y548D02*
X3652Y548D01*
X668Y547D02*
X674Y547D01*
X695Y547D02*
X702Y547D01*
X719Y547D02*
X752Y547D01*
X818Y547D02*
X824Y547D01*
X845Y547D02*
X852Y547D01*
X868Y547D02*
X902Y547D01*
X3418Y547D02*
X3424Y547D01*
X3445Y547D02*
X3452Y547D01*
X3469Y547D02*
X3502Y547D01*
X3518Y547D02*
X3552Y547D01*
X3569Y547D02*
X3602Y547D01*
X3619Y547D02*
X3651Y547D01*
X668Y546D02*
X674Y546D01*
X695Y546D02*
X702Y546D01*
X718Y546D02*
X752Y546D01*
X818Y546D02*
X824Y546D01*
X845Y546D02*
X852Y546D01*
X868Y546D02*
X902Y546D01*
X3418Y546D02*
X3424Y546D01*
X3445Y546D02*
X3452Y546D01*
X3468Y546D02*
X3502Y546D01*
X3518Y546D02*
X3552Y546D01*
X3568Y546D02*
X3602Y546D01*
X3618Y546D02*
X3651Y546D01*
X668Y545D02*
X674Y545D01*
X696Y545D02*
X702Y545D01*
X718Y545D02*
X752Y545D01*
X818Y545D02*
X824Y545D01*
X846Y545D02*
X852Y545D01*
X868Y545D02*
X902Y545D01*
X3418Y545D02*
X3424Y545D01*
X3446Y545D02*
X3452Y545D01*
X3468Y545D02*
X3502Y545D01*
X3518Y545D02*
X3552Y545D01*
X3568Y545D02*
X3602Y545D01*
X3618Y545D02*
X3650Y545D01*
X669Y544D02*
X674Y544D01*
X696Y544D02*
X701Y544D01*
X719Y544D02*
X751Y544D01*
X819Y544D02*
X824Y544D01*
X846Y544D02*
X851Y544D01*
X868Y544D02*
X901Y544D01*
X3419Y544D02*
X3424Y544D01*
X3446Y544D02*
X3451Y544D01*
X3469Y544D02*
X3501Y544D01*
X3518Y544D02*
X3551Y544D01*
X3569Y544D02*
X3601Y544D01*
X3619Y544D02*
X3649Y544D01*
X670Y543D02*
X673Y543D01*
X697Y543D02*
X700Y543D01*
X720Y543D02*
X750Y543D01*
X820Y543D02*
X823Y543D01*
X847Y543D02*
X850Y543D01*
X868Y543D02*
X900Y543D01*
X3420Y543D02*
X3423Y543D01*
X3447Y543D02*
X3450Y543D01*
X3470Y543D02*
X3500Y543D01*
X3518Y543D02*
X3550Y543D01*
X3570Y543D02*
X3600Y543D01*
X3620Y543D02*
X3648Y543D01*
X1560Y496D02*
X1586Y496D01*
X1612Y496D02*
X1639Y496D01*
X2660Y496D02*
X2686Y496D01*
X2712Y496D02*
X2730Y496D01*
X2762Y496D02*
X2780Y496D01*
X1560Y495D02*
X1589Y495D01*
X1611Y495D02*
X1641Y495D01*
X2660Y495D02*
X2689Y495D01*
X2711Y495D02*
X2730Y495D01*
X2761Y495D02*
X2780Y495D01*
X1560Y494D02*
X1590Y494D01*
X1610Y494D02*
X1642Y494D01*
X2660Y494D02*
X2690Y494D01*
X2710Y494D02*
X2730Y494D01*
X2760Y494D02*
X2780Y494D01*
X1560Y493D02*
X1591Y493D01*
X1610Y493D02*
X1643Y493D01*
X2660Y493D02*
X2691Y493D01*
X2710Y493D02*
X2730Y493D01*
X2760Y493D02*
X2780Y493D01*
X1560Y492D02*
X1592Y492D01*
X1610Y492D02*
X1643Y492D01*
X2660Y492D02*
X2692Y492D01*
X2710Y492D02*
X2730Y492D01*
X2760Y492D02*
X2780Y492D01*
X1560Y491D02*
X1592Y491D01*
X1611Y491D02*
X1644Y491D01*
X2660Y491D02*
X2692Y491D01*
X2711Y491D02*
X2730Y491D01*
X2761Y491D02*
X2780Y491D01*
X1560Y490D02*
X1593Y490D01*
X1612Y490D02*
X1644Y490D01*
X2660Y490D02*
X2693Y490D01*
X2712Y490D02*
X2730Y490D01*
X2762Y490D02*
X2780Y490D01*
X1560Y489D02*
X1566Y489D01*
X1586Y489D02*
X1593Y489D01*
X1638Y489D02*
X1644Y489D01*
X2660Y489D02*
X2666Y489D01*
X2686Y489D02*
X2693Y489D01*
X2724Y489D02*
X2730Y489D01*
X2774Y489D02*
X2780Y489D01*
X1560Y488D02*
X1566Y488D01*
X1587Y488D02*
X1594Y488D01*
X1638Y488D02*
X1644Y488D01*
X2660Y488D02*
X2666Y488D01*
X2687Y488D02*
X2694Y488D01*
X2724Y488D02*
X2730Y488D01*
X2774Y488D02*
X2780Y488D01*
X1560Y487D02*
X1566Y487D01*
X1588Y487D02*
X1594Y487D01*
X1638Y487D02*
X1644Y487D01*
X2660Y487D02*
X2666Y487D01*
X2688Y487D02*
X2694Y487D01*
X2724Y487D02*
X2730Y487D01*
X2774Y487D02*
X2780Y487D01*
X1560Y486D02*
X1566Y486D01*
X1588Y486D02*
X1594Y486D01*
X1638Y486D02*
X1644Y486D01*
X2660Y486D02*
X2666Y486D01*
X2688Y486D02*
X2694Y486D01*
X2724Y486D02*
X2730Y486D01*
X2774Y486D02*
X2780Y486D01*
X1560Y485D02*
X1566Y485D01*
X1588Y485D02*
X1594Y485D01*
X1638Y485D02*
X1644Y485D01*
X2660Y485D02*
X2666Y485D01*
X2688Y485D02*
X2694Y485D01*
X2724Y485D02*
X2730Y485D01*
X2774Y485D02*
X2780Y485D01*
X1560Y484D02*
X1566Y484D01*
X1588Y484D02*
X1594Y484D01*
X1638Y484D02*
X1644Y484D01*
X2660Y484D02*
X2666Y484D01*
X2688Y484D02*
X2694Y484D01*
X2724Y484D02*
X2730Y484D01*
X2774Y484D02*
X2780Y484D01*
X1560Y483D02*
X1566Y483D01*
X1588Y483D02*
X1594Y483D01*
X1638Y483D02*
X1644Y483D01*
X2660Y483D02*
X2666Y483D01*
X2688Y483D02*
X2694Y483D01*
X2724Y483D02*
X2730Y483D01*
X2774Y483D02*
X2780Y483D01*
X1560Y482D02*
X1566Y482D01*
X1588Y482D02*
X1594Y482D01*
X1638Y482D02*
X1644Y482D01*
X2660Y482D02*
X2666Y482D01*
X2688Y482D02*
X2694Y482D01*
X2724Y482D02*
X2730Y482D01*
X2774Y482D02*
X2780Y482D01*
X1560Y481D02*
X1566Y481D01*
X1588Y481D02*
X1594Y481D01*
X1638Y481D02*
X1644Y481D01*
X2660Y481D02*
X2666Y481D01*
X2688Y481D02*
X2694Y481D01*
X2724Y481D02*
X2730Y481D01*
X2774Y481D02*
X2780Y481D01*
X1560Y480D02*
X1566Y480D01*
X1587Y480D02*
X1594Y480D01*
X1638Y480D02*
X1644Y480D01*
X2660Y480D02*
X2666Y480D01*
X2687Y480D02*
X2694Y480D01*
X2724Y480D02*
X2730Y480D01*
X2774Y480D02*
X2780Y480D01*
X1560Y479D02*
X1566Y479D01*
X1585Y479D02*
X1593Y479D01*
X1638Y479D02*
X1644Y479D01*
X2660Y479D02*
X2666Y479D01*
X2685Y479D02*
X2693Y479D01*
X2724Y479D02*
X2730Y479D01*
X2774Y479D02*
X2780Y479D01*
X1560Y478D02*
X1593Y478D01*
X1638Y478D02*
X1644Y478D01*
X2660Y478D02*
X2693Y478D01*
X2724Y478D02*
X2730Y478D01*
X2774Y478D02*
X2780Y478D01*
X1560Y477D02*
X1592Y477D01*
X1638Y477D02*
X1644Y477D01*
X2660Y477D02*
X2692Y477D01*
X2724Y477D02*
X2730Y477D01*
X2774Y477D02*
X2780Y477D01*
X1560Y476D02*
X1592Y476D01*
X1638Y476D02*
X1644Y476D01*
X2660Y476D02*
X2692Y476D01*
X2724Y476D02*
X2730Y476D01*
X2774Y476D02*
X2780Y476D01*
X1560Y475D02*
X1591Y475D01*
X1637Y475D02*
X1644Y475D01*
X2660Y475D02*
X2691Y475D01*
X2724Y475D02*
X2730Y475D01*
X2774Y475D02*
X2780Y475D01*
X1560Y474D02*
X1590Y474D01*
X1637Y474D02*
X1644Y474D01*
X2660Y474D02*
X2690Y474D01*
X2724Y474D02*
X2730Y474D01*
X2774Y474D02*
X2780Y474D01*
X1560Y473D02*
X1588Y473D01*
X1635Y473D02*
X1643Y473D01*
X2660Y473D02*
X2688Y473D01*
X2724Y473D02*
X2730Y473D01*
X2774Y473D02*
X2780Y473D01*
X1560Y472D02*
X1586Y472D01*
X1618Y472D02*
X1643Y472D01*
X2660Y472D02*
X2686Y472D01*
X2724Y472D02*
X2730Y472D01*
X2774Y472D02*
X2780Y472D01*
X1560Y471D02*
X1566Y471D01*
X1572Y471D02*
X1580Y471D01*
X1618Y471D02*
X1642Y471D01*
X2660Y471D02*
X2666Y471D01*
X2672Y471D02*
X2680Y471D01*
X2724Y471D02*
X2730Y471D01*
X2774Y471D02*
X2780Y471D01*
X1560Y470D02*
X1566Y470D01*
X1573Y470D02*
X1580Y470D01*
X1617Y470D02*
X1642Y470D01*
X2660Y470D02*
X2666Y470D01*
X2673Y470D02*
X2680Y470D01*
X2724Y470D02*
X2730Y470D01*
X2774Y470D02*
X2780Y470D01*
X1560Y469D02*
X1566Y469D01*
X1574Y469D02*
X1581Y469D01*
X1617Y469D02*
X1641Y469D01*
X2660Y469D02*
X2666Y469D01*
X2674Y469D02*
X2681Y469D01*
X2724Y469D02*
X2730Y469D01*
X2774Y469D02*
X2780Y469D01*
X1560Y468D02*
X1566Y468D01*
X1574Y468D02*
X1581Y468D01*
X1617Y468D02*
X1642Y468D01*
X2660Y468D02*
X2666Y468D01*
X2674Y468D02*
X2681Y468D01*
X2724Y468D02*
X2730Y468D01*
X2774Y468D02*
X2780Y468D01*
X1560Y467D02*
X1566Y467D01*
X1575Y467D02*
X1582Y467D01*
X1618Y467D02*
X1643Y467D01*
X2660Y467D02*
X2666Y467D01*
X2675Y467D02*
X2682Y467D01*
X2724Y467D02*
X2730Y467D01*
X2774Y467D02*
X2780Y467D01*
X1560Y466D02*
X1566Y466D01*
X1575Y466D02*
X1583Y466D01*
X1620Y466D02*
X1643Y466D01*
X2660Y466D02*
X2666Y466D01*
X2675Y466D02*
X2683Y466D01*
X2724Y466D02*
X2730Y466D01*
X2739Y466D02*
X2743Y466D01*
X2774Y466D02*
X2780Y466D01*
X2789Y466D02*
X2793Y466D01*
X1560Y465D02*
X1566Y465D01*
X1576Y465D02*
X1583Y465D01*
X1636Y465D02*
X1643Y465D01*
X2660Y465D02*
X2666Y465D01*
X2676Y465D02*
X2683Y465D01*
X2724Y465D02*
X2730Y465D01*
X2738Y465D02*
X2743Y465D01*
X2774Y465D02*
X2780Y465D01*
X2788Y465D02*
X2793Y465D01*
X1560Y464D02*
X1566Y464D01*
X1577Y464D02*
X1584Y464D01*
X1637Y464D02*
X1644Y464D01*
X2660Y464D02*
X2666Y464D01*
X2677Y464D02*
X2684Y464D01*
X2724Y464D02*
X2730Y464D01*
X2738Y464D02*
X2744Y464D01*
X2774Y464D02*
X2780Y464D01*
X2788Y464D02*
X2794Y464D01*
X1560Y463D02*
X1566Y463D01*
X1577Y463D02*
X1584Y463D01*
X1638Y463D02*
X1644Y463D01*
X2660Y463D02*
X2666Y463D01*
X2677Y463D02*
X2684Y463D01*
X2724Y463D02*
X2730Y463D01*
X2738Y463D02*
X2744Y463D01*
X2774Y463D02*
X2780Y463D01*
X2788Y463D02*
X2794Y463D01*
X1560Y462D02*
X1566Y462D01*
X1578Y462D02*
X1585Y462D01*
X1638Y462D02*
X1644Y462D01*
X2660Y462D02*
X2666Y462D01*
X2678Y462D02*
X2685Y462D01*
X2724Y462D02*
X2730Y462D01*
X2738Y462D02*
X2744Y462D01*
X2774Y462D02*
X2780Y462D01*
X2788Y462D02*
X2794Y462D01*
X1560Y461D02*
X1566Y461D01*
X1578Y461D02*
X1586Y461D01*
X1638Y461D02*
X1644Y461D01*
X2660Y461D02*
X2666Y461D01*
X2678Y461D02*
X2686Y461D01*
X2724Y461D02*
X2730Y461D01*
X2738Y461D02*
X2744Y461D01*
X2774Y461D02*
X2780Y461D01*
X2788Y461D02*
X2794Y461D01*
X1560Y460D02*
X1566Y460D01*
X1579Y460D02*
X1586Y460D01*
X1638Y460D02*
X1644Y460D01*
X2660Y460D02*
X2666Y460D01*
X2679Y460D02*
X2686Y460D01*
X2724Y460D02*
X2730Y460D01*
X2738Y460D02*
X2744Y460D01*
X2774Y460D02*
X2780Y460D01*
X2788Y460D02*
X2794Y460D01*
X1560Y459D02*
X1566Y459D01*
X1580Y459D02*
X1587Y459D01*
X1638Y459D02*
X1644Y459D01*
X2660Y459D02*
X2666Y459D01*
X2680Y459D02*
X2687Y459D01*
X2724Y459D02*
X2730Y459D01*
X2738Y459D02*
X2744Y459D01*
X2774Y459D02*
X2780Y459D01*
X2788Y459D02*
X2794Y459D01*
X1560Y458D02*
X1566Y458D01*
X1580Y458D02*
X1587Y458D01*
X1638Y458D02*
X1644Y458D01*
X2660Y458D02*
X2666Y458D01*
X2680Y458D02*
X2687Y458D01*
X2724Y458D02*
X2730Y458D01*
X2738Y458D02*
X2744Y458D01*
X2774Y458D02*
X2780Y458D01*
X2788Y458D02*
X2794Y458D01*
X1560Y457D02*
X1566Y457D01*
X1581Y457D02*
X1588Y457D01*
X1638Y457D02*
X1644Y457D01*
X2660Y457D02*
X2666Y457D01*
X2681Y457D02*
X2688Y457D01*
X2724Y457D02*
X2730Y457D01*
X2738Y457D02*
X2744Y457D01*
X2774Y457D02*
X2780Y457D01*
X2788Y457D02*
X2794Y457D01*
X1560Y456D02*
X1566Y456D01*
X1581Y456D02*
X1588Y456D01*
X1638Y456D02*
X1644Y456D01*
X2660Y456D02*
X2666Y456D01*
X2681Y456D02*
X2688Y456D01*
X2724Y456D02*
X2730Y456D01*
X2738Y456D02*
X2744Y456D01*
X2774Y456D02*
X2780Y456D01*
X2788Y456D02*
X2794Y456D01*
X1560Y455D02*
X1566Y455D01*
X1582Y455D02*
X1589Y455D01*
X1638Y455D02*
X1644Y455D01*
X2660Y455D02*
X2666Y455D01*
X2682Y455D02*
X2689Y455D01*
X2724Y455D02*
X2730Y455D01*
X2738Y455D02*
X2744Y455D01*
X2774Y455D02*
X2780Y455D01*
X2788Y455D02*
X2794Y455D01*
X1560Y454D02*
X1566Y454D01*
X1582Y454D02*
X1590Y454D01*
X1638Y454D02*
X1644Y454D01*
X2660Y454D02*
X2666Y454D01*
X2682Y454D02*
X2690Y454D01*
X2724Y454D02*
X2730Y454D01*
X2738Y454D02*
X2744Y454D01*
X2774Y454D02*
X2780Y454D01*
X2788Y454D02*
X2794Y454D01*
X1560Y453D02*
X1566Y453D01*
X1583Y453D02*
X1590Y453D01*
X1638Y453D02*
X1644Y453D01*
X2660Y453D02*
X2666Y453D01*
X2683Y453D02*
X2690Y453D01*
X2724Y453D02*
X2730Y453D01*
X2738Y453D02*
X2744Y453D01*
X2774Y453D02*
X2780Y453D01*
X2788Y453D02*
X2794Y453D01*
X1560Y452D02*
X1566Y452D01*
X1584Y452D02*
X1591Y452D01*
X1638Y452D02*
X1644Y452D01*
X2660Y452D02*
X2666Y452D01*
X2684Y452D02*
X2691Y452D01*
X2724Y452D02*
X2730Y452D01*
X2738Y452D02*
X2744Y452D01*
X2774Y452D02*
X2780Y452D01*
X2788Y452D02*
X2794Y452D01*
X1560Y451D02*
X1566Y451D01*
X1584Y451D02*
X1591Y451D01*
X1638Y451D02*
X1644Y451D01*
X2660Y451D02*
X2666Y451D01*
X2684Y451D02*
X2691Y451D01*
X2724Y451D02*
X2730Y451D01*
X2738Y451D02*
X2744Y451D01*
X2774Y451D02*
X2780Y451D01*
X2788Y451D02*
X2794Y451D01*
X1560Y450D02*
X1566Y450D01*
X1585Y450D02*
X1592Y450D01*
X1638Y450D02*
X1644Y450D01*
X2660Y450D02*
X2666Y450D01*
X2685Y450D02*
X2692Y450D01*
X2724Y450D02*
X2730Y450D01*
X2738Y450D02*
X2744Y450D01*
X2774Y450D02*
X2780Y450D01*
X2788Y450D02*
X2794Y450D01*
X1560Y449D02*
X1566Y449D01*
X1585Y449D02*
X1593Y449D01*
X1612Y449D02*
X1644Y449D01*
X2660Y449D02*
X2666Y449D01*
X2685Y449D02*
X2693Y449D01*
X2712Y449D02*
X2744Y449D01*
X2762Y449D02*
X2794Y449D01*
X1560Y448D02*
X1566Y448D01*
X1586Y448D02*
X1593Y448D01*
X1611Y448D02*
X1644Y448D01*
X2660Y448D02*
X2666Y448D01*
X2686Y448D02*
X2693Y448D01*
X2711Y448D02*
X2744Y448D01*
X2761Y448D02*
X2794Y448D01*
X1560Y447D02*
X1566Y447D01*
X1587Y447D02*
X1594Y447D01*
X1611Y447D02*
X1643Y447D01*
X2660Y447D02*
X2666Y447D01*
X2687Y447D02*
X2694Y447D01*
X2711Y447D02*
X2744Y447D01*
X2761Y447D02*
X2794Y447D01*
X1560Y446D02*
X1566Y446D01*
X1587Y446D02*
X1594Y446D01*
X1610Y446D02*
X1643Y446D01*
X2660Y446D02*
X2666Y446D01*
X2687Y446D02*
X2694Y446D01*
X2710Y446D02*
X2744Y446D01*
X2760Y446D02*
X2794Y446D01*
X1560Y445D02*
X1566Y445D01*
X1588Y445D02*
X1594Y445D01*
X1610Y445D02*
X1642Y445D01*
X2660Y445D02*
X2666Y445D01*
X2688Y445D02*
X2694Y445D01*
X2710Y445D02*
X2744Y445D01*
X2760Y445D02*
X2794Y445D01*
X1561Y444D02*
X1566Y444D01*
X1588Y444D02*
X1593Y444D01*
X1611Y444D02*
X1641Y444D01*
X2661Y444D02*
X2666Y444D01*
X2688Y444D02*
X2693Y444D01*
X2711Y444D02*
X2743Y444D01*
X2761Y444D02*
X2793Y444D01*
X1562Y443D02*
X1565Y443D01*
X1589Y443D02*
X1592Y443D01*
X1612Y443D02*
X1640Y443D01*
X2662Y443D02*
X2665Y443D01*
X2689Y443D02*
X2692Y443D01*
X2712Y443D02*
X2742Y443D01*
X2762Y443D02*
X2792Y443D01*
X103Y436D02*
X120Y436D01*
X1573Y436D02*
X1593Y436D01*
X100Y435D02*
X123Y435D01*
X1573Y435D02*
X1596Y435D01*
X99Y434D02*
X124Y434D01*
X1573Y434D02*
X1597Y434D01*
X98Y433D02*
X125Y433D01*
X1573Y433D02*
X1597Y433D01*
X97Y432D02*
X126Y432D01*
X1573Y432D02*
X1598Y432D01*
X97Y431D02*
X126Y431D01*
X1573Y431D02*
X1599Y431D01*
X97Y430D02*
X126Y430D01*
X1573Y430D02*
X1600Y430D01*
X76Y429D02*
X103Y429D01*
X120Y429D02*
X126Y429D01*
X1573Y429D02*
X1580Y429D01*
X1592Y429D02*
X1601Y429D01*
X74Y428D02*
X103Y428D01*
X120Y428D02*
X126Y428D01*
X1573Y428D02*
X1579Y428D01*
X1594Y428D02*
X1602Y428D01*
X73Y427D02*
X103Y427D01*
X120Y427D02*
X126Y427D01*
X1573Y427D02*
X1579Y427D01*
X1594Y427D02*
X1603Y427D01*
X73Y426D02*
X103Y426D01*
X120Y426D02*
X126Y426D01*
X1573Y426D02*
X1579Y426D01*
X1595Y426D02*
X1603Y426D01*
X73Y425D02*
X103Y425D01*
X120Y425D02*
X126Y425D01*
X1573Y425D02*
X1579Y425D01*
X1596Y425D02*
X1604Y425D01*
X73Y424D02*
X103Y424D01*
X120Y424D02*
X126Y424D01*
X1573Y424D02*
X1579Y424D01*
X1597Y424D02*
X1605Y424D01*
X73Y423D02*
X103Y423D01*
X120Y423D02*
X126Y423D01*
X1573Y423D02*
X1579Y423D01*
X1598Y423D02*
X1606Y423D01*
X73Y422D02*
X79Y422D01*
X96Y422D02*
X103Y422D01*
X120Y422D02*
X126Y422D01*
X1573Y422D02*
X1579Y422D01*
X1599Y422D02*
X1624Y422D01*
X73Y421D02*
X79Y421D01*
X97Y421D02*
X103Y421D01*
X120Y421D02*
X126Y421D01*
X1573Y421D02*
X1579Y421D01*
X1599Y421D02*
X1625Y421D01*
X73Y420D02*
X79Y420D01*
X97Y420D02*
X103Y420D01*
X120Y420D02*
X126Y420D01*
X1573Y420D02*
X1579Y420D01*
X1600Y420D02*
X1626Y420D01*
X73Y419D02*
X79Y419D01*
X97Y419D02*
X103Y419D01*
X120Y419D02*
X126Y419D01*
X1573Y419D02*
X1579Y419D01*
X1601Y419D02*
X1626Y419D01*
X73Y418D02*
X79Y418D01*
X97Y418D02*
X103Y418D01*
X120Y418D02*
X126Y418D01*
X1573Y418D02*
X1579Y418D01*
X1602Y418D02*
X1626Y418D01*
X73Y417D02*
X79Y417D01*
X97Y417D02*
X103Y417D01*
X120Y417D02*
X126Y417D01*
X1573Y417D02*
X1579Y417D01*
X1603Y417D02*
X1626Y417D01*
X73Y416D02*
X79Y416D01*
X97Y416D02*
X103Y416D01*
X120Y416D02*
X126Y416D01*
X1573Y416D02*
X1579Y416D01*
X1604Y416D02*
X1625Y416D01*
X73Y415D02*
X103Y415D01*
X120Y415D02*
X126Y415D01*
X1573Y415D02*
X1579Y415D01*
X73Y414D02*
X103Y414D01*
X120Y414D02*
X126Y414D01*
X1573Y414D02*
X1579Y414D01*
X73Y413D02*
X103Y413D01*
X120Y413D02*
X126Y413D01*
X1573Y413D02*
X1579Y413D01*
X73Y412D02*
X103Y412D01*
X120Y412D02*
X126Y412D01*
X1573Y412D02*
X1579Y412D01*
X73Y411D02*
X103Y411D01*
X120Y411D02*
X126Y411D01*
X1573Y411D02*
X1579Y411D01*
X74Y410D02*
X103Y410D01*
X120Y410D02*
X126Y410D01*
X1573Y410D02*
X1579Y410D01*
X75Y409D02*
X103Y409D01*
X120Y409D02*
X126Y409D01*
X1573Y409D02*
X1579Y409D01*
X97Y408D02*
X126Y408D01*
X1573Y408D02*
X1580Y408D01*
X97Y407D02*
X126Y407D01*
X1573Y407D02*
X1581Y407D01*
X97Y406D02*
X126Y406D01*
X1573Y406D02*
X1582Y406D01*
X98Y405D02*
X125Y405D01*
X1573Y405D02*
X1582Y405D01*
X98Y404D02*
X125Y404D01*
X1573Y404D02*
X1582Y404D01*
X99Y403D02*
X124Y403D01*
X1574Y403D02*
X1581Y403D01*
X101Y402D02*
X122Y402D01*
X1575Y402D02*
X1580Y402D01*
X75Y382D02*
X119Y382D01*
X1575Y382D02*
X1619Y382D01*
X74Y381D02*
X121Y381D01*
X1574Y381D02*
X1621Y381D01*
X73Y380D02*
X122Y380D01*
X1573Y380D02*
X1622Y380D01*
X73Y379D02*
X124Y379D01*
X1573Y379D02*
X1624Y379D01*
X73Y378D02*
X124Y378D01*
X1573Y378D02*
X1624Y378D01*
X74Y377D02*
X125Y377D01*
X1574Y377D02*
X1625Y377D01*
X75Y376D02*
X125Y376D01*
X1575Y376D02*
X1625Y376D01*
X118Y375D02*
X126Y375D01*
X1618Y375D02*
X1626Y375D01*
X120Y374D02*
X126Y374D01*
X1620Y374D02*
X1626Y374D01*
X120Y373D02*
X126Y373D01*
X1620Y373D02*
X1626Y373D01*
X120Y372D02*
X126Y372D01*
X1620Y372D02*
X1626Y372D01*
X120Y371D02*
X126Y371D01*
X1620Y371D02*
X1626Y371D01*
X120Y370D02*
X126Y370D01*
X1620Y370D02*
X1626Y370D01*
X120Y369D02*
X126Y369D01*
X1620Y369D02*
X1626Y369D01*
X120Y368D02*
X126Y368D01*
X1620Y368D02*
X1626Y368D01*
X120Y367D02*
X126Y367D01*
X1620Y367D02*
X1626Y367D01*
X120Y366D02*
X126Y366D01*
X1620Y366D02*
X1626Y366D01*
X120Y365D02*
X126Y365D01*
X1620Y365D02*
X1626Y365D01*
X120Y364D02*
X126Y364D01*
X1620Y364D02*
X1626Y364D01*
X119Y363D02*
X126Y363D01*
X1619Y363D02*
X1626Y363D01*
X117Y362D02*
X126Y362D01*
X1617Y362D02*
X1626Y362D01*
X104Y361D02*
X125Y361D01*
X1604Y361D02*
X1625Y361D01*
X103Y360D02*
X125Y360D01*
X1603Y360D02*
X1625Y360D01*
X103Y359D02*
X124Y359D01*
X1603Y359D02*
X1624Y359D01*
X103Y358D02*
X123Y358D01*
X1603Y358D02*
X1623Y358D01*
X103Y357D02*
X122Y357D01*
X1603Y357D02*
X1622Y357D01*
X104Y356D02*
X120Y356D01*
X1604Y356D02*
X1620Y356D01*
X105Y355D02*
X117Y355D01*
X1605Y355D02*
X1617Y355D01*
D02*
G04 End of Silk1*
M02*