; NON-PLATED HOLES START AT T1
; THROUGH (PLATED) HOLES START AT T100
M48
INCH,LZ
T100C0.035000
T101C0.040000
T102C0.039370
T103C0.031497
T104C0.041000
T105C0.038194
T106C0.038000
T107C0.047244
%
T100
X026766Y036157
X024766Y036157
X040766Y011657
X022766Y036157
X017766Y046657
X009266Y050157
X014766Y041657
X018766Y036157
X031766Y044657
X005266Y014657
X044266Y035157
X028766Y047657
X031766Y047657
X009266Y043657
X034266Y050157
X011266Y014657
X044266Y031157
X012766Y036157
X013766Y041657
X007266Y017657
X004266Y017657
X011766Y036157
X013766Y040157
X031766Y008157
X045266Y011657
X012266Y013657
X008266Y017657
X023766Y036157
X013766Y047657
X031766Y041657
X041766Y051157
X031766Y012157
X014766Y042657
X031766Y042657
X037266Y050157
X008766Y033657
X012266Y050157
X017766Y036157
X028766Y045657
X010266Y017657
X004266Y014657
X025766Y036157
X017766Y045657
X008766Y040157
X005266Y047157
X017766Y041657
X032766Y047657
X031266Y050157
X009266Y046657
X020766Y040157
X014766Y045657
X021766Y036157
X013766Y036157
X012266Y001157
X020766Y036157
X028766Y043657
X015266Y050157
X017766Y043657
X041766Y047157
X028266Y050157
X008266Y014657
X028766Y046657
X007266Y014657
X017766Y047657
X005266Y017657
X018266Y050157
X005266Y051157
X028766Y042657
X031766Y043657
X010266Y014657
X015766Y036157
X037766Y043657
X014766Y047657
X037766Y046657
X014766Y043657
X014766Y046657
X028766Y041657
X014766Y044657
X017766Y042657
X006266Y014657
X014766Y036157
X016766Y036157
X028766Y044657
X011266Y017657
X017766Y044657
X031766Y045657
X006266Y017657
X009266Y014657
X009266Y017657
X031766Y046657
X019766Y036157
X032766Y041657
T101
X038766Y019657
X006266Y021657
X041266Y014657
X041266Y016657
X006266Y010657
X041266Y015657
X006266Y012657
X038766Y021657
X006266Y019657
T102
X034766Y008657
X037766Y002657
X008266Y006657
X008266Y004657
X037766Y006657
X008266Y002657
X034766Y002657
X008266Y008657
X037766Y004657
X011266Y008657
X011266Y004657
X037766Y008657
X034766Y004657
X011266Y002657
X011266Y006657
X034766Y006657
T103
X019766Y050141
X013766Y050141
X007766Y050141
X032766Y049173
X041766Y009173
X026766Y050141
X007766Y049157
X032766Y050157
X038766Y050141
X013766Y049157
X026766Y049157
X019766Y049157
X041766Y010157
X038766Y049157
T104
X006266Y037157
X020266Y042657
X023766Y042657
X040766Y041657
X043266Y037157
X005266Y035157
X006766Y043657
X038766Y041657
X004266Y037157
X005766Y041657
X021266Y044657
X035766Y043657
X010266Y041657
X036766Y041657
X039766Y043657
X042266Y035157
X025766Y042657
X024766Y044657
X034766Y041657
X041266Y037157
X022266Y042657
X012266Y041657
X007766Y041657
X011266Y043657
T105
X032766Y032157
X020766Y038157
X032766Y029157
X032766Y017157
X013766Y011557
X032766Y024157
X025766Y038157
X032766Y026157
X013766Y019157
X029766Y037157
X013766Y034157
X013766Y018157
X032766Y014157
X017766Y037157
X032766Y020157
X032766Y036157
X026766Y038157
X027766Y037157
X028766Y038157
X013766Y025157
X013766Y009557
X013766Y029157
X013766Y022157
X023766Y038157
X013766Y023157
X032766Y031157
X016766Y037157
X013766Y013557
X023766Y037157
X013766Y016557
X025766Y037157
X032766Y034157
X013766Y030157
X013766Y032157
X013766Y012557
X032766Y023157
X032766Y025157
X015766Y038157
X014766Y037157
X032766Y033157
X029766Y038157
X032766Y012157
X013766Y028157
X032766Y030157
X018766Y038157
X013766Y037157
X027766Y038157
X017766Y038157
X022766Y038157
X032766Y011157
X016766Y038157
X024766Y037157
X032766Y035157
X013766Y024157
X032766Y015157
X030766Y037157
X026766Y037157
X024766Y038157
X013766Y038157
X013766Y027157
X014766Y038157
X013766Y008557
X013766Y021157
X028766Y037157
X013766Y010557
X032766Y027157
X019766Y038157
X013766Y033157
X032766Y018157
X018766Y037157
X032766Y013157
X015766Y037157
X032766Y021157
X032766Y016157
X021766Y037157
X013766Y007557
X013766Y031157
X013766Y020157
X030766Y038157
X013766Y014557
X019766Y037157
X013766Y015557
X021766Y038157
X022766Y037157
X020766Y037157
X032766Y022157
T106
X015766Y031157
X018766Y034657
X001766Y050657
X045266Y050657
X045266Y015157
X038766Y017157
X034766Y032157
X019766Y034657
X043266Y048157
X015766Y034157
X034766Y030157
X001766Y049657
X019766Y039157
X036766Y017157
X034766Y033157
X013766Y042657
X001766Y018157
X002766Y051657
X043266Y047157
X044266Y051657
X001766Y051657
X019766Y046657
X002766Y017157
X025766Y039157
X004766Y023657
X021766Y039157
X044266Y050657
X002766Y016157
X034766Y031157
X045266Y052657
X001766Y017157
X004766Y028157
X001766Y052657
X045266Y016157
X024766Y039157
X032766Y042657
X004766Y029157
X015766Y029157
X045266Y018157
X034766Y034157
X004766Y027157
X037766Y017157
X022766Y039157
X045266Y017157
X004766Y024657
X015766Y030157
X045266Y051657
X044266Y016157
X001766Y016157
X020766Y034657
X018766Y043657
X043766Y028157
X015766Y033157
X012266Y046657
X044266Y017157
X027766Y042657
X004766Y026157
X002766Y050657
X017766Y034657
X023766Y039157
X034766Y035157
X018766Y039157
X018766Y042657
X043766Y025157
X034766Y036157
X020766Y039157
X033766Y046657
X035766Y017157
X004766Y030157
X042266Y033657
X026766Y046657
X015766Y032157
X034766Y029157
X042266Y032657
X045266Y049657
X027766Y043657
X001766Y015157
T107
X004266Y002657
X039766Y007578
X041734Y002657
X006234Y002657
X039766Y002657
X041734Y007578
X006234Y007578
X004266Y007578
T00
M30
