G04 MADE WITH FRITZING*
G04 WWW.FRITZING.ORG*
G04 SINGLE SIDED*
G04 HOLES NOT PLATED*
G04 CONTOUR ON CENTER OF CONTOUR VECTOR*
%ASAXBY*%
%FSLAX23Y23*%
%MOIN*%
%OFA0B0*%
%SFA1.0B1.0*%
%ADD10C,0.078000*%
%ADD11C,0.075000*%
%ADD12C,0.099000*%
%ADD13C,0.062992*%
%ADD14C,0.080000*%
%ADD15C,0.072917*%
%ADD16C,0.074000*%
%ADD17C,0.059370*%
%ADD18C,0.085000*%
%ADD19R,0.075000X0.075000*%
%ADD20R,0.099000X0.099000*%
%ADD21R,0.062992X0.062992*%
%ADD22R,0.079986X0.080000*%
%ADD23C,0.024000*%
%ADD24C,0.032000*%
%ADD25C,0.048000*%
%ADD26C,0.020000*%
%ADD27R,0.001000X0.001000*%
%LNCOPPER0*%
G90*
G70*
G54D10*
X1396Y5823D03*
X1496Y5823D03*
X1596Y5823D03*
X1696Y5823D03*
X1396Y5723D03*
X1496Y5723D03*
X1596Y5723D03*
X1696Y5723D03*
X1496Y2073D03*
X1496Y2073D03*
X2796Y3673D03*
X2896Y3673D03*
X2996Y3673D03*
X2796Y3673D03*
X2896Y3673D03*
X2996Y3673D03*
X2146Y5723D03*
X2246Y5723D03*
X2346Y5723D03*
X2446Y5723D03*
X2546Y5723D03*
X2646Y5723D03*
X2746Y5723D03*
X2446Y5623D03*
X2546Y5623D03*
X2646Y5623D03*
X2746Y5623D03*
X4096Y1323D03*
X4196Y1323D03*
X4096Y1323D03*
X4196Y1323D03*
X1096Y2123D03*
X1196Y2123D03*
X1096Y2123D03*
X1196Y2123D03*
X3496Y823D03*
X3596Y823D03*
X3696Y823D03*
X3796Y823D03*
X4146Y2873D03*
X4146Y2773D03*
X4146Y2673D03*
X4146Y2573D03*
X4146Y2473D03*
X4146Y2373D03*
X4146Y2873D03*
X4146Y2773D03*
X4146Y2673D03*
X4146Y2573D03*
X4146Y2473D03*
X4146Y2373D03*
X4696Y423D03*
X4696Y523D03*
X4696Y623D03*
X4696Y723D03*
X3496Y923D03*
X3596Y923D03*
X3696Y923D03*
X3796Y923D03*
X4446Y2573D03*
X4446Y2573D03*
X4446Y2823D03*
X4446Y2823D03*
X2896Y4323D03*
X2896Y4423D03*
X2896Y4323D03*
X2896Y4423D03*
X1946Y4323D03*
X1946Y4423D03*
X1946Y4323D03*
X1946Y4423D03*
X3496Y4723D03*
X3496Y4723D03*
X3396Y4323D03*
X3396Y4323D03*
X2796Y4723D03*
X2796Y4723D03*
X2046Y4723D03*
X2046Y4723D03*
X1346Y4723D03*
X1346Y4723D03*
X1446Y4323D03*
X1446Y4323D03*
X1096Y3473D03*
X1096Y3373D03*
X1096Y3273D03*
X1096Y3173D03*
X1096Y3073D03*
X1096Y2973D03*
X1096Y3473D03*
X1096Y3373D03*
X1096Y3273D03*
X1096Y3173D03*
X1096Y3073D03*
X1096Y2973D03*
X3496Y3673D03*
X3496Y3573D03*
X3496Y3473D03*
X3496Y3373D03*
X3496Y3273D03*
X3496Y3173D03*
X3496Y3073D03*
X3496Y2973D03*
X3496Y3673D03*
X3496Y3573D03*
X3496Y3473D03*
X3496Y3373D03*
X3496Y3273D03*
X3496Y3173D03*
X3496Y3073D03*
X3496Y2973D03*
X1896Y3973D03*
X1996Y3973D03*
X2096Y3973D03*
X2196Y3973D03*
X2296Y3973D03*
X2396Y3973D03*
X2496Y3973D03*
X2596Y3973D03*
X1896Y3973D03*
X1996Y3973D03*
X2096Y3973D03*
X2196Y3973D03*
X2296Y3973D03*
X2396Y3973D03*
X2496Y3973D03*
X2596Y3973D03*
X496Y3073D03*
X496Y2973D03*
X496Y2873D03*
X496Y2773D03*
X496Y2673D03*
X496Y3073D03*
X496Y2973D03*
X496Y2873D03*
X496Y2773D03*
X496Y2673D03*
G54D11*
X896Y3423D03*
X896Y4073D03*
G54D10*
X1796Y3573D03*
X1896Y3573D03*
X1996Y3573D03*
X2096Y3573D03*
X496Y2523D03*
X496Y2423D03*
X496Y2523D03*
X496Y2423D03*
G54D11*
X3896Y4423D03*
X3896Y4723D03*
X946Y4423D03*
X946Y4723D03*
G54D10*
X4696Y5023D03*
X4696Y5123D03*
X4696Y5223D03*
X4696Y5323D03*
X4696Y5023D03*
X4696Y5123D03*
X4696Y5223D03*
X4696Y5323D03*
X4696Y1523D03*
X4696Y1623D03*
X4696Y1723D03*
X4696Y1823D03*
X4696Y1523D03*
X4696Y1623D03*
X4696Y1723D03*
X4696Y1823D03*
X196Y1823D03*
X196Y1723D03*
X196Y1623D03*
X196Y1523D03*
X196Y1823D03*
X196Y1723D03*
X196Y1623D03*
X196Y1523D03*
G54D11*
X4196Y1123D03*
X4646Y1123D03*
G54D10*
X4596Y1723D03*
X4596Y1623D03*
X4596Y1723D03*
X4596Y1623D03*
X296Y1723D03*
X296Y1623D03*
X296Y1723D03*
X296Y1623D03*
X196Y5323D03*
X196Y5223D03*
X196Y5123D03*
X196Y5023D03*
X196Y5323D03*
X196Y5223D03*
X196Y5123D03*
X196Y5023D03*
X296Y5223D03*
X296Y5123D03*
X296Y5223D03*
X296Y5123D03*
X4596Y5223D03*
X4596Y5123D03*
X4596Y5223D03*
X4596Y5123D03*
X4346Y4873D03*
X4346Y4773D03*
X4346Y4873D03*
X4346Y4773D03*
G54D11*
X1546Y4823D03*
X1846Y4823D03*
X1546Y4723D03*
X1846Y4723D03*
X1546Y4623D03*
X1846Y4623D03*
X1546Y4523D03*
X1846Y4523D03*
X1546Y4423D03*
X1846Y4423D03*
X1546Y4323D03*
X1846Y4323D03*
X1546Y4223D03*
X1846Y4223D03*
G54D12*
X2496Y4323D03*
X2696Y4323D03*
X2596Y4523D03*
X2496Y4323D03*
X2696Y4323D03*
X2596Y4523D03*
X2146Y4323D03*
X2346Y4323D03*
X2246Y4523D03*
X2146Y4323D03*
X2346Y4323D03*
X2246Y4523D03*
X3996Y4223D03*
X4196Y4223D03*
X4096Y4423D03*
X3996Y4223D03*
X4196Y4223D03*
X4096Y4423D03*
X3596Y4223D03*
X3796Y4223D03*
X3696Y4423D03*
X3596Y4223D03*
X3796Y4223D03*
X3696Y4423D03*
X1046Y4223D03*
X1246Y4223D03*
X1146Y4423D03*
X1046Y4223D03*
X1246Y4223D03*
X1146Y4423D03*
X596Y4223D03*
X796Y4223D03*
X696Y4423D03*
X596Y4223D03*
X796Y4223D03*
X696Y4423D03*
G54D11*
X2146Y4073D03*
X1396Y4073D03*
X3396Y4223D03*
X3396Y4823D03*
X1396Y4223D03*
X1396Y4823D03*
G54D13*
X4046Y4973D03*
X4046Y5071D03*
X4046Y4973D03*
X4046Y5071D03*
X3396Y4973D03*
X3396Y5071D03*
X3396Y4973D03*
X3396Y5071D03*
X2746Y4973D03*
X2746Y5071D03*
X2746Y4973D03*
X2746Y5071D03*
X2096Y4973D03*
X2096Y5071D03*
X2096Y4973D03*
X2096Y5071D03*
X1446Y4973D03*
X1446Y5071D03*
X1446Y4973D03*
X1446Y5071D03*
X746Y4973D03*
X746Y5071D03*
X746Y4973D03*
X746Y5071D03*
G54D11*
X3246Y5073D03*
X2946Y5073D03*
X3246Y5073D03*
X2946Y5073D03*
X3846Y5073D03*
X3546Y5073D03*
X3846Y5073D03*
X3546Y5073D03*
X4196Y5173D03*
X4196Y4873D03*
X4196Y5173D03*
X4196Y4873D03*
X596Y5173D03*
X596Y4873D03*
X596Y5173D03*
X596Y4873D03*
X1896Y5073D03*
X1596Y5073D03*
X1896Y5073D03*
X1596Y5073D03*
X1296Y5073D03*
X996Y5073D03*
X1296Y5073D03*
X996Y5073D03*
G54D14*
X3896Y1973D03*
X3896Y2173D03*
X646Y2223D03*
X646Y2023D03*
X646Y1323D03*
X646Y1123D03*
G54D15*
X3296Y3073D03*
X3296Y1473D03*
X3296Y3173D03*
X3296Y3273D03*
X3296Y3373D03*
X3296Y3473D03*
X1896Y3773D03*
X3296Y3573D03*
X3296Y3673D03*
X1396Y1513D03*
X3296Y2073D03*
X3296Y2173D03*
X3296Y2273D03*
X3296Y2373D03*
X2696Y3773D03*
X3296Y2473D03*
X3296Y2573D03*
X3296Y2673D03*
X3296Y2773D03*
X1396Y2273D03*
X1496Y3773D03*
X2296Y3773D03*
X3096Y3773D03*
X1396Y1113D03*
X3296Y1873D03*
X1396Y1873D03*
X1696Y3773D03*
X2096Y3773D03*
X2496Y3773D03*
X1396Y3473D03*
X2896Y3773D03*
X1396Y3373D03*
X1396Y3273D03*
X1396Y3173D03*
X1396Y3073D03*
X1396Y2973D03*
X1396Y2873D03*
X1396Y2773D03*
X1396Y913D03*
X1396Y1313D03*
X1396Y1713D03*
X3296Y1273D03*
X3296Y1673D03*
X1396Y2473D03*
X1396Y2073D03*
X1396Y3773D03*
X1596Y3773D03*
X1796Y3773D03*
X1996Y3773D03*
X2196Y3773D03*
X2396Y3773D03*
X2596Y3773D03*
X2796Y3773D03*
X2996Y3773D03*
X1396Y813D03*
X1396Y1013D03*
X1396Y1213D03*
X1396Y1413D03*
X1396Y1613D03*
X3296Y1173D03*
X3296Y1373D03*
X3296Y1573D03*
X3296Y1773D03*
X1396Y2573D03*
X1396Y2373D03*
X1396Y2173D03*
X1396Y1973D03*
X1396Y3873D03*
X1496Y3873D03*
X1596Y3873D03*
X1696Y3873D03*
X1796Y3873D03*
X1896Y3873D03*
X1996Y3873D03*
X2096Y3873D03*
X2196Y3873D03*
X2296Y3873D03*
X2396Y3873D03*
X2496Y3873D03*
X2596Y3873D03*
X2696Y3873D03*
X2796Y3873D03*
X2896Y3873D03*
X2996Y3873D03*
X3096Y3873D03*
X3296Y2973D03*
G54D10*
X3896Y1773D03*
X3796Y1773D03*
X3696Y1773D03*
X3596Y1773D03*
X3896Y1773D03*
X3796Y1773D03*
X3696Y1773D03*
X3596Y1773D03*
G54D16*
X4146Y1723D03*
X4146Y1623D03*
X4146Y1523D03*
X4146Y1723D03*
X4146Y1623D03*
X4146Y1523D03*
X4146Y1723D03*
X4146Y1623D03*
X4146Y1523D03*
G54D17*
X3296Y573D03*
X2996Y573D03*
X3296Y373D03*
X2996Y373D03*
X3296Y573D03*
X2996Y573D03*
X3296Y373D03*
X2996Y373D03*
X3296Y573D03*
X2996Y573D03*
X3296Y373D03*
X2996Y373D03*
G54D18*
X4046Y815D03*
X4243Y815D03*
X4243Y323D03*
X4046Y323D03*
X4046Y815D03*
X4243Y815D03*
X4243Y323D03*
X4046Y323D03*
X4046Y815D03*
X4243Y815D03*
X4243Y323D03*
X4046Y323D03*
G54D13*
X2346Y521D03*
X2346Y423D03*
X2346Y521D03*
X2346Y423D03*
X2546Y521D03*
X2546Y423D03*
X2546Y521D03*
X2546Y423D03*
X2146Y521D03*
X2146Y423D03*
X2146Y521D03*
X2146Y423D03*
X1896Y521D03*
X1896Y423D03*
X1896Y521D03*
X1896Y423D03*
X2796Y521D03*
X2796Y423D03*
X2796Y521D03*
X2796Y423D03*
G54D11*
X1896Y1873D03*
X1496Y1873D03*
X1896Y1873D03*
X1496Y1873D03*
X1896Y1623D03*
X1496Y1623D03*
X1896Y1623D03*
X1496Y1623D03*
X1896Y1423D03*
X1496Y1423D03*
X1896Y1423D03*
X1496Y1423D03*
X1896Y823D03*
X1496Y823D03*
X1896Y823D03*
X1496Y823D03*
X2796Y823D03*
X3196Y823D03*
X2796Y823D03*
X3196Y823D03*
X1246Y123D03*
X1246Y1423D03*
X1196Y3673D03*
X1296Y3673D03*
X1396Y3673D03*
X1496Y3673D03*
X1596Y3673D03*
X1696Y3673D03*
X1796Y3673D03*
X1896Y3673D03*
X1996Y3673D03*
X2096Y3673D03*
X2196Y3673D03*
X2296Y3673D03*
X2396Y3673D03*
X2496Y3673D03*
X2596Y3673D03*
X2696Y3673D03*
G54D12*
X646Y3773D03*
X446Y3773D03*
X546Y3573D03*
X646Y3773D03*
X446Y3773D03*
X546Y3573D03*
X4346Y3773D03*
X4146Y3773D03*
X4246Y3573D03*
X4346Y3773D03*
X4146Y3773D03*
X4246Y3573D03*
G54D11*
X4446Y3173D03*
X4446Y3573D03*
X4446Y3173D03*
X4446Y3573D03*
G54D10*
X4246Y3323D03*
X4246Y3423D03*
X4246Y3323D03*
X4246Y3423D03*
G54D11*
X446Y1523D03*
X446Y1823D03*
X546Y1523D03*
X546Y1823D03*
X646Y1523D03*
X646Y1823D03*
X746Y1523D03*
X746Y1823D03*
X846Y1523D03*
X846Y1823D03*
X946Y1523D03*
X946Y1823D03*
X1046Y1523D03*
X1046Y1823D03*
X1146Y1523D03*
X1146Y1823D03*
G54D18*
X446Y815D03*
X643Y815D03*
X643Y323D03*
X446Y323D03*
X446Y815D03*
X643Y815D03*
X643Y323D03*
X446Y323D03*
X446Y815D03*
X643Y815D03*
X643Y323D03*
X446Y323D03*
G54D17*
X1396Y373D03*
X1696Y373D03*
X1396Y573D03*
X1696Y573D03*
X1396Y373D03*
X1696Y373D03*
X1396Y573D03*
X1696Y573D03*
X1396Y373D03*
X1696Y373D03*
X1396Y573D03*
X1696Y573D03*
X896Y373D03*
X1196Y373D03*
X896Y573D03*
X1196Y573D03*
X896Y373D03*
X1196Y373D03*
X896Y573D03*
X1196Y573D03*
X896Y373D03*
X1196Y373D03*
X896Y573D03*
X1196Y573D03*
X3496Y373D03*
X3796Y373D03*
X3496Y573D03*
X3796Y573D03*
X3496Y373D03*
X3796Y373D03*
X3496Y573D03*
X3796Y573D03*
X3496Y373D03*
X3796Y373D03*
X3496Y573D03*
X3796Y573D03*
G54D11*
X2996Y4823D03*
X3296Y4823D03*
X2996Y4723D03*
X3296Y4723D03*
X2996Y4623D03*
X3296Y4623D03*
X2996Y4523D03*
X3296Y4523D03*
X2996Y4423D03*
X3296Y4423D03*
X2996Y4323D03*
X3296Y4323D03*
X2996Y4223D03*
X3296Y4223D03*
G54D10*
X1096Y2773D03*
X1096Y2673D03*
X1096Y2773D03*
X1096Y2673D03*
G54D19*
X1546Y4823D03*
G54D20*
X2696Y4323D03*
X2696Y4323D03*
X2346Y4323D03*
X2346Y4323D03*
X4196Y4223D03*
X4196Y4223D03*
X3796Y4223D03*
X3796Y4223D03*
X1246Y4223D03*
X1246Y4223D03*
X796Y4223D03*
X796Y4223D03*
G54D21*
X4046Y4973D03*
X4046Y4973D03*
X3396Y4973D03*
X3396Y4973D03*
X2746Y4973D03*
X2746Y4973D03*
X2096Y4973D03*
X2096Y4973D03*
X1446Y4973D03*
X1446Y4973D03*
X746Y4973D03*
X746Y4973D03*
G54D22*
X646Y2223D03*
X646Y1323D03*
G54D21*
X2346Y521D03*
X2346Y521D03*
X2546Y521D03*
X2546Y521D03*
X2146Y521D03*
X2146Y521D03*
X1896Y521D03*
X1896Y521D03*
X2796Y521D03*
X2796Y521D03*
G54D19*
X1195Y3673D03*
G54D20*
X446Y3773D03*
X446Y3773D03*
X4146Y3773D03*
X4146Y3773D03*
G54D19*
X446Y1523D03*
X2996Y4823D03*
G54D23*
X1466Y5723D02*
X1426Y5723D01*
D02*
X1526Y5723D02*
X1566Y5723D01*
D02*
X1626Y5723D02*
X1666Y5723D01*
D02*
X1726Y5723D02*
X2116Y5723D01*
D02*
X1626Y5823D02*
X1666Y5823D01*
D02*
X1566Y5823D02*
X1526Y5823D01*
D02*
X1466Y5823D02*
X1426Y5823D01*
D02*
X2245Y5773D02*
X2245Y5753D01*
D02*
X2197Y5823D02*
X2245Y5773D01*
D02*
X1726Y5823D02*
X2197Y5823D01*
D02*
X1467Y1420D02*
X1426Y1416D01*
D02*
X2145Y222D02*
X2146Y396D01*
D02*
X1796Y1072D02*
X1795Y1522D01*
D02*
X1795Y1522D02*
X1875Y1603D01*
D02*
X2146Y722D02*
X1796Y1072D01*
D02*
X2146Y548D02*
X2146Y722D01*
D02*
X1467Y1620D02*
X1426Y1616D01*
D02*
X1426Y1873D02*
X1467Y1873D01*
D02*
X2547Y223D02*
X2546Y396D01*
D02*
X2546Y674D02*
X1995Y1223D01*
D02*
X1995Y1223D02*
X1996Y1774D01*
D02*
X1996Y1774D02*
X1916Y1853D01*
D02*
X2546Y548D02*
X2546Y674D01*
D02*
X2346Y224D02*
X2346Y396D01*
D02*
X2345Y674D02*
X1895Y1123D01*
D02*
X1895Y1123D02*
X1896Y1394D01*
D02*
X2346Y548D02*
X2345Y674D01*
D02*
X2796Y3703D02*
X2796Y3743D01*
D02*
X2896Y3703D02*
X2896Y3743D01*
D02*
X2996Y3703D02*
X2996Y3743D01*
D02*
X1897Y224D02*
X1896Y396D01*
D02*
X1495Y1174D02*
X1446Y1222D01*
D02*
X1446Y1222D02*
X1425Y1218D01*
D02*
X1496Y852D02*
X1495Y1174D01*
D02*
X1896Y548D02*
X1896Y794D01*
G54D24*
D02*
X3794Y322D02*
X3698Y221D01*
D02*
X3295Y221D02*
X3295Y337D01*
D02*
X3698Y221D02*
X3295Y221D01*
D02*
X3795Y337D02*
X3794Y322D01*
D02*
X2346Y224D02*
X2547Y223D01*
D02*
X2547Y223D02*
X2797Y224D01*
D02*
X2145Y222D02*
X2346Y224D01*
D02*
X1897Y224D02*
X2145Y222D01*
D02*
X1394Y225D02*
X1897Y224D01*
D02*
X1394Y225D02*
X1395Y337D01*
D02*
X895Y224D02*
X1394Y225D01*
G54D23*
D02*
X3346Y1072D02*
X3474Y944D01*
D02*
X3196Y1072D02*
X3346Y1072D01*
D02*
X2796Y548D02*
X2796Y794D01*
G54D24*
D02*
X2797Y224D02*
X2796Y391D01*
D02*
X3295Y221D02*
X2798Y224D01*
G54D23*
D02*
X3997Y674D02*
X3997Y372D01*
D02*
X3845Y824D02*
X3997Y674D01*
D02*
X3826Y824D02*
X3845Y824D01*
D02*
X4696Y453D02*
X4696Y493D01*
D02*
X4696Y553D02*
X4696Y593D01*
D02*
X4696Y653D02*
X4696Y693D01*
D02*
X4496Y423D02*
X4666Y423D01*
D02*
X3996Y924D02*
X3826Y923D01*
D02*
X4175Y1103D02*
X3996Y924D01*
D02*
X2147Y5324D02*
X2146Y5693D01*
D02*
X2247Y5624D02*
X2445Y5423D01*
D02*
X4796Y5422D02*
X4796Y5322D01*
D02*
X2445Y5423D02*
X4796Y5422D01*
D02*
X2246Y5693D02*
X2247Y5624D01*
D02*
X2446Y5693D02*
X2446Y5653D01*
D02*
X2546Y5693D02*
X2546Y5653D01*
D02*
X2646Y5693D02*
X2646Y5653D01*
D02*
X2746Y5693D02*
X2746Y5653D01*
D02*
X2347Y4422D02*
X2346Y4355D01*
D02*
X1596Y3702D02*
X1596Y3743D01*
D02*
X4346Y4803D02*
X4346Y4843D01*
D02*
X4126Y1323D02*
X4166Y1323D01*
D02*
X3594Y1321D02*
X3446Y1474D01*
D02*
X3446Y1474D02*
X3326Y1473D01*
D02*
X4066Y1323D02*
X3594Y1321D01*
D02*
X1095Y2474D02*
X1096Y2153D01*
D02*
X1194Y2572D02*
X1095Y2474D01*
D02*
X1365Y2573D02*
X1194Y2572D01*
D02*
X1194Y2424D02*
X1195Y2153D01*
D02*
X1247Y2474D02*
X1194Y2424D01*
D02*
X1365Y2473D02*
X1247Y2474D01*
D02*
X3697Y2372D02*
X3596Y2271D01*
D02*
X3596Y2271D02*
X3326Y2273D01*
D02*
X4116Y2373D02*
X3697Y2372D01*
D02*
X3596Y2372D02*
X3326Y2373D01*
D02*
X3697Y2473D02*
X3596Y2372D01*
D02*
X4116Y2473D02*
X3697Y2473D01*
D02*
X3596Y2473D02*
X3326Y2473D01*
D02*
X3697Y2574D02*
X3596Y2473D01*
D02*
X4116Y2573D02*
X3697Y2574D01*
D02*
X3697Y2672D02*
X3596Y2574D01*
D02*
X3596Y2574D02*
X3326Y2573D01*
D02*
X4116Y2673D02*
X3697Y2672D01*
D02*
X3697Y2773D02*
X3596Y2672D01*
D02*
X3596Y2672D02*
X3326Y2673D01*
D02*
X4116Y2773D02*
X3697Y2773D01*
D02*
X3697Y2874D02*
X3596Y2773D01*
D02*
X3596Y2773D02*
X3326Y2773D01*
D02*
X4116Y2873D02*
X3697Y2874D01*
D02*
X3566Y923D02*
X3526Y923D01*
D02*
X3626Y923D02*
X3666Y923D01*
D02*
X3726Y923D02*
X3766Y923D01*
D02*
X3726Y823D02*
X3766Y823D01*
D02*
X3666Y823D02*
X3626Y823D01*
D02*
X3566Y823D02*
X3526Y823D01*
D02*
X4695Y1172D02*
X4696Y1493D01*
D02*
X4666Y1143D02*
X4695Y1172D01*
D02*
X4797Y2571D02*
X4476Y2573D01*
D02*
X3196Y3323D02*
X3194Y2922D01*
D02*
X3046Y3473D02*
X3196Y3323D01*
D02*
X3247Y2873D02*
X3596Y2874D01*
D02*
X3697Y2972D02*
X4347Y2972D01*
D02*
X3596Y2874D02*
X3697Y2972D01*
D02*
X4446Y2872D02*
X4446Y2853D01*
D02*
X4347Y2972D02*
X4446Y2872D01*
D02*
X3194Y2922D02*
X3247Y2873D01*
D02*
X2245Y3473D02*
X3046Y3473D01*
D02*
X2145Y3573D02*
X2245Y3473D01*
D02*
X2126Y3573D02*
X2145Y3573D01*
D02*
X4346Y3572D02*
X4346Y3741D01*
D02*
X4277Y3573D02*
X4346Y3572D01*
D02*
X1517Y4723D02*
X1376Y4723D01*
D02*
X1476Y4323D02*
X1517Y4323D01*
D02*
X2016Y4723D02*
X1874Y4723D01*
D02*
X2967Y4723D02*
X2826Y4723D01*
D02*
X2967Y4323D02*
X2926Y4323D01*
D02*
X1874Y4323D02*
X1916Y4323D01*
D02*
X3366Y4323D02*
X3324Y4323D01*
D02*
X3466Y4723D02*
X3324Y4723D01*
D02*
X3466Y3673D02*
X3326Y3673D01*
D02*
X3466Y3573D02*
X3326Y3573D01*
D02*
X3466Y3473D02*
X3326Y3473D01*
D02*
X3466Y3373D02*
X3326Y3373D01*
D02*
X3466Y3273D02*
X3326Y3273D01*
D02*
X3466Y3173D02*
X3326Y3173D01*
D02*
X3466Y3073D02*
X3326Y3073D01*
D02*
X3466Y2973D02*
X3326Y2973D01*
D02*
X1126Y2973D02*
X1365Y2973D01*
D02*
X1126Y3073D02*
X1365Y3073D01*
D02*
X1126Y3173D02*
X1365Y3173D01*
D02*
X1126Y3273D02*
X1365Y3273D01*
D02*
X1126Y3373D02*
X1365Y3373D01*
D02*
X1126Y3473D02*
X1365Y3473D01*
D02*
X1874Y4423D02*
X1916Y4423D01*
D02*
X2967Y4423D02*
X2926Y4423D01*
D02*
X3545Y4324D02*
X3495Y4274D01*
D02*
X3494Y4172D02*
X3195Y3872D01*
D02*
X3495Y4274D02*
X3494Y4172D01*
D02*
X3797Y4323D02*
X3545Y4324D01*
D02*
X3195Y3872D02*
X3126Y3873D01*
D02*
X3998Y4021D02*
X4447Y4024D01*
D02*
X4446Y5072D02*
X4195Y5323D01*
D02*
X4446Y5024D02*
X4446Y5072D01*
D02*
X396Y4673D02*
X496Y4572D01*
D02*
X395Y5325D02*
X396Y4673D01*
D02*
X2147Y5324D02*
X395Y5325D01*
D02*
X4195Y5323D02*
X2147Y5324D01*
D02*
X2596Y3903D02*
X2596Y3943D01*
D02*
X2496Y3903D02*
X2496Y3943D01*
D02*
X2396Y3903D02*
X2396Y3943D01*
D02*
X2296Y3903D02*
X2296Y3943D01*
D02*
X2196Y3903D02*
X2196Y3943D01*
D02*
X2096Y3903D02*
X2096Y3943D01*
D02*
X1996Y3903D02*
X1996Y3943D01*
D02*
X1896Y3903D02*
X1896Y3943D01*
D02*
X343Y3075D02*
X466Y3073D01*
D02*
X497Y4323D02*
X573Y4245D01*
D02*
X645Y3822D02*
X645Y3805D01*
D02*
X545Y3921D02*
X645Y3822D01*
D02*
X395Y3921D02*
X545Y3921D01*
D02*
X446Y3673D02*
X1167Y3673D01*
D02*
X446Y3741D02*
X446Y3673D01*
D02*
X845Y3374D02*
X875Y3403D01*
D02*
X597Y3372D02*
X845Y3374D01*
D02*
X445Y3524D02*
X597Y3372D01*
D02*
X446Y3673D02*
X445Y3524D01*
D02*
X397Y2424D02*
X395Y2922D01*
D02*
X396Y2272D02*
X397Y2424D01*
D02*
X545Y2123D02*
X396Y2272D01*
D02*
X695Y2124D02*
X545Y2123D01*
D02*
X444Y2974D02*
X466Y2974D01*
D02*
X395Y2922D02*
X444Y2974D01*
D02*
X746Y2073D02*
X695Y2124D01*
D02*
X746Y1852D02*
X746Y2073D01*
D02*
X545Y2974D02*
X526Y2974D01*
D02*
X597Y3023D02*
X545Y2974D01*
D02*
X597Y3372D02*
X597Y3023D01*
D02*
X1494Y3725D02*
X1495Y3702D01*
D02*
X1495Y3743D02*
X1494Y3725D01*
D02*
X1696Y3743D02*
X1696Y3702D01*
D02*
X2496Y3743D02*
X2496Y3702D01*
D02*
X2396Y3702D02*
X2396Y3743D01*
D02*
X2296Y3702D02*
X2296Y3743D01*
D02*
X2196Y3702D02*
X2196Y3743D01*
D02*
X1796Y3702D02*
X1796Y3743D01*
D02*
X1896Y3702D02*
X1896Y3743D01*
D02*
X1996Y3702D02*
X1996Y3743D01*
D02*
X2096Y3702D02*
X2096Y3743D01*
D02*
X2096Y3644D02*
X2096Y3603D01*
D02*
X1996Y3644D02*
X1996Y3603D01*
D02*
X1896Y3644D02*
X1896Y3603D01*
D02*
X1796Y3644D02*
X1796Y3603D01*
D02*
X496Y2643D02*
X496Y2553D01*
D02*
X397Y2424D02*
X466Y2423D01*
G54D25*
D02*
X3697Y1972D02*
X3866Y2143D01*
G54D23*
D02*
X3727Y4423D02*
X3867Y4423D01*
D02*
X974Y4423D02*
X1114Y4423D01*
D02*
X1396Y404D02*
X1396Y542D01*
D02*
X1696Y404D02*
X1696Y542D01*
D02*
X1596Y2122D02*
X1596Y772D01*
D02*
X1596Y772D02*
X1546Y723D01*
D02*
X1546Y2173D02*
X1596Y2122D01*
D02*
X1426Y2173D02*
X1546Y2173D01*
D02*
X645Y474D02*
X643Y358D01*
D02*
X1645Y2173D02*
X1645Y723D01*
D02*
X1546Y2272D02*
X1645Y2173D01*
D02*
X896Y722D02*
X645Y474D01*
D02*
X1546Y723D02*
X896Y722D01*
D02*
X1426Y2273D02*
X1546Y2272D01*
D02*
X1546Y2374D02*
X1426Y2373D01*
D02*
X1696Y2224D02*
X1546Y2374D01*
D02*
X1696Y604D02*
X1696Y2224D01*
D02*
X1295Y673D02*
X1596Y673D01*
D02*
X1596Y673D02*
X1645Y723D01*
D02*
X1217Y595D02*
X1295Y673D01*
D02*
X3195Y2073D02*
X3265Y2073D01*
D02*
X3095Y1972D02*
X3195Y2073D01*
D02*
X3095Y774D02*
X3095Y1972D01*
D02*
X3196Y674D02*
X3095Y774D01*
D02*
X3395Y673D02*
X3196Y674D01*
D02*
X3474Y595D02*
X3395Y673D01*
D02*
X3196Y2172D02*
X3265Y2173D01*
D02*
X3047Y2023D02*
X3196Y2172D01*
D02*
X3046Y622D02*
X3047Y2023D01*
D02*
X3018Y595D02*
X3046Y622D01*
D02*
X344Y1825D02*
X226Y1823D01*
G54D24*
D02*
X540Y1220D02*
X222Y1499D01*
G54D23*
D02*
X4797Y1971D02*
X4797Y2274D01*
D02*
X3996Y2272D02*
X3918Y2195D01*
D02*
X4797Y2274D02*
X3996Y2272D01*
D02*
X4713Y1848D02*
X4797Y1971D01*
D02*
X4666Y1723D02*
X4626Y1723D01*
D02*
X4666Y1623D02*
X4626Y1623D01*
D02*
X226Y1723D02*
X266Y1723D01*
D02*
X226Y1623D02*
X266Y1623D01*
D02*
X226Y5223D02*
X266Y5223D01*
D02*
X226Y5123D02*
X266Y5123D01*
D02*
X395Y5325D02*
X226Y5323D01*
D02*
X145Y5023D02*
X166Y5023D01*
D02*
X94Y1571D02*
X96Y4973D01*
D02*
X96Y4973D02*
X145Y5023D01*
D02*
X146Y1523D02*
X94Y1571D01*
D02*
X166Y1523D02*
X146Y1523D01*
D02*
X4666Y5223D02*
X4626Y5223D01*
D02*
X4666Y5123D02*
X4626Y5123D01*
D02*
X4446Y5024D02*
X4666Y5023D01*
D02*
X4796Y5322D02*
X4726Y5323D01*
D02*
X4797Y2571D02*
X4796Y5322D01*
D02*
X4797Y2274D02*
X4797Y2571D01*
D02*
X4447Y4024D02*
X4446Y3602D01*
D02*
X4447Y4024D02*
X4446Y5024D01*
D02*
X4195Y4973D02*
X4196Y4902D01*
D02*
X4096Y5072D02*
X4195Y4973D01*
D02*
X4073Y5072D02*
X4096Y5072D01*
D02*
X3844Y5171D02*
X4167Y5173D01*
D02*
X697Y5072D02*
X719Y5072D01*
D02*
X597Y4971D02*
X697Y5072D01*
D02*
X596Y4902D02*
X597Y4971D01*
D02*
X895Y4822D02*
X765Y4954D01*
D02*
X1367Y4823D02*
X895Y4822D01*
D02*
X4346Y4724D02*
X4346Y4743D01*
D02*
X1095Y4622D02*
X1517Y4623D01*
D02*
X996Y4724D02*
X1095Y4622D01*
D02*
X974Y4723D02*
X996Y4724D01*
D02*
X795Y4522D02*
X718Y4445D01*
D02*
X1295Y4424D02*
X1195Y4523D01*
D02*
X1195Y4523D02*
X795Y4522D01*
D02*
X1517Y4423D02*
X1295Y4424D01*
D02*
X845Y4324D02*
X945Y4225D01*
D02*
X746Y4323D02*
X845Y4324D01*
D02*
X694Y4274D02*
X746Y4323D01*
D02*
X945Y4225D02*
X1014Y4223D01*
D02*
X694Y4223D02*
X694Y4274D01*
D02*
X627Y4223D02*
X694Y4223D01*
D02*
X795Y4172D02*
X795Y4191D01*
D02*
X896Y4073D02*
X795Y4172D01*
D02*
X924Y4073D02*
X896Y4073D01*
D02*
X1196Y4073D02*
X924Y4073D01*
D02*
X1245Y4124D02*
X1196Y4073D01*
D02*
X1245Y4191D02*
X1245Y4124D01*
D02*
X3597Y4172D02*
X3596Y4191D01*
D02*
X3745Y4023D02*
X3597Y4172D01*
D02*
X3998Y4021D02*
X3745Y4023D01*
D02*
X3996Y4191D02*
X3998Y4021D01*
D02*
X3797Y4323D02*
X3796Y4255D01*
D02*
X4197Y4324D02*
X3797Y4323D01*
D02*
X4197Y4324D02*
X4195Y4623D01*
D02*
X4196Y4255D02*
X4197Y4324D01*
D02*
X1245Y4574D02*
X1296Y4523D01*
D02*
X496Y4572D02*
X1245Y4574D01*
D02*
X497Y4323D02*
X496Y4572D01*
D02*
X2496Y4074D02*
X2174Y4073D01*
D02*
X2496Y4291D02*
X2496Y4074D01*
D02*
X2646Y4424D02*
X2347Y4422D01*
D02*
X2347Y4422D02*
X2347Y5172D01*
D02*
X2696Y4374D02*
X2646Y4424D01*
D02*
X2696Y4355D02*
X2696Y4374D01*
D02*
X2147Y4624D02*
X2224Y4546D01*
D02*
X1874Y4623D02*
X2147Y4624D01*
D02*
X1496Y4973D02*
X1473Y4973D01*
D02*
X1546Y4924D02*
X1496Y4973D01*
D02*
X1546Y4852D02*
X1546Y4924D01*
D02*
X3897Y4822D02*
X3424Y4823D01*
D02*
X4027Y4954D02*
X3897Y4822D01*
D02*
X1895Y4822D02*
X1874Y4823D01*
D02*
X2045Y4973D02*
X1895Y4822D01*
D02*
X2069Y4973D02*
X2045Y4973D01*
D02*
X2069Y5072D02*
X1924Y5073D01*
D02*
X1419Y5072D02*
X1324Y5073D01*
D02*
X997Y5174D02*
X624Y5173D01*
D02*
X2773Y5072D02*
X2917Y5073D01*
D02*
X3423Y5072D02*
X3517Y5073D01*
D02*
X1595Y5174D02*
X1595Y5102D01*
D02*
X997Y5174D02*
X1595Y5174D01*
D02*
X996Y5102D02*
X997Y5174D01*
D02*
X3844Y5171D02*
X3845Y5102D01*
D02*
X3246Y5171D02*
X3844Y5171D01*
D02*
X3246Y5102D02*
X3246Y5171D01*
D02*
X2347Y5172D02*
X1595Y5174D01*
D02*
X3246Y5171D02*
X2347Y5172D01*
D02*
X1424Y4223D02*
X1517Y4223D01*
D02*
X1995Y4523D02*
X1874Y4523D01*
D02*
X2097Y4424D02*
X1995Y4523D01*
D02*
X2347Y4422D02*
X2097Y4424D01*
D02*
X2146Y4102D02*
X2146Y4291D01*
D02*
X1396Y3971D02*
X1396Y4044D01*
D02*
X846Y3974D02*
X1396Y3971D01*
D02*
X694Y4123D02*
X846Y3974D01*
D02*
X694Y4223D02*
X694Y4123D01*
G54D24*
D02*
X945Y2073D02*
X946Y1857D01*
D02*
X796Y2222D02*
X945Y2073D01*
D02*
X682Y2223D02*
X796Y2222D01*
G54D23*
D02*
X1146Y1973D02*
X1045Y1874D01*
D02*
X1365Y1973D02*
X1146Y1973D01*
G54D24*
D02*
X646Y1986D02*
X646Y1857D01*
D02*
X646Y1360D02*
X646Y1489D01*
D02*
X946Y1273D02*
X796Y1123D01*
D02*
X946Y1489D02*
X946Y1273D01*
D02*
X796Y1123D02*
X682Y1123D01*
G54D23*
D02*
X546Y1773D02*
X546Y1794D01*
D02*
X546Y1573D02*
X546Y1552D01*
D02*
X1046Y1472D02*
X1046Y1494D01*
D02*
X1347Y1323D02*
X1195Y1323D01*
D02*
X1195Y1323D02*
X1046Y1472D01*
D02*
X1366Y1319D02*
X1347Y1323D01*
G54D25*
D02*
X3396Y1773D02*
X3337Y1773D01*
D02*
X3596Y1972D02*
X3396Y1773D01*
D02*
X3697Y1972D02*
X3596Y1972D01*
D02*
X3696Y1814D02*
X3697Y1972D01*
D02*
X3594Y1721D02*
X3594Y1732D01*
D02*
X3445Y1572D02*
X3594Y1721D01*
D02*
X3337Y1573D02*
X3445Y1572D01*
D02*
X3895Y1624D02*
X4103Y1623D01*
D02*
X3795Y1722D02*
X3895Y1624D01*
D02*
X4047Y1974D02*
X3938Y1973D01*
D02*
X4145Y1874D02*
X4047Y1974D01*
D02*
X4146Y1765D02*
X4145Y1874D01*
D02*
X3795Y1732D02*
X3795Y1722D01*
G54D23*
D02*
X3296Y1743D02*
X3296Y1703D01*
D02*
X4345Y1124D02*
X4194Y1225D01*
D02*
X4345Y423D02*
X4345Y1124D01*
D02*
X3546Y1221D02*
X3398Y1373D01*
D02*
X3398Y1373D02*
X3326Y1373D01*
D02*
X4194Y1225D02*
X3546Y1221D01*
D02*
X4267Y347D02*
X4345Y423D01*
G54D24*
D02*
X3695Y1624D02*
X3695Y1737D01*
D02*
X4147Y221D02*
X4296Y224D01*
D02*
X3895Y1423D02*
X3695Y1624D01*
D02*
X4245Y1422D02*
X3895Y1423D01*
D02*
X4397Y1273D02*
X4245Y1422D01*
D02*
X4395Y322D02*
X4397Y1273D01*
D02*
X4296Y224D02*
X4395Y322D01*
D02*
X4074Y294D02*
X4147Y221D01*
G54D23*
D02*
X3196Y1072D02*
X3196Y852D01*
D02*
X3198Y1572D02*
X3196Y1072D01*
D02*
X3265Y1573D02*
X3198Y1572D01*
D02*
X3296Y404D02*
X3296Y542D01*
D02*
X2996Y404D02*
X2996Y542D01*
G54D24*
D02*
X4496Y423D02*
X4496Y272D01*
D02*
X4496Y1324D02*
X4496Y423D01*
D02*
X4197Y1622D02*
X4496Y1324D01*
D02*
X4182Y1623D02*
X4197Y1622D01*
D02*
X4345Y124D02*
X1280Y123D01*
D02*
X4496Y272D02*
X4345Y124D01*
D02*
X344Y1825D02*
X411Y1824D01*
D02*
X1222Y1447D02*
X1170Y1499D01*
D02*
X1347Y1124D02*
X1361Y1121D01*
D02*
X1194Y1025D02*
X1347Y1124D01*
D02*
X848Y1021D02*
X1194Y1025D01*
D02*
X544Y1024D02*
X848Y1021D01*
D02*
X746Y1223D02*
X540Y1220D01*
D02*
X846Y1323D02*
X746Y1223D01*
D02*
X846Y1489D02*
X846Y1323D01*
D02*
X540Y1220D02*
X544Y1024D01*
G54D23*
D02*
X817Y1523D02*
X774Y1523D01*
D02*
X817Y1823D02*
X774Y1823D01*
D02*
X1295Y3702D02*
X1295Y3773D01*
D02*
X1295Y3773D02*
X1365Y3773D01*
D02*
X3097Y3623D02*
X3046Y3572D01*
D02*
X3096Y3743D02*
X3097Y3623D01*
D02*
X2747Y3572D02*
X2696Y3623D01*
D02*
X2696Y3623D02*
X2696Y3644D01*
D02*
X3046Y3572D02*
X2747Y3572D01*
D02*
X1396Y3803D02*
X1396Y3843D01*
D02*
X3096Y3803D02*
X3096Y3843D01*
D02*
X1395Y3623D02*
X1395Y3644D01*
D02*
X1346Y3573D02*
X1395Y3623D01*
D02*
X577Y3573D02*
X1346Y3573D01*
D02*
X3095Y3524D02*
X2696Y3524D01*
D02*
X3195Y3624D02*
X3095Y3524D01*
D02*
X3195Y3724D02*
X3195Y3624D01*
D02*
X3245Y3773D02*
X3195Y3724D01*
D02*
X4114Y3773D02*
X3245Y3773D01*
D02*
X2597Y3624D02*
X2596Y3644D01*
D02*
X2696Y3524D02*
X2597Y3624D01*
D02*
X4394Y3172D02*
X4417Y3172D01*
D02*
X4267Y3302D02*
X4394Y3172D01*
D02*
X4246Y3541D02*
X4246Y3453D01*
D02*
X1045Y1874D02*
X1045Y1852D01*
D02*
X1195Y1874D02*
X1166Y1844D01*
D02*
X1365Y1873D02*
X1195Y1874D01*
D02*
X596Y1723D02*
X1365Y1713D01*
D02*
X546Y1773D02*
X596Y1723D01*
D02*
X596Y1623D02*
X1246Y1624D01*
D02*
X546Y1573D02*
X596Y1623D01*
D02*
X496Y1673D02*
X446Y1623D01*
D02*
X1297Y1672D02*
X496Y1673D01*
D02*
X446Y1623D02*
X446Y1552D01*
D02*
X1345Y1624D02*
X1366Y1620D01*
D02*
X1297Y1672D02*
X1345Y1624D01*
D02*
X1345Y1522D02*
X1366Y1518D01*
D02*
X1246Y1624D02*
X1345Y1522D01*
G54D24*
D02*
X545Y324D02*
X486Y323D01*
D02*
X544Y1024D02*
X545Y324D01*
G54D23*
D02*
X3997Y372D02*
X3826Y373D01*
D02*
X4021Y348D02*
X3997Y372D01*
D02*
X3796Y542D02*
X3796Y404D01*
D02*
X3496Y542D02*
X3496Y404D01*
G54D24*
D02*
X895Y224D02*
X895Y337D01*
D02*
X597Y222D02*
X895Y224D01*
D02*
X546Y273D02*
X597Y222D01*
D02*
X545Y324D02*
X546Y273D01*
G54D23*
D02*
X896Y404D02*
X896Y542D01*
D02*
X1196Y404D02*
X1196Y542D01*
D02*
X347Y3874D02*
X395Y3921D01*
D02*
X343Y3075D02*
X347Y3874D01*
D02*
X344Y1825D02*
X343Y3075D01*
D02*
X1295Y3773D02*
X677Y3773D01*
D02*
X1497Y4022D02*
X1496Y3903D01*
D02*
X1545Y4073D02*
X1497Y4022D01*
D02*
X1545Y4194D02*
X1545Y4073D01*
D02*
X1596Y4822D02*
X1574Y4823D01*
D02*
X1645Y4774D02*
X1596Y4822D01*
D02*
X1647Y4073D02*
X1645Y4774D01*
D02*
X1596Y4022D02*
X1647Y4073D01*
D02*
X1596Y3903D02*
X1596Y4022D01*
D02*
X1795Y4822D02*
X1817Y4823D01*
D02*
X1747Y4774D02*
X1795Y4822D01*
D02*
X1746Y4073D02*
X1747Y4774D01*
D02*
X1695Y4022D02*
X1746Y4073D01*
D02*
X1695Y3903D02*
X1695Y4022D01*
D02*
X1845Y4073D02*
X1797Y4022D01*
D02*
X1797Y4022D02*
X1796Y3903D01*
D02*
X1845Y4194D02*
X1845Y4073D01*
D02*
X3296Y4175D02*
X3296Y4194D01*
D02*
X3047Y3973D02*
X3195Y3973D01*
D02*
X3297Y4073D02*
X3296Y4175D01*
D02*
X3195Y3973D02*
X3297Y4073D01*
D02*
X2996Y3922D02*
X3047Y3973D01*
D02*
X2996Y3903D02*
X2996Y3922D01*
D02*
X3195Y4123D02*
X3196Y4773D01*
D02*
X3095Y4023D02*
X3195Y4123D01*
D02*
X3246Y4823D02*
X3267Y4823D01*
D02*
X3196Y4773D02*
X3246Y4823D01*
D02*
X2946Y4023D02*
X3095Y4023D01*
D02*
X2896Y3973D02*
X2946Y4023D01*
D02*
X2896Y3903D02*
X2896Y3973D01*
D02*
X2846Y4073D02*
X2995Y4072D01*
D02*
X2796Y4023D02*
X2846Y4073D01*
D02*
X3097Y4773D02*
X3047Y4823D01*
D02*
X3095Y4172D02*
X3097Y4773D01*
D02*
X2995Y4072D02*
X3095Y4172D01*
D02*
X3047Y4823D02*
X3024Y4823D01*
D02*
X2796Y3903D02*
X2796Y4023D01*
D02*
X3545Y4424D02*
X3645Y4523D01*
D02*
X3645Y4523D02*
X3896Y4524D01*
D02*
X3324Y4423D02*
X3545Y4424D01*
D02*
X4345Y4974D02*
X4196Y5123D01*
D02*
X4196Y5123D02*
X4196Y5144D01*
D02*
X4345Y4903D02*
X4345Y4974D01*
D02*
X3367Y4223D02*
X3324Y4223D01*
D02*
X3346Y4972D02*
X3296Y4922D01*
D02*
X3369Y4972D02*
X3346Y4972D01*
D02*
X3545Y4623D02*
X3645Y4723D01*
D02*
X3645Y4723D02*
X3867Y4723D01*
D02*
X3324Y4623D02*
X3545Y4623D01*
D02*
X2696Y4624D02*
X2618Y4545D01*
D02*
X2967Y4623D02*
X2696Y4624D01*
D02*
X4246Y4623D02*
X4346Y4724D01*
D02*
X4195Y4623D02*
X4246Y4623D01*
D02*
X3645Y4623D02*
X4195Y4623D01*
D02*
X2967Y4824D02*
X2945Y4824D01*
D02*
X3896Y4524D02*
X4067Y4437D01*
D02*
X2796Y4224D02*
X2796Y4474D01*
D02*
X2645Y4073D02*
X2796Y4224D01*
D02*
X2496Y4074D02*
X2645Y4073D01*
D02*
X3296Y4922D02*
X3296Y4852D01*
D02*
X2795Y4974D02*
X2773Y4974D01*
D02*
X2945Y4824D02*
X2795Y4974D01*
D02*
X3545Y4523D02*
X3645Y4623D01*
D02*
X3324Y4523D02*
X3545Y4523D01*
D02*
X2846Y4524D02*
X2967Y4523D01*
D02*
X2796Y4474D02*
X2846Y4524D01*
D02*
X2895Y4223D02*
X2967Y4223D01*
D02*
X2695Y4023D02*
X2895Y4223D01*
D02*
X2696Y3903D02*
X2695Y4023D01*
D02*
X1396Y3971D02*
X1396Y3903D01*
D02*
X1296Y4523D02*
X1517Y4523D01*
D02*
X645Y2774D02*
X795Y2672D01*
D02*
X795Y2672D02*
X1066Y2673D01*
D02*
X1495Y2723D02*
X1495Y2822D01*
D02*
X1495Y2822D02*
X1446Y2873D01*
D02*
X1409Y2665D02*
X1495Y2723D01*
D02*
X526Y2773D02*
X645Y2774D01*
D02*
X1446Y2873D02*
X1426Y2873D01*
D02*
X1066Y2773D02*
X846Y2774D01*
D02*
X846Y2774D02*
X696Y2873D01*
D02*
X696Y2873D02*
X526Y2873D01*
D02*
X1365Y2773D02*
X1126Y2773D01*
D02*
X1409Y2665D02*
X1126Y2672D01*
D02*
X1466Y2073D02*
X1426Y2073D01*
G54D26*
X3866Y1943D02*
X3866Y2003D01*
X3926Y2003D01*
X3926Y1943D01*
X3866Y1943D01*
D02*
G54D27*
X866Y603D02*
X924Y603D01*
X1166Y603D02*
X1224Y603D01*
X1366Y603D02*
X1424Y603D01*
X1666Y603D02*
X1724Y603D01*
X2966Y603D02*
X3024Y603D01*
X3266Y603D02*
X3324Y603D01*
X3466Y603D02*
X3524Y603D01*
X3766Y603D02*
X3824Y603D01*
X866Y602D02*
X924Y602D01*
X1166Y602D02*
X1224Y602D01*
X1366Y602D02*
X1424Y602D01*
X1666Y602D02*
X1724Y602D01*
X2966Y602D02*
X3024Y602D01*
X3266Y602D02*
X3324Y602D01*
X3466Y602D02*
X3524Y602D01*
X3766Y602D02*
X3824Y602D01*
X866Y601D02*
X924Y601D01*
X1166Y601D02*
X1224Y601D01*
X1366Y601D02*
X1424Y601D01*
X1666Y601D02*
X1724Y601D01*
X2966Y601D02*
X3024Y601D01*
X3266Y601D02*
X3324Y601D01*
X3466Y601D02*
X3524Y601D01*
X3766Y601D02*
X3824Y601D01*
X866Y600D02*
X924Y600D01*
X1166Y600D02*
X1224Y600D01*
X1366Y600D02*
X1424Y600D01*
X1666Y600D02*
X1724Y600D01*
X2966Y600D02*
X3024Y600D01*
X3266Y600D02*
X3324Y600D01*
X3466Y600D02*
X3524Y600D01*
X3766Y600D02*
X3824Y600D01*
X866Y599D02*
X924Y599D01*
X1166Y599D02*
X1224Y599D01*
X1366Y599D02*
X1424Y599D01*
X1666Y599D02*
X1724Y599D01*
X2966Y599D02*
X3024Y599D01*
X3266Y599D02*
X3324Y599D01*
X3466Y599D02*
X3524Y599D01*
X3766Y599D02*
X3824Y599D01*
X866Y598D02*
X924Y598D01*
X1166Y598D02*
X1224Y598D01*
X1366Y598D02*
X1424Y598D01*
X1666Y598D02*
X1724Y598D01*
X2966Y598D02*
X3024Y598D01*
X3266Y598D02*
X3324Y598D01*
X3466Y598D02*
X3524Y598D01*
X3766Y598D02*
X3824Y598D01*
X866Y597D02*
X924Y597D01*
X1166Y597D02*
X1224Y597D01*
X1366Y597D02*
X1424Y597D01*
X1666Y597D02*
X1724Y597D01*
X2966Y597D02*
X3024Y597D01*
X3266Y597D02*
X3324Y597D01*
X3466Y597D02*
X3524Y597D01*
X3766Y597D02*
X3824Y597D01*
X866Y596D02*
X924Y596D01*
X1166Y596D02*
X1224Y596D01*
X1366Y596D02*
X1424Y596D01*
X1666Y596D02*
X1724Y596D01*
X2966Y596D02*
X3024Y596D01*
X3266Y596D02*
X3324Y596D01*
X3466Y596D02*
X3524Y596D01*
X3766Y596D02*
X3824Y596D01*
X866Y595D02*
X924Y595D01*
X1166Y595D02*
X1224Y595D01*
X1366Y595D02*
X1424Y595D01*
X1666Y595D02*
X1724Y595D01*
X2966Y595D02*
X3024Y595D01*
X3266Y595D02*
X3324Y595D01*
X3466Y595D02*
X3524Y595D01*
X3766Y595D02*
X3824Y595D01*
X866Y594D02*
X924Y594D01*
X1166Y594D02*
X1224Y594D01*
X1366Y594D02*
X1424Y594D01*
X1666Y594D02*
X1724Y594D01*
X2966Y594D02*
X3024Y594D01*
X3266Y594D02*
X3324Y594D01*
X3466Y594D02*
X3524Y594D01*
X3766Y594D02*
X3824Y594D01*
X866Y593D02*
X893Y593D01*
X897Y593D02*
X924Y593D01*
X1166Y593D02*
X1193Y593D01*
X1197Y593D02*
X1224Y593D01*
X1366Y593D02*
X1393Y593D01*
X1397Y593D02*
X1424Y593D01*
X1666Y593D02*
X1693Y593D01*
X1697Y593D02*
X1724Y593D01*
X2966Y593D02*
X2993Y593D01*
X2997Y593D02*
X3024Y593D01*
X3266Y593D02*
X3293Y593D01*
X3297Y593D02*
X3324Y593D01*
X3466Y593D02*
X3493Y593D01*
X3497Y593D02*
X3524Y593D01*
X3766Y593D02*
X3793Y593D01*
X3797Y593D02*
X3824Y593D01*
X866Y592D02*
X888Y592D01*
X902Y592D02*
X924Y592D01*
X1166Y592D02*
X1188Y592D01*
X1202Y592D02*
X1224Y592D01*
X1366Y592D02*
X1388Y592D01*
X1402Y592D02*
X1424Y592D01*
X1666Y592D02*
X1688Y592D01*
X1702Y592D02*
X1724Y592D01*
X2966Y592D02*
X2988Y592D01*
X3002Y592D02*
X3024Y592D01*
X3266Y592D02*
X3288Y592D01*
X3302Y592D02*
X3324Y592D01*
X3466Y592D02*
X3488Y592D01*
X3502Y592D02*
X3524Y592D01*
X3766Y592D02*
X3788Y592D01*
X3802Y592D02*
X3824Y592D01*
X866Y591D02*
X886Y591D01*
X904Y591D02*
X924Y591D01*
X1166Y591D02*
X1186Y591D01*
X1204Y591D02*
X1224Y591D01*
X1366Y591D02*
X1386Y591D01*
X1404Y591D02*
X1424Y591D01*
X1666Y591D02*
X1686Y591D01*
X1704Y591D02*
X1724Y591D01*
X2966Y591D02*
X2986Y591D01*
X3004Y591D02*
X3024Y591D01*
X3266Y591D02*
X3286Y591D01*
X3304Y591D02*
X3324Y591D01*
X3466Y591D02*
X3486Y591D01*
X3504Y591D02*
X3524Y591D01*
X3766Y591D02*
X3786Y591D01*
X3804Y591D02*
X3824Y591D01*
X866Y590D02*
X884Y590D01*
X906Y590D02*
X924Y590D01*
X1166Y590D02*
X1184Y590D01*
X1206Y590D02*
X1224Y590D01*
X1366Y590D02*
X1384Y590D01*
X1406Y590D02*
X1424Y590D01*
X1666Y590D02*
X1684Y590D01*
X1706Y590D02*
X1724Y590D01*
X2966Y590D02*
X2984Y590D01*
X3006Y590D02*
X3024Y590D01*
X3266Y590D02*
X3284Y590D01*
X3306Y590D02*
X3324Y590D01*
X3466Y590D02*
X3484Y590D01*
X3506Y590D02*
X3524Y590D01*
X3766Y590D02*
X3784Y590D01*
X3806Y590D02*
X3824Y590D01*
X866Y589D02*
X883Y589D01*
X908Y589D02*
X924Y589D01*
X1166Y589D02*
X1183Y589D01*
X1208Y589D02*
X1224Y589D01*
X1366Y589D02*
X1383Y589D01*
X1408Y589D02*
X1424Y589D01*
X1666Y589D02*
X1683Y589D01*
X1708Y589D02*
X1724Y589D01*
X2966Y589D02*
X2983Y589D01*
X3007Y589D02*
X3024Y589D01*
X3266Y589D02*
X3283Y589D01*
X3307Y589D02*
X3324Y589D01*
X3466Y589D02*
X3483Y589D01*
X3507Y589D02*
X3524Y589D01*
X3766Y589D02*
X3783Y589D01*
X3807Y589D02*
X3824Y589D01*
X866Y588D02*
X881Y588D01*
X909Y588D02*
X924Y588D01*
X1166Y588D02*
X1181Y588D01*
X1209Y588D02*
X1224Y588D01*
X1366Y588D02*
X1381Y588D01*
X1409Y588D02*
X1424Y588D01*
X1666Y588D02*
X1681Y588D01*
X1709Y588D02*
X1724Y588D01*
X2966Y588D02*
X2981Y588D01*
X3009Y588D02*
X3024Y588D01*
X3266Y588D02*
X3281Y588D01*
X3309Y588D02*
X3324Y588D01*
X3466Y588D02*
X3481Y588D01*
X3509Y588D02*
X3524Y588D01*
X3766Y588D02*
X3781Y588D01*
X3809Y588D02*
X3824Y588D01*
X866Y587D02*
X880Y587D01*
X910Y587D02*
X924Y587D01*
X1166Y587D02*
X1180Y587D01*
X1210Y587D02*
X1224Y587D01*
X1366Y587D02*
X1380Y587D01*
X1410Y587D02*
X1424Y587D01*
X1666Y587D02*
X1680Y587D01*
X1710Y587D02*
X1724Y587D01*
X2966Y587D02*
X2980Y587D01*
X3010Y587D02*
X3024Y587D01*
X3266Y587D02*
X3280Y587D01*
X3310Y587D02*
X3324Y587D01*
X3466Y587D02*
X3480Y587D01*
X3510Y587D02*
X3524Y587D01*
X3766Y587D02*
X3780Y587D01*
X3810Y587D02*
X3824Y587D01*
X866Y586D02*
X880Y586D01*
X911Y586D02*
X924Y586D01*
X1166Y586D02*
X1180Y586D01*
X1211Y586D02*
X1224Y586D01*
X1366Y586D02*
X1380Y586D01*
X1411Y586D02*
X1424Y586D01*
X1666Y586D02*
X1680Y586D01*
X1711Y586D02*
X1724Y586D01*
X2966Y586D02*
X2979Y586D01*
X3011Y586D02*
X3024Y586D01*
X3266Y586D02*
X3279Y586D01*
X3311Y586D02*
X3324Y586D01*
X3466Y586D02*
X3479Y586D01*
X3511Y586D02*
X3524Y586D01*
X3766Y586D02*
X3779Y586D01*
X3811Y586D02*
X3824Y586D01*
X866Y585D02*
X879Y585D01*
X911Y585D02*
X924Y585D01*
X1166Y585D02*
X1179Y585D01*
X1211Y585D02*
X1224Y585D01*
X1366Y585D02*
X1379Y585D01*
X1411Y585D02*
X1424Y585D01*
X1666Y585D02*
X1679Y585D01*
X1711Y585D02*
X1724Y585D01*
X2966Y585D02*
X2979Y585D01*
X3011Y585D02*
X3024Y585D01*
X3266Y585D02*
X3279Y585D01*
X3311Y585D02*
X3324Y585D01*
X3466Y585D02*
X3479Y585D01*
X3511Y585D02*
X3524Y585D01*
X3766Y585D02*
X3779Y585D01*
X3811Y585D02*
X3824Y585D01*
X866Y584D02*
X878Y584D01*
X912Y584D02*
X924Y584D01*
X1166Y584D02*
X1178Y584D01*
X1212Y584D02*
X1224Y584D01*
X1366Y584D02*
X1378Y584D01*
X1412Y584D02*
X1424Y584D01*
X1666Y584D02*
X1678Y584D01*
X1712Y584D02*
X1724Y584D01*
X2966Y584D02*
X2978Y584D01*
X3012Y584D02*
X3024Y584D01*
X3266Y584D02*
X3278Y584D01*
X3312Y584D02*
X3324Y584D01*
X3466Y584D02*
X3478Y584D01*
X3512Y584D02*
X3524Y584D01*
X3766Y584D02*
X3778Y584D01*
X3812Y584D02*
X3824Y584D01*
X866Y583D02*
X877Y583D01*
X913Y583D02*
X924Y583D01*
X1166Y583D02*
X1177Y583D01*
X1213Y583D02*
X1224Y583D01*
X1366Y583D02*
X1377Y583D01*
X1413Y583D02*
X1424Y583D01*
X1666Y583D02*
X1677Y583D01*
X1713Y583D02*
X1724Y583D01*
X2966Y583D02*
X2977Y583D01*
X3013Y583D02*
X3024Y583D01*
X3266Y583D02*
X3277Y583D01*
X3313Y583D02*
X3324Y583D01*
X3466Y583D02*
X3477Y583D01*
X3513Y583D02*
X3524Y583D01*
X3766Y583D02*
X3777Y583D01*
X3813Y583D02*
X3824Y583D01*
X866Y582D02*
X877Y582D01*
X913Y582D02*
X924Y582D01*
X1166Y582D02*
X1177Y582D01*
X1213Y582D02*
X1224Y582D01*
X1366Y582D02*
X1377Y582D01*
X1413Y582D02*
X1424Y582D01*
X1666Y582D02*
X1677Y582D01*
X1713Y582D02*
X1724Y582D01*
X2966Y582D02*
X2977Y582D01*
X3013Y582D02*
X3024Y582D01*
X3266Y582D02*
X3277Y582D01*
X3313Y582D02*
X3324Y582D01*
X3466Y582D02*
X3477Y582D01*
X3513Y582D02*
X3524Y582D01*
X3766Y582D02*
X3777Y582D01*
X3813Y582D02*
X3824Y582D01*
X866Y581D02*
X876Y581D01*
X914Y581D02*
X924Y581D01*
X1166Y581D02*
X1176Y581D01*
X1214Y581D02*
X1224Y581D01*
X1366Y581D02*
X1376Y581D01*
X1414Y581D02*
X1424Y581D01*
X1666Y581D02*
X1676Y581D01*
X1714Y581D02*
X1724Y581D01*
X2966Y581D02*
X2976Y581D01*
X3014Y581D02*
X3024Y581D01*
X3266Y581D02*
X3276Y581D01*
X3314Y581D02*
X3324Y581D01*
X3466Y581D02*
X3476Y581D01*
X3514Y581D02*
X3524Y581D01*
X3766Y581D02*
X3776Y581D01*
X3814Y581D02*
X3824Y581D01*
X866Y580D02*
X876Y580D01*
X914Y580D02*
X924Y580D01*
X1166Y580D02*
X1176Y580D01*
X1214Y580D02*
X1224Y580D01*
X1366Y580D02*
X1376Y580D01*
X1414Y580D02*
X1424Y580D01*
X1666Y580D02*
X1676Y580D01*
X1714Y580D02*
X1724Y580D01*
X2966Y580D02*
X2976Y580D01*
X3014Y580D02*
X3024Y580D01*
X3266Y580D02*
X3276Y580D01*
X3314Y580D02*
X3324Y580D01*
X3466Y580D02*
X3476Y580D01*
X3514Y580D02*
X3524Y580D01*
X3766Y580D02*
X3776Y580D01*
X3814Y580D02*
X3824Y580D01*
X866Y579D02*
X876Y579D01*
X914Y579D02*
X924Y579D01*
X1166Y579D02*
X1176Y579D01*
X1214Y579D02*
X1224Y579D01*
X1366Y579D02*
X1376Y579D01*
X1414Y579D02*
X1424Y579D01*
X1666Y579D02*
X1676Y579D01*
X1714Y579D02*
X1724Y579D01*
X2966Y579D02*
X2976Y579D01*
X3014Y579D02*
X3024Y579D01*
X3266Y579D02*
X3276Y579D01*
X3314Y579D02*
X3324Y579D01*
X3466Y579D02*
X3476Y579D01*
X3514Y579D02*
X3524Y579D01*
X3766Y579D02*
X3776Y579D01*
X3814Y579D02*
X3824Y579D01*
X866Y578D02*
X876Y578D01*
X915Y578D02*
X924Y578D01*
X1166Y578D02*
X1175Y578D01*
X1215Y578D02*
X1224Y578D01*
X1366Y578D02*
X1375Y578D01*
X1415Y578D02*
X1424Y578D01*
X1666Y578D02*
X1675Y578D01*
X1715Y578D02*
X1724Y578D01*
X2966Y578D02*
X2975Y578D01*
X3015Y578D02*
X3024Y578D01*
X3266Y578D02*
X3275Y578D01*
X3315Y578D02*
X3324Y578D01*
X3466Y578D02*
X3475Y578D01*
X3515Y578D02*
X3524Y578D01*
X3766Y578D02*
X3775Y578D01*
X3815Y578D02*
X3824Y578D01*
X866Y577D02*
X875Y577D01*
X915Y577D02*
X924Y577D01*
X1166Y577D02*
X1175Y577D01*
X1215Y577D02*
X1224Y577D01*
X1366Y577D02*
X1375Y577D01*
X1415Y577D02*
X1424Y577D01*
X1666Y577D02*
X1675Y577D01*
X1715Y577D02*
X1724Y577D01*
X2966Y577D02*
X2975Y577D01*
X3015Y577D02*
X3024Y577D01*
X3266Y577D02*
X3275Y577D01*
X3315Y577D02*
X3324Y577D01*
X3466Y577D02*
X3475Y577D01*
X3515Y577D02*
X3524Y577D01*
X3766Y577D02*
X3775Y577D01*
X3815Y577D02*
X3824Y577D01*
X866Y576D02*
X875Y576D01*
X915Y576D02*
X924Y576D01*
X1166Y576D02*
X1175Y576D01*
X1215Y576D02*
X1224Y576D01*
X1366Y576D02*
X1375Y576D01*
X1415Y576D02*
X1424Y576D01*
X1666Y576D02*
X1675Y576D01*
X1715Y576D02*
X1724Y576D01*
X2966Y576D02*
X2975Y576D01*
X3015Y576D02*
X3024Y576D01*
X3266Y576D02*
X3275Y576D01*
X3315Y576D02*
X3324Y576D01*
X3466Y576D02*
X3475Y576D01*
X3515Y576D02*
X3524Y576D01*
X3766Y576D02*
X3775Y576D01*
X3815Y576D02*
X3824Y576D01*
X866Y575D02*
X875Y575D01*
X915Y575D02*
X924Y575D01*
X1166Y575D02*
X1175Y575D01*
X1215Y575D02*
X1224Y575D01*
X1366Y575D02*
X1375Y575D01*
X1415Y575D02*
X1424Y575D01*
X1666Y575D02*
X1675Y575D01*
X1715Y575D02*
X1724Y575D01*
X2966Y575D02*
X2975Y575D01*
X3015Y575D02*
X3024Y575D01*
X3266Y575D02*
X3275Y575D01*
X3315Y575D02*
X3324Y575D01*
X3466Y575D02*
X3475Y575D01*
X3515Y575D02*
X3524Y575D01*
X3766Y575D02*
X3775Y575D01*
X3815Y575D02*
X3824Y575D01*
X866Y574D02*
X875Y574D01*
X915Y574D02*
X924Y574D01*
X1166Y574D02*
X1175Y574D01*
X1215Y574D02*
X1224Y574D01*
X1366Y574D02*
X1375Y574D01*
X1415Y574D02*
X1424Y574D01*
X1666Y574D02*
X1675Y574D01*
X1715Y574D02*
X1724Y574D01*
X2966Y574D02*
X2975Y574D01*
X3015Y574D02*
X3024Y574D01*
X3266Y574D02*
X3275Y574D01*
X3315Y574D02*
X3324Y574D01*
X3466Y574D02*
X3475Y574D01*
X3515Y574D02*
X3524Y574D01*
X3766Y574D02*
X3775Y574D01*
X3815Y574D02*
X3824Y574D01*
X866Y573D02*
X875Y573D01*
X915Y573D02*
X924Y573D01*
X1166Y573D02*
X1175Y573D01*
X1215Y573D02*
X1224Y573D01*
X1366Y573D02*
X1375Y573D01*
X1415Y573D02*
X1424Y573D01*
X1666Y573D02*
X1675Y573D01*
X1715Y573D02*
X1724Y573D01*
X2966Y573D02*
X2975Y573D01*
X3015Y573D02*
X3024Y573D01*
X3266Y573D02*
X3275Y573D01*
X3315Y573D02*
X3324Y573D01*
X3466Y573D02*
X3475Y573D01*
X3515Y573D02*
X3524Y573D01*
X3766Y573D02*
X3775Y573D01*
X3815Y573D02*
X3824Y573D01*
X866Y572D02*
X875Y572D01*
X915Y572D02*
X924Y572D01*
X1166Y572D02*
X1175Y572D01*
X1215Y572D02*
X1224Y572D01*
X1366Y572D02*
X1375Y572D01*
X1415Y572D02*
X1424Y572D01*
X1666Y572D02*
X1675Y572D01*
X1715Y572D02*
X1724Y572D01*
X2966Y572D02*
X2975Y572D01*
X3015Y572D02*
X3024Y572D01*
X3266Y572D02*
X3275Y572D01*
X3315Y572D02*
X3324Y572D01*
X3466Y572D02*
X3475Y572D01*
X3515Y572D02*
X3524Y572D01*
X3766Y572D02*
X3775Y572D01*
X3815Y572D02*
X3824Y572D01*
X866Y571D02*
X875Y571D01*
X915Y571D02*
X924Y571D01*
X1166Y571D02*
X1175Y571D01*
X1215Y571D02*
X1224Y571D01*
X1366Y571D02*
X1375Y571D01*
X1415Y571D02*
X1424Y571D01*
X1666Y571D02*
X1675Y571D01*
X1715Y571D02*
X1724Y571D01*
X2966Y571D02*
X2975Y571D01*
X3015Y571D02*
X3024Y571D01*
X3266Y571D02*
X3275Y571D01*
X3315Y571D02*
X3324Y571D01*
X3466Y571D02*
X3475Y571D01*
X3515Y571D02*
X3524Y571D01*
X3766Y571D02*
X3775Y571D01*
X3815Y571D02*
X3824Y571D01*
X866Y570D02*
X875Y570D01*
X915Y570D02*
X924Y570D01*
X1166Y570D02*
X1175Y570D01*
X1215Y570D02*
X1224Y570D01*
X1366Y570D02*
X1375Y570D01*
X1415Y570D02*
X1424Y570D01*
X1666Y570D02*
X1675Y570D01*
X1715Y570D02*
X1724Y570D01*
X2966Y570D02*
X2975Y570D01*
X3015Y570D02*
X3024Y570D01*
X3266Y570D02*
X3275Y570D01*
X3315Y570D02*
X3324Y570D01*
X3466Y570D02*
X3475Y570D01*
X3515Y570D02*
X3524Y570D01*
X3766Y570D02*
X3775Y570D01*
X3815Y570D02*
X3824Y570D01*
X866Y569D02*
X875Y569D01*
X915Y569D02*
X924Y569D01*
X1166Y569D02*
X1175Y569D01*
X1215Y569D02*
X1224Y569D01*
X1366Y569D02*
X1375Y569D01*
X1415Y569D02*
X1424Y569D01*
X1666Y569D02*
X1675Y569D01*
X1715Y569D02*
X1724Y569D01*
X2966Y569D02*
X2975Y569D01*
X3015Y569D02*
X3024Y569D01*
X3266Y569D02*
X3275Y569D01*
X3315Y569D02*
X3324Y569D01*
X3466Y569D02*
X3475Y569D01*
X3515Y569D02*
X3524Y569D01*
X3766Y569D02*
X3775Y569D01*
X3815Y569D02*
X3824Y569D01*
X866Y568D02*
X876Y568D01*
X914Y568D02*
X924Y568D01*
X1166Y568D02*
X1176Y568D01*
X1214Y568D02*
X1224Y568D01*
X1366Y568D02*
X1376Y568D01*
X1414Y568D02*
X1424Y568D01*
X1666Y568D02*
X1676Y568D01*
X1714Y568D02*
X1724Y568D01*
X2966Y568D02*
X2976Y568D01*
X3014Y568D02*
X3024Y568D01*
X3266Y568D02*
X3276Y568D01*
X3314Y568D02*
X3324Y568D01*
X3466Y568D02*
X3476Y568D01*
X3514Y568D02*
X3524Y568D01*
X3766Y568D02*
X3776Y568D01*
X3814Y568D02*
X3824Y568D01*
X866Y567D02*
X876Y567D01*
X914Y567D02*
X924Y567D01*
X1166Y567D02*
X1176Y567D01*
X1214Y567D02*
X1224Y567D01*
X1366Y567D02*
X1376Y567D01*
X1414Y567D02*
X1424Y567D01*
X1666Y567D02*
X1676Y567D01*
X1714Y567D02*
X1724Y567D01*
X2966Y567D02*
X2976Y567D01*
X3014Y567D02*
X3024Y567D01*
X3266Y567D02*
X3276Y567D01*
X3314Y567D02*
X3324Y567D01*
X3466Y567D02*
X3476Y567D01*
X3514Y567D02*
X3524Y567D01*
X3766Y567D02*
X3776Y567D01*
X3814Y567D02*
X3824Y567D01*
X866Y566D02*
X876Y566D01*
X914Y566D02*
X924Y566D01*
X1166Y566D02*
X1176Y566D01*
X1214Y566D02*
X1224Y566D01*
X1366Y566D02*
X1376Y566D01*
X1414Y566D02*
X1424Y566D01*
X1666Y566D02*
X1676Y566D01*
X1714Y566D02*
X1724Y566D01*
X2966Y566D02*
X2976Y566D01*
X3014Y566D02*
X3024Y566D01*
X3266Y566D02*
X3276Y566D01*
X3314Y566D02*
X3324Y566D01*
X3466Y566D02*
X3476Y566D01*
X3514Y566D02*
X3524Y566D01*
X3766Y566D02*
X3776Y566D01*
X3814Y566D02*
X3824Y566D01*
X866Y565D02*
X877Y565D01*
X913Y565D02*
X924Y565D01*
X1166Y565D02*
X1177Y565D01*
X1213Y565D02*
X1224Y565D01*
X1366Y565D02*
X1377Y565D01*
X1413Y565D02*
X1424Y565D01*
X1666Y565D02*
X1677Y565D01*
X1713Y565D02*
X1724Y565D01*
X2966Y565D02*
X2977Y565D01*
X3013Y565D02*
X3024Y565D01*
X3266Y565D02*
X3277Y565D01*
X3313Y565D02*
X3324Y565D01*
X3466Y565D02*
X3477Y565D01*
X3513Y565D02*
X3524Y565D01*
X3766Y565D02*
X3777Y565D01*
X3813Y565D02*
X3824Y565D01*
X866Y564D02*
X877Y564D01*
X913Y564D02*
X924Y564D01*
X1166Y564D02*
X1177Y564D01*
X1213Y564D02*
X1224Y564D01*
X1366Y564D02*
X1377Y564D01*
X1413Y564D02*
X1424Y564D01*
X1666Y564D02*
X1677Y564D01*
X1713Y564D02*
X1724Y564D01*
X2966Y564D02*
X2977Y564D01*
X3013Y564D02*
X3024Y564D01*
X3266Y564D02*
X3277Y564D01*
X3313Y564D02*
X3324Y564D01*
X3466Y564D02*
X3477Y564D01*
X3513Y564D02*
X3524Y564D01*
X3766Y564D02*
X3777Y564D01*
X3813Y564D02*
X3824Y564D01*
X866Y563D02*
X878Y563D01*
X912Y563D02*
X924Y563D01*
X1166Y563D02*
X1178Y563D01*
X1212Y563D02*
X1224Y563D01*
X1366Y563D02*
X1378Y563D01*
X1412Y563D02*
X1424Y563D01*
X1666Y563D02*
X1678Y563D01*
X1712Y563D02*
X1724Y563D01*
X2966Y563D02*
X2978Y563D01*
X3012Y563D02*
X3024Y563D01*
X3266Y563D02*
X3278Y563D01*
X3312Y563D02*
X3324Y563D01*
X3466Y563D02*
X3478Y563D01*
X3512Y563D02*
X3524Y563D01*
X3766Y563D02*
X3778Y563D01*
X3812Y563D02*
X3824Y563D01*
X866Y562D02*
X879Y562D01*
X912Y562D02*
X924Y562D01*
X1166Y562D02*
X1179Y562D01*
X1212Y562D02*
X1224Y562D01*
X1366Y562D02*
X1379Y562D01*
X1412Y562D02*
X1424Y562D01*
X1666Y562D02*
X1679Y562D01*
X1712Y562D02*
X1724Y562D01*
X2966Y562D02*
X2979Y562D01*
X3011Y562D02*
X3024Y562D01*
X3266Y562D02*
X3279Y562D01*
X3311Y562D02*
X3324Y562D01*
X3466Y562D02*
X3479Y562D01*
X3511Y562D02*
X3524Y562D01*
X3766Y562D02*
X3779Y562D01*
X3811Y562D02*
X3824Y562D01*
X866Y561D02*
X879Y561D01*
X911Y561D02*
X924Y561D01*
X1166Y561D02*
X1179Y561D01*
X1211Y561D02*
X1224Y561D01*
X1366Y561D02*
X1379Y561D01*
X1411Y561D02*
X1424Y561D01*
X1666Y561D02*
X1679Y561D01*
X1711Y561D02*
X1724Y561D01*
X2966Y561D02*
X2979Y561D01*
X3011Y561D02*
X3024Y561D01*
X3266Y561D02*
X3279Y561D01*
X3311Y561D02*
X3324Y561D01*
X3466Y561D02*
X3479Y561D01*
X3511Y561D02*
X3524Y561D01*
X3766Y561D02*
X3779Y561D01*
X3811Y561D02*
X3824Y561D01*
X866Y560D02*
X880Y560D01*
X910Y560D02*
X924Y560D01*
X1166Y560D02*
X1180Y560D01*
X1210Y560D02*
X1224Y560D01*
X1366Y560D02*
X1380Y560D01*
X1410Y560D02*
X1424Y560D01*
X1666Y560D02*
X1680Y560D01*
X1710Y560D02*
X1724Y560D01*
X2966Y560D02*
X2980Y560D01*
X3010Y560D02*
X3024Y560D01*
X3266Y560D02*
X3280Y560D01*
X3310Y560D02*
X3324Y560D01*
X3466Y560D02*
X3480Y560D01*
X3510Y560D02*
X3524Y560D01*
X3766Y560D02*
X3780Y560D01*
X3810Y560D02*
X3824Y560D01*
X866Y559D02*
X881Y559D01*
X909Y559D02*
X924Y559D01*
X1166Y559D02*
X1181Y559D01*
X1209Y559D02*
X1224Y559D01*
X1366Y559D02*
X1381Y559D01*
X1409Y559D02*
X1424Y559D01*
X1666Y559D02*
X1681Y559D01*
X1709Y559D02*
X1724Y559D01*
X2966Y559D02*
X2981Y559D01*
X3009Y559D02*
X3024Y559D01*
X3266Y559D02*
X3281Y559D01*
X3309Y559D02*
X3324Y559D01*
X3466Y559D02*
X3481Y559D01*
X3509Y559D02*
X3524Y559D01*
X3766Y559D02*
X3781Y559D01*
X3809Y559D02*
X3824Y559D01*
X866Y558D02*
X883Y558D01*
X908Y558D02*
X924Y558D01*
X1166Y558D02*
X1183Y558D01*
X1208Y558D02*
X1224Y558D01*
X1366Y558D02*
X1383Y558D01*
X1408Y558D02*
X1424Y558D01*
X1666Y558D02*
X1683Y558D01*
X1708Y558D02*
X1724Y558D01*
X2966Y558D02*
X2982Y558D01*
X3008Y558D02*
X3024Y558D01*
X3266Y558D02*
X3282Y558D01*
X3308Y558D02*
X3324Y558D01*
X3466Y558D02*
X3482Y558D01*
X3508Y558D02*
X3524Y558D01*
X3766Y558D02*
X3782Y558D01*
X3808Y558D02*
X3824Y558D01*
X866Y557D02*
X884Y557D01*
X906Y557D02*
X924Y557D01*
X1166Y557D02*
X1184Y557D01*
X1206Y557D02*
X1224Y557D01*
X1366Y557D02*
X1384Y557D01*
X1406Y557D02*
X1424Y557D01*
X1666Y557D02*
X1684Y557D01*
X1706Y557D02*
X1724Y557D01*
X2966Y557D02*
X2984Y557D01*
X3006Y557D02*
X3024Y557D01*
X3266Y557D02*
X3284Y557D01*
X3306Y557D02*
X3324Y557D01*
X3466Y557D02*
X3484Y557D01*
X3506Y557D02*
X3524Y557D01*
X3766Y557D02*
X3784Y557D01*
X3806Y557D02*
X3824Y557D01*
X866Y556D02*
X886Y556D01*
X905Y556D02*
X924Y556D01*
X1166Y556D02*
X1186Y556D01*
X1205Y556D02*
X1224Y556D01*
X1366Y556D02*
X1386Y556D01*
X1404Y556D02*
X1424Y556D01*
X1666Y556D02*
X1686Y556D01*
X1704Y556D02*
X1724Y556D01*
X2966Y556D02*
X2986Y556D01*
X3004Y556D02*
X3024Y556D01*
X3266Y556D02*
X3286Y556D01*
X3304Y556D02*
X3324Y556D01*
X3466Y556D02*
X3486Y556D01*
X3504Y556D02*
X3524Y556D01*
X3766Y556D02*
X3786Y556D01*
X3804Y556D02*
X3824Y556D01*
X866Y555D02*
X888Y555D01*
X902Y555D02*
X924Y555D01*
X1166Y555D02*
X1188Y555D01*
X1202Y555D02*
X1224Y555D01*
X1366Y555D02*
X1388Y555D01*
X1402Y555D02*
X1424Y555D01*
X1666Y555D02*
X1688Y555D01*
X1702Y555D02*
X1724Y555D01*
X2966Y555D02*
X2988Y555D01*
X3002Y555D02*
X3024Y555D01*
X3266Y555D02*
X3288Y555D01*
X3302Y555D02*
X3324Y555D01*
X3466Y555D02*
X3488Y555D01*
X3502Y555D02*
X3524Y555D01*
X3766Y555D02*
X3788Y555D01*
X3802Y555D02*
X3824Y555D01*
X866Y554D02*
X892Y554D01*
X898Y554D02*
X924Y554D01*
X1166Y554D02*
X1192Y554D01*
X1198Y554D02*
X1224Y554D01*
X1366Y554D02*
X1392Y554D01*
X1398Y554D02*
X1424Y554D01*
X1666Y554D02*
X1692Y554D01*
X1698Y554D02*
X1724Y554D01*
X2966Y554D02*
X2992Y554D01*
X2998Y554D02*
X3024Y554D01*
X3266Y554D02*
X3292Y554D01*
X3298Y554D02*
X3324Y554D01*
X3466Y554D02*
X3492Y554D01*
X3498Y554D02*
X3524Y554D01*
X3766Y554D02*
X3792Y554D01*
X3798Y554D02*
X3824Y554D01*
X866Y553D02*
X924Y553D01*
X1166Y553D02*
X1224Y553D01*
X1366Y553D02*
X1424Y553D01*
X1666Y553D02*
X1724Y553D01*
X2966Y553D02*
X3024Y553D01*
X3266Y553D02*
X3324Y553D01*
X3466Y553D02*
X3524Y553D01*
X3766Y553D02*
X3824Y553D01*
X866Y552D02*
X924Y552D01*
X1166Y552D02*
X1224Y552D01*
X1366Y552D02*
X1424Y552D01*
X1666Y552D02*
X1724Y552D01*
X2966Y552D02*
X3024Y552D01*
X3266Y552D02*
X3324Y552D01*
X3466Y552D02*
X3524Y552D01*
X3766Y552D02*
X3824Y552D01*
X866Y551D02*
X924Y551D01*
X1166Y551D02*
X1224Y551D01*
X1366Y551D02*
X1424Y551D01*
X1666Y551D02*
X1724Y551D01*
X2966Y551D02*
X3024Y551D01*
X3266Y551D02*
X3324Y551D01*
X3466Y551D02*
X3524Y551D01*
X3766Y551D02*
X3824Y551D01*
X866Y550D02*
X924Y550D01*
X1166Y550D02*
X1224Y550D01*
X1366Y550D02*
X1424Y550D01*
X1666Y550D02*
X1724Y550D01*
X2966Y550D02*
X3024Y550D01*
X3266Y550D02*
X3324Y550D01*
X3466Y550D02*
X3524Y550D01*
X3766Y550D02*
X3824Y550D01*
X866Y549D02*
X924Y549D01*
X1166Y549D02*
X1224Y549D01*
X1366Y549D02*
X1424Y549D01*
X1666Y549D02*
X1724Y549D01*
X2966Y549D02*
X3024Y549D01*
X3266Y549D02*
X3324Y549D01*
X3466Y549D02*
X3524Y549D01*
X3766Y549D02*
X3824Y549D01*
X866Y548D02*
X924Y548D01*
X1166Y548D02*
X1224Y548D01*
X1366Y548D02*
X1424Y548D01*
X1666Y548D02*
X1724Y548D01*
X2966Y548D02*
X3024Y548D01*
X3266Y548D02*
X3324Y548D01*
X3466Y548D02*
X3524Y548D01*
X3766Y548D02*
X3824Y548D01*
X866Y547D02*
X924Y547D01*
X1166Y547D02*
X1224Y547D01*
X1366Y547D02*
X1424Y547D01*
X1666Y547D02*
X1724Y547D01*
X2966Y547D02*
X3024Y547D01*
X3266Y547D02*
X3324Y547D01*
X3466Y547D02*
X3524Y547D01*
X3766Y547D02*
X3824Y547D01*
X866Y546D02*
X924Y546D01*
X1166Y546D02*
X1224Y546D01*
X1366Y546D02*
X1424Y546D01*
X1666Y546D02*
X1724Y546D01*
X2966Y546D02*
X3024Y546D01*
X3266Y546D02*
X3324Y546D01*
X3466Y546D02*
X3524Y546D01*
X3766Y546D02*
X3824Y546D01*
X866Y545D02*
X924Y545D01*
X1166Y545D02*
X1224Y545D01*
X1366Y545D02*
X1424Y545D01*
X1666Y545D02*
X1724Y545D01*
X2966Y545D02*
X3024Y545D01*
X3266Y545D02*
X3324Y545D01*
X3466Y545D02*
X3524Y545D01*
X3766Y545D02*
X3824Y545D01*
X866Y544D02*
X924Y544D01*
X1166Y544D02*
X1224Y544D01*
X1366Y544D02*
X1424Y544D01*
X1666Y544D02*
X1724Y544D01*
X2966Y544D02*
X3024Y544D01*
X3266Y544D02*
X3324Y544D01*
X3466Y544D02*
X3524Y544D01*
X3766Y544D02*
X3824Y544D01*
X866Y403D02*
X924Y403D01*
X1166Y403D02*
X1224Y403D01*
X1366Y403D02*
X1424Y403D01*
X1666Y403D02*
X1724Y403D01*
X2966Y403D02*
X3024Y403D01*
X3266Y403D02*
X3324Y403D01*
X3466Y403D02*
X3524Y403D01*
X3766Y403D02*
X3824Y403D01*
X866Y402D02*
X924Y402D01*
X1166Y402D02*
X1224Y402D01*
X1366Y402D02*
X1424Y402D01*
X1666Y402D02*
X1724Y402D01*
X2966Y402D02*
X3024Y402D01*
X3266Y402D02*
X3324Y402D01*
X3466Y402D02*
X3524Y402D01*
X3766Y402D02*
X3824Y402D01*
X866Y401D02*
X924Y401D01*
X1166Y401D02*
X1224Y401D01*
X1366Y401D02*
X1424Y401D01*
X1666Y401D02*
X1724Y401D01*
X2966Y401D02*
X3024Y401D01*
X3266Y401D02*
X3324Y401D01*
X3466Y401D02*
X3524Y401D01*
X3766Y401D02*
X3824Y401D01*
X866Y400D02*
X924Y400D01*
X1166Y400D02*
X1224Y400D01*
X1366Y400D02*
X1424Y400D01*
X1666Y400D02*
X1724Y400D01*
X2966Y400D02*
X3024Y400D01*
X3266Y400D02*
X3324Y400D01*
X3466Y400D02*
X3524Y400D01*
X3766Y400D02*
X3824Y400D01*
X866Y399D02*
X924Y399D01*
X1166Y399D02*
X1224Y399D01*
X1366Y399D02*
X1424Y399D01*
X1666Y399D02*
X1724Y399D01*
X2966Y399D02*
X3024Y399D01*
X3266Y399D02*
X3324Y399D01*
X3466Y399D02*
X3524Y399D01*
X3766Y399D02*
X3824Y399D01*
X866Y398D02*
X924Y398D01*
X1166Y398D02*
X1224Y398D01*
X1366Y398D02*
X1424Y398D01*
X1666Y398D02*
X1724Y398D01*
X2966Y398D02*
X3024Y398D01*
X3266Y398D02*
X3324Y398D01*
X3466Y398D02*
X3524Y398D01*
X3766Y398D02*
X3824Y398D01*
X866Y397D02*
X924Y397D01*
X1166Y397D02*
X1224Y397D01*
X1366Y397D02*
X1424Y397D01*
X1666Y397D02*
X1724Y397D01*
X2966Y397D02*
X3024Y397D01*
X3266Y397D02*
X3324Y397D01*
X3466Y397D02*
X3524Y397D01*
X3766Y397D02*
X3824Y397D01*
X866Y396D02*
X924Y396D01*
X1166Y396D02*
X1224Y396D01*
X1366Y396D02*
X1424Y396D01*
X1666Y396D02*
X1724Y396D01*
X2966Y396D02*
X3024Y396D01*
X3266Y396D02*
X3324Y396D01*
X3466Y396D02*
X3524Y396D01*
X3766Y396D02*
X3824Y396D01*
X866Y395D02*
X924Y395D01*
X1166Y395D02*
X1224Y395D01*
X1366Y395D02*
X1424Y395D01*
X1666Y395D02*
X1724Y395D01*
X2966Y395D02*
X3024Y395D01*
X3266Y395D02*
X3324Y395D01*
X3466Y395D02*
X3524Y395D01*
X3766Y395D02*
X3824Y395D01*
X866Y394D02*
X924Y394D01*
X1166Y394D02*
X1224Y394D01*
X1366Y394D02*
X1424Y394D01*
X1666Y394D02*
X1724Y394D01*
X2966Y394D02*
X3024Y394D01*
X3266Y394D02*
X3324Y394D01*
X3466Y394D02*
X3524Y394D01*
X3766Y394D02*
X3824Y394D01*
X866Y393D02*
X893Y393D01*
X897Y393D02*
X924Y393D01*
X1166Y393D02*
X1193Y393D01*
X1197Y393D02*
X1224Y393D01*
X1366Y393D02*
X1393Y393D01*
X1397Y393D02*
X1424Y393D01*
X1666Y393D02*
X1693Y393D01*
X1697Y393D02*
X1724Y393D01*
X2966Y393D02*
X2993Y393D01*
X2997Y393D02*
X3024Y393D01*
X3266Y393D02*
X3293Y393D01*
X3297Y393D02*
X3324Y393D01*
X3466Y393D02*
X3493Y393D01*
X3497Y393D02*
X3524Y393D01*
X3766Y393D02*
X3793Y393D01*
X3797Y393D02*
X3824Y393D01*
X866Y392D02*
X888Y392D01*
X902Y392D02*
X924Y392D01*
X1166Y392D02*
X1188Y392D01*
X1202Y392D02*
X1224Y392D01*
X1366Y392D02*
X1388Y392D01*
X1402Y392D02*
X1424Y392D01*
X1666Y392D02*
X1688Y392D01*
X1702Y392D02*
X1724Y392D01*
X2966Y392D02*
X2988Y392D01*
X3002Y392D02*
X3024Y392D01*
X3266Y392D02*
X3288Y392D01*
X3302Y392D02*
X3324Y392D01*
X3466Y392D02*
X3488Y392D01*
X3502Y392D02*
X3524Y392D01*
X3766Y392D02*
X3788Y392D01*
X3802Y392D02*
X3824Y392D01*
X866Y391D02*
X886Y391D01*
X904Y391D02*
X924Y391D01*
X1166Y391D02*
X1186Y391D01*
X1204Y391D02*
X1224Y391D01*
X1366Y391D02*
X1386Y391D01*
X1404Y391D02*
X1424Y391D01*
X1666Y391D02*
X1686Y391D01*
X1704Y391D02*
X1724Y391D01*
X2966Y391D02*
X2986Y391D01*
X3004Y391D02*
X3024Y391D01*
X3266Y391D02*
X3286Y391D01*
X3304Y391D02*
X3324Y391D01*
X3466Y391D02*
X3486Y391D01*
X3504Y391D02*
X3524Y391D01*
X3766Y391D02*
X3786Y391D01*
X3804Y391D02*
X3824Y391D01*
X866Y390D02*
X884Y390D01*
X906Y390D02*
X924Y390D01*
X1166Y390D02*
X1184Y390D01*
X1206Y390D02*
X1224Y390D01*
X1366Y390D02*
X1384Y390D01*
X1406Y390D02*
X1424Y390D01*
X1666Y390D02*
X1684Y390D01*
X1706Y390D02*
X1724Y390D01*
X2966Y390D02*
X2984Y390D01*
X3006Y390D02*
X3024Y390D01*
X3266Y390D02*
X3284Y390D01*
X3306Y390D02*
X3324Y390D01*
X3466Y390D02*
X3484Y390D01*
X3506Y390D02*
X3524Y390D01*
X3766Y390D02*
X3784Y390D01*
X3806Y390D02*
X3824Y390D01*
X866Y389D02*
X883Y389D01*
X908Y389D02*
X924Y389D01*
X1166Y389D02*
X1183Y389D01*
X1208Y389D02*
X1224Y389D01*
X1366Y389D02*
X1383Y389D01*
X1408Y389D02*
X1424Y389D01*
X1666Y389D02*
X1683Y389D01*
X1708Y389D02*
X1724Y389D01*
X2966Y389D02*
X2983Y389D01*
X3007Y389D02*
X3024Y389D01*
X3266Y389D02*
X3283Y389D01*
X3307Y389D02*
X3324Y389D01*
X3466Y389D02*
X3483Y389D01*
X3507Y389D02*
X3524Y389D01*
X3766Y389D02*
X3782Y389D01*
X3807Y389D02*
X3824Y389D01*
X866Y388D02*
X881Y388D01*
X909Y388D02*
X924Y388D01*
X1166Y388D02*
X1181Y388D01*
X1209Y388D02*
X1224Y388D01*
X1366Y388D02*
X1381Y388D01*
X1409Y388D02*
X1424Y388D01*
X1666Y388D02*
X1681Y388D01*
X1709Y388D02*
X1724Y388D01*
X2966Y388D02*
X2981Y388D01*
X3009Y388D02*
X3024Y388D01*
X3266Y388D02*
X3281Y388D01*
X3309Y388D02*
X3324Y388D01*
X3466Y388D02*
X3481Y388D01*
X3509Y388D02*
X3524Y388D01*
X3766Y388D02*
X3781Y388D01*
X3809Y388D02*
X3824Y388D01*
X866Y387D02*
X880Y387D01*
X910Y387D02*
X924Y387D01*
X1166Y387D02*
X1180Y387D01*
X1210Y387D02*
X1224Y387D01*
X1366Y387D02*
X1380Y387D01*
X1410Y387D02*
X1424Y387D01*
X1666Y387D02*
X1680Y387D01*
X1710Y387D02*
X1724Y387D01*
X2966Y387D02*
X2980Y387D01*
X3010Y387D02*
X3024Y387D01*
X3266Y387D02*
X3280Y387D01*
X3310Y387D02*
X3324Y387D01*
X3466Y387D02*
X3480Y387D01*
X3510Y387D02*
X3524Y387D01*
X3766Y387D02*
X3780Y387D01*
X3810Y387D02*
X3824Y387D01*
X866Y386D02*
X880Y386D01*
X911Y386D02*
X924Y386D01*
X1166Y386D02*
X1180Y386D01*
X1211Y386D02*
X1224Y386D01*
X1366Y386D02*
X1380Y386D01*
X1411Y386D02*
X1424Y386D01*
X1666Y386D02*
X1680Y386D01*
X1711Y386D02*
X1724Y386D01*
X2966Y386D02*
X2979Y386D01*
X3011Y386D02*
X3024Y386D01*
X3266Y386D02*
X3279Y386D01*
X3311Y386D02*
X3324Y386D01*
X3466Y386D02*
X3479Y386D01*
X3511Y386D02*
X3524Y386D01*
X3766Y386D02*
X3779Y386D01*
X3811Y386D02*
X3824Y386D01*
X866Y385D02*
X879Y385D01*
X911Y385D02*
X924Y385D01*
X1166Y385D02*
X1179Y385D01*
X1211Y385D02*
X1224Y385D01*
X1366Y385D02*
X1379Y385D01*
X1411Y385D02*
X1424Y385D01*
X1666Y385D02*
X1679Y385D01*
X1711Y385D02*
X1724Y385D01*
X2966Y385D02*
X2979Y385D01*
X3011Y385D02*
X3024Y385D01*
X3266Y385D02*
X3279Y385D01*
X3311Y385D02*
X3324Y385D01*
X3466Y385D02*
X3479Y385D01*
X3511Y385D02*
X3524Y385D01*
X3766Y385D02*
X3779Y385D01*
X3811Y385D02*
X3824Y385D01*
X866Y384D02*
X878Y384D01*
X912Y384D02*
X924Y384D01*
X1166Y384D02*
X1178Y384D01*
X1212Y384D02*
X1224Y384D01*
X1366Y384D02*
X1378Y384D01*
X1412Y384D02*
X1424Y384D01*
X1666Y384D02*
X1678Y384D01*
X1712Y384D02*
X1724Y384D01*
X2966Y384D02*
X2978Y384D01*
X3012Y384D02*
X3024Y384D01*
X3266Y384D02*
X3278Y384D01*
X3312Y384D02*
X3324Y384D01*
X3466Y384D02*
X3478Y384D01*
X3512Y384D02*
X3524Y384D01*
X3766Y384D02*
X3778Y384D01*
X3812Y384D02*
X3824Y384D01*
X866Y383D02*
X877Y383D01*
X913Y383D02*
X924Y383D01*
X1166Y383D02*
X1177Y383D01*
X1213Y383D02*
X1224Y383D01*
X1366Y383D02*
X1377Y383D01*
X1413Y383D02*
X1424Y383D01*
X1666Y383D02*
X1677Y383D01*
X1713Y383D02*
X1724Y383D01*
X2966Y383D02*
X2977Y383D01*
X3013Y383D02*
X3024Y383D01*
X3266Y383D02*
X3277Y383D01*
X3313Y383D02*
X3324Y383D01*
X3466Y383D02*
X3477Y383D01*
X3513Y383D02*
X3524Y383D01*
X3766Y383D02*
X3777Y383D01*
X3813Y383D02*
X3824Y383D01*
X866Y382D02*
X877Y382D01*
X913Y382D02*
X924Y382D01*
X1166Y382D02*
X1177Y382D01*
X1213Y382D02*
X1224Y382D01*
X1366Y382D02*
X1377Y382D01*
X1413Y382D02*
X1424Y382D01*
X1666Y382D02*
X1677Y382D01*
X1713Y382D02*
X1724Y382D01*
X2966Y382D02*
X2977Y382D01*
X3013Y382D02*
X3024Y382D01*
X3266Y382D02*
X3277Y382D01*
X3313Y382D02*
X3324Y382D01*
X3466Y382D02*
X3477Y382D01*
X3513Y382D02*
X3524Y382D01*
X3766Y382D02*
X3777Y382D01*
X3813Y382D02*
X3824Y382D01*
X866Y381D02*
X876Y381D01*
X914Y381D02*
X924Y381D01*
X1166Y381D02*
X1176Y381D01*
X1214Y381D02*
X1224Y381D01*
X1366Y381D02*
X1376Y381D01*
X1414Y381D02*
X1424Y381D01*
X1666Y381D02*
X1676Y381D01*
X1714Y381D02*
X1724Y381D01*
X2966Y381D02*
X2976Y381D01*
X3014Y381D02*
X3024Y381D01*
X3266Y381D02*
X3276Y381D01*
X3314Y381D02*
X3324Y381D01*
X3466Y381D02*
X3476Y381D01*
X3514Y381D02*
X3524Y381D01*
X3766Y381D02*
X3776Y381D01*
X3814Y381D02*
X3824Y381D01*
X866Y380D02*
X876Y380D01*
X914Y380D02*
X924Y380D01*
X1166Y380D02*
X1176Y380D01*
X1214Y380D02*
X1224Y380D01*
X1366Y380D02*
X1376Y380D01*
X1414Y380D02*
X1424Y380D01*
X1666Y380D02*
X1676Y380D01*
X1714Y380D02*
X1724Y380D01*
X2966Y380D02*
X2976Y380D01*
X3014Y380D02*
X3024Y380D01*
X3266Y380D02*
X3276Y380D01*
X3314Y380D02*
X3324Y380D01*
X3466Y380D02*
X3476Y380D01*
X3514Y380D02*
X3524Y380D01*
X3766Y380D02*
X3776Y380D01*
X3814Y380D02*
X3824Y380D01*
X866Y379D02*
X876Y379D01*
X914Y379D02*
X924Y379D01*
X1166Y379D02*
X1176Y379D01*
X1214Y379D02*
X1224Y379D01*
X1366Y379D02*
X1376Y379D01*
X1414Y379D02*
X1424Y379D01*
X1666Y379D02*
X1676Y379D01*
X1714Y379D02*
X1724Y379D01*
X2966Y379D02*
X2976Y379D01*
X3014Y379D02*
X3024Y379D01*
X3266Y379D02*
X3276Y379D01*
X3314Y379D02*
X3324Y379D01*
X3466Y379D02*
X3476Y379D01*
X3514Y379D02*
X3524Y379D01*
X3766Y379D02*
X3776Y379D01*
X3814Y379D02*
X3824Y379D01*
X866Y378D02*
X876Y378D01*
X915Y378D02*
X924Y378D01*
X1166Y378D02*
X1175Y378D01*
X1215Y378D02*
X1224Y378D01*
X1366Y378D02*
X1375Y378D01*
X1415Y378D02*
X1424Y378D01*
X1666Y378D02*
X1675Y378D01*
X1715Y378D02*
X1724Y378D01*
X2966Y378D02*
X2975Y378D01*
X3015Y378D02*
X3024Y378D01*
X3266Y378D02*
X3275Y378D01*
X3315Y378D02*
X3324Y378D01*
X3466Y378D02*
X3475Y378D01*
X3515Y378D02*
X3524Y378D01*
X3766Y378D02*
X3775Y378D01*
X3815Y378D02*
X3824Y378D01*
X866Y377D02*
X875Y377D01*
X915Y377D02*
X924Y377D01*
X1166Y377D02*
X1175Y377D01*
X1215Y377D02*
X1224Y377D01*
X1366Y377D02*
X1375Y377D01*
X1415Y377D02*
X1424Y377D01*
X1666Y377D02*
X1675Y377D01*
X1715Y377D02*
X1724Y377D01*
X2966Y377D02*
X2975Y377D01*
X3015Y377D02*
X3024Y377D01*
X3266Y377D02*
X3275Y377D01*
X3315Y377D02*
X3324Y377D01*
X3466Y377D02*
X3475Y377D01*
X3515Y377D02*
X3524Y377D01*
X3766Y377D02*
X3775Y377D01*
X3815Y377D02*
X3824Y377D01*
X866Y376D02*
X875Y376D01*
X915Y376D02*
X924Y376D01*
X1166Y376D02*
X1175Y376D01*
X1215Y376D02*
X1224Y376D01*
X1366Y376D02*
X1375Y376D01*
X1415Y376D02*
X1424Y376D01*
X1666Y376D02*
X1675Y376D01*
X1715Y376D02*
X1724Y376D01*
X2966Y376D02*
X2975Y376D01*
X3015Y376D02*
X3024Y376D01*
X3266Y376D02*
X3275Y376D01*
X3315Y376D02*
X3324Y376D01*
X3466Y376D02*
X3475Y376D01*
X3515Y376D02*
X3524Y376D01*
X3766Y376D02*
X3775Y376D01*
X3815Y376D02*
X3824Y376D01*
X866Y375D02*
X875Y375D01*
X915Y375D02*
X924Y375D01*
X1166Y375D02*
X1175Y375D01*
X1215Y375D02*
X1224Y375D01*
X1366Y375D02*
X1375Y375D01*
X1415Y375D02*
X1424Y375D01*
X1666Y375D02*
X1675Y375D01*
X1715Y375D02*
X1724Y375D01*
X2966Y375D02*
X2975Y375D01*
X3015Y375D02*
X3024Y375D01*
X3266Y375D02*
X3275Y375D01*
X3315Y375D02*
X3324Y375D01*
X3466Y375D02*
X3475Y375D01*
X3515Y375D02*
X3524Y375D01*
X3766Y375D02*
X3775Y375D01*
X3815Y375D02*
X3824Y375D01*
X866Y374D02*
X875Y374D01*
X915Y374D02*
X924Y374D01*
X1166Y374D02*
X1175Y374D01*
X1215Y374D02*
X1224Y374D01*
X1366Y374D02*
X1375Y374D01*
X1415Y374D02*
X1424Y374D01*
X1666Y374D02*
X1675Y374D01*
X1715Y374D02*
X1724Y374D01*
X2966Y374D02*
X2975Y374D01*
X3015Y374D02*
X3024Y374D01*
X3266Y374D02*
X3275Y374D01*
X3315Y374D02*
X3324Y374D01*
X3466Y374D02*
X3475Y374D01*
X3515Y374D02*
X3524Y374D01*
X3766Y374D02*
X3775Y374D01*
X3815Y374D02*
X3824Y374D01*
X866Y373D02*
X875Y373D01*
X915Y373D02*
X924Y373D01*
X1166Y373D02*
X1175Y373D01*
X1215Y373D02*
X1224Y373D01*
X1366Y373D02*
X1375Y373D01*
X1415Y373D02*
X1424Y373D01*
X1666Y373D02*
X1675Y373D01*
X1715Y373D02*
X1724Y373D01*
X2966Y373D02*
X2975Y373D01*
X3015Y373D02*
X3024Y373D01*
X3266Y373D02*
X3275Y373D01*
X3315Y373D02*
X3324Y373D01*
X3466Y373D02*
X3475Y373D01*
X3515Y373D02*
X3524Y373D01*
X3766Y373D02*
X3775Y373D01*
X3815Y373D02*
X3824Y373D01*
X866Y372D02*
X875Y372D01*
X915Y372D02*
X924Y372D01*
X1166Y372D02*
X1175Y372D01*
X1215Y372D02*
X1224Y372D01*
X1366Y372D02*
X1375Y372D01*
X1415Y372D02*
X1424Y372D01*
X1666Y372D02*
X1675Y372D01*
X1715Y372D02*
X1724Y372D01*
X2966Y372D02*
X2975Y372D01*
X3015Y372D02*
X3024Y372D01*
X3266Y372D02*
X3275Y372D01*
X3315Y372D02*
X3324Y372D01*
X3466Y372D02*
X3475Y372D01*
X3515Y372D02*
X3524Y372D01*
X3766Y372D02*
X3775Y372D01*
X3815Y372D02*
X3824Y372D01*
X866Y371D02*
X875Y371D01*
X915Y371D02*
X924Y371D01*
X1166Y371D02*
X1175Y371D01*
X1215Y371D02*
X1224Y371D01*
X1366Y371D02*
X1375Y371D01*
X1415Y371D02*
X1424Y371D01*
X1666Y371D02*
X1675Y371D01*
X1715Y371D02*
X1724Y371D01*
X2966Y371D02*
X2975Y371D01*
X3015Y371D02*
X3024Y371D01*
X3266Y371D02*
X3275Y371D01*
X3315Y371D02*
X3324Y371D01*
X3466Y371D02*
X3475Y371D01*
X3515Y371D02*
X3524Y371D01*
X3766Y371D02*
X3775Y371D01*
X3815Y371D02*
X3824Y371D01*
X866Y370D02*
X875Y370D01*
X915Y370D02*
X924Y370D01*
X1166Y370D02*
X1175Y370D01*
X1215Y370D02*
X1224Y370D01*
X1366Y370D02*
X1375Y370D01*
X1415Y370D02*
X1424Y370D01*
X1666Y370D02*
X1675Y370D01*
X1715Y370D02*
X1724Y370D01*
X2966Y370D02*
X2975Y370D01*
X3015Y370D02*
X3024Y370D01*
X3266Y370D02*
X3275Y370D01*
X3315Y370D02*
X3324Y370D01*
X3466Y370D02*
X3475Y370D01*
X3515Y370D02*
X3524Y370D01*
X3766Y370D02*
X3775Y370D01*
X3815Y370D02*
X3824Y370D01*
X866Y369D02*
X875Y369D01*
X915Y369D02*
X924Y369D01*
X1166Y369D02*
X1175Y369D01*
X1215Y369D02*
X1224Y369D01*
X1366Y369D02*
X1375Y369D01*
X1415Y369D02*
X1424Y369D01*
X1666Y369D02*
X1675Y369D01*
X1715Y369D02*
X1724Y369D01*
X2966Y369D02*
X2975Y369D01*
X3015Y369D02*
X3024Y369D01*
X3266Y369D02*
X3275Y369D01*
X3315Y369D02*
X3324Y369D01*
X3466Y369D02*
X3475Y369D01*
X3515Y369D02*
X3524Y369D01*
X3766Y369D02*
X3775Y369D01*
X3815Y369D02*
X3824Y369D01*
X866Y368D02*
X876Y368D01*
X914Y368D02*
X924Y368D01*
X1166Y368D02*
X1176Y368D01*
X1214Y368D02*
X1224Y368D01*
X1366Y368D02*
X1376Y368D01*
X1414Y368D02*
X1424Y368D01*
X1666Y368D02*
X1676Y368D01*
X1714Y368D02*
X1724Y368D01*
X2966Y368D02*
X2976Y368D01*
X3014Y368D02*
X3024Y368D01*
X3266Y368D02*
X3276Y368D01*
X3314Y368D02*
X3324Y368D01*
X3466Y368D02*
X3476Y368D01*
X3514Y368D02*
X3524Y368D01*
X3766Y368D02*
X3776Y368D01*
X3814Y368D02*
X3824Y368D01*
X866Y367D02*
X876Y367D01*
X914Y367D02*
X924Y367D01*
X1166Y367D02*
X1176Y367D01*
X1214Y367D02*
X1224Y367D01*
X1366Y367D02*
X1376Y367D01*
X1414Y367D02*
X1424Y367D01*
X1666Y367D02*
X1676Y367D01*
X1714Y367D02*
X1724Y367D01*
X2966Y367D02*
X2976Y367D01*
X3014Y367D02*
X3024Y367D01*
X3266Y367D02*
X3276Y367D01*
X3314Y367D02*
X3324Y367D01*
X3466Y367D02*
X3476Y367D01*
X3514Y367D02*
X3524Y367D01*
X3766Y367D02*
X3776Y367D01*
X3814Y367D02*
X3824Y367D01*
X866Y366D02*
X876Y366D01*
X914Y366D02*
X924Y366D01*
X1166Y366D02*
X1176Y366D01*
X1214Y366D02*
X1224Y366D01*
X1366Y366D02*
X1376Y366D01*
X1414Y366D02*
X1424Y366D01*
X1666Y366D02*
X1676Y366D01*
X1714Y366D02*
X1724Y366D01*
X2966Y366D02*
X2976Y366D01*
X3014Y366D02*
X3024Y366D01*
X3266Y366D02*
X3276Y366D01*
X3314Y366D02*
X3324Y366D01*
X3466Y366D02*
X3476Y366D01*
X3514Y366D02*
X3524Y366D01*
X3766Y366D02*
X3776Y366D01*
X3814Y366D02*
X3824Y366D01*
X866Y365D02*
X877Y365D01*
X913Y365D02*
X924Y365D01*
X1166Y365D02*
X1177Y365D01*
X1213Y365D02*
X1224Y365D01*
X1366Y365D02*
X1377Y365D01*
X1413Y365D02*
X1424Y365D01*
X1666Y365D02*
X1677Y365D01*
X1713Y365D02*
X1724Y365D01*
X2966Y365D02*
X2977Y365D01*
X3013Y365D02*
X3024Y365D01*
X3266Y365D02*
X3277Y365D01*
X3313Y365D02*
X3324Y365D01*
X3466Y365D02*
X3477Y365D01*
X3513Y365D02*
X3524Y365D01*
X3766Y365D02*
X3777Y365D01*
X3813Y365D02*
X3824Y365D01*
X866Y364D02*
X877Y364D01*
X913Y364D02*
X924Y364D01*
X1166Y364D02*
X1177Y364D01*
X1213Y364D02*
X1224Y364D01*
X1366Y364D02*
X1377Y364D01*
X1413Y364D02*
X1424Y364D01*
X1666Y364D02*
X1677Y364D01*
X1713Y364D02*
X1724Y364D01*
X2966Y364D02*
X2977Y364D01*
X3013Y364D02*
X3024Y364D01*
X3266Y364D02*
X3277Y364D01*
X3313Y364D02*
X3324Y364D01*
X3466Y364D02*
X3477Y364D01*
X3513Y364D02*
X3524Y364D01*
X3766Y364D02*
X3777Y364D01*
X3813Y364D02*
X3824Y364D01*
X866Y363D02*
X878Y363D01*
X912Y363D02*
X924Y363D01*
X1166Y363D02*
X1178Y363D01*
X1212Y363D02*
X1224Y363D01*
X1366Y363D02*
X1378Y363D01*
X1412Y363D02*
X1424Y363D01*
X1666Y363D02*
X1678Y363D01*
X1712Y363D02*
X1724Y363D01*
X2966Y363D02*
X2978Y363D01*
X3012Y363D02*
X3024Y363D01*
X3266Y363D02*
X3278Y363D01*
X3312Y363D02*
X3324Y363D01*
X3466Y363D02*
X3478Y363D01*
X3512Y363D02*
X3524Y363D01*
X3766Y363D02*
X3778Y363D01*
X3812Y363D02*
X3824Y363D01*
X866Y362D02*
X879Y362D01*
X912Y362D02*
X924Y362D01*
X1166Y362D02*
X1179Y362D01*
X1212Y362D02*
X1224Y362D01*
X1366Y362D02*
X1379Y362D01*
X1412Y362D02*
X1424Y362D01*
X1666Y362D02*
X1679Y362D01*
X1712Y362D02*
X1724Y362D01*
X2966Y362D02*
X2979Y362D01*
X3011Y362D02*
X3024Y362D01*
X3266Y362D02*
X3279Y362D01*
X3311Y362D02*
X3324Y362D01*
X3466Y362D02*
X3479Y362D01*
X3511Y362D02*
X3524Y362D01*
X3766Y362D02*
X3779Y362D01*
X3811Y362D02*
X3824Y362D01*
X866Y361D02*
X879Y361D01*
X911Y361D02*
X924Y361D01*
X1166Y361D02*
X1179Y361D01*
X1211Y361D02*
X1224Y361D01*
X1366Y361D02*
X1379Y361D01*
X1411Y361D02*
X1424Y361D01*
X1666Y361D02*
X1679Y361D01*
X1711Y361D02*
X1724Y361D01*
X2966Y361D02*
X2979Y361D01*
X3011Y361D02*
X3024Y361D01*
X3266Y361D02*
X3279Y361D01*
X3311Y361D02*
X3324Y361D01*
X3466Y361D02*
X3479Y361D01*
X3511Y361D02*
X3524Y361D01*
X3766Y361D02*
X3779Y361D01*
X3811Y361D02*
X3824Y361D01*
X866Y360D02*
X880Y360D01*
X910Y360D02*
X924Y360D01*
X1166Y360D02*
X1180Y360D01*
X1210Y360D02*
X1224Y360D01*
X1366Y360D02*
X1380Y360D01*
X1410Y360D02*
X1424Y360D01*
X1666Y360D02*
X1680Y360D01*
X1710Y360D02*
X1724Y360D01*
X2966Y360D02*
X2980Y360D01*
X3010Y360D02*
X3024Y360D01*
X3266Y360D02*
X3280Y360D01*
X3310Y360D02*
X3324Y360D01*
X3466Y360D02*
X3480Y360D01*
X3510Y360D02*
X3524Y360D01*
X3766Y360D02*
X3780Y360D01*
X3810Y360D02*
X3824Y360D01*
X866Y359D02*
X881Y359D01*
X909Y359D02*
X924Y359D01*
X1166Y359D02*
X1181Y359D01*
X1209Y359D02*
X1224Y359D01*
X1366Y359D02*
X1381Y359D01*
X1409Y359D02*
X1424Y359D01*
X1666Y359D02*
X1681Y359D01*
X1709Y359D02*
X1724Y359D01*
X2966Y359D02*
X2981Y359D01*
X3009Y359D02*
X3024Y359D01*
X3266Y359D02*
X3281Y359D01*
X3309Y359D02*
X3324Y359D01*
X3466Y359D02*
X3481Y359D01*
X3509Y359D02*
X3524Y359D01*
X3766Y359D02*
X3781Y359D01*
X3809Y359D02*
X3824Y359D01*
X866Y358D02*
X883Y358D01*
X908Y358D02*
X924Y358D01*
X1166Y358D02*
X1183Y358D01*
X1208Y358D02*
X1224Y358D01*
X1366Y358D02*
X1383Y358D01*
X1408Y358D02*
X1424Y358D01*
X1666Y358D02*
X1683Y358D01*
X1708Y358D02*
X1724Y358D01*
X2966Y358D02*
X2982Y358D01*
X3008Y358D02*
X3024Y358D01*
X3266Y358D02*
X3282Y358D01*
X3308Y358D02*
X3324Y358D01*
X3466Y358D02*
X3482Y358D01*
X3508Y358D02*
X3524Y358D01*
X3766Y358D02*
X3782Y358D01*
X3808Y358D02*
X3824Y358D01*
X866Y357D02*
X884Y357D01*
X906Y357D02*
X924Y357D01*
X1166Y357D02*
X1184Y357D01*
X1206Y357D02*
X1224Y357D01*
X1366Y357D02*
X1384Y357D01*
X1406Y357D02*
X1424Y357D01*
X1666Y357D02*
X1684Y357D01*
X1706Y357D02*
X1724Y357D01*
X2966Y357D02*
X2984Y357D01*
X3006Y357D02*
X3024Y357D01*
X3266Y357D02*
X3284Y357D01*
X3306Y357D02*
X3324Y357D01*
X3466Y357D02*
X3484Y357D01*
X3506Y357D02*
X3524Y357D01*
X3766Y357D02*
X3784Y357D01*
X3806Y357D02*
X3824Y357D01*
X866Y356D02*
X886Y356D01*
X905Y356D02*
X924Y356D01*
X1166Y356D02*
X1186Y356D01*
X1204Y356D02*
X1224Y356D01*
X1366Y356D02*
X1386Y356D01*
X1404Y356D02*
X1424Y356D01*
X1666Y356D02*
X1686Y356D01*
X1704Y356D02*
X1724Y356D01*
X2966Y356D02*
X2986Y356D01*
X3004Y356D02*
X3024Y356D01*
X3266Y356D02*
X3286Y356D01*
X3304Y356D02*
X3324Y356D01*
X3466Y356D02*
X3486Y356D01*
X3504Y356D02*
X3524Y356D01*
X3766Y356D02*
X3786Y356D01*
X3804Y356D02*
X3824Y356D01*
X866Y355D02*
X888Y355D01*
X902Y355D02*
X924Y355D01*
X1166Y355D02*
X1188Y355D01*
X1202Y355D02*
X1224Y355D01*
X1366Y355D02*
X1388Y355D01*
X1402Y355D02*
X1424Y355D01*
X1666Y355D02*
X1688Y355D01*
X1702Y355D02*
X1724Y355D01*
X2966Y355D02*
X2988Y355D01*
X3002Y355D02*
X3024Y355D01*
X3266Y355D02*
X3288Y355D01*
X3302Y355D02*
X3324Y355D01*
X3466Y355D02*
X3488Y355D01*
X3502Y355D02*
X3524Y355D01*
X3766Y355D02*
X3788Y355D01*
X3802Y355D02*
X3824Y355D01*
X866Y354D02*
X893Y354D01*
X898Y354D02*
X924Y354D01*
X1166Y354D02*
X1192Y354D01*
X1198Y354D02*
X1224Y354D01*
X1366Y354D02*
X1392Y354D01*
X1398Y354D02*
X1424Y354D01*
X1666Y354D02*
X1692Y354D01*
X1698Y354D02*
X1724Y354D01*
X2966Y354D02*
X2992Y354D01*
X2998Y354D02*
X3024Y354D01*
X3266Y354D02*
X3292Y354D01*
X3298Y354D02*
X3324Y354D01*
X3466Y354D02*
X3492Y354D01*
X3498Y354D02*
X3524Y354D01*
X3766Y354D02*
X3792Y354D01*
X3798Y354D02*
X3824Y354D01*
X866Y353D02*
X924Y353D01*
X1166Y353D02*
X1224Y353D01*
X1366Y353D02*
X1424Y353D01*
X1666Y353D02*
X1724Y353D01*
X2966Y353D02*
X3024Y353D01*
X3266Y353D02*
X3324Y353D01*
X3466Y353D02*
X3524Y353D01*
X3766Y353D02*
X3824Y353D01*
X866Y352D02*
X924Y352D01*
X1166Y352D02*
X1224Y352D01*
X1366Y352D02*
X1424Y352D01*
X1666Y352D02*
X1724Y352D01*
X2966Y352D02*
X3024Y352D01*
X3266Y352D02*
X3324Y352D01*
X3466Y352D02*
X3524Y352D01*
X3766Y352D02*
X3824Y352D01*
X866Y351D02*
X924Y351D01*
X1166Y351D02*
X1224Y351D01*
X1366Y351D02*
X1424Y351D01*
X1666Y351D02*
X1724Y351D01*
X2966Y351D02*
X3024Y351D01*
X3266Y351D02*
X3324Y351D01*
X3466Y351D02*
X3524Y351D01*
X3766Y351D02*
X3824Y351D01*
X866Y350D02*
X924Y350D01*
X1166Y350D02*
X1224Y350D01*
X1366Y350D02*
X1424Y350D01*
X1666Y350D02*
X1724Y350D01*
X2966Y350D02*
X3024Y350D01*
X3266Y350D02*
X3324Y350D01*
X3466Y350D02*
X3524Y350D01*
X3766Y350D02*
X3824Y350D01*
X866Y349D02*
X924Y349D01*
X1166Y349D02*
X1224Y349D01*
X1366Y349D02*
X1424Y349D01*
X1666Y349D02*
X1724Y349D01*
X2966Y349D02*
X3024Y349D01*
X3266Y349D02*
X3324Y349D01*
X3466Y349D02*
X3524Y349D01*
X3766Y349D02*
X3824Y349D01*
X866Y348D02*
X924Y348D01*
X1166Y348D02*
X1224Y348D01*
X1366Y348D02*
X1424Y348D01*
X1666Y348D02*
X1724Y348D01*
X2966Y348D02*
X3024Y348D01*
X3266Y348D02*
X3324Y348D01*
X3466Y348D02*
X3524Y348D01*
X3766Y348D02*
X3824Y348D01*
X866Y347D02*
X924Y347D01*
X1166Y347D02*
X1224Y347D01*
X1366Y347D02*
X1424Y347D01*
X1666Y347D02*
X1724Y347D01*
X2966Y347D02*
X3024Y347D01*
X3266Y347D02*
X3324Y347D01*
X3466Y347D02*
X3524Y347D01*
X3766Y347D02*
X3824Y347D01*
X866Y346D02*
X924Y346D01*
X1166Y346D02*
X1224Y346D01*
X1366Y346D02*
X1424Y346D01*
X1666Y346D02*
X1724Y346D01*
X2966Y346D02*
X3024Y346D01*
X3266Y346D02*
X3324Y346D01*
X3466Y346D02*
X3524Y346D01*
X3766Y346D02*
X3824Y346D01*
X866Y345D02*
X924Y345D01*
X1166Y345D02*
X1224Y345D01*
X1366Y345D02*
X1424Y345D01*
X1666Y345D02*
X1724Y345D01*
X2966Y345D02*
X3024Y345D01*
X3266Y345D02*
X3324Y345D01*
X3466Y345D02*
X3524Y345D01*
X3766Y345D02*
X3824Y345D01*
X866Y344D02*
X924Y344D01*
X1166Y344D02*
X1224Y344D01*
X1366Y344D02*
X1424Y344D01*
X1666Y344D02*
X1724Y344D01*
X2966Y344D02*
X3024Y344D01*
X3266Y344D02*
X3324Y344D01*
X3466Y344D02*
X3524Y344D01*
X3766Y344D02*
X3824Y344D01*
D02*
G04 End of Copper0*
M02*