; NON-PLATED HOLES START AT T1
; THROUGH (PLATED) HOLES START AT T100
M48
INCH,LZ
T1C0.125984
T100C0.040000
T101C0.041000
T102C0.047244
T103C0.039370
T104C0.038194
T105C0.038000
T106C0.031497
T107C0.035000
%
T1
X001956Y020229
X001956Y011229
X001956Y013229
X001456Y001729
X001956Y022229
X043456Y019729
X001456Y058229
X043456Y021729
X047456Y001729
X047456Y058229
T100
X006456Y022229
X038956Y019729
X041456Y017229
X006456Y020229
X041456Y015229
X006456Y011229
X038956Y021729
X006456Y013229
X041456Y016229
T101
X005456Y035729
X006956Y044229
X004456Y037729
X023456Y043229
X010456Y042229
X005956Y042229
X006456Y037729
X012456Y042229
X011456Y044229
X025956Y045229
X026956Y043229
X024956Y043229
X037956Y042229
X007956Y042229
X040956Y044229
X039956Y042229
X036956Y044229
X043456Y037729
X021456Y043229
X041456Y037729
X041956Y042229
X035956Y042229
X022456Y045229
X042456Y035729
T102
X004456Y008151
X040456Y008151
X042425Y003229
X042425Y008151
X004456Y003229
X006425Y008151
X006425Y003229
X040456Y003229
T103
X011956Y005729
X029956Y005729
X013956Y003729
X034956Y005729
X032956Y003729
X032956Y005729
X029956Y003729
X016956Y005729
X008956Y005729
X037956Y003729
X034956Y003729
X008956Y003729
X037956Y005729
X011956Y003729
X016956Y003729
X013956Y005729
T104
X032956Y027729
X032956Y011729
X018956Y037729
X032956Y035729
X024956Y038729
X013956Y023729
X032956Y016729
X013956Y033729
X013956Y022729
X013956Y029729
X032956Y031729
X014956Y037729
X032956Y021729
X032956Y023729
X013956Y016129
X028956Y037729
X013956Y028729
X013956Y037729
X013956Y025729
X013956Y012129
X017956Y037729
X013956Y031729
X013956Y014129
X030956Y037729
X018956Y038729
X032956Y012729
X032956Y036729
X021956Y038729
X019956Y038729
X023956Y037729
X016956Y038729
X013956Y010129
X019956Y037729
X032956Y026729
X013956Y024729
X032956Y025729
X013956Y038729
X027956Y038729
X015956Y038729
X016956Y037729
X026956Y038729
X021956Y037729
X023956Y038729
X013956Y008129
X032956Y024729
X025956Y038729
X032956Y015729
X013956Y032729
X032956Y029729
X026956Y037729
X013956Y013129
X032956Y034729
X013956Y020729
X013956Y015129
X022956Y037729
X013956Y019729
X014956Y038729
X020956Y037729
X013956Y009129
X013956Y034729
X024956Y037729
X022956Y038729
X029956Y037729
X013956Y017129
X032956Y020729
X032956Y033729
X020956Y038729
X013956Y027729
X013956Y011129
X030956Y038729
X017956Y038729
X025956Y037729
X032956Y032729
X032956Y017729
X013956Y018729
X028956Y038729
X013956Y021729
X032956Y014729
X013956Y030729
X032956Y022729
X015956Y037729
X032956Y013729
X032956Y018729
X032956Y030729
X029956Y038729
X027956Y037729
T105
X034956Y009229
X025456Y056229
X045956Y016229
X041956Y013229
X010956Y033729
X027956Y047229
X010956Y026729
X010956Y034729
X034956Y031729
X044456Y025729
X021956Y039729
X016956Y058229
X046956Y017229
X041456Y024729
X034956Y008229
X027456Y056229
X004956Y030729
X026456Y057229
X046956Y016229
X017956Y035729
X046956Y051229
X010956Y027729
X043456Y047729
X046956Y005229
X028956Y044229
X035956Y008229
X041456Y025729
X001956Y017229
X029956Y036729
X013456Y047229
X041456Y026729
X001956Y051229
X033956Y043229
X019456Y044229
X014956Y057229
X045956Y017229
X019456Y043229
X041456Y027729
X034956Y034729
X004956Y027729
X022456Y057229
X045956Y051229
X046956Y006229
X036956Y017729
X013956Y058229
X043456Y048729
X025956Y039729
X014956Y058229
X023956Y039729
X038956Y017729
X004956Y028729
X001956Y053229
X010956Y032729
X042456Y033229
X034956Y029729
X001956Y018229
X013956Y057229
X022956Y039729
X027456Y057229
X026456Y056229
X011956Y021229
X046956Y052229
X004956Y026729
X045956Y052229
X034956Y030729
X015956Y057229
X042456Y034229
X046956Y007229
X044456Y028229
X037956Y008229
X036956Y009229
X046956Y004229
X020956Y039729
X020956Y035729
X027956Y036729
X034956Y035729
X020456Y047229
X010956Y029729
X001956Y052229
X001956Y015229
X002956Y016229
X034956Y032729
X036956Y008229
X028956Y036729
X046956Y018229
X002956Y051229
X014956Y020729
X046956Y015229
X034956Y047229
X001956Y016229
X004956Y025229
X024956Y039729
X010956Y030729
X002956Y017229
X040956Y013229
X041456Y023729
X014456Y043229
X015956Y058229
X001956Y050229
X028956Y043229
X037956Y017729
X010956Y031729
X034956Y036729
X024456Y057229
X010956Y021229
X016956Y057229
X034956Y033729
X023456Y057229
X018956Y039729
X035956Y017729
X004956Y029729
X018956Y035729
X024456Y056229
X041456Y028729
X046956Y053229
X037956Y009229
X021456Y057229
X004956Y024229
X019956Y035729
X002956Y052229
X025456Y057229
X035956Y009229
X046956Y050229
X019956Y039729
T106
X014456Y050714
X023456Y005214
X020956Y050714
X021456Y004230
X018956Y004230
X020956Y049729
X027956Y005214
X025456Y004230
X023456Y004230
X040456Y050714
X014456Y049729
X027456Y050714
X033956Y049729
X007456Y050714
X018956Y005214
X021456Y005214
X027456Y049729
X040456Y049729
X007456Y049729
X025456Y005214
X027956Y004230
X033956Y050714
T107
X023956Y036729
X038456Y050729
X011456Y015229
X015956Y050729
X007456Y015229
X008956Y040729
X022956Y036729
X008456Y015229
X012956Y050729
X032956Y045229
X008956Y034229
X026956Y036729
X018456Y048229
X029956Y045229
X032956Y046229
X019956Y036729
X029956Y044229
X027956Y008229
X018456Y042229
X044456Y031729
X032956Y042229
X031956Y008229
X029956Y043229
X007456Y018229
X015956Y036729
X017956Y036729
X005456Y015229
X014956Y018729
X018956Y050729
X046456Y011229
X015456Y045229
X004456Y018229
X018956Y036729
X029956Y042229
X013956Y048229
X012456Y001229
X014956Y014229
X029956Y047229
X015456Y047229
X038956Y047229
X010456Y018229
X009456Y015229
X033956Y048229
X008456Y018229
X021956Y036729
X005956Y048729
X014956Y008229
X018956Y016229
X032956Y047229
X018956Y014229
X032456Y050729
X009456Y044229
X035456Y050729
X014956Y016229
X015456Y048229
X011956Y036729
X015456Y044229
X021456Y040729
X018956Y018729
X032956Y048229
X013956Y040729
X029956Y048229
X006456Y018229
X011456Y018229
X018456Y045229
X029456Y050729
X041956Y048729
X041956Y051729
X018456Y044229
X009456Y047229
X038956Y044229
X032956Y043229
X020956Y036729
X018956Y008229
X033956Y042229
X006456Y015229
X014956Y036729
X018456Y046229
X009956Y050729
X018456Y043229
X024956Y036729
X044456Y035729
X012956Y036729
X013956Y036729
X004456Y015229
X012456Y014229
X005956Y051729
X025956Y036729
X029956Y046229
X041956Y011229
X015456Y042229
X018456Y047229
X015456Y046229
X032956Y044229
X009456Y018229
X015456Y043229
X016956Y036729
X010456Y015229
X005456Y018229
X013956Y042229
T00
M30
