G04 MADE WITH FRITZING*
G04 WWW.FRITZING.ORG*
G04 SINGLE SIDED*
G04 HOLES NOT PLATED*
G04 CONTOUR ON CENTER OF CONTOUR VECTOR*
%ASAXBY*%
%FSLAX23Y23*%
%MOIN*%
%OFA0B0*%
%SFA1.0B1.0*%
%ADD10C,0.078000*%
%ADD11C,0.075000*%
%ADD12C,0.099000*%
%ADD13C,0.062992*%
%ADD14C,0.080000*%
%ADD15C,0.072917*%
%ADD16C,0.074000*%
%ADD17C,0.059370*%
%ADD18C,0.085000*%
%ADD19R,0.075000X0.075000*%
%ADD20R,0.099000X0.099000*%
%ADD21R,0.062992X0.062992*%
%ADD22R,0.079986X0.080000*%
%ADD23C,0.024000*%
%ADD24C,0.048000*%
%ADD25C,0.032000*%
%ADD26C,0.020000*%
%ADD27R,0.001000X0.001000*%
%LNCOPPER0*%
G90*
G70*
G54D10*
X1877Y3916D03*
X1977Y3916D03*
X2077Y3916D03*
X2177Y3916D03*
X2277Y3916D03*
X2377Y3916D03*
X2477Y3916D03*
X2577Y3916D03*
X1877Y3916D03*
X1977Y3916D03*
X2077Y3916D03*
X2177Y3916D03*
X2277Y3916D03*
X2377Y3916D03*
X2477Y3916D03*
X2577Y3916D03*
X477Y3016D03*
X477Y2916D03*
X477Y2816D03*
X477Y2716D03*
X477Y2616D03*
X477Y3016D03*
X477Y2916D03*
X477Y2816D03*
X477Y2716D03*
X477Y2616D03*
G54D11*
X877Y3366D03*
X877Y4016D03*
G54D10*
X1777Y3466D03*
X1877Y3466D03*
X1977Y3466D03*
X2077Y3466D03*
X1777Y3466D03*
X1877Y3466D03*
X1977Y3466D03*
X2077Y3466D03*
X477Y2466D03*
X477Y2366D03*
X477Y2466D03*
X477Y2366D03*
G54D11*
X3777Y4366D03*
X3777Y4666D03*
X927Y4366D03*
X927Y4666D03*
G54D10*
X4527Y4966D03*
X4527Y5066D03*
X4527Y5166D03*
X4527Y5266D03*
X4527Y4966D03*
X4527Y5066D03*
X4527Y5166D03*
X4527Y5266D03*
X4527Y1516D03*
X4527Y1616D03*
X4527Y1716D03*
X4527Y1816D03*
X4527Y1516D03*
X4527Y1616D03*
X4527Y1716D03*
X4527Y1816D03*
X177Y1816D03*
X177Y1716D03*
X177Y1616D03*
X177Y1516D03*
X177Y1816D03*
X177Y1716D03*
X177Y1616D03*
X177Y1516D03*
G54D11*
X4077Y1166D03*
X4527Y1166D03*
G54D10*
X4427Y1716D03*
X4427Y1616D03*
X4427Y1716D03*
X4427Y1616D03*
X277Y1716D03*
X277Y1616D03*
X277Y1716D03*
X277Y1616D03*
X177Y5266D03*
X177Y5166D03*
X177Y5066D03*
X177Y4966D03*
X177Y5266D03*
X177Y5166D03*
X177Y5066D03*
X177Y4966D03*
X277Y5166D03*
X277Y5066D03*
X277Y5166D03*
X277Y5066D03*
X4427Y5166D03*
X4427Y5066D03*
X4427Y5166D03*
X4427Y5066D03*
X4327Y4816D03*
X4327Y4716D03*
X4327Y4816D03*
X4327Y4716D03*
G54D11*
X1477Y4766D03*
X1777Y4766D03*
X1477Y4666D03*
X1777Y4666D03*
X1477Y4566D03*
X1777Y4566D03*
X1477Y4466D03*
X1777Y4466D03*
X1477Y4366D03*
X1777Y4366D03*
X1477Y4266D03*
X1777Y4266D03*
X1477Y4166D03*
X1777Y4166D03*
G54D12*
X2377Y4266D03*
X2577Y4266D03*
X2477Y4466D03*
X2377Y4266D03*
X2577Y4266D03*
X2477Y4466D03*
X2027Y4266D03*
X2227Y4266D03*
X2127Y4466D03*
X2027Y4266D03*
X2227Y4266D03*
X2127Y4466D03*
X3877Y4166D03*
X4077Y4166D03*
X3977Y4366D03*
X3877Y4166D03*
X4077Y4166D03*
X3977Y4366D03*
X3477Y4166D03*
X3677Y4166D03*
X3577Y4366D03*
X3477Y4166D03*
X3677Y4166D03*
X3577Y4366D03*
X1027Y4166D03*
X1227Y4166D03*
X1127Y4366D03*
X1027Y4166D03*
X1227Y4166D03*
X1127Y4366D03*
X577Y4166D03*
X777Y4166D03*
X677Y4366D03*
X577Y4166D03*
X777Y4166D03*
X677Y4366D03*
G54D11*
X2077Y4016D03*
X1377Y4016D03*
X3277Y4166D03*
X3277Y4766D03*
X1377Y4166D03*
X1377Y4766D03*
G54D13*
X3877Y4916D03*
X3877Y5014D03*
X3877Y4916D03*
X3877Y5014D03*
X3277Y4917D03*
X3277Y5016D03*
X3277Y4917D03*
X3277Y5016D03*
X2677Y4916D03*
X2677Y5014D03*
X2677Y4916D03*
X2677Y5014D03*
X1977Y4916D03*
X1977Y5014D03*
X1977Y4916D03*
X1977Y5014D03*
X1377Y4916D03*
X1377Y5014D03*
X1377Y4916D03*
X1377Y5014D03*
X777Y4916D03*
X777Y5014D03*
X777Y4916D03*
X777Y5014D03*
G54D11*
X3127Y5016D03*
X2827Y5016D03*
X3427Y5016D03*
X3727Y5016D03*
X4177Y5116D03*
X4177Y4716D03*
X4177Y5116D03*
X4177Y4716D03*
X527Y5116D03*
X527Y4716D03*
X527Y5116D03*
X527Y4716D03*
X1527Y5016D03*
X1827Y5016D03*
X927Y5016D03*
X1227Y5016D03*
G54D14*
X3877Y1966D03*
X3877Y2166D03*
X627Y2166D03*
X627Y1966D03*
X627Y1266D03*
X627Y1066D03*
G54D15*
X3277Y3016D03*
X3277Y1416D03*
X3277Y3116D03*
X3277Y3216D03*
X3277Y3316D03*
X3277Y3416D03*
X1877Y3716D03*
X3277Y3516D03*
X3277Y3616D03*
X1377Y1456D03*
X3277Y2016D03*
X3277Y2116D03*
X3277Y2216D03*
X3277Y2316D03*
X2677Y3716D03*
X3277Y2416D03*
X3277Y2516D03*
X3277Y2616D03*
X3277Y2716D03*
X1377Y2216D03*
X1477Y3716D03*
X2277Y3716D03*
X3077Y3716D03*
X1377Y1056D03*
X3277Y1816D03*
X1377Y1816D03*
X1677Y3716D03*
X2077Y3716D03*
X2477Y3716D03*
X1377Y3416D03*
X2877Y3716D03*
X1377Y3316D03*
X1377Y3216D03*
X1377Y3116D03*
X1377Y3016D03*
X1377Y2916D03*
X1377Y2816D03*
X1377Y2716D03*
X1377Y856D03*
X1377Y1256D03*
X1377Y1656D03*
X3277Y1216D03*
X3277Y1616D03*
X1377Y2416D03*
X1377Y2016D03*
X1377Y3716D03*
X1577Y3716D03*
X1777Y3716D03*
X1977Y3716D03*
X2177Y3716D03*
X2377Y3716D03*
X2577Y3716D03*
X2777Y3716D03*
X2977Y3716D03*
X1377Y756D03*
X1377Y956D03*
X1377Y1156D03*
X1377Y1356D03*
X1377Y1556D03*
X3277Y1116D03*
X3277Y1316D03*
X3277Y1516D03*
X3277Y1716D03*
X1377Y2516D03*
X1377Y2316D03*
X1377Y2116D03*
X1377Y1916D03*
X1377Y3816D03*
X1477Y3816D03*
X1577Y3816D03*
X1677Y3816D03*
X1777Y3816D03*
X1877Y3816D03*
X1977Y3816D03*
X2077Y3816D03*
X2177Y3816D03*
X2277Y3816D03*
X2377Y3816D03*
X2477Y3816D03*
X2577Y3816D03*
X2677Y3816D03*
X2777Y3816D03*
X2877Y3816D03*
X2977Y3816D03*
X3077Y3816D03*
X3277Y2916D03*
G54D10*
X3877Y1716D03*
X3777Y1716D03*
X3677Y1716D03*
X3577Y1716D03*
X3877Y1716D03*
X3777Y1716D03*
X3677Y1716D03*
X3577Y1716D03*
G54D16*
X4127Y1666D03*
X4127Y1566D03*
X4127Y1466D03*
X4127Y1666D03*
X4127Y1566D03*
X4127Y1466D03*
X4127Y1666D03*
X4127Y1566D03*
X4127Y1466D03*
G54D17*
X3777Y866D03*
X3477Y866D03*
X3777Y666D03*
X3477Y666D03*
X3777Y866D03*
X3477Y866D03*
X3777Y666D03*
X3477Y666D03*
X3777Y866D03*
X3477Y866D03*
X3777Y666D03*
X3477Y666D03*
G54D18*
X3977Y758D03*
X4173Y758D03*
X4173Y266D03*
X3977Y266D03*
X3977Y758D03*
X4173Y758D03*
X4173Y266D03*
X3977Y266D03*
X3977Y758D03*
X4173Y758D03*
X4173Y266D03*
X3977Y266D03*
G54D13*
X4177Y1016D03*
X4177Y917D03*
X4177Y1016D03*
X4177Y917D03*
G54D11*
X3177Y816D03*
X3177Y1216D03*
X3177Y816D03*
X3177Y1216D03*
X1227Y116D03*
X1227Y1366D03*
X1177Y3616D03*
X1277Y3616D03*
X1377Y3616D03*
X1477Y3616D03*
X1577Y3616D03*
X1677Y3616D03*
X1777Y3616D03*
X1877Y3616D03*
X1977Y3616D03*
X2077Y3616D03*
X2177Y3616D03*
X2277Y3616D03*
X2377Y3616D03*
X2477Y3616D03*
X2577Y3616D03*
X2677Y3616D03*
G54D12*
X627Y3716D03*
X427Y3716D03*
X527Y3516D03*
X627Y3716D03*
X427Y3716D03*
X527Y3516D03*
X4327Y3716D03*
X4127Y3716D03*
X4227Y3516D03*
X4327Y3716D03*
X4127Y3716D03*
X4227Y3516D03*
G54D11*
X4427Y3116D03*
X4427Y3516D03*
X4427Y3116D03*
X4427Y3516D03*
G54D10*
X4227Y3266D03*
X4227Y3366D03*
X4227Y3266D03*
X4227Y3366D03*
G54D11*
X427Y1466D03*
X427Y1766D03*
X527Y1466D03*
X527Y1766D03*
X627Y1466D03*
X627Y1766D03*
X727Y1466D03*
X727Y1766D03*
X827Y1466D03*
X827Y1766D03*
X927Y1466D03*
X927Y1766D03*
X1027Y1466D03*
X1027Y1766D03*
X1127Y1466D03*
X1127Y1766D03*
G54D18*
X427Y758D03*
X623Y758D03*
X623Y266D03*
X427Y266D03*
X427Y758D03*
X623Y758D03*
X623Y266D03*
X427Y266D03*
X427Y758D03*
X623Y758D03*
X623Y266D03*
X427Y266D03*
G54D17*
X827Y666D03*
X1127Y666D03*
X827Y866D03*
X1127Y866D03*
X827Y666D03*
X1127Y666D03*
X827Y866D03*
X1127Y866D03*
X827Y666D03*
X1127Y666D03*
X827Y866D03*
X1127Y866D03*
X827Y266D03*
X1127Y266D03*
X827Y466D03*
X1127Y466D03*
X827Y266D03*
X1127Y266D03*
X827Y466D03*
X1127Y466D03*
X827Y266D03*
X1127Y266D03*
X827Y466D03*
X1127Y466D03*
X3477Y266D03*
X3777Y266D03*
X3477Y466D03*
X3777Y466D03*
X3477Y266D03*
X3777Y266D03*
X3477Y466D03*
X3777Y466D03*
X3477Y266D03*
X3777Y266D03*
X3477Y466D03*
X3777Y466D03*
G54D11*
X2877Y4766D03*
X3177Y4766D03*
X2877Y4666D03*
X3177Y4666D03*
X2877Y4566D03*
X3177Y4566D03*
X2877Y4466D03*
X3177Y4466D03*
X2877Y4366D03*
X3177Y4366D03*
X2877Y4266D03*
X3177Y4266D03*
X2877Y4166D03*
X3177Y4166D03*
G54D10*
X4377Y2816D03*
X4377Y2516D03*
X1377Y4266D03*
X3277Y4266D03*
X3377Y4666D03*
X1877Y4266D03*
X1877Y4366D03*
X1877Y4266D03*
X1877Y4366D03*
X2777Y4266D03*
X2777Y4366D03*
X2777Y4266D03*
X2777Y4366D03*
X1227Y4666D03*
X2677Y4666D03*
X1977Y4666D03*
X3477Y3616D03*
X3477Y3516D03*
X3477Y3416D03*
X3477Y3316D03*
X3477Y3216D03*
X3477Y3116D03*
X3477Y3016D03*
X3477Y2916D03*
X3477Y3616D03*
X3477Y3516D03*
X3477Y3416D03*
X3477Y3316D03*
X3477Y3216D03*
X3477Y3116D03*
X3477Y3016D03*
X3477Y2916D03*
X1577Y3416D03*
X1577Y3316D03*
X1577Y3216D03*
X1577Y3116D03*
X1577Y3016D03*
X1577Y2916D03*
G54D19*
X1477Y4766D03*
G54D20*
X2577Y4266D03*
X2577Y4266D03*
X2227Y4266D03*
X2227Y4266D03*
X4077Y4166D03*
X4077Y4166D03*
X3677Y4166D03*
X3677Y4166D03*
X1227Y4166D03*
X1227Y4166D03*
X777Y4166D03*
X777Y4166D03*
G54D21*
X3877Y4916D03*
X3877Y4916D03*
X3277Y4917D03*
X3277Y4917D03*
X2677Y4916D03*
X2677Y4916D03*
X1977Y4916D03*
X1977Y4916D03*
X1377Y4916D03*
X1377Y4916D03*
X777Y4916D03*
X777Y4916D03*
G54D22*
X627Y2166D03*
X627Y1266D03*
G54D21*
X4177Y1016D03*
X4177Y1016D03*
G54D19*
X1176Y3616D03*
G54D20*
X427Y3716D03*
X427Y3716D03*
X4127Y3716D03*
X4127Y3716D03*
G54D19*
X427Y1466D03*
X2877Y4766D03*
G54D23*
X3426Y4266D02*
X3377Y4217D01*
D02*
X3377Y4015D02*
X3177Y3815D01*
D02*
X3377Y4217D02*
X3377Y4015D01*
D02*
X3677Y4265D02*
X3426Y4266D01*
D02*
X3177Y3815D02*
X3107Y3816D01*
D02*
X3876Y3966D02*
X4527Y3967D01*
D02*
X376Y3964D02*
X325Y3867D01*
D02*
X4326Y5015D02*
X4328Y5264D01*
D02*
X4375Y4967D02*
X4326Y5015D01*
D02*
X376Y5268D02*
X376Y3964D01*
D02*
X4328Y5264D02*
X376Y5268D01*
D02*
X2577Y3846D02*
X2577Y3886D01*
D02*
X2477Y3846D02*
X2477Y3886D01*
D02*
X2377Y3846D02*
X2377Y3886D01*
D02*
X2277Y3846D02*
X2277Y3886D01*
D02*
X2177Y3846D02*
X2177Y3886D01*
D02*
X2077Y3846D02*
X2077Y3886D01*
D02*
X1977Y3846D02*
X1977Y3886D01*
D02*
X1877Y3846D02*
X1877Y3886D01*
D02*
X1346Y2716D02*
X507Y2716D01*
D02*
X507Y2816D02*
X1346Y2816D01*
D02*
X324Y3017D02*
X446Y3016D01*
D02*
X476Y4164D02*
X545Y4165D01*
D02*
X526Y3867D02*
X609Y3742D01*
D02*
X325Y3867D02*
X526Y3867D01*
D02*
X427Y3615D02*
X1148Y3616D01*
D02*
X427Y3684D02*
X427Y3615D01*
D02*
X777Y3267D02*
X856Y3346D01*
D02*
X429Y3266D02*
X777Y3267D01*
D02*
X427Y3615D02*
X429Y3266D01*
D02*
X378Y2367D02*
X378Y2917D01*
D02*
X378Y2064D02*
X378Y2367D01*
D02*
X725Y2067D02*
X378Y2064D01*
D02*
X378Y2917D02*
X446Y2916D01*
D02*
X726Y1794D02*
X725Y2067D01*
D02*
X777Y2915D02*
X507Y2916D01*
D02*
X777Y3267D02*
X777Y2915D01*
D02*
X1475Y3667D02*
X1476Y3644D01*
D02*
X1476Y3686D02*
X1475Y3667D01*
D02*
X926Y3416D02*
X1277Y3416D01*
D02*
X1576Y3566D02*
X1576Y3587D01*
D02*
X1277Y3416D02*
X1376Y3516D01*
D02*
X1376Y3516D02*
X1526Y3516D01*
D02*
X1526Y3516D02*
X1576Y3566D01*
D02*
X897Y3386D02*
X926Y3416D01*
D02*
X1677Y3686D02*
X1677Y3644D01*
D02*
X2477Y3686D02*
X2477Y3644D01*
D02*
X2377Y3644D02*
X2377Y3686D01*
D02*
X2277Y3644D02*
X2277Y3686D01*
D02*
X2177Y3644D02*
X2177Y3686D01*
D02*
X1777Y3644D02*
X1777Y3686D01*
D02*
X1877Y3644D02*
X1877Y3686D01*
D02*
X1977Y3644D02*
X1977Y3686D01*
D02*
X2077Y3644D02*
X2077Y3686D01*
D02*
X2077Y3587D02*
X2077Y3496D01*
D02*
X1977Y3587D02*
X1977Y3496D01*
D02*
X1877Y3587D02*
X1877Y3496D01*
D02*
X1777Y3587D02*
X1777Y3496D01*
D02*
X477Y2586D02*
X477Y2496D01*
D02*
X378Y2367D02*
X446Y2366D01*
G54D24*
D02*
X3675Y2167D02*
X3834Y2166D01*
D02*
X3675Y1865D02*
X3675Y2167D01*
G54D23*
D02*
X3608Y4366D02*
X3748Y4366D01*
D02*
X955Y4366D02*
X1095Y4366D01*
D02*
X827Y697D02*
X827Y835D01*
D02*
X1127Y697D02*
X1127Y835D01*
D02*
X829Y964D02*
X827Y897D01*
D02*
X1529Y2113D02*
X1529Y668D01*
D02*
X1529Y668D02*
X1157Y666D01*
D02*
X1407Y2115D02*
X1529Y2113D01*
D02*
X626Y567D02*
X624Y300D01*
D02*
X1574Y2215D02*
X1574Y566D01*
D02*
X1574Y566D02*
X626Y567D01*
D02*
X1407Y2216D02*
X1574Y2215D01*
D02*
X1624Y2315D02*
X1407Y2316D01*
D02*
X1624Y467D02*
X1624Y2315D01*
D02*
X1157Y466D02*
X1624Y467D01*
D02*
X3075Y2015D02*
X3246Y2016D01*
D02*
X3075Y668D02*
X3075Y2015D01*
D02*
X3446Y666D02*
X3075Y668D01*
D02*
X3027Y2117D02*
X3246Y2116D01*
D02*
X3027Y464D02*
X3027Y2117D01*
D02*
X3446Y466D02*
X3027Y464D01*
D02*
X325Y1817D02*
X207Y1816D01*
D02*
X178Y1168D02*
X177Y1486D01*
D02*
X521Y1163D02*
X178Y1168D01*
D02*
X4626Y1817D02*
X4629Y2170D01*
D02*
X4629Y2170D02*
X3908Y2166D01*
D02*
X4557Y1816D02*
X4626Y1817D01*
D02*
X4527Y1194D02*
X4527Y1486D01*
D02*
X4075Y1015D02*
X4076Y1137D01*
D02*
X4496Y1716D02*
X4457Y1716D01*
D02*
X4496Y1616D02*
X4457Y1616D01*
D02*
X207Y1716D02*
X246Y1716D01*
D02*
X207Y1616D02*
X246Y1616D01*
D02*
X207Y5166D02*
X246Y5166D01*
D02*
X207Y5066D02*
X246Y5066D01*
D02*
X376Y5268D02*
X207Y5266D01*
D02*
X126Y4966D02*
X146Y4966D01*
D02*
X74Y1520D02*
X77Y4916D01*
D02*
X77Y4916D02*
X126Y4966D01*
D02*
X147Y1517D02*
X74Y1520D01*
D02*
X4496Y5166D02*
X4457Y5166D01*
D02*
X4496Y5066D02*
X4457Y5066D01*
D02*
X4375Y4967D02*
X4496Y4966D01*
D02*
X4577Y5267D02*
X4557Y5267D01*
D02*
X4625Y5216D02*
X4577Y5267D01*
D02*
X4629Y2170D02*
X4627Y2514D01*
D02*
X4627Y2514D02*
X4625Y5216D01*
D02*
X4527Y3615D02*
X4447Y3536D01*
D02*
X4527Y3967D02*
X4527Y3615D01*
D02*
X4527Y3967D02*
X4527Y4936D01*
D02*
X4177Y4814D02*
X4177Y4744D01*
D02*
X3978Y5015D02*
X4177Y4814D01*
D02*
X3903Y5014D02*
X3978Y5015D01*
D02*
X3725Y5116D02*
X4148Y5116D01*
D02*
X527Y4814D02*
X676Y5015D01*
D02*
X676Y5015D02*
X750Y5014D01*
D02*
X527Y4744D02*
X527Y4814D01*
D02*
X928Y4767D02*
X796Y4897D01*
D02*
X1348Y4766D02*
X928Y4767D01*
D02*
X4326Y4567D02*
X4326Y4686D01*
D02*
X1076Y4565D02*
X1448Y4566D01*
D02*
X977Y4666D02*
X1076Y4565D01*
D02*
X955Y4666D02*
X977Y4666D01*
D02*
X677Y4365D02*
X685Y4335D01*
D02*
X1276Y4366D02*
X1176Y4466D01*
D02*
X776Y4465D02*
X677Y4365D01*
D02*
X1176Y4466D02*
X776Y4465D01*
D02*
X1448Y4366D02*
X1276Y4366D01*
D02*
X826Y4267D02*
X925Y4167D01*
D02*
X726Y4267D02*
X826Y4267D01*
D02*
X925Y4167D02*
X995Y4166D01*
D02*
X628Y4167D02*
X726Y4267D01*
D02*
X608Y4166D02*
X628Y4167D01*
D02*
X777Y4014D02*
X777Y4134D01*
D02*
X848Y4015D02*
X777Y4014D01*
D02*
X1226Y4013D02*
X905Y4016D01*
D02*
X1226Y4134D02*
X1226Y4013D01*
D02*
X3678Y3965D02*
X3499Y4143D01*
D02*
X3876Y3966D02*
X3678Y3965D01*
D02*
X3876Y4134D02*
X3876Y3966D01*
D02*
X3677Y4265D02*
X3677Y4197D01*
D02*
X4076Y4265D02*
X3677Y4265D01*
D02*
X4126Y4266D02*
X4327Y4466D01*
D02*
X4327Y4466D02*
X4326Y4567D01*
D02*
X4076Y4265D02*
X4126Y4266D01*
D02*
X4076Y4197D02*
X4076Y4265D01*
D02*
X476Y4164D02*
X477Y4314D01*
D02*
X1226Y4516D02*
X1277Y4466D01*
D02*
X677Y4516D02*
X1226Y4516D01*
D02*
X477Y4314D02*
X677Y4516D01*
D02*
X2378Y4016D02*
X2105Y4016D01*
D02*
X2377Y4234D02*
X2378Y4016D01*
D02*
X2576Y4367D02*
X2327Y4367D01*
D02*
X2228Y4367D02*
X2227Y4297D01*
D02*
X2327Y4367D02*
X2326Y5114D01*
D02*
X2327Y4367D02*
X2228Y4367D01*
D02*
X2576Y4297D02*
X2576Y4367D01*
D02*
X2027Y4565D02*
X2104Y4488D01*
D02*
X1805Y4566D02*
X2027Y4565D01*
D02*
X1427Y4915D02*
X1403Y4916D01*
D02*
X1476Y4867D02*
X1427Y4915D01*
D02*
X1476Y4794D02*
X1476Y4867D01*
D02*
X3776Y4766D02*
X3305Y4766D01*
D02*
X3862Y4893D02*
X3776Y4766D01*
D02*
X1778Y4816D02*
X1777Y4794D01*
D02*
X1877Y4915D02*
X1778Y4816D01*
D02*
X1950Y4916D02*
X1877Y4915D01*
D02*
X1950Y5014D02*
X1855Y5015D01*
D02*
X1350Y5014D02*
X1255Y5015D01*
D02*
X928Y5116D02*
X555Y5116D01*
D02*
X2703Y5014D02*
X2798Y5015D01*
D02*
X3303Y5016D02*
X3398Y5016D01*
D02*
X1527Y5115D02*
X1527Y5044D01*
D02*
X928Y5116D02*
X1527Y5115D01*
D02*
X927Y5044D02*
X928Y5116D01*
D02*
X3725Y5116D02*
X3726Y5044D01*
D02*
X3126Y5114D02*
X3725Y5116D01*
D02*
X3126Y5044D02*
X3126Y5114D01*
D02*
X2326Y5114D02*
X1527Y5115D01*
D02*
X3126Y5114D02*
X2326Y5114D01*
D02*
X1405Y4166D02*
X1448Y4166D01*
D02*
X1976Y4466D02*
X1805Y4466D01*
D02*
X2078Y4367D02*
X1976Y4466D01*
D02*
X2228Y4367D02*
X2078Y4367D01*
D02*
X2027Y4067D02*
X2027Y4234D01*
D02*
X2057Y4036D02*
X2027Y4067D01*
D02*
X1377Y3914D02*
X1377Y3987D01*
D02*
X479Y3914D02*
X1377Y3914D01*
D02*
X476Y4164D02*
X479Y3914D01*
D02*
X925Y2168D02*
X927Y1794D01*
D02*
X658Y2166D02*
X925Y2168D01*
D02*
X1346Y2016D02*
X1026Y2015D01*
D02*
X627Y1935D02*
X627Y1794D01*
D02*
X627Y1297D02*
X627Y1437D01*
D02*
X927Y1437D02*
X927Y1068D01*
D02*
X927Y1068D02*
X658Y1066D01*
D02*
X525Y1665D02*
X526Y1737D01*
D02*
X526Y1567D02*
X526Y1494D01*
D02*
X1026Y1266D02*
X1027Y1437D01*
D02*
X1346Y1257D02*
X1026Y1266D01*
G54D24*
D02*
X3377Y1716D02*
X3318Y1716D01*
D02*
X3526Y1865D02*
X3377Y1716D01*
D02*
X3675Y1865D02*
X3526Y1865D01*
D02*
X3676Y1757D02*
X3675Y1865D01*
D02*
X3575Y1664D02*
X3575Y1675D01*
D02*
X3426Y1515D02*
X3575Y1664D01*
D02*
X3318Y1516D02*
X3426Y1515D01*
D02*
X3776Y1567D02*
X4084Y1566D01*
D02*
X4126Y1966D02*
X3919Y1966D01*
D02*
X4127Y1708D02*
X4126Y1966D01*
D02*
X3776Y1675D02*
X3776Y1567D01*
G54D23*
D02*
X3277Y1686D02*
X3277Y1646D01*
D02*
X4275Y365D02*
X4276Y1265D01*
D02*
X3478Y1265D02*
X3377Y1317D01*
D02*
X3377Y1317D02*
X3307Y1316D01*
D02*
X4275Y1265D02*
X3478Y1265D01*
D02*
X4198Y290D02*
X4275Y365D01*
D02*
X3675Y1317D02*
X3677Y1686D01*
D02*
X3977Y164D02*
X4326Y164D01*
D02*
X4326Y164D02*
X4328Y1317D01*
D02*
X4328Y1317D02*
X3675Y1317D01*
D02*
X3977Y231D02*
X3977Y164D01*
D02*
X3175Y1015D02*
X3176Y844D01*
D02*
X4075Y1015D02*
X3175Y1015D01*
D02*
X4150Y1016D02*
X4075Y1015D01*
D02*
X3177Y1518D02*
X3177Y1244D01*
D02*
X3246Y1516D02*
X3177Y1518D01*
D02*
X4079Y917D02*
X4150Y917D01*
D02*
X4075Y867D02*
X4079Y917D01*
D02*
X4075Y365D02*
X4075Y867D01*
D02*
X4001Y290D02*
X4075Y365D01*
D02*
X3777Y697D02*
X3777Y835D01*
D02*
X4075Y867D02*
X3807Y866D01*
D02*
X3477Y697D02*
X3477Y835D01*
G54D25*
D02*
X4428Y1317D02*
X4424Y116D01*
D02*
X4227Y1567D02*
X4428Y1317D01*
D02*
X4163Y1566D02*
X4227Y1567D01*
D02*
X4424Y116D02*
X1261Y116D01*
D02*
X325Y1817D02*
X396Y1781D01*
D02*
X1202Y1390D02*
X1151Y1442D01*
D02*
X1275Y1068D02*
X1341Y1060D01*
D02*
X1175Y968D02*
X1275Y1068D01*
D02*
X829Y964D02*
X1175Y968D01*
D02*
X526Y968D02*
X829Y964D01*
D02*
X827Y1168D02*
X521Y1163D01*
D02*
X827Y1432D02*
X827Y1168D01*
D02*
X521Y1163D02*
X526Y968D01*
G54D23*
D02*
X798Y1466D02*
X755Y1466D01*
D02*
X798Y1766D02*
X755Y1766D01*
D02*
X1276Y3644D02*
X1276Y3716D01*
D02*
X1276Y3716D02*
X1346Y3716D01*
D02*
X3076Y3666D02*
X3026Y3616D01*
D02*
X3076Y3686D02*
X3076Y3666D01*
D02*
X3026Y3616D02*
X2705Y3616D01*
D02*
X1377Y3746D02*
X1377Y3786D01*
D02*
X3077Y3746D02*
X3077Y3786D01*
D02*
X1376Y3566D02*
X1376Y3587D01*
D02*
X1326Y3514D02*
X1376Y3566D01*
D02*
X558Y3516D02*
X1327Y3514D01*
D02*
X3026Y3516D02*
X2626Y3516D01*
D02*
X3226Y3716D02*
X3026Y3516D01*
D02*
X4095Y3716D02*
X3226Y3716D01*
D02*
X2578Y3567D02*
X2577Y3587D01*
D02*
X2626Y3516D02*
X2578Y3567D01*
D02*
X4375Y3114D02*
X4398Y3115D01*
D02*
X4248Y3244D02*
X4375Y3114D01*
D02*
X4227Y3484D02*
X4227Y3396D01*
D02*
X1026Y2015D02*
X1027Y1794D01*
D02*
X1126Y1915D02*
X1126Y1794D01*
D02*
X1346Y1916D02*
X1126Y1915D01*
D02*
X525Y1665D02*
X1346Y1656D01*
D02*
X526Y1567D02*
X1227Y1567D01*
D02*
X1278Y1615D02*
X427Y1615D01*
D02*
X427Y1615D02*
X427Y1494D01*
D02*
X1326Y1567D02*
X1347Y1562D01*
D02*
X1278Y1615D02*
X1326Y1567D01*
D02*
X1326Y1465D02*
X1347Y1461D01*
D02*
X1227Y1567D02*
X1326Y1465D01*
G54D25*
D02*
X527Y266D02*
X467Y266D01*
D02*
X526Y968D02*
X527Y266D01*
G54D23*
D02*
X3942Y266D02*
X3807Y266D01*
D02*
X3777Y435D02*
X3777Y297D01*
D02*
X3477Y435D02*
X3477Y297D01*
G54D25*
D02*
X527Y166D02*
X827Y166D01*
D02*
X827Y166D02*
X827Y229D01*
D02*
X527Y266D02*
X527Y166D01*
G54D23*
D02*
X827Y297D02*
X827Y435D01*
D02*
X1127Y297D02*
X1127Y435D01*
D02*
X324Y3017D02*
X325Y3867D01*
D02*
X325Y1817D02*
X324Y3017D01*
D02*
X676Y3716D02*
X658Y3716D01*
D02*
X1276Y3716D02*
X676Y3716D01*
D02*
X1477Y4137D02*
X1477Y3846D01*
D02*
X1575Y4765D02*
X1505Y4766D01*
D02*
X1577Y3846D02*
X1575Y4765D01*
D02*
X1676Y4765D02*
X1748Y4766D01*
D02*
X1677Y3846D02*
X1676Y4765D01*
D02*
X1777Y4137D02*
X1777Y3846D01*
D02*
X3177Y4115D02*
X3177Y4137D01*
D02*
X2977Y3916D02*
X3177Y4115D01*
D02*
X2977Y3846D02*
X2977Y3916D01*
D02*
X3077Y4115D02*
X3077Y4766D01*
D02*
X3077Y4766D02*
X3148Y4766D01*
D02*
X2877Y3916D02*
X3077Y4115D01*
D02*
X2877Y3846D02*
X2877Y3916D01*
D02*
X2777Y3916D02*
X2978Y4115D01*
D02*
X2978Y4115D02*
X2977Y4766D01*
D02*
X2977Y4766D02*
X2905Y4766D01*
D02*
X2777Y3846D02*
X2777Y3916D01*
D02*
X3426Y4367D02*
X3526Y4467D01*
D02*
X3526Y4467D02*
X3877Y4466D01*
D02*
X3205Y4366D02*
X3426Y4367D01*
D02*
X4326Y4917D02*
X4177Y5066D01*
D02*
X4177Y5066D02*
X4177Y5087D01*
D02*
X4326Y4846D02*
X4326Y4917D01*
D02*
X3248Y4166D02*
X3205Y4166D01*
D02*
X3227Y4915D02*
X3176Y4866D01*
D02*
X3250Y4916D02*
X3227Y4915D01*
D02*
X3426Y4567D02*
X3526Y4665D01*
D02*
X3526Y4665D02*
X3748Y4666D01*
D02*
X3205Y4566D02*
X3426Y4567D01*
D02*
X2576Y4567D02*
X2499Y4488D01*
D02*
X2848Y4566D02*
X2576Y4567D01*
D02*
X3526Y4567D02*
X4326Y4567D01*
D02*
X2875Y4815D02*
X2777Y4915D01*
D02*
X2876Y4794D02*
X2875Y4815D01*
D02*
X3877Y4466D02*
X3954Y4388D01*
D02*
X2677Y4015D02*
X2678Y4466D01*
D02*
X2378Y4016D02*
X2677Y4015D01*
D02*
X3176Y4866D02*
X3176Y4794D01*
D02*
X2777Y4915D02*
X2703Y4916D01*
D02*
X3426Y4467D02*
X3526Y4567D01*
D02*
X3205Y4466D02*
X3426Y4467D01*
D02*
X2827Y4465D02*
X2848Y4465D01*
D02*
X2827Y4465D02*
X2827Y4465D01*
D02*
X2678Y4466D02*
X2827Y4465D01*
D02*
X2876Y4115D02*
X2876Y4137D01*
D02*
X2677Y3916D02*
X2876Y4115D01*
D02*
X2677Y3846D02*
X2677Y3916D01*
D02*
X1377Y3914D02*
X1377Y3846D01*
D02*
X1277Y4466D02*
X1448Y4466D01*
D02*
X4627Y2514D02*
X4407Y2516D01*
D02*
X2126Y3416D02*
X3028Y3416D01*
D02*
X3028Y3416D02*
X3028Y2916D01*
D02*
X3028Y2916D02*
X3125Y2816D01*
D02*
X3125Y2816D02*
X4346Y2816D01*
D02*
X2098Y3444D02*
X2126Y3416D01*
D02*
X4258Y3516D02*
X4327Y3515D01*
D02*
X4327Y3515D02*
X4327Y3684D01*
D02*
X1448Y4666D02*
X1257Y4666D01*
D02*
X1407Y4266D02*
X1448Y4266D01*
D02*
X1946Y4666D02*
X1805Y4666D01*
D02*
X2848Y4666D02*
X2707Y4666D01*
D02*
X2848Y4266D02*
X2807Y4266D01*
D02*
X2077Y3946D02*
X2077Y3987D01*
D02*
X1805Y4266D02*
X1846Y4266D01*
D02*
X3246Y4266D02*
X3205Y4266D01*
D02*
X3346Y4666D02*
X3205Y4666D01*
D02*
X3446Y3616D02*
X3307Y3616D01*
D02*
X3446Y3516D02*
X3307Y3516D01*
D02*
X3446Y3416D02*
X3307Y3416D01*
D02*
X3446Y3316D02*
X3307Y3316D01*
D02*
X3446Y3216D02*
X3307Y3216D01*
D02*
X3446Y3116D02*
X3307Y3116D01*
D02*
X3446Y3016D02*
X3307Y3016D01*
D02*
X3446Y2916D02*
X3307Y2916D01*
D02*
X1546Y2916D02*
X1407Y2916D01*
D02*
X1546Y3016D02*
X1407Y3016D01*
D02*
X1546Y3116D02*
X1407Y3116D01*
D02*
X1546Y3216D02*
X1407Y3216D01*
D02*
X1546Y3316D02*
X1407Y3316D01*
D02*
X1546Y3416D02*
X1407Y3416D01*
D02*
X1805Y4366D02*
X1846Y4366D01*
D02*
X2848Y4366D02*
X2807Y4366D01*
G54D26*
X3847Y1936D02*
X3847Y1996D01*
X3907Y1996D01*
X3907Y1936D01*
X3847Y1936D01*
D02*
G54D27*
X797Y896D02*
X855Y896D01*
X1097Y896D02*
X1155Y896D01*
X3447Y896D02*
X3505Y896D01*
X3747Y896D02*
X3805Y896D01*
X797Y895D02*
X855Y895D01*
X1097Y895D02*
X1155Y895D01*
X3447Y895D02*
X3505Y895D01*
X3747Y895D02*
X3805Y895D01*
X797Y894D02*
X855Y894D01*
X1097Y894D02*
X1155Y894D01*
X3447Y894D02*
X3505Y894D01*
X3747Y894D02*
X3805Y894D01*
X797Y893D02*
X855Y893D01*
X1097Y893D02*
X1155Y893D01*
X3447Y893D02*
X3505Y893D01*
X3747Y893D02*
X3805Y893D01*
X797Y892D02*
X855Y892D01*
X1097Y892D02*
X1155Y892D01*
X3447Y892D02*
X3505Y892D01*
X3747Y892D02*
X3805Y892D01*
X797Y891D02*
X855Y891D01*
X1097Y891D02*
X1155Y891D01*
X3447Y891D02*
X3505Y891D01*
X3747Y891D02*
X3805Y891D01*
X797Y890D02*
X855Y890D01*
X1097Y890D02*
X1155Y890D01*
X3447Y890D02*
X3505Y890D01*
X3747Y890D02*
X3805Y890D01*
X797Y889D02*
X855Y889D01*
X1097Y889D02*
X1155Y889D01*
X3447Y889D02*
X3505Y889D01*
X3747Y889D02*
X3805Y889D01*
X797Y888D02*
X855Y888D01*
X1097Y888D02*
X1155Y888D01*
X3447Y888D02*
X3505Y888D01*
X3747Y888D02*
X3805Y888D01*
X797Y887D02*
X855Y887D01*
X1097Y887D02*
X1155Y887D01*
X3447Y887D02*
X3505Y887D01*
X3747Y887D02*
X3805Y887D01*
X797Y886D02*
X820Y886D01*
X832Y886D02*
X855Y886D01*
X1097Y886D02*
X1120Y886D01*
X1132Y886D02*
X1155Y886D01*
X3447Y886D02*
X3470Y886D01*
X3482Y886D02*
X3505Y886D01*
X3747Y886D02*
X3770Y886D01*
X3782Y886D02*
X3805Y886D01*
X797Y885D02*
X817Y885D01*
X835Y885D02*
X855Y885D01*
X1097Y885D02*
X1117Y885D01*
X1135Y885D02*
X1155Y885D01*
X3447Y885D02*
X3467Y885D01*
X3484Y885D02*
X3505Y885D01*
X3747Y885D02*
X3767Y885D01*
X3784Y885D02*
X3805Y885D01*
X797Y884D02*
X815Y884D01*
X837Y884D02*
X855Y884D01*
X1097Y884D02*
X1115Y884D01*
X1137Y884D02*
X1155Y884D01*
X3447Y884D02*
X3465Y884D01*
X3486Y884D02*
X3505Y884D01*
X3747Y884D02*
X3765Y884D01*
X3786Y884D02*
X3805Y884D01*
X797Y883D02*
X814Y883D01*
X838Y883D02*
X855Y883D01*
X1097Y883D02*
X1114Y883D01*
X1138Y883D02*
X1155Y883D01*
X3447Y883D02*
X3464Y883D01*
X3488Y883D02*
X3505Y883D01*
X3747Y883D02*
X3764Y883D01*
X3788Y883D02*
X3805Y883D01*
X797Y882D02*
X813Y882D01*
X839Y882D02*
X855Y882D01*
X1097Y882D02*
X1113Y882D01*
X1139Y882D02*
X1155Y882D01*
X3447Y882D02*
X3463Y882D01*
X3489Y882D02*
X3505Y882D01*
X3747Y882D02*
X3762Y882D01*
X3789Y882D02*
X3805Y882D01*
X797Y881D02*
X812Y881D01*
X840Y881D02*
X855Y881D01*
X1097Y881D02*
X1112Y881D01*
X1140Y881D02*
X1155Y881D01*
X3447Y881D02*
X3461Y881D01*
X3490Y881D02*
X3505Y881D01*
X3747Y881D02*
X3761Y881D01*
X3790Y881D02*
X3805Y881D01*
X797Y880D02*
X811Y880D01*
X841Y880D02*
X855Y880D01*
X1097Y880D02*
X1111Y880D01*
X1141Y880D02*
X1155Y880D01*
X3447Y880D02*
X3460Y880D01*
X3491Y880D02*
X3505Y880D01*
X3747Y880D02*
X3760Y880D01*
X3791Y880D02*
X3805Y880D01*
X797Y879D02*
X810Y879D01*
X842Y879D02*
X855Y879D01*
X1097Y879D02*
X1110Y879D01*
X1142Y879D02*
X1155Y879D01*
X3447Y879D02*
X3460Y879D01*
X3492Y879D02*
X3505Y879D01*
X3747Y879D02*
X3760Y879D01*
X3792Y879D02*
X3805Y879D01*
X797Y878D02*
X809Y878D01*
X843Y878D02*
X855Y878D01*
X1097Y878D02*
X1109Y878D01*
X1143Y878D02*
X1155Y878D01*
X3447Y878D02*
X3459Y878D01*
X3493Y878D02*
X3505Y878D01*
X3747Y878D02*
X3759Y878D01*
X3793Y878D02*
X3805Y878D01*
X797Y877D02*
X809Y877D01*
X843Y877D02*
X855Y877D01*
X1097Y877D02*
X1109Y877D01*
X1143Y877D02*
X1155Y877D01*
X3447Y877D02*
X3458Y877D01*
X3493Y877D02*
X3505Y877D01*
X3747Y877D02*
X3758Y877D01*
X3793Y877D02*
X3805Y877D01*
X797Y876D02*
X808Y876D01*
X844Y876D02*
X855Y876D01*
X1097Y876D02*
X1108Y876D01*
X1144Y876D02*
X1155Y876D01*
X3447Y876D02*
X3458Y876D01*
X3494Y876D02*
X3505Y876D01*
X3747Y876D02*
X3758Y876D01*
X3794Y876D02*
X3805Y876D01*
X797Y875D02*
X808Y875D01*
X845Y875D02*
X855Y875D01*
X1097Y875D02*
X1107Y875D01*
X1145Y875D02*
X1155Y875D01*
X3447Y875D02*
X3457Y875D01*
X3494Y875D02*
X3505Y875D01*
X3747Y875D02*
X3757Y875D01*
X3794Y875D02*
X3805Y875D01*
X797Y874D02*
X807Y874D01*
X845Y874D02*
X855Y874D01*
X1097Y874D02*
X1107Y874D01*
X1145Y874D02*
X1155Y874D01*
X3447Y874D02*
X3457Y874D01*
X3495Y874D02*
X3505Y874D01*
X3747Y874D02*
X3757Y874D01*
X3795Y874D02*
X3805Y874D01*
X797Y873D02*
X807Y873D01*
X845Y873D02*
X855Y873D01*
X1097Y873D02*
X1107Y873D01*
X1145Y873D02*
X1155Y873D01*
X3447Y873D02*
X3457Y873D01*
X3495Y873D02*
X3505Y873D01*
X3747Y873D02*
X3757Y873D01*
X3795Y873D02*
X3805Y873D01*
X797Y872D02*
X807Y872D01*
X846Y872D02*
X855Y872D01*
X1097Y872D02*
X1106Y872D01*
X1146Y872D02*
X1155Y872D01*
X3447Y872D02*
X3456Y872D01*
X3495Y872D02*
X3505Y872D01*
X3747Y872D02*
X3756Y872D01*
X3795Y872D02*
X3805Y872D01*
X797Y871D02*
X806Y871D01*
X846Y871D02*
X855Y871D01*
X1097Y871D02*
X1106Y871D01*
X1146Y871D02*
X1155Y871D01*
X3447Y871D02*
X3456Y871D01*
X3496Y871D02*
X3505Y871D01*
X3747Y871D02*
X3756Y871D01*
X3796Y871D02*
X3805Y871D01*
X797Y870D02*
X806Y870D01*
X846Y870D02*
X855Y870D01*
X1097Y870D02*
X1106Y870D01*
X1146Y870D02*
X1155Y870D01*
X3447Y870D02*
X3456Y870D01*
X3496Y870D02*
X3505Y870D01*
X3747Y870D02*
X3756Y870D01*
X3796Y870D02*
X3805Y870D01*
X797Y869D02*
X806Y869D01*
X846Y869D02*
X855Y869D01*
X1097Y869D02*
X1106Y869D01*
X1146Y869D02*
X1155Y869D01*
X3447Y869D02*
X3456Y869D01*
X3496Y869D02*
X3505Y869D01*
X3747Y869D02*
X3756Y869D01*
X3796Y869D02*
X3805Y869D01*
X797Y868D02*
X806Y868D01*
X846Y868D02*
X855Y868D01*
X1097Y868D02*
X1106Y868D01*
X1146Y868D02*
X1155Y868D01*
X3447Y868D02*
X3456Y868D01*
X3496Y868D02*
X3505Y868D01*
X3747Y868D02*
X3756Y868D01*
X3796Y868D02*
X3805Y868D01*
X797Y867D02*
X806Y867D01*
X846Y867D02*
X855Y867D01*
X1097Y867D02*
X1106Y867D01*
X1146Y867D02*
X1155Y867D01*
X3447Y867D02*
X3456Y867D01*
X3496Y867D02*
X3505Y867D01*
X3747Y867D02*
X3756Y867D01*
X3796Y867D02*
X3805Y867D01*
X797Y866D02*
X806Y866D01*
X846Y866D02*
X855Y866D01*
X1097Y866D02*
X1106Y866D01*
X1146Y866D02*
X1155Y866D01*
X3447Y866D02*
X3456Y866D01*
X3496Y866D02*
X3505Y866D01*
X3747Y866D02*
X3756Y866D01*
X3796Y866D02*
X3805Y866D01*
X797Y865D02*
X806Y865D01*
X846Y865D02*
X855Y865D01*
X1097Y865D02*
X1106Y865D01*
X1146Y865D02*
X1155Y865D01*
X3447Y865D02*
X3456Y865D01*
X3496Y865D02*
X3505Y865D01*
X3747Y865D02*
X3756Y865D01*
X3796Y865D02*
X3805Y865D01*
X797Y864D02*
X806Y864D01*
X846Y864D02*
X855Y864D01*
X1097Y864D02*
X1106Y864D01*
X1146Y864D02*
X1155Y864D01*
X3447Y864D02*
X3456Y864D01*
X3496Y864D02*
X3505Y864D01*
X3747Y864D02*
X3756Y864D01*
X3796Y864D02*
X3805Y864D01*
X797Y863D02*
X806Y863D01*
X846Y863D02*
X855Y863D01*
X1097Y863D02*
X1106Y863D01*
X1146Y863D02*
X1155Y863D01*
X3447Y863D02*
X3456Y863D01*
X3496Y863D02*
X3505Y863D01*
X3747Y863D02*
X3756Y863D01*
X3795Y863D02*
X3805Y863D01*
X797Y862D02*
X807Y862D01*
X845Y862D02*
X855Y862D01*
X1097Y862D02*
X1107Y862D01*
X1145Y862D02*
X1155Y862D01*
X3447Y862D02*
X3456Y862D01*
X3495Y862D02*
X3505Y862D01*
X3747Y862D02*
X3756Y862D01*
X3795Y862D02*
X3805Y862D01*
X797Y861D02*
X807Y861D01*
X845Y861D02*
X855Y861D01*
X1097Y861D02*
X1107Y861D01*
X1145Y861D02*
X1155Y861D01*
X3447Y861D02*
X3457Y861D01*
X3495Y861D02*
X3505Y861D01*
X3747Y861D02*
X3757Y861D01*
X3795Y861D02*
X3805Y861D01*
X797Y860D02*
X807Y860D01*
X845Y860D02*
X855Y860D01*
X1097Y860D02*
X1107Y860D01*
X1145Y860D02*
X1155Y860D01*
X3447Y860D02*
X3457Y860D01*
X3495Y860D02*
X3505Y860D01*
X3747Y860D02*
X3757Y860D01*
X3795Y860D02*
X3805Y860D01*
X797Y859D02*
X808Y859D01*
X844Y859D02*
X855Y859D01*
X1097Y859D02*
X1108Y859D01*
X1144Y859D02*
X1155Y859D01*
X3447Y859D02*
X3457Y859D01*
X3494Y859D02*
X3505Y859D01*
X3747Y859D02*
X3757Y859D01*
X3794Y859D02*
X3805Y859D01*
X797Y858D02*
X808Y858D01*
X844Y858D02*
X855Y858D01*
X1097Y858D02*
X1108Y858D01*
X1144Y858D02*
X1155Y858D01*
X3447Y858D02*
X3458Y858D01*
X3494Y858D02*
X3505Y858D01*
X3747Y858D02*
X3758Y858D01*
X3794Y858D02*
X3805Y858D01*
X797Y857D02*
X809Y857D01*
X843Y857D02*
X855Y857D01*
X1097Y857D02*
X1109Y857D01*
X1143Y857D02*
X1155Y857D01*
X3447Y857D02*
X3459Y857D01*
X3493Y857D02*
X3505Y857D01*
X3747Y857D02*
X3758Y857D01*
X3793Y857D02*
X3805Y857D01*
X797Y856D02*
X809Y856D01*
X843Y856D02*
X855Y856D01*
X1097Y856D02*
X1109Y856D01*
X1143Y856D02*
X1155Y856D01*
X3447Y856D02*
X3459Y856D01*
X3492Y856D02*
X3505Y856D01*
X3747Y856D02*
X3759Y856D01*
X3792Y856D02*
X3805Y856D01*
X797Y855D02*
X810Y855D01*
X842Y855D02*
X855Y855D01*
X1097Y855D02*
X1110Y855D01*
X1142Y855D02*
X1155Y855D01*
X3447Y855D02*
X3460Y855D01*
X3492Y855D02*
X3505Y855D01*
X3747Y855D02*
X3760Y855D01*
X3792Y855D02*
X3805Y855D01*
X797Y854D02*
X811Y854D01*
X841Y854D02*
X855Y854D01*
X1097Y854D02*
X1111Y854D01*
X1141Y854D02*
X1155Y854D01*
X3447Y854D02*
X3461Y854D01*
X3491Y854D02*
X3505Y854D01*
X3747Y854D02*
X3761Y854D01*
X3791Y854D02*
X3805Y854D01*
X797Y853D02*
X812Y853D01*
X840Y853D02*
X855Y853D01*
X1097Y853D02*
X1112Y853D01*
X1140Y853D02*
X1155Y853D01*
X3447Y853D02*
X3462Y853D01*
X3490Y853D02*
X3505Y853D01*
X3747Y853D02*
X3762Y853D01*
X3790Y853D02*
X3805Y853D01*
X797Y852D02*
X813Y852D01*
X839Y852D02*
X855Y852D01*
X1097Y852D02*
X1113Y852D01*
X1139Y852D02*
X1155Y852D01*
X3447Y852D02*
X3463Y852D01*
X3489Y852D02*
X3505Y852D01*
X3747Y852D02*
X3763Y852D01*
X3789Y852D02*
X3805Y852D01*
X797Y851D02*
X814Y851D01*
X838Y851D02*
X855Y851D01*
X1097Y851D02*
X1114Y851D01*
X1138Y851D02*
X1155Y851D01*
X3447Y851D02*
X3464Y851D01*
X3487Y851D02*
X3505Y851D01*
X3747Y851D02*
X3764Y851D01*
X3787Y851D02*
X3805Y851D01*
X797Y850D02*
X816Y850D01*
X836Y850D02*
X855Y850D01*
X1097Y850D02*
X1116Y850D01*
X1136Y850D02*
X1155Y850D01*
X3447Y850D02*
X3466Y850D01*
X3486Y850D02*
X3505Y850D01*
X3747Y850D02*
X3766Y850D01*
X3786Y850D02*
X3805Y850D01*
X797Y849D02*
X818Y849D01*
X834Y849D02*
X855Y849D01*
X1097Y849D02*
X1118Y849D01*
X1134Y849D02*
X1155Y849D01*
X3447Y849D02*
X3468Y849D01*
X3484Y849D02*
X3505Y849D01*
X3747Y849D02*
X3768Y849D01*
X3784Y849D02*
X3805Y849D01*
X797Y848D02*
X821Y848D01*
X831Y848D02*
X855Y848D01*
X1097Y848D02*
X1121Y848D01*
X1131Y848D02*
X1155Y848D01*
X3447Y848D02*
X3471Y848D01*
X3481Y848D02*
X3505Y848D01*
X3747Y848D02*
X3771Y848D01*
X3781Y848D02*
X3805Y848D01*
X797Y847D02*
X855Y847D01*
X1097Y847D02*
X1155Y847D01*
X3447Y847D02*
X3505Y847D01*
X3747Y847D02*
X3805Y847D01*
X797Y846D02*
X855Y846D01*
X1097Y846D02*
X1155Y846D01*
X3447Y846D02*
X3505Y846D01*
X3747Y846D02*
X3805Y846D01*
X797Y845D02*
X855Y845D01*
X1097Y845D02*
X1155Y845D01*
X3447Y845D02*
X3505Y845D01*
X3747Y845D02*
X3805Y845D01*
X797Y844D02*
X855Y844D01*
X1097Y844D02*
X1155Y844D01*
X3447Y844D02*
X3505Y844D01*
X3747Y844D02*
X3805Y844D01*
X797Y843D02*
X855Y843D01*
X1097Y843D02*
X1155Y843D01*
X3447Y843D02*
X3505Y843D01*
X3747Y843D02*
X3805Y843D01*
X797Y842D02*
X855Y842D01*
X1097Y842D02*
X1155Y842D01*
X3447Y842D02*
X3505Y842D01*
X3747Y842D02*
X3805Y842D01*
X797Y841D02*
X855Y841D01*
X1097Y841D02*
X1155Y841D01*
X3447Y841D02*
X3505Y841D01*
X3747Y841D02*
X3805Y841D01*
X797Y840D02*
X855Y840D01*
X1097Y840D02*
X1155Y840D01*
X3447Y840D02*
X3505Y840D01*
X3747Y840D02*
X3805Y840D01*
X797Y839D02*
X855Y839D01*
X1097Y839D02*
X1155Y839D01*
X3447Y839D02*
X3505Y839D01*
X3747Y839D02*
X3805Y839D01*
X797Y838D02*
X855Y838D01*
X1097Y838D02*
X1155Y838D01*
X3447Y838D02*
X3505Y838D01*
X3747Y838D02*
X3805Y838D01*
X797Y696D02*
X855Y696D01*
X1097Y696D02*
X1155Y696D01*
X3447Y696D02*
X3505Y696D01*
X3747Y696D02*
X3805Y696D01*
X797Y695D02*
X855Y695D01*
X1097Y695D02*
X1155Y695D01*
X3447Y695D02*
X3505Y695D01*
X3747Y695D02*
X3805Y695D01*
X797Y694D02*
X855Y694D01*
X1097Y694D02*
X1155Y694D01*
X3447Y694D02*
X3505Y694D01*
X3747Y694D02*
X3805Y694D01*
X797Y693D02*
X855Y693D01*
X1097Y693D02*
X1155Y693D01*
X3447Y693D02*
X3505Y693D01*
X3747Y693D02*
X3805Y693D01*
X797Y692D02*
X855Y692D01*
X1097Y692D02*
X1155Y692D01*
X3447Y692D02*
X3505Y692D01*
X3747Y692D02*
X3805Y692D01*
X797Y691D02*
X855Y691D01*
X1097Y691D02*
X1155Y691D01*
X3447Y691D02*
X3505Y691D01*
X3747Y691D02*
X3805Y691D01*
X797Y690D02*
X855Y690D01*
X1097Y690D02*
X1155Y690D01*
X3447Y690D02*
X3505Y690D01*
X3747Y690D02*
X3805Y690D01*
X797Y689D02*
X855Y689D01*
X1097Y689D02*
X1155Y689D01*
X3447Y689D02*
X3505Y689D01*
X3747Y689D02*
X3805Y689D01*
X797Y688D02*
X855Y688D01*
X1097Y688D02*
X1155Y688D01*
X3447Y688D02*
X3505Y688D01*
X3747Y688D02*
X3805Y688D01*
X797Y687D02*
X855Y687D01*
X1097Y687D02*
X1155Y687D01*
X3447Y687D02*
X3505Y687D01*
X3747Y687D02*
X3805Y687D01*
X797Y686D02*
X820Y686D01*
X832Y686D02*
X855Y686D01*
X1097Y686D02*
X1120Y686D01*
X1132Y686D02*
X1155Y686D01*
X3447Y686D02*
X3470Y686D01*
X3482Y686D02*
X3505Y686D01*
X3747Y686D02*
X3770Y686D01*
X3782Y686D02*
X3805Y686D01*
X797Y685D02*
X817Y685D01*
X835Y685D02*
X855Y685D01*
X1097Y685D02*
X1117Y685D01*
X1135Y685D02*
X1155Y685D01*
X3447Y685D02*
X3467Y685D01*
X3485Y685D02*
X3505Y685D01*
X3747Y685D02*
X3767Y685D01*
X3785Y685D02*
X3805Y685D01*
X797Y684D02*
X815Y684D01*
X837Y684D02*
X855Y684D01*
X1097Y684D02*
X1115Y684D01*
X1137Y684D02*
X1155Y684D01*
X3447Y684D02*
X3465Y684D01*
X3486Y684D02*
X3505Y684D01*
X3747Y684D02*
X3765Y684D01*
X3786Y684D02*
X3805Y684D01*
X797Y683D02*
X814Y683D01*
X838Y683D02*
X855Y683D01*
X1097Y683D02*
X1114Y683D01*
X1138Y683D02*
X1155Y683D01*
X3447Y683D02*
X3464Y683D01*
X3488Y683D02*
X3505Y683D01*
X3747Y683D02*
X3764Y683D01*
X3788Y683D02*
X3805Y683D01*
X797Y682D02*
X813Y682D01*
X839Y682D02*
X855Y682D01*
X1097Y682D02*
X1113Y682D01*
X1139Y682D02*
X1155Y682D01*
X3447Y682D02*
X3462Y682D01*
X3489Y682D02*
X3505Y682D01*
X3747Y682D02*
X3762Y682D01*
X3789Y682D02*
X3805Y682D01*
X797Y681D02*
X812Y681D01*
X840Y681D02*
X855Y681D01*
X1097Y681D02*
X1112Y681D01*
X1140Y681D02*
X1155Y681D01*
X3447Y681D02*
X3461Y681D01*
X3490Y681D02*
X3505Y681D01*
X3747Y681D02*
X3761Y681D01*
X3790Y681D02*
X3805Y681D01*
X797Y680D02*
X811Y680D01*
X841Y680D02*
X855Y680D01*
X1097Y680D02*
X1111Y680D01*
X1141Y680D02*
X1155Y680D01*
X3447Y680D02*
X3460Y680D01*
X3491Y680D02*
X3505Y680D01*
X3747Y680D02*
X3760Y680D01*
X3791Y680D02*
X3805Y680D01*
X797Y679D02*
X810Y679D01*
X842Y679D02*
X855Y679D01*
X1097Y679D02*
X1110Y679D01*
X1142Y679D02*
X1155Y679D01*
X3447Y679D02*
X3460Y679D01*
X3492Y679D02*
X3505Y679D01*
X3747Y679D02*
X3760Y679D01*
X3792Y679D02*
X3805Y679D01*
X797Y678D02*
X809Y678D01*
X843Y678D02*
X855Y678D01*
X1097Y678D02*
X1109Y678D01*
X1143Y678D02*
X1155Y678D01*
X3447Y678D02*
X3459Y678D01*
X3493Y678D02*
X3505Y678D01*
X3747Y678D02*
X3759Y678D01*
X3793Y678D02*
X3805Y678D01*
X797Y677D02*
X809Y677D01*
X843Y677D02*
X855Y677D01*
X1097Y677D02*
X1109Y677D01*
X1143Y677D02*
X1155Y677D01*
X3447Y677D02*
X3458Y677D01*
X3493Y677D02*
X3505Y677D01*
X3747Y677D02*
X3758Y677D01*
X3793Y677D02*
X3805Y677D01*
X797Y676D02*
X808Y676D01*
X844Y676D02*
X855Y676D01*
X1097Y676D02*
X1108Y676D01*
X1144Y676D02*
X1155Y676D01*
X3447Y676D02*
X3458Y676D01*
X3494Y676D02*
X3505Y676D01*
X3747Y676D02*
X3758Y676D01*
X3794Y676D02*
X3805Y676D01*
X797Y675D02*
X807Y675D01*
X845Y675D02*
X855Y675D01*
X1097Y675D02*
X1107Y675D01*
X1145Y675D02*
X1155Y675D01*
X3447Y675D02*
X3457Y675D01*
X3494Y675D02*
X3505Y675D01*
X3747Y675D02*
X3757Y675D01*
X3794Y675D02*
X3805Y675D01*
X797Y674D02*
X807Y674D01*
X845Y674D02*
X855Y674D01*
X1097Y674D02*
X1107Y674D01*
X1145Y674D02*
X1155Y674D01*
X3447Y674D02*
X3457Y674D01*
X3495Y674D02*
X3505Y674D01*
X3747Y674D02*
X3757Y674D01*
X3795Y674D02*
X3805Y674D01*
X797Y673D02*
X807Y673D01*
X845Y673D02*
X855Y673D01*
X1097Y673D02*
X1107Y673D01*
X1145Y673D02*
X1155Y673D01*
X3447Y673D02*
X3457Y673D01*
X3495Y673D02*
X3505Y673D01*
X3747Y673D02*
X3757Y673D01*
X3795Y673D02*
X3805Y673D01*
X797Y672D02*
X807Y672D01*
X846Y672D02*
X855Y672D01*
X1097Y672D02*
X1106Y672D01*
X1146Y672D02*
X1155Y672D01*
X3447Y672D02*
X3456Y672D01*
X3495Y672D02*
X3505Y672D01*
X3747Y672D02*
X3756Y672D01*
X3795Y672D02*
X3805Y672D01*
X797Y671D02*
X806Y671D01*
X846Y671D02*
X855Y671D01*
X1097Y671D02*
X1106Y671D01*
X1146Y671D02*
X1155Y671D01*
X3447Y671D02*
X3456Y671D01*
X3496Y671D02*
X3505Y671D01*
X3747Y671D02*
X3756Y671D01*
X3796Y671D02*
X3805Y671D01*
X797Y670D02*
X806Y670D01*
X846Y670D02*
X855Y670D01*
X1097Y670D02*
X1106Y670D01*
X1146Y670D02*
X1155Y670D01*
X3447Y670D02*
X3456Y670D01*
X3496Y670D02*
X3505Y670D01*
X3747Y670D02*
X3756Y670D01*
X3796Y670D02*
X3805Y670D01*
X797Y669D02*
X806Y669D01*
X846Y669D02*
X855Y669D01*
X1097Y669D02*
X1106Y669D01*
X1146Y669D02*
X1155Y669D01*
X3447Y669D02*
X3456Y669D01*
X3496Y669D02*
X3505Y669D01*
X3747Y669D02*
X3756Y669D01*
X3796Y669D02*
X3805Y669D01*
X797Y668D02*
X806Y668D01*
X846Y668D02*
X855Y668D01*
X1097Y668D02*
X1106Y668D01*
X1146Y668D02*
X1155Y668D01*
X3447Y668D02*
X3456Y668D01*
X3496Y668D02*
X3505Y668D01*
X3747Y668D02*
X3756Y668D01*
X3796Y668D02*
X3805Y668D01*
X797Y667D02*
X806Y667D01*
X846Y667D02*
X855Y667D01*
X1097Y667D02*
X1106Y667D01*
X1146Y667D02*
X1155Y667D01*
X3447Y667D02*
X3456Y667D01*
X3496Y667D02*
X3505Y667D01*
X3747Y667D02*
X3756Y667D01*
X3796Y667D02*
X3805Y667D01*
X797Y666D02*
X806Y666D01*
X846Y666D02*
X855Y666D01*
X1097Y666D02*
X1106Y666D01*
X1146Y666D02*
X1155Y666D01*
X3447Y666D02*
X3456Y666D01*
X3496Y666D02*
X3505Y666D01*
X3747Y666D02*
X3756Y666D01*
X3796Y666D02*
X3805Y666D01*
X797Y665D02*
X806Y665D01*
X846Y665D02*
X855Y665D01*
X1097Y665D02*
X1106Y665D01*
X1146Y665D02*
X1155Y665D01*
X3447Y665D02*
X3456Y665D01*
X3496Y665D02*
X3505Y665D01*
X3747Y665D02*
X3756Y665D01*
X3796Y665D02*
X3805Y665D01*
X797Y664D02*
X806Y664D01*
X846Y664D02*
X855Y664D01*
X1097Y664D02*
X1106Y664D01*
X1146Y664D02*
X1155Y664D01*
X3447Y664D02*
X3456Y664D01*
X3496Y664D02*
X3505Y664D01*
X3747Y664D02*
X3756Y664D01*
X3796Y664D02*
X3805Y664D01*
X797Y663D02*
X806Y663D01*
X846Y663D02*
X855Y663D01*
X1097Y663D02*
X1106Y663D01*
X1146Y663D02*
X1155Y663D01*
X3447Y663D02*
X3456Y663D01*
X3496Y663D02*
X3505Y663D01*
X3747Y663D02*
X3756Y663D01*
X3795Y663D02*
X3805Y663D01*
X797Y662D02*
X807Y662D01*
X845Y662D02*
X855Y662D01*
X1097Y662D02*
X1107Y662D01*
X1145Y662D02*
X1155Y662D01*
X3447Y662D02*
X3456Y662D01*
X3495Y662D02*
X3505Y662D01*
X3747Y662D02*
X3756Y662D01*
X3795Y662D02*
X3805Y662D01*
X797Y661D02*
X807Y661D01*
X845Y661D02*
X855Y661D01*
X1097Y661D02*
X1107Y661D01*
X1145Y661D02*
X1155Y661D01*
X3447Y661D02*
X3457Y661D01*
X3495Y661D02*
X3505Y661D01*
X3747Y661D02*
X3757Y661D01*
X3795Y661D02*
X3805Y661D01*
X797Y660D02*
X807Y660D01*
X845Y660D02*
X855Y660D01*
X1097Y660D02*
X1107Y660D01*
X1145Y660D02*
X1155Y660D01*
X3447Y660D02*
X3457Y660D01*
X3495Y660D02*
X3505Y660D01*
X3747Y660D02*
X3757Y660D01*
X3795Y660D02*
X3805Y660D01*
X797Y659D02*
X808Y659D01*
X844Y659D02*
X855Y659D01*
X1097Y659D02*
X1108Y659D01*
X1144Y659D02*
X1155Y659D01*
X3447Y659D02*
X3457Y659D01*
X3494Y659D02*
X3505Y659D01*
X3747Y659D02*
X3757Y659D01*
X3794Y659D02*
X3805Y659D01*
X797Y658D02*
X808Y658D01*
X844Y658D02*
X855Y658D01*
X1097Y658D02*
X1108Y658D01*
X1144Y658D02*
X1155Y658D01*
X3447Y658D02*
X3458Y658D01*
X3494Y658D02*
X3505Y658D01*
X3747Y658D02*
X3758Y658D01*
X3794Y658D02*
X3805Y658D01*
X797Y657D02*
X809Y657D01*
X843Y657D02*
X855Y657D01*
X1097Y657D02*
X1109Y657D01*
X1143Y657D02*
X1155Y657D01*
X3447Y657D02*
X3459Y657D01*
X3493Y657D02*
X3505Y657D01*
X3747Y657D02*
X3759Y657D01*
X3793Y657D02*
X3805Y657D01*
X797Y656D02*
X809Y656D01*
X843Y656D02*
X855Y656D01*
X1097Y656D02*
X1109Y656D01*
X1143Y656D02*
X1155Y656D01*
X3447Y656D02*
X3459Y656D01*
X3492Y656D02*
X3505Y656D01*
X3747Y656D02*
X3759Y656D01*
X3792Y656D02*
X3805Y656D01*
X797Y655D02*
X810Y655D01*
X842Y655D02*
X855Y655D01*
X1097Y655D02*
X1110Y655D01*
X1142Y655D02*
X1155Y655D01*
X3447Y655D02*
X3460Y655D01*
X3492Y655D02*
X3505Y655D01*
X3747Y655D02*
X3760Y655D01*
X3792Y655D02*
X3805Y655D01*
X797Y654D02*
X811Y654D01*
X841Y654D02*
X855Y654D01*
X1097Y654D02*
X1111Y654D01*
X1141Y654D02*
X1155Y654D01*
X3447Y654D02*
X3461Y654D01*
X3491Y654D02*
X3505Y654D01*
X3747Y654D02*
X3761Y654D01*
X3791Y654D02*
X3805Y654D01*
X797Y653D02*
X812Y653D01*
X840Y653D02*
X855Y653D01*
X1097Y653D02*
X1112Y653D01*
X1140Y653D02*
X1155Y653D01*
X3447Y653D02*
X3462Y653D01*
X3490Y653D02*
X3505Y653D01*
X3747Y653D02*
X3762Y653D01*
X3790Y653D02*
X3805Y653D01*
X797Y652D02*
X813Y652D01*
X839Y652D02*
X855Y652D01*
X1097Y652D02*
X1113Y652D01*
X1139Y652D02*
X1155Y652D01*
X3447Y652D02*
X3463Y652D01*
X3489Y652D02*
X3505Y652D01*
X3747Y652D02*
X3763Y652D01*
X3789Y652D02*
X3805Y652D01*
X797Y651D02*
X814Y651D01*
X838Y651D02*
X855Y651D01*
X1097Y651D02*
X1114Y651D01*
X1138Y651D02*
X1155Y651D01*
X3447Y651D02*
X3464Y651D01*
X3487Y651D02*
X3505Y651D01*
X3747Y651D02*
X3764Y651D01*
X3787Y651D02*
X3805Y651D01*
X797Y650D02*
X816Y650D01*
X836Y650D02*
X855Y650D01*
X1097Y650D02*
X1116Y650D01*
X1136Y650D02*
X1155Y650D01*
X3447Y650D02*
X3466Y650D01*
X3486Y650D02*
X3505Y650D01*
X3747Y650D02*
X3766Y650D01*
X3786Y650D02*
X3805Y650D01*
X797Y649D02*
X818Y649D01*
X834Y649D02*
X855Y649D01*
X1097Y649D02*
X1118Y649D01*
X1134Y649D02*
X1155Y649D01*
X3447Y649D02*
X3468Y649D01*
X3484Y649D02*
X3505Y649D01*
X3747Y649D02*
X3768Y649D01*
X3784Y649D02*
X3805Y649D01*
X797Y648D02*
X821Y648D01*
X831Y648D02*
X855Y648D01*
X1097Y648D02*
X1121Y648D01*
X1131Y648D02*
X1155Y648D01*
X3447Y648D02*
X3471Y648D01*
X3481Y648D02*
X3505Y648D01*
X3747Y648D02*
X3771Y648D01*
X3781Y648D02*
X3805Y648D01*
X797Y647D02*
X855Y647D01*
X1097Y647D02*
X1155Y647D01*
X3447Y647D02*
X3505Y647D01*
X3747Y647D02*
X3805Y647D01*
X797Y646D02*
X855Y646D01*
X1097Y646D02*
X1155Y646D01*
X3447Y646D02*
X3505Y646D01*
X3747Y646D02*
X3805Y646D01*
X797Y645D02*
X855Y645D01*
X1097Y645D02*
X1155Y645D01*
X3447Y645D02*
X3505Y645D01*
X3747Y645D02*
X3805Y645D01*
X797Y644D02*
X855Y644D01*
X1097Y644D02*
X1155Y644D01*
X3447Y644D02*
X3505Y644D01*
X3747Y644D02*
X3805Y644D01*
X797Y643D02*
X855Y643D01*
X1097Y643D02*
X1155Y643D01*
X3447Y643D02*
X3505Y643D01*
X3747Y643D02*
X3805Y643D01*
X797Y642D02*
X855Y642D01*
X1097Y642D02*
X1155Y642D01*
X3447Y642D02*
X3505Y642D01*
X3747Y642D02*
X3805Y642D01*
X797Y641D02*
X855Y641D01*
X1097Y641D02*
X1155Y641D01*
X3447Y641D02*
X3505Y641D01*
X3747Y641D02*
X3805Y641D01*
X797Y640D02*
X855Y640D01*
X1097Y640D02*
X1155Y640D01*
X3447Y640D02*
X3505Y640D01*
X3747Y640D02*
X3805Y640D01*
X797Y639D02*
X855Y639D01*
X1097Y639D02*
X1155Y639D01*
X3447Y639D02*
X3505Y639D01*
X3747Y639D02*
X3805Y639D01*
X797Y638D02*
X855Y638D01*
X1097Y638D02*
X1155Y638D01*
X3447Y638D02*
X3505Y638D01*
X3747Y638D02*
X3805Y638D01*
X797Y496D02*
X855Y496D01*
X1097Y496D02*
X1155Y496D01*
X3447Y496D02*
X3505Y496D01*
X3747Y496D02*
X3805Y496D01*
X797Y495D02*
X855Y495D01*
X1097Y495D02*
X1155Y495D01*
X3447Y495D02*
X3505Y495D01*
X3747Y495D02*
X3805Y495D01*
X797Y494D02*
X855Y494D01*
X1097Y494D02*
X1155Y494D01*
X3447Y494D02*
X3505Y494D01*
X3747Y494D02*
X3805Y494D01*
X797Y493D02*
X855Y493D01*
X1097Y493D02*
X1155Y493D01*
X3447Y493D02*
X3505Y493D01*
X3747Y493D02*
X3805Y493D01*
X797Y492D02*
X855Y492D01*
X1097Y492D02*
X1155Y492D01*
X3447Y492D02*
X3505Y492D01*
X3747Y492D02*
X3805Y492D01*
X797Y491D02*
X855Y491D01*
X1097Y491D02*
X1155Y491D01*
X3447Y491D02*
X3505Y491D01*
X3747Y491D02*
X3805Y491D01*
X797Y490D02*
X855Y490D01*
X1097Y490D02*
X1155Y490D01*
X3447Y490D02*
X3505Y490D01*
X3747Y490D02*
X3805Y490D01*
X797Y489D02*
X855Y489D01*
X1097Y489D02*
X1155Y489D01*
X3447Y489D02*
X3505Y489D01*
X3747Y489D02*
X3805Y489D01*
X797Y488D02*
X855Y488D01*
X1097Y488D02*
X1155Y488D01*
X3447Y488D02*
X3505Y488D01*
X3747Y488D02*
X3805Y488D01*
X797Y487D02*
X855Y487D01*
X1097Y487D02*
X1155Y487D01*
X3447Y487D02*
X3505Y487D01*
X3747Y487D02*
X3805Y487D01*
X797Y486D02*
X820Y486D01*
X832Y486D02*
X855Y486D01*
X1097Y486D02*
X1120Y486D01*
X1132Y486D02*
X1155Y486D01*
X3447Y486D02*
X3470Y486D01*
X3482Y486D02*
X3505Y486D01*
X3747Y486D02*
X3770Y486D01*
X3782Y486D02*
X3805Y486D01*
X797Y485D02*
X817Y485D01*
X835Y485D02*
X855Y485D01*
X1097Y485D02*
X1117Y485D01*
X1135Y485D02*
X1155Y485D01*
X3447Y485D02*
X3467Y485D01*
X3485Y485D02*
X3505Y485D01*
X3747Y485D02*
X3767Y485D01*
X3785Y485D02*
X3805Y485D01*
X797Y484D02*
X815Y484D01*
X837Y484D02*
X855Y484D01*
X1097Y484D02*
X1115Y484D01*
X1137Y484D02*
X1155Y484D01*
X3447Y484D02*
X3465Y484D01*
X3486Y484D02*
X3505Y484D01*
X3747Y484D02*
X3765Y484D01*
X3786Y484D02*
X3805Y484D01*
X797Y483D02*
X814Y483D01*
X838Y483D02*
X855Y483D01*
X1097Y483D02*
X1114Y483D01*
X1138Y483D02*
X1155Y483D01*
X3447Y483D02*
X3464Y483D01*
X3488Y483D02*
X3505Y483D01*
X3747Y483D02*
X3764Y483D01*
X3788Y483D02*
X3805Y483D01*
X797Y482D02*
X813Y482D01*
X839Y482D02*
X855Y482D01*
X1097Y482D02*
X1113Y482D01*
X1139Y482D02*
X1155Y482D01*
X3447Y482D02*
X3462Y482D01*
X3489Y482D02*
X3505Y482D01*
X3747Y482D02*
X3762Y482D01*
X3789Y482D02*
X3805Y482D01*
X797Y481D02*
X812Y481D01*
X841Y481D02*
X855Y481D01*
X1097Y481D02*
X1112Y481D01*
X1140Y481D02*
X1155Y481D01*
X3447Y481D02*
X3461Y481D01*
X3490Y481D02*
X3505Y481D01*
X3747Y481D02*
X3761Y481D01*
X3790Y481D02*
X3805Y481D01*
X797Y480D02*
X811Y480D01*
X841Y480D02*
X855Y480D01*
X1097Y480D02*
X1111Y480D01*
X1141Y480D02*
X1155Y480D01*
X3447Y480D02*
X3460Y480D01*
X3491Y480D02*
X3505Y480D01*
X3747Y480D02*
X3760Y480D01*
X3791Y480D02*
X3805Y480D01*
X797Y479D02*
X810Y479D01*
X842Y479D02*
X855Y479D01*
X1097Y479D02*
X1110Y479D01*
X1142Y479D02*
X1155Y479D01*
X3447Y479D02*
X3460Y479D01*
X3492Y479D02*
X3505Y479D01*
X3747Y479D02*
X3760Y479D01*
X3792Y479D02*
X3805Y479D01*
X797Y478D02*
X809Y478D01*
X843Y478D02*
X855Y478D01*
X1097Y478D02*
X1109Y478D01*
X1143Y478D02*
X1155Y478D01*
X3447Y478D02*
X3459Y478D01*
X3493Y478D02*
X3505Y478D01*
X3747Y478D02*
X3759Y478D01*
X3793Y478D02*
X3805Y478D01*
X797Y477D02*
X809Y477D01*
X843Y477D02*
X855Y477D01*
X1097Y477D02*
X1109Y477D01*
X1143Y477D02*
X1155Y477D01*
X3447Y477D02*
X3458Y477D01*
X3493Y477D02*
X3505Y477D01*
X3747Y477D02*
X3758Y477D01*
X3793Y477D02*
X3805Y477D01*
X797Y476D02*
X808Y476D01*
X844Y476D02*
X855Y476D01*
X1097Y476D02*
X1108Y476D01*
X1144Y476D02*
X1155Y476D01*
X3447Y476D02*
X3458Y476D01*
X3494Y476D02*
X3505Y476D01*
X3747Y476D02*
X3758Y476D01*
X3794Y476D02*
X3805Y476D01*
X797Y475D02*
X807Y475D01*
X845Y475D02*
X855Y475D01*
X1097Y475D02*
X1107Y475D01*
X1145Y475D02*
X1155Y475D01*
X3447Y475D02*
X3457Y475D01*
X3494Y475D02*
X3505Y475D01*
X3747Y475D02*
X3757Y475D01*
X3794Y475D02*
X3805Y475D01*
X797Y474D02*
X807Y474D01*
X845Y474D02*
X855Y474D01*
X1097Y474D02*
X1107Y474D01*
X1145Y474D02*
X1155Y474D01*
X3447Y474D02*
X3457Y474D01*
X3495Y474D02*
X3505Y474D01*
X3747Y474D02*
X3757Y474D01*
X3795Y474D02*
X3805Y474D01*
X797Y473D02*
X807Y473D01*
X845Y473D02*
X855Y473D01*
X1097Y473D02*
X1107Y473D01*
X1145Y473D02*
X1155Y473D01*
X3447Y473D02*
X3457Y473D01*
X3495Y473D02*
X3505Y473D01*
X3747Y473D02*
X3757Y473D01*
X3795Y473D02*
X3805Y473D01*
X797Y472D02*
X807Y472D01*
X846Y472D02*
X855Y472D01*
X1097Y472D02*
X1106Y472D01*
X1146Y472D02*
X1155Y472D01*
X3447Y472D02*
X3456Y472D01*
X3495Y472D02*
X3505Y472D01*
X3747Y472D02*
X3756Y472D01*
X3795Y472D02*
X3805Y472D01*
X797Y471D02*
X806Y471D01*
X846Y471D02*
X855Y471D01*
X1097Y471D02*
X1106Y471D01*
X1146Y471D02*
X1155Y471D01*
X3447Y471D02*
X3456Y471D01*
X3496Y471D02*
X3505Y471D01*
X3747Y471D02*
X3756Y471D01*
X3796Y471D02*
X3805Y471D01*
X797Y470D02*
X806Y470D01*
X846Y470D02*
X855Y470D01*
X1097Y470D02*
X1106Y470D01*
X1146Y470D02*
X1155Y470D01*
X3447Y470D02*
X3456Y470D01*
X3496Y470D02*
X3505Y470D01*
X3747Y470D02*
X3756Y470D01*
X3796Y470D02*
X3805Y470D01*
X797Y469D02*
X806Y469D01*
X846Y469D02*
X855Y469D01*
X1097Y469D02*
X1106Y469D01*
X1146Y469D02*
X1155Y469D01*
X3447Y469D02*
X3456Y469D01*
X3496Y469D02*
X3505Y469D01*
X3747Y469D02*
X3756Y469D01*
X3796Y469D02*
X3805Y469D01*
X797Y468D02*
X806Y468D01*
X846Y468D02*
X855Y468D01*
X1097Y468D02*
X1106Y468D01*
X1146Y468D02*
X1155Y468D01*
X3447Y468D02*
X3456Y468D01*
X3496Y468D02*
X3505Y468D01*
X3747Y468D02*
X3756Y468D01*
X3796Y468D02*
X3805Y468D01*
X797Y467D02*
X806Y467D01*
X846Y467D02*
X855Y467D01*
X1097Y467D02*
X1106Y467D01*
X1146Y467D02*
X1155Y467D01*
X3447Y467D02*
X3456Y467D01*
X3496Y467D02*
X3505Y467D01*
X3747Y467D02*
X3756Y467D01*
X3796Y467D02*
X3805Y467D01*
X797Y466D02*
X806Y466D01*
X846Y466D02*
X855Y466D01*
X1097Y466D02*
X1106Y466D01*
X1146Y466D02*
X1155Y466D01*
X3447Y466D02*
X3456Y466D01*
X3496Y466D02*
X3505Y466D01*
X3747Y466D02*
X3756Y466D01*
X3796Y466D02*
X3805Y466D01*
X797Y465D02*
X806Y465D01*
X846Y465D02*
X855Y465D01*
X1097Y465D02*
X1106Y465D01*
X1146Y465D02*
X1155Y465D01*
X3447Y465D02*
X3456Y465D01*
X3496Y465D02*
X3505Y465D01*
X3747Y465D02*
X3756Y465D01*
X3796Y465D02*
X3805Y465D01*
X797Y464D02*
X806Y464D01*
X846Y464D02*
X855Y464D01*
X1097Y464D02*
X1106Y464D01*
X1146Y464D02*
X1155Y464D01*
X3447Y464D02*
X3456Y464D01*
X3496Y464D02*
X3505Y464D01*
X3747Y464D02*
X3756Y464D01*
X3796Y464D02*
X3805Y464D01*
X797Y463D02*
X806Y463D01*
X846Y463D02*
X855Y463D01*
X1097Y463D02*
X1106Y463D01*
X1146Y463D02*
X1155Y463D01*
X3447Y463D02*
X3456Y463D01*
X3495Y463D02*
X3505Y463D01*
X3747Y463D02*
X3756Y463D01*
X3795Y463D02*
X3805Y463D01*
X797Y462D02*
X807Y462D01*
X845Y462D02*
X855Y462D01*
X1097Y462D02*
X1107Y462D01*
X1145Y462D02*
X1155Y462D01*
X3447Y462D02*
X3456Y462D01*
X3495Y462D02*
X3505Y462D01*
X3747Y462D02*
X3756Y462D01*
X3795Y462D02*
X3805Y462D01*
X797Y461D02*
X807Y461D01*
X845Y461D02*
X855Y461D01*
X1097Y461D02*
X1107Y461D01*
X1145Y461D02*
X1155Y461D01*
X3447Y461D02*
X3457Y461D01*
X3495Y461D02*
X3505Y461D01*
X3747Y461D02*
X3757Y461D01*
X3795Y461D02*
X3805Y461D01*
X797Y460D02*
X807Y460D01*
X845Y460D02*
X855Y460D01*
X1097Y460D02*
X1107Y460D01*
X1145Y460D02*
X1155Y460D01*
X3447Y460D02*
X3457Y460D01*
X3495Y460D02*
X3505Y460D01*
X3747Y460D02*
X3757Y460D01*
X3795Y460D02*
X3805Y460D01*
X797Y459D02*
X808Y459D01*
X844Y459D02*
X855Y459D01*
X1097Y459D02*
X1108Y459D01*
X1144Y459D02*
X1155Y459D01*
X3447Y459D02*
X3457Y459D01*
X3494Y459D02*
X3505Y459D01*
X3747Y459D02*
X3757Y459D01*
X3794Y459D02*
X3805Y459D01*
X797Y458D02*
X808Y458D01*
X844Y458D02*
X855Y458D01*
X1097Y458D02*
X1108Y458D01*
X1144Y458D02*
X1155Y458D01*
X3447Y458D02*
X3458Y458D01*
X3494Y458D02*
X3505Y458D01*
X3747Y458D02*
X3758Y458D01*
X3794Y458D02*
X3805Y458D01*
X797Y457D02*
X809Y457D01*
X843Y457D02*
X855Y457D01*
X1097Y457D02*
X1109Y457D01*
X1143Y457D02*
X1155Y457D01*
X3447Y457D02*
X3459Y457D01*
X3493Y457D02*
X3505Y457D01*
X3747Y457D02*
X3759Y457D01*
X3793Y457D02*
X3805Y457D01*
X797Y456D02*
X809Y456D01*
X843Y456D02*
X855Y456D01*
X1097Y456D02*
X1109Y456D01*
X1143Y456D02*
X1155Y456D01*
X3447Y456D02*
X3459Y456D01*
X3492Y456D02*
X3505Y456D01*
X3747Y456D02*
X3759Y456D01*
X3792Y456D02*
X3805Y456D01*
X797Y455D02*
X810Y455D01*
X842Y455D02*
X855Y455D01*
X1097Y455D02*
X1110Y455D01*
X1142Y455D02*
X1155Y455D01*
X3447Y455D02*
X3460Y455D01*
X3492Y455D02*
X3505Y455D01*
X3747Y455D02*
X3760Y455D01*
X3792Y455D02*
X3805Y455D01*
X797Y454D02*
X811Y454D01*
X841Y454D02*
X855Y454D01*
X1097Y454D02*
X1111Y454D01*
X1141Y454D02*
X1155Y454D01*
X3447Y454D02*
X3461Y454D01*
X3491Y454D02*
X3505Y454D01*
X3747Y454D02*
X3761Y454D01*
X3791Y454D02*
X3805Y454D01*
X797Y453D02*
X812Y453D01*
X840Y453D02*
X855Y453D01*
X1097Y453D02*
X1112Y453D01*
X1140Y453D02*
X1155Y453D01*
X3447Y453D02*
X3462Y453D01*
X3490Y453D02*
X3505Y453D01*
X3747Y453D02*
X3762Y453D01*
X3790Y453D02*
X3805Y453D01*
X797Y452D02*
X813Y452D01*
X839Y452D02*
X855Y452D01*
X1097Y452D02*
X1113Y452D01*
X1139Y452D02*
X1155Y452D01*
X3447Y452D02*
X3463Y452D01*
X3489Y452D02*
X3505Y452D01*
X3747Y452D02*
X3763Y452D01*
X3789Y452D02*
X3805Y452D01*
X797Y451D02*
X814Y451D01*
X838Y451D02*
X855Y451D01*
X1097Y451D02*
X1114Y451D01*
X1138Y451D02*
X1155Y451D01*
X3447Y451D02*
X3464Y451D01*
X3487Y451D02*
X3505Y451D01*
X3747Y451D02*
X3764Y451D01*
X3787Y451D02*
X3805Y451D01*
X797Y450D02*
X816Y450D01*
X836Y450D02*
X855Y450D01*
X1097Y450D02*
X1116Y450D01*
X1136Y450D02*
X1155Y450D01*
X3447Y450D02*
X3466Y450D01*
X3486Y450D02*
X3505Y450D01*
X3747Y450D02*
X3766Y450D01*
X3786Y450D02*
X3805Y450D01*
X797Y449D02*
X818Y449D01*
X834Y449D02*
X855Y449D01*
X1097Y449D02*
X1118Y449D01*
X1134Y449D02*
X1155Y449D01*
X3447Y449D02*
X3468Y449D01*
X3484Y449D02*
X3505Y449D01*
X3747Y449D02*
X3768Y449D01*
X3784Y449D02*
X3805Y449D01*
X797Y448D02*
X821Y448D01*
X831Y448D02*
X855Y448D01*
X1097Y448D02*
X1121Y448D01*
X1131Y448D02*
X1155Y448D01*
X3447Y448D02*
X3471Y448D01*
X3480Y448D02*
X3505Y448D01*
X3747Y448D02*
X3771Y448D01*
X3780Y448D02*
X3805Y448D01*
X797Y447D02*
X855Y447D01*
X1097Y447D02*
X1155Y447D01*
X3447Y447D02*
X3505Y447D01*
X3747Y447D02*
X3805Y447D01*
X797Y446D02*
X855Y446D01*
X1097Y446D02*
X1155Y446D01*
X3447Y446D02*
X3505Y446D01*
X3747Y446D02*
X3805Y446D01*
X797Y445D02*
X855Y445D01*
X1097Y445D02*
X1155Y445D01*
X3447Y445D02*
X3505Y445D01*
X3747Y445D02*
X3805Y445D01*
X797Y444D02*
X855Y444D01*
X1097Y444D02*
X1155Y444D01*
X3447Y444D02*
X3505Y444D01*
X3747Y444D02*
X3805Y444D01*
X797Y443D02*
X855Y443D01*
X1097Y443D02*
X1155Y443D01*
X3447Y443D02*
X3505Y443D01*
X3747Y443D02*
X3805Y443D01*
X797Y442D02*
X855Y442D01*
X1097Y442D02*
X1155Y442D01*
X3447Y442D02*
X3505Y442D01*
X3747Y442D02*
X3805Y442D01*
X797Y441D02*
X855Y441D01*
X1097Y441D02*
X1155Y441D01*
X3447Y441D02*
X3505Y441D01*
X3747Y441D02*
X3805Y441D01*
X797Y440D02*
X855Y440D01*
X1097Y440D02*
X1155Y440D01*
X3447Y440D02*
X3505Y440D01*
X3747Y440D02*
X3805Y440D01*
X797Y439D02*
X855Y439D01*
X1097Y439D02*
X1155Y439D01*
X3447Y439D02*
X3505Y439D01*
X3747Y439D02*
X3805Y439D01*
X797Y438D02*
X855Y438D01*
X1097Y438D02*
X1155Y438D01*
X3447Y438D02*
X3505Y438D01*
X3747Y438D02*
X3805Y438D01*
X797Y296D02*
X855Y296D01*
X1097Y296D02*
X1155Y296D01*
X3447Y296D02*
X3505Y296D01*
X3747Y296D02*
X3805Y296D01*
X797Y295D02*
X855Y295D01*
X1097Y295D02*
X1155Y295D01*
X3447Y295D02*
X3505Y295D01*
X3747Y295D02*
X3805Y295D01*
X797Y294D02*
X855Y294D01*
X1097Y294D02*
X1155Y294D01*
X3447Y294D02*
X3505Y294D01*
X3747Y294D02*
X3805Y294D01*
X797Y293D02*
X855Y293D01*
X1097Y293D02*
X1155Y293D01*
X3447Y293D02*
X3505Y293D01*
X3747Y293D02*
X3805Y293D01*
X797Y292D02*
X855Y292D01*
X1097Y292D02*
X1155Y292D01*
X3447Y292D02*
X3505Y292D01*
X3747Y292D02*
X3805Y292D01*
X797Y291D02*
X855Y291D01*
X1097Y291D02*
X1155Y291D01*
X3447Y291D02*
X3505Y291D01*
X3747Y291D02*
X3805Y291D01*
X797Y290D02*
X855Y290D01*
X1097Y290D02*
X1155Y290D01*
X3447Y290D02*
X3505Y290D01*
X3747Y290D02*
X3805Y290D01*
X797Y289D02*
X855Y289D01*
X1097Y289D02*
X1155Y289D01*
X3447Y289D02*
X3505Y289D01*
X3747Y289D02*
X3805Y289D01*
X797Y288D02*
X855Y288D01*
X1097Y288D02*
X1155Y288D01*
X3447Y288D02*
X3505Y288D01*
X3747Y288D02*
X3805Y288D01*
X797Y287D02*
X855Y287D01*
X1097Y287D02*
X1155Y287D01*
X3447Y287D02*
X3505Y287D01*
X3747Y287D02*
X3805Y287D01*
X797Y286D02*
X820Y286D01*
X832Y286D02*
X855Y286D01*
X1097Y286D02*
X1120Y286D01*
X1132Y286D02*
X1155Y286D01*
X3447Y286D02*
X3470Y286D01*
X3482Y286D02*
X3505Y286D01*
X3747Y286D02*
X3770Y286D01*
X3782Y286D02*
X3805Y286D01*
X797Y285D02*
X817Y285D01*
X835Y285D02*
X855Y285D01*
X1097Y285D02*
X1117Y285D01*
X1135Y285D02*
X1155Y285D01*
X3447Y285D02*
X3467Y285D01*
X3485Y285D02*
X3505Y285D01*
X3747Y285D02*
X3767Y285D01*
X3785Y285D02*
X3805Y285D01*
X797Y284D02*
X815Y284D01*
X837Y284D02*
X855Y284D01*
X1097Y284D02*
X1115Y284D01*
X1137Y284D02*
X1155Y284D01*
X3447Y284D02*
X3465Y284D01*
X3486Y284D02*
X3505Y284D01*
X3747Y284D02*
X3765Y284D01*
X3786Y284D02*
X3805Y284D01*
X797Y283D02*
X814Y283D01*
X838Y283D02*
X855Y283D01*
X1097Y283D02*
X1114Y283D01*
X1138Y283D02*
X1155Y283D01*
X3447Y283D02*
X3464Y283D01*
X3488Y283D02*
X3505Y283D01*
X3747Y283D02*
X3764Y283D01*
X3788Y283D02*
X3805Y283D01*
X797Y282D02*
X813Y282D01*
X839Y282D02*
X855Y282D01*
X1097Y282D02*
X1113Y282D01*
X1139Y282D02*
X1155Y282D01*
X3447Y282D02*
X3462Y282D01*
X3489Y282D02*
X3505Y282D01*
X3747Y282D02*
X3762Y282D01*
X3789Y282D02*
X3805Y282D01*
X797Y281D02*
X812Y281D01*
X841Y281D02*
X855Y281D01*
X1097Y281D02*
X1111Y281D01*
X1141Y281D02*
X1155Y281D01*
X3447Y281D02*
X3461Y281D01*
X3490Y281D02*
X3505Y281D01*
X3747Y281D02*
X3761Y281D01*
X3790Y281D02*
X3805Y281D01*
X797Y280D02*
X811Y280D01*
X841Y280D02*
X855Y280D01*
X1097Y280D02*
X1111Y280D01*
X1141Y280D02*
X1155Y280D01*
X3447Y280D02*
X3460Y280D01*
X3491Y280D02*
X3505Y280D01*
X3747Y280D02*
X3760Y280D01*
X3791Y280D02*
X3805Y280D01*
X797Y279D02*
X810Y279D01*
X842Y279D02*
X855Y279D01*
X1097Y279D02*
X1110Y279D01*
X1142Y279D02*
X1155Y279D01*
X3447Y279D02*
X3460Y279D01*
X3492Y279D02*
X3505Y279D01*
X3747Y279D02*
X3760Y279D01*
X3792Y279D02*
X3805Y279D01*
X797Y278D02*
X809Y278D01*
X843Y278D02*
X855Y278D01*
X1097Y278D02*
X1109Y278D01*
X1143Y278D02*
X1155Y278D01*
X3447Y278D02*
X3459Y278D01*
X3493Y278D02*
X3505Y278D01*
X3747Y278D02*
X3759Y278D01*
X3793Y278D02*
X3805Y278D01*
X797Y277D02*
X809Y277D01*
X844Y277D02*
X855Y277D01*
X1097Y277D02*
X1109Y277D01*
X1143Y277D02*
X1155Y277D01*
X3447Y277D02*
X3458Y277D01*
X3493Y277D02*
X3505Y277D01*
X3747Y277D02*
X3758Y277D01*
X3793Y277D02*
X3805Y277D01*
X797Y276D02*
X808Y276D01*
X844Y276D02*
X855Y276D01*
X1097Y276D02*
X1108Y276D01*
X1144Y276D02*
X1155Y276D01*
X3447Y276D02*
X3458Y276D01*
X3494Y276D02*
X3505Y276D01*
X3747Y276D02*
X3758Y276D01*
X3794Y276D02*
X3805Y276D01*
X797Y275D02*
X807Y275D01*
X845Y275D02*
X855Y275D01*
X1097Y275D02*
X1107Y275D01*
X1145Y275D02*
X1155Y275D01*
X3447Y275D02*
X3457Y275D01*
X3494Y275D02*
X3505Y275D01*
X3747Y275D02*
X3757Y275D01*
X3794Y275D02*
X3805Y275D01*
X797Y274D02*
X807Y274D01*
X845Y274D02*
X855Y274D01*
X1097Y274D02*
X1107Y274D01*
X1145Y274D02*
X1155Y274D01*
X3447Y274D02*
X3457Y274D01*
X3495Y274D02*
X3505Y274D01*
X3747Y274D02*
X3757Y274D01*
X3795Y274D02*
X3805Y274D01*
X797Y273D02*
X807Y273D01*
X845Y273D02*
X855Y273D01*
X1097Y273D02*
X1107Y273D01*
X1145Y273D02*
X1155Y273D01*
X3447Y273D02*
X3457Y273D01*
X3495Y273D02*
X3505Y273D01*
X3747Y273D02*
X3757Y273D01*
X3795Y273D02*
X3805Y273D01*
X797Y272D02*
X806Y272D01*
X846Y272D02*
X855Y272D01*
X1097Y272D02*
X1106Y272D01*
X1146Y272D02*
X1155Y272D01*
X3447Y272D02*
X3456Y272D01*
X3495Y272D02*
X3505Y272D01*
X3747Y272D02*
X3756Y272D01*
X3795Y272D02*
X3805Y272D01*
X797Y271D02*
X806Y271D01*
X846Y271D02*
X855Y271D01*
X1097Y271D02*
X1106Y271D01*
X1146Y271D02*
X1155Y271D01*
X3447Y271D02*
X3456Y271D01*
X3496Y271D02*
X3505Y271D01*
X3747Y271D02*
X3756Y271D01*
X3796Y271D02*
X3805Y271D01*
X797Y270D02*
X806Y270D01*
X846Y270D02*
X855Y270D01*
X1097Y270D02*
X1106Y270D01*
X1146Y270D02*
X1155Y270D01*
X3447Y270D02*
X3456Y270D01*
X3496Y270D02*
X3505Y270D01*
X3747Y270D02*
X3756Y270D01*
X3796Y270D02*
X3805Y270D01*
X797Y269D02*
X806Y269D01*
X846Y269D02*
X855Y269D01*
X1097Y269D02*
X1106Y269D01*
X1146Y269D02*
X1155Y269D01*
X3447Y269D02*
X3456Y269D01*
X3496Y269D02*
X3505Y269D01*
X3747Y269D02*
X3756Y269D01*
X3796Y269D02*
X3805Y269D01*
X797Y268D02*
X806Y268D01*
X846Y268D02*
X855Y268D01*
X1097Y268D02*
X1106Y268D01*
X1146Y268D02*
X1155Y268D01*
X3447Y268D02*
X3456Y268D01*
X3496Y268D02*
X3505Y268D01*
X3747Y268D02*
X3756Y268D01*
X3796Y268D02*
X3805Y268D01*
X797Y267D02*
X806Y267D01*
X846Y267D02*
X855Y267D01*
X1097Y267D02*
X1106Y267D01*
X1146Y267D02*
X1155Y267D01*
X3447Y267D02*
X3456Y267D01*
X3496Y267D02*
X3505Y267D01*
X3747Y267D02*
X3756Y267D01*
X3796Y267D02*
X3805Y267D01*
X797Y266D02*
X806Y266D01*
X846Y266D02*
X855Y266D01*
X1097Y266D02*
X1106Y266D01*
X1146Y266D02*
X1155Y266D01*
X3447Y266D02*
X3456Y266D01*
X3496Y266D02*
X3505Y266D01*
X3747Y266D02*
X3756Y266D01*
X3796Y266D02*
X3805Y266D01*
X797Y265D02*
X806Y265D01*
X846Y265D02*
X855Y265D01*
X1097Y265D02*
X1106Y265D01*
X1146Y265D02*
X1155Y265D01*
X3447Y265D02*
X3456Y265D01*
X3496Y265D02*
X3505Y265D01*
X3747Y265D02*
X3756Y265D01*
X3796Y265D02*
X3805Y265D01*
X797Y264D02*
X806Y264D01*
X846Y264D02*
X855Y264D01*
X1097Y264D02*
X1106Y264D01*
X1146Y264D02*
X1155Y264D01*
X3447Y264D02*
X3456Y264D01*
X3496Y264D02*
X3505Y264D01*
X3747Y264D02*
X3756Y264D01*
X3796Y264D02*
X3805Y264D01*
X797Y263D02*
X806Y263D01*
X846Y263D02*
X855Y263D01*
X1097Y263D02*
X1106Y263D01*
X1146Y263D02*
X1155Y263D01*
X3447Y263D02*
X3456Y263D01*
X3495Y263D02*
X3505Y263D01*
X3747Y263D02*
X3756Y263D01*
X3795Y263D02*
X3805Y263D01*
X797Y262D02*
X807Y262D01*
X845Y262D02*
X855Y262D01*
X1097Y262D02*
X1107Y262D01*
X1145Y262D02*
X1155Y262D01*
X3447Y262D02*
X3456Y262D01*
X3495Y262D02*
X3505Y262D01*
X3747Y262D02*
X3756Y262D01*
X3795Y262D02*
X3805Y262D01*
X797Y261D02*
X807Y261D01*
X845Y261D02*
X855Y261D01*
X1097Y261D02*
X1107Y261D01*
X1145Y261D02*
X1155Y261D01*
X3447Y261D02*
X3457Y261D01*
X3495Y261D02*
X3505Y261D01*
X3747Y261D02*
X3757Y261D01*
X3795Y261D02*
X3805Y261D01*
X797Y260D02*
X807Y260D01*
X845Y260D02*
X855Y260D01*
X1097Y260D02*
X1107Y260D01*
X1145Y260D02*
X1155Y260D01*
X3447Y260D02*
X3457Y260D01*
X3495Y260D02*
X3505Y260D01*
X3747Y260D02*
X3757Y260D01*
X3795Y260D02*
X3805Y260D01*
X797Y259D02*
X808Y259D01*
X844Y259D02*
X855Y259D01*
X1097Y259D02*
X1108Y259D01*
X1144Y259D02*
X1155Y259D01*
X3447Y259D02*
X3457Y259D01*
X3494Y259D02*
X3505Y259D01*
X3747Y259D02*
X3757Y259D01*
X3794Y259D02*
X3805Y259D01*
X797Y258D02*
X808Y258D01*
X844Y258D02*
X855Y258D01*
X1097Y258D02*
X1108Y258D01*
X1144Y258D02*
X1155Y258D01*
X3447Y258D02*
X3458Y258D01*
X3494Y258D02*
X3505Y258D01*
X3747Y258D02*
X3758Y258D01*
X3794Y258D02*
X3805Y258D01*
X797Y257D02*
X809Y257D01*
X843Y257D02*
X855Y257D01*
X1097Y257D02*
X1109Y257D01*
X1143Y257D02*
X1155Y257D01*
X3447Y257D02*
X3459Y257D01*
X3493Y257D02*
X3505Y257D01*
X3747Y257D02*
X3759Y257D01*
X3793Y257D02*
X3805Y257D01*
X797Y256D02*
X809Y256D01*
X843Y256D02*
X855Y256D01*
X1097Y256D02*
X1109Y256D01*
X1143Y256D02*
X1155Y256D01*
X3447Y256D02*
X3459Y256D01*
X3492Y256D02*
X3505Y256D01*
X3747Y256D02*
X3759Y256D01*
X3792Y256D02*
X3805Y256D01*
X797Y255D02*
X810Y255D01*
X842Y255D02*
X855Y255D01*
X1097Y255D02*
X1110Y255D01*
X1142Y255D02*
X1155Y255D01*
X3447Y255D02*
X3460Y255D01*
X3492Y255D02*
X3505Y255D01*
X3747Y255D02*
X3760Y255D01*
X3792Y255D02*
X3805Y255D01*
X797Y254D02*
X811Y254D01*
X841Y254D02*
X855Y254D01*
X1097Y254D02*
X1111Y254D01*
X1141Y254D02*
X1155Y254D01*
X3447Y254D02*
X3461Y254D01*
X3491Y254D02*
X3505Y254D01*
X3747Y254D02*
X3761Y254D01*
X3791Y254D02*
X3805Y254D01*
X797Y253D02*
X812Y253D01*
X840Y253D02*
X855Y253D01*
X1097Y253D02*
X1112Y253D01*
X1140Y253D02*
X1155Y253D01*
X3447Y253D02*
X3462Y253D01*
X3490Y253D02*
X3505Y253D01*
X3747Y253D02*
X3762Y253D01*
X3790Y253D02*
X3805Y253D01*
X797Y252D02*
X813Y252D01*
X839Y252D02*
X855Y252D01*
X1097Y252D02*
X1113Y252D01*
X1139Y252D02*
X1155Y252D01*
X3447Y252D02*
X3463Y252D01*
X3489Y252D02*
X3505Y252D01*
X3747Y252D02*
X3763Y252D01*
X3789Y252D02*
X3805Y252D01*
X797Y251D02*
X814Y251D01*
X838Y251D02*
X855Y251D01*
X1097Y251D02*
X1114Y251D01*
X1138Y251D02*
X1155Y251D01*
X3447Y251D02*
X3464Y251D01*
X3487Y251D02*
X3505Y251D01*
X3747Y251D02*
X3764Y251D01*
X3787Y251D02*
X3805Y251D01*
X797Y250D02*
X816Y250D01*
X836Y250D02*
X855Y250D01*
X1097Y250D02*
X1116Y250D01*
X1136Y250D02*
X1155Y250D01*
X3447Y250D02*
X3466Y250D01*
X3486Y250D02*
X3505Y250D01*
X3747Y250D02*
X3766Y250D01*
X3786Y250D02*
X3805Y250D01*
X797Y249D02*
X818Y249D01*
X834Y249D02*
X855Y249D01*
X1097Y249D02*
X1118Y249D01*
X1134Y249D02*
X1155Y249D01*
X3447Y249D02*
X3468Y249D01*
X3484Y249D02*
X3505Y249D01*
X3747Y249D02*
X3768Y249D01*
X3784Y249D02*
X3805Y249D01*
X797Y248D02*
X821Y248D01*
X831Y248D02*
X855Y248D01*
X1097Y248D02*
X1121Y248D01*
X1131Y248D02*
X1155Y248D01*
X3447Y248D02*
X3471Y248D01*
X3480Y248D02*
X3505Y248D01*
X3747Y248D02*
X3771Y248D01*
X3780Y248D02*
X3805Y248D01*
X797Y247D02*
X855Y247D01*
X1097Y247D02*
X1155Y247D01*
X3447Y247D02*
X3505Y247D01*
X3747Y247D02*
X3805Y247D01*
X797Y246D02*
X855Y246D01*
X1097Y246D02*
X1155Y246D01*
X3447Y246D02*
X3505Y246D01*
X3747Y246D02*
X3805Y246D01*
X797Y245D02*
X855Y245D01*
X1097Y245D02*
X1155Y245D01*
X3447Y245D02*
X3505Y245D01*
X3747Y245D02*
X3805Y245D01*
X797Y244D02*
X855Y244D01*
X1097Y244D02*
X1155Y244D01*
X3447Y244D02*
X3505Y244D01*
X3747Y244D02*
X3805Y244D01*
X797Y243D02*
X855Y243D01*
X1097Y243D02*
X1155Y243D01*
X3447Y243D02*
X3505Y243D01*
X3747Y243D02*
X3805Y243D01*
X797Y242D02*
X855Y242D01*
X1097Y242D02*
X1155Y242D01*
X3447Y242D02*
X3505Y242D01*
X3747Y242D02*
X3805Y242D01*
X797Y241D02*
X855Y241D01*
X1097Y241D02*
X1155Y241D01*
X3447Y241D02*
X3505Y241D01*
X3747Y241D02*
X3805Y241D01*
X797Y240D02*
X855Y240D01*
X1097Y240D02*
X1155Y240D01*
X3447Y240D02*
X3505Y240D01*
X3747Y240D02*
X3805Y240D01*
X797Y239D02*
X855Y239D01*
X1097Y239D02*
X1155Y239D01*
X3447Y239D02*
X3505Y239D01*
X3747Y239D02*
X3805Y239D01*
X797Y238D02*
X855Y238D01*
X1097Y238D02*
X1155Y238D01*
X3447Y238D02*
X3505Y238D01*
X3747Y238D02*
X3805Y238D01*
D02*
G04 End of Copper0*
M02*