G04 DipTrace 3.2.0.0*
G04 BottomMask.gbr*
%MOMM*%
G04 #@! TF.FileFunction,Soldermask,Bot*
G04 #@! TF.Part,Single*
%ADD13C,2.2352*%
%ADD14C,2.159*%
%ADD19C,0.9652*%
%ADD20C,0.889*%
%FSLAX35Y35*%
G04*
G71*
G90*
G75*
G01*
G04 BotMask*
%LPD*%
D19*
X566166Y693928D3*
X4122166Y1963928D3*
X7678166Y1201928D3*
X5900166Y1963928D3*
X5392166Y693928D3*
X2344166Y1455928D3*
X566166Y1201928D3*
X4630166Y693928D3*
X4122166Y1201928D3*
X820166Y693928D3*
X7678166Y1455928D3*
X566166D3*
X7678166Y1963928D3*
X9456166D3*
X566166Y1709928D3*
X9456166Y1455928D3*
X7678166Y1709928D3*
X5138166Y693928D3*
X4122166Y1709928D3*
X5900166Y1455928D3*
X9456166Y1709928D3*
X5646166Y693928D3*
X4122166Y1455928D3*
X4884166Y693928D3*
X2344166Y1709928D3*
X5900166Y1201928D3*
Y1709928D3*
X4376166Y693928D3*
X2344166Y1963928D3*
X566166D3*
X2344166Y1201928D3*
X9456166D3*
D20*
X3614166Y1709928D3*
X7297166Y2217928D3*
X1709166Y693928D3*
X8567166Y1709928D3*
X1709166D3*
X9075166Y2217928D3*
X2725166D3*
X4503166D3*
X6408166Y439928D3*
X8313166Y1709928D3*
X947166Y1201928D3*
X6408166Y1709928D3*
X3614166Y439928D3*
X7297166Y1201928D3*
X2725166D3*
X947166Y2217928D3*
X8313166Y693928D3*
X9075166Y1201928D3*
X8567166Y693928D3*
X1328166Y1709928D3*
Y693928D3*
X5519166Y1201928D3*
X4503166D3*
X5519166Y2217928D3*
D13*
X9456420Y1963420D3*
Y1709420D3*
Y1455420D3*
Y1201420D3*
X7678420Y1963420D3*
Y1709420D3*
Y1455420D3*
Y1201420D3*
X5900420Y1963420D3*
Y1709420D3*
Y1455420D3*
Y1201420D3*
X4122420Y1963420D3*
Y1709420D3*
Y1455420D3*
Y1201420D3*
X2344420Y1963420D3*
Y1709420D3*
Y1455420D3*
Y1201420D3*
X566420Y1963420D3*
Y1709420D3*
Y1455420D3*
Y1201420D3*
D14*
X8567420Y693420D3*
Y1709420D3*
X8313420Y693420D3*
Y1709420D3*
X6408420Y439420D3*
Y1709420D3*
X9075420Y1201420D3*
Y2217420D3*
X7297420Y1201420D3*
Y2217420D3*
X5519420Y1201420D3*
Y2217420D3*
X4503420Y1201420D3*
Y2217420D3*
X2725420Y1201420D3*
Y2217420D3*
X947420Y1201420D3*
Y2217420D3*
X3614420Y439420D3*
Y1709420D3*
X1709420Y693420D3*
Y1709420D3*
X1328420Y693420D3*
Y1709420D3*
D13*
X4376420Y693420D3*
X4630420D3*
X4884420D3*
X5138420D3*
X5392420D3*
X5646420D3*
X566420D3*
X820420D3*
M02*
