M48
INCH
T01C0.035
T02C0.038
%
T02
X+002229Y+002732
X+016229Y+007732
X+030229Y+004732
X+023229Y+007732
X+021229Y+002732
X+009229Y+005732
X+002229Y+004732
X+018229Y+002732
X+016229Y+004732
X+003229Y+002732
X+030229Y+005732
X+002229Y+005732
X+030229Y+007732
X+037229Y+007732
X+002229Y+006732
X+037229Y+005732
X+030229Y+006732
X+020229Y+002732
X+016229Y+006732
X+023229Y+005732
X+037229Y+006732
X+022229Y+002732
X+016229Y+005732
X+019229Y+002732
X+009229Y+006732
X+023229Y+004732
X+023229Y+006732
X+017229Y+002732
X+009229Y+007732
X+002229Y+007732
X+009229Y+004732
X+037229Y+004732
T01
X+014229Y+006732
X+028729Y+008732
X+006729Y+002732
X+033729Y+006732
X+006729Y+006732
X+035729Y+008732
X+010729Y+008732
X+017729Y+008732
X+025229Y+001732
X+032729Y+006732
X+003729Y+004732
X+025229Y+006732
X+014229Y+001732
X+028729Y+004732
X+010729Y+004732
X+003729Y+008732
X+032729Y+002732
X+035729Y+004732
X+033729Y+002732
X+005229Y+006732
X+005229Y+002732
X+021729Y+004732
X+017729Y+004732
X+021729Y+008732
T00
M30
