G04 DipTrace 3.2.0.0*
G04 TopMask.gbr*
%MOMM*%
G04 #@! TF.FileFunction,Soldermask,Top*
G04 #@! TF.Part,Single*
%ADD19C,0.9652*%
%ADD20C,0.889*%
%FSLAX35Y35*%
G04*
G71*
G90*
G75*
G01*
G04 TopMask*
%LPD*%
D19*
X566166Y693928D3*
X4122166Y1963928D3*
X7678166Y1201928D3*
X5900166Y1963928D3*
X5392166Y693928D3*
X2344166Y1455928D3*
X566166Y1201928D3*
X4630166Y693928D3*
X4122166Y1201928D3*
X820166Y693928D3*
X7678166Y1455928D3*
X566166D3*
X7678166Y1963928D3*
X9456166D3*
X566166Y1709928D3*
X9456166Y1455928D3*
X7678166Y1709928D3*
X5138166Y693928D3*
X4122166Y1709928D3*
X5900166Y1455928D3*
X9456166Y1709928D3*
X5646166Y693928D3*
X4122166Y1455928D3*
X4884166Y693928D3*
X2344166Y1709928D3*
X5900166Y1201928D3*
Y1709928D3*
X4376166Y693928D3*
X2344166Y1963928D3*
X566166D3*
X2344166Y1201928D3*
X9456166D3*
D20*
X3614166Y1709928D3*
X7297166Y2217928D3*
X1709166Y693928D3*
X8567166Y1709928D3*
X1709166D3*
X9075166Y2217928D3*
X2725166D3*
X4503166D3*
X6408166Y439928D3*
X8313166Y1709928D3*
X947166Y1201928D3*
X6408166Y1709928D3*
X3614166Y439928D3*
X7297166Y1201928D3*
X2725166D3*
X947166Y2217928D3*
X8313166Y693928D3*
X9075166Y1201928D3*
X8567166Y693928D3*
X1328166Y1709928D3*
Y693928D3*
X5519166Y1201928D3*
X4503166D3*
X5519166Y2217928D3*
M02*
